solid CATIA STL
  facet normal  2.004247e-001  8.538728e-002  9.759810e-001
    outer loop
      vertex -3.121587e+001  3.522343e-015 -1.917474e+001
      vertex -3.121587e+001 -3.329659e+000 -1.888343e+001
      vertex -3.922944e+000  3.984853e-015 -2.477954e+001
    endloop
  endfacet
  facet normal  2.006508e-001  8.370893e-002  9.760799e-001
    outer loop
      vertex -3.922944e+000  3.984853e-015 -2.477954e+001
      vertex -3.121587e+001 -3.329659e+000 -1.888343e+001
      vertex -3.413449e+000 -4.235755e+000 -2.452101e+001
    endloop
  endfacet
  facet normal  2.001643e-001  2.535810e-001  9.463778e-001
    outer loop
      vertex -3.121587e+001 -3.329659e+000 -1.888343e+001
      vertex -3.121587e+001 -6.558147e+000 -1.801836e+001
      vertex -3.413449e+000 -4.235755e+000 -2.452101e+001
    endloop
  endfacet
  facet normal  2.003951e-001  2.519216e-001  9.467720e-001
    outer loop
      vertex -3.413449e+000 -4.235755e+000 -2.452101e+001
      vertex -3.121587e+001 -6.558147e+000 -1.801836e+001
      vertex -1.790359e+000 -8.624886e+000 -2.369668e+001
    endloop
  endfacet
  facet normal  4.714267e-001 -2.526547e-001 -8.449392e-001
    outer loop
      vertex -1.345532e+000 -8.689224e+000 -2.387345e+001
      vertex -3.935610e+000 -9.163576e+000 -2.517672e+001
      vertex -2.144880e+000 -5.941061e+000 -2.514120e+001
    endloop
  endfacet
  facet normal  4.434717e-001 -2.369057e-001 -8.644123e-001
    outer loop
      vertex -2.144880e+000 -5.941061e+000 -2.514120e+001
      vertex -3.935610e+000 -9.163576e+000 -2.517672e+001
      vertex -3.935610e+000 -4.952845e+000 -2.633073e+001
    endloop
  endfacet
  facet normal  4.837798e-001 -1.592500e-001 -8.605792e-001
    outer loop
      vertex -2.144880e+000 -5.941061e+000 -2.514120e+001
      vertex -3.935610e+000 -4.952845e+000 -2.633073e+001
      vertex -2.805664e+000 -3.763766e+000 -2.591557e+001
    endloop
  endfacet
  facet normal  4.700766e-001 -9.194398e-002 -8.778237e-001
    outer loop
      vertex -3.935610e+000 -6.105929e-001 -2.678555e+001
      vertex -3.547171e+000 -6.111189e-001 -2.657748e+001
      vertex -3.935610e+000 -4.952845e+000 -2.633073e+001
    endloop
  endfacet
  facet normal  2.954229e-001 -8.053196e-002 -9.519663e-001
    outer loop
      vertex -3.935610e+000 -4.952845e+000 -2.633073e+001
      vertex -3.547171e+000 -6.111189e-001 -2.657748e+001
      vertex -3.370756e+000 -1.500000e+000 -2.644754e+001
    endloop
  endfacet
  facet normal  4.354547e-001 -1.014949e-001 -8.944709e-001
    outer loop
      vertex -3.935610e+000 -4.952845e+000 -2.633073e+001
      vertex -3.370756e+000 -1.500000e+000 -2.644754e+001
      vertex -2.805664e+000 -3.763766e+000 -2.591557e+001
    endloop
  endfacet
  facet normal -9.741530e-001 -1.968753e-002 -2.250297e-001
    outer loop
      vertex -3.190684e+001 -1.500000e+000 -2.099490e+001
      vertex -3.192569e+001 -3.654346e+000 -2.072483e+001
      vertex -3.192569e+001  3.865819e-015 -2.104454e+001
    endloop
  endfacet
  facet normal -2.000899e-001 -1.201468e-001 -9.723831e-001
    outer loop
      vertex -3.190684e+001 -1.500000e+000 -2.099490e+001
      vertex -5.409416e+000 -1.500000e+000 -2.644734e+001
      vertex -3.192569e+001 -3.654346e+000 -2.072483e+001
    endloop
  endfacet
  facet normal -2.005174e-001 -2.589503e-001 -9.448478e-001
    outer loop
      vertex -3.935610e+000 -4.952845e+000 -2.633073e+001
      vertex -3.935610e+000 -9.163576e+000 -2.517672e+001
      vertex -3.192569e+001 -7.197657e+000 -1.977540e+001
    endloop
  endfacet
  facet normal -2.012602e-001 -2.535234e-001 -9.461609e-001
    outer loop
      vertex -3.935610e+000 -4.952845e+000 -2.633073e+001
      vertex -3.192569e+001 -7.197657e+000 -1.977540e+001
      vertex -3.192569e+001 -3.654346e+000 -2.072483e+001
    endloop
  endfacet
  facet normal -2.002771e-001 -1.183314e-001 -9.725671e-001
    outer loop
      vertex -3.935610e+000 -4.952845e+000 -2.633073e+001
      vertex -3.192569e+001 -3.654346e+000 -2.072483e+001
      vertex -5.409416e+000 -1.500000e+000 -2.644734e+001
    endloop
  endfacet
  facet normal -1.906421e-001 -1.143005e-001 -9.749826e-001
    outer loop
      vertex -3.935610e+000 -4.952845e+000 -2.633073e+001
      vertex -5.409416e+000 -1.500000e+000 -2.644734e+001
      vertex -4.712835e+000 -1.387654e+000 -2.659672e+001
    endloop
  endfacet
  facet normal -1.634715e-001 -1.087912e-001 -9.805313e-001
    outer loop
      vertex -3.935610e+000 -4.952845e+000 -2.633073e+001
      vertex -4.712835e+000 -1.387654e+000 -2.659672e+001
      vertex -4.176281e+000 -1.066495e+000 -2.672181e+001
    endloop
  endfacet
  facet normal -9.638992e-002 -1.055626e-001 -9.897300e-001
    outer loop
      vertex -3.935610e+000 -4.952845e+000 -2.633073e+001
      vertex -4.176281e+000 -1.066495e+000 -2.672181e+001
      vertex -3.977118e+000 -7.689314e-001 -2.677294e+001
    endloop
  endfacet
  facet normal  9.490590e-002 -1.037008e-001 -9.900703e-001
    outer loop
      vertex -3.935610e+000 -4.952845e+000 -2.633073e+001
      vertex -3.977118e+000 -7.689314e-001 -2.677294e+001
      vertex -3.935610e+000 -6.105929e-001 -2.678555e+001
    endloop
  endfacet
  facet normal  2.219605e-008 -9.396926e-001  3.420203e-001
    outer loop
      vertex -3.935610e+000 -9.163576e+000 -2.517672e+001
      vertex -1.345532e+000 -8.689224e+000 -2.387345e+001
      vertex -3.192569e+001 -7.197657e+000 -1.977540e+001
    endloop
  endfacet
  facet normal -1.250675e-007 -9.396932e-001  3.420186e-001
    outer loop
      vertex -3.192569e+001 -7.197657e+000 -1.977540e+001
      vertex -1.345532e+000 -8.689224e+000 -2.387345e+001
      vertex -1.790359e+000 -8.624886e+000 -2.369668e+001
    endloop
  endfacet
  facet normal  0.000000e+000 -9.396926e-001  3.420202e-001
    outer loop
      vertex -3.192569e+001 -7.197657e+000 -1.977540e+001
      vertex -1.790359e+000 -8.624886e+000 -2.369668e+001
      vertex -3.121587e+001 -6.558147e+000 -1.801836e+001
    endloop
  endfacet
  facet normal -9.344502e-001  3.103559e-002  3.547387e-001
    outer loop
      vertex -3.192569e+001  3.865819e-015 -2.104454e+001
      vertex -3.192569e+001 -3.654346e+000 -2.072483e+001
      vertex -3.121587e+001  3.522343e-015 -1.917474e+001
    endloop
  endfacet
  facet normal -9.344503e-001  3.103562e-002  3.547387e-001
    outer loop
      vertex -3.121587e+001  3.522343e-015 -1.917474e+001
      vertex -3.192569e+001 -3.654346e+000 -2.072483e+001
      vertex -3.121587e+001 -3.329659e+000 -1.888343e+001
    endloop
  endfacet
  facet normal -9.344503e-001  9.216394e-002  3.439600e-001
    outer loop
      vertex -3.192569e+001 -3.654346e+000 -2.072483e+001
      vertex -3.192569e+001 -7.197657e+000 -1.977540e+001
      vertex -3.121587e+001 -3.329659e+000 -1.888343e+001
    endloop
  endfacet
  facet normal -9.344501e-001  9.216385e-002  3.439604e-001
    outer loop
      vertex -3.121587e+001 -3.329659e+000 -1.888343e+001
      vertex -3.192569e+001 -7.197657e+000 -1.977540e+001
      vertex -3.121587e+001 -6.558147e+000 -1.801836e+001
    endloop
  endfacet
  facet normal  0.000000e+000 -1.000000e+000  0.000000e+000
    outer loop
      vertex -4.092080e+001 -1.500000e+000 -4.499267e+001
      vertex -4.080445e+001 -1.500000e+000 -4.540037e+001
      vertex -4.085778e+001 -1.500000e+000 -4.457340e+001
    endloop
  endfacet
  facet normal  0.000000e+000 -1.000000e+000  0.000000e+000
    outer loop
      vertex -4.085778e+001 -1.500000e+000 -4.457340e+001
      vertex -4.080445e+001 -1.500000e+000 -4.540037e+001
      vertex -5.409416e+000 -1.500000e+000 -2.644734e+001
    endloop
  endfacet
  facet normal  -0.000000e+000 -1.000000e+000  0.000000e+000
    outer loop
      vertex -4.085778e+001 -1.500000e+000 -4.457340e+001
      vertex -5.409416e+000 -1.500000e+000 -2.644734e+001
      vertex -3.190684e+001 -1.500000e+000 -2.099490e+001
    endloop
  endfacet
  facet normal  7.538888e-001  3.400474e-002 -6.561214e-001
    outer loop
      vertex -3.231323e+000  4.007073e-015 -2.620959e+001
      vertex -2.805664e+000 -3.763766e+000 -2.591557e+001
      vertex -3.370756e+000 -1.500000e+000 -2.644754e+001
    endloop
  endfacet
  facet normal  9.821965e-001  9.858872e-002 -1.599069e-001
    outer loop
      vertex -2.805664e+000 -3.763766e+000 -2.591557e+001
      vertex -3.231323e+000  4.007073e-015 -2.620959e+001
      vertex -3.134531e+000  3.882643e-015 -2.561506e+001
    endloop
  endfacet
  facet normal  9.962022e-001  8.591735e-002  1.412505e-002
    outer loop
      vertex -2.785671e+000 -4.148061e+000 -2.498816e+001
      vertex -2.805664e+000 -3.763766e+000 -2.591557e+001
      vertex -3.134531e+000  3.882643e-015 -2.561506e+001
    endloop
  endfacet
  facet normal  9.385175e-001  3.256219e-001  1.146958e-001
    outer loop
      vertex -2.785671e+000 -4.148061e+000 -2.498816e+001
      vertex -2.144880e+000 -5.941061e+000 -2.514120e+001
      vertex -2.805664e+000 -3.763766e+000 -2.591557e+001
    endloop
  endfacet
  facet normal  8.913624e-001  1.401170e-001  4.310921e-001
    outer loop
      vertex -3.396790e+000  3.874218e-015 -2.507279e+001
      vertex -2.785671e+000 -4.148061e+000 -2.498816e+001
      vertex -3.134531e+000  3.882643e-015 -2.561506e+001
    endloop
  endfacet
  facet normal  9.385579e-001  3.256782e-001  1.142047e-001
    outer loop
      vertex -2.144880e+000 -5.941061e+000 -2.514120e+001
      vertex -2.785671e+000 -4.148061e+000 -2.498816e+001
      vertex -1.345532e+000 -8.689224e+000 -2.387345e+001
    endloop
  endfacet
  facet normal  7.221605e-001  4.239572e-002 -6.904250e-001
    outer loop
      vertex -3.370756e+000 -1.500000e+000 -2.644754e+001
      vertex -3.547171e+000 -6.111189e-001 -2.657748e+001
      vertex -3.231323e+000  4.007073e-015 -2.620959e+001
    endloop
  endfacet
  facet normal  6.244375e-001  1.398725e-001 -7.684488e-001
    outer loop
      vertex -3.231323e+000  4.007073e-015 -2.620959e+001
      vertex -3.547171e+000 -6.111189e-001 -2.657748e+001
      vertex -3.645506e+000 -5.000000e-001 -2.663716e+001
    endloop
  endfacet
  facet normal  7.156397e-001  4.469229e-003 -6.984555e-001
    outer loop
      vertex -3.231323e+000  4.007073e-015 -2.620959e+001
      vertex -3.645506e+000 -5.000000e-001 -2.663716e+001
      vertex -3.652048e+000  4.218847e-015 -2.664067e+001
    endloop
  endfacet
  facet normal  3.894143e-001  3.341798e-001  8.583009e-001
    outer loop
      vertex -1.345532e+000 -8.689224e+000 -2.387345e+001
      vertex -2.785671e+000 -4.148061e+000 -2.498816e+001
      vertex -1.790359e+000 -8.624886e+000 -2.369668e+001
    endloop
  endfacet
  facet normal  5.298510e-001  3.417180e-001  7.762003e-001
    outer loop
      vertex -1.790359e+000 -8.624886e+000 -2.369668e+001
      vertex -2.785671e+000 -4.148061e+000 -2.498816e+001
      vertex -3.413449e+000 -4.235755e+000 -2.452101e+001
    endloop
  endfacet
  facet normal  5.845701e-001  1.025441e-001  8.048369e-001
    outer loop
      vertex -2.785671e+000 -4.148061e+000 -2.498816e+001
      vertex -3.396790e+000  3.874218e-015 -2.507279e+001
      vertex -3.413449e+000 -4.235755e+000 -2.452101e+001
    endloop
  endfacet
  facet normal  4.838233e-001  1.111782e-001  8.680751e-001
    outer loop
      vertex -3.413449e+000 -4.235755e+000 -2.452101e+001
      vertex -3.396790e+000  3.874218e-015 -2.507279e+001
      vertex -3.922944e+000  3.984853e-015 -2.477954e+001
    endloop
  endfacet
  facet normal  1.118808e-001 -9.715077e-001 -2.089389e-001
    outer loop
      vertex -5.409416e+000 -1.500000e+000 -2.644734e+001
      vertex -4.080445e+001 -1.500000e+000 -4.540037e+001
      vertex -4.712835e+000 -1.387654e+000 -2.659672e+001
    endloop
  endfacet
  facet normal  1.054441e-001 -9.748045e-001 -1.965646e-001
    outer loop
      vertex -4.712835e+000 -1.387654e+000 -2.659672e+001
      vertex -4.080445e+001 -1.500000e+000 -4.540037e+001
      vertex -4.051137e+001 -1.400456e+000 -4.573681e+001
    endloop
  endfacet
  facet normal  3.124228e-001 -7.493510e-001 -5.838366e-001
    outer loop
      vertex -4.712835e+000 -1.387654e+000 -2.659672e+001
      vertex -4.051137e+001 -1.400456e+000 -4.573681e+001
      vertex -4.176281e+000 -1.066495e+000 -2.672181e+001
    endloop
  endfacet
  facet normal  2.771192e-001 -8.109730e-001 -5.152938e-001
    outer loop
      vertex -4.176281e+000 -1.066495e+000 -2.672181e+001
      vertex -4.051137e+001 -1.400456e+000 -4.573681e+001
      vertex -4.019730e+001 -1.195846e+000 -4.588992e+001
    endloop
  endfacet
  facet normal  4.268440e-001 -4.230372e-001 -7.992769e-001
    outer loop
      vertex -4.176281e+000 -1.066495e+000 -2.672181e+001
      vertex -4.019730e+001 -1.195846e+000 -4.588992e+001
      vertex -3.977118e+000 -7.689314e-001 -2.677294e+001
    endloop
  endfacet
  facet normal  4.217654e-001 -4.465286e-001 -7.891300e-001
    outer loop
      vertex -3.977118e+000 -7.689314e-001 -2.677294e+001
      vertex -4.019730e+001 -1.195846e+000 -4.588992e+001
      vertex -3.959485e+001 -6.567566e-001 -4.587298e+001
    endloop
  endfacet
  facet normal  4.634768e-001 -1.904105e-001 -8.654093e-001
    outer loop
      vertex -3.977118e+000 -7.689314e-001 -2.677294e+001
      vertex -3.959485e+001 -6.567566e-001 -4.587298e+001
      vertex -3.935610e+000 -6.105929e-001 -2.678555e+001
    endloop
  endfacet
  facet normal  4.705397e-001 -7.855953e-002 -8.788747e-001
    outer loop
      vertex -3.959485e+001 -6.567566e-001 -4.587298e+001
      vertex -3.945082e+001 -5.000000e-001 -4.580988e+001
      vertex -3.935610e+000 -6.105929e-001 -2.678555e+001
    endloop
  endfacet
  facet normal  4.713305e-001 -5.537986e-002 -8.802163e-001
    outer loop
      vertex -3.935610e+000 -6.105929e-001 -2.678555e+001
      vertex -3.945082e+001 -5.000000e-001 -4.580988e+001
      vertex -3.645506e+000 -5.000000e-001 -2.663716e+001
    endloop
  endfacet
  facet normal  4.713851e-001 -5.557893e-002 -8.801745e-001
    outer loop
      vertex -3.935610e+000 -6.105929e-001 -2.678555e+001
      vertex -3.645506e+000 -5.000000e-001 -2.663716e+001
      vertex -3.547171e+000 -6.111189e-001 -2.657748e+001
    endloop
  endfacet
  facet normal  4.720550e-001 -2.560851e-007 -8.815691e-001
    outer loop
      vertex -3.645498e+000  5.000000e-001 -2.663716e+001
      vertex -3.652048e+000  4.218847e-015 -2.664067e+001
      vertex -3.945082e+001  5.000000e-001 -4.580988e+001
    endloop
  endfacet
  facet normal  4.720549e-001  0.000000e+000 -8.815691e-001
    outer loop
      vertex -3.945082e+001  5.000000e-001 -4.580988e+001
      vertex -3.652048e+000  4.218847e-015 -2.664067e+001
      vertex -3.645506e+000 -5.000000e-001 -2.663716e+001
    endloop
  endfacet
  facet normal  4.720550e-001  0.000000e+000 -8.815691e-001
    outer loop
      vertex -3.945082e+001  5.000000e-001 -4.580988e+001
      vertex -3.645506e+000 -5.000000e-001 -2.663716e+001
      vertex -3.945082e+001 -5.000000e-001 -4.580988e+001
    endloop
  endfacet
  facet normal  4.484378e-001  3.123429e-001 -8.374637e-001
    outer loop
      vertex -3.645498e+000  5.000000e-001 -2.663716e+001
      vertex -3.945082e+001  5.000000e-001 -4.580988e+001
      vertex -3.188527e+000  1.093429e+000 -2.617114e+001
    endloop
  endfacet
  facet normal  4.735720e-001  8.213261e-002 -8.769172e-001
    outer loop
      vertex -3.188527e+000  1.093429e+000 -2.617114e+001
      vertex -3.945082e+001  5.000000e-001 -4.580988e+001
      vertex -3.959485e+001  6.567566e-001 -4.587298e+001
    endloop
  endfacet
  facet normal  4.217221e-001  4.464799e-001 -7.891808e-001
    outer loop
      vertex -3.188527e+000  1.093429e+000 -2.617114e+001
      vertex -3.959485e+001  6.567566e-001 -4.587298e+001
      vertex -4.019730e+001  1.195846e+000 -4.588992e+001
    endloop
  endfacet
  facet normal  3.151961e-001  7.451588e-001 -5.876986e-001
    outer loop
      vertex -3.188527e+000  1.093429e+000 -2.617114e+001
      vertex -4.019730e+001  1.195846e+000 -4.588992e+001
      vertex -3.073082e+000  1.365861e+000 -2.576380e+001
    endloop
  endfacet
  facet normal  2.762680e-001  8.105312e-001 -5.164448e-001
    outer loop
      vertex -3.073082e+000  1.365861e+000 -2.576380e+001
      vertex -4.019730e+001  1.195846e+000 -4.588992e+001
      vertex -4.051137e+001  1.400456e+000 -4.573681e+001
    endloop
  endfacet
  facet normal  1.839875e-001  9.210364e-001 -3.432789e-001
    outer loop
      vertex -3.073082e+000  1.365861e+000 -2.576380e+001
      vertex -4.051137e+001  1.400456e+000 -4.573681e+001
      vertex -3.087815e+000  1.462135e+000 -2.551339e+001
    endloop
  endfacet
  facet normal  1.048766e-001  9.747682e-001 -1.970476e-001
    outer loop
      vertex -3.087815e+000  1.462135e+000 -2.551339e+001
      vertex -4.051137e+001  1.400456e+000 -4.573681e+001
      vertex -4.080445e+001  1.500000e+000 -4.540037e+001
    endloop
  endfacet
  facet normal  6.495230e-002  9.904885e-001 -1.212993e-001
    outer loop
      vertex -3.087815e+000  1.462135e+000 -2.551339e+001
      vertex -4.080445e+001  1.500000e+000 -4.540037e+001
      vertex -3.179836e+000  1.500000e+000 -2.525347e+001
    endloop
  endfacet
  facet normal  0.000000e+000  1.000000e+000  0.000000e+000
    outer loop
      vertex -3.859215e+000  1.500000e+000 -2.474721e+001
      vertex -3.511579e+000  1.500000e+000 -2.489081e+001
      vertex -3.119518e+001  1.500000e+000 -1.912024e+001
    endloop
  endfacet
  facet normal  0.000000e+000  1.000000e+000  0.000000e+000
    outer loop
      vertex -3.119518e+001  1.500000e+000 -1.912024e+001
      vertex -3.511579e+000  1.500000e+000 -2.489081e+001
      vertex -3.179836e+000  1.500000e+000 -2.525347e+001
    endloop
  endfacet
  facet normal  0.000000e+000  9.999999e-001  0.000000e+000
    outer loop
      vertex -3.119518e+001  1.500000e+000 -1.912024e+001
      vertex -3.179836e+000  1.500000e+000 -2.525347e+001
      vertex -4.085778e+001  1.500000e+000 -4.457340e+001
    endloop
  endfacet
  facet normal  -0.000000e+000  1.000000e+000  0.000000e+000
    outer loop
      vertex -4.085778e+001  1.500000e+000 -4.457340e+001
      vertex -3.179836e+000  1.500000e+000 -2.525347e+001
      vertex -4.080445e+001  1.500000e+000 -4.540037e+001
    endloop
  endfacet
  facet normal  0.000000e+000  1.000000e+000  0.000000e+000
    outer loop
      vertex -4.085778e+001  1.500000e+000 -4.457340e+001
      vertex -4.080445e+001  1.500000e+000 -4.540037e+001
      vertex -4.092080e+001  1.500000e+000 -4.499267e+001
    endloop
  endfacet
  facet normal  4.012820e-001  0.000000e+000 -9.159545e-001
    outer loop
      vertex -3.945082e+001  5.000000e-001 -4.580988e+001
      vertex -3.945082e+001 -5.000000e-001 -4.580988e+001
      vertex -3.959485e+001  6.567566e-001 -4.587298e+001
    endloop
  endfacet
  facet normal  4.012820e-001  0.000000e+000 -9.159545e-001
    outer loop
      vertex -3.959485e+001  6.567566e-001 -4.587298e+001
      vertex -3.945082e+001 -5.000000e-001 -4.580988e+001
      vertex -3.959485e+001 -6.567566e-001 -4.587298e+001
    endloop
  endfacet
  facet normal  2.811562e-002  0.000000e+000 -9.996047e-001
    outer loop
      vertex -3.959485e+001  6.567566e-001 -4.587298e+001
      vertex -3.959485e+001 -6.567566e-001 -4.587298e+001
      vertex -4.019730e+001  1.195846e+000 -4.588992e+001
    endloop
  endfacet
  facet normal  2.811562e-002  0.000000e+000 -9.996046e-001
    outer loop
      vertex -4.019730e+001  1.195846e+000 -4.588992e+001
      vertex -3.959485e+001 -6.567566e-001 -4.587298e+001
      vertex -4.019730e+001 -1.195846e+000 -4.588992e+001
    endloop
  endfacet
  facet normal -4.381993e-001  0.000000e+000 -8.988779e-001
    outer loop
      vertex -4.019730e+001  1.195846e+000 -4.588992e+001
      vertex -4.019730e+001 -1.195846e+000 -4.588992e+001
      vertex -4.051137e+001  1.400456e+000 -4.573681e+001
    endloop
  endfacet
  facet normal -4.381993e-001  -0.000000e+000 -8.988778e-001
    outer loop
      vertex -4.051137e+001  1.400456e+000 -4.573681e+001
      vertex -4.019730e+001 -1.195846e+000 -4.588992e+001
      vertex -4.051137e+001 -1.400456e+000 -4.573681e+001
    endloop
  endfacet
  facet normal -7.540339e-001  0.000000e+000 -6.568354e-001
    outer loop
      vertex -4.051137e+001  1.400456e+000 -4.573681e+001
      vertex -4.051137e+001 -1.400456e+000 -4.573681e+001
      vertex -4.080445e+001  1.500000e+000 -4.540037e+001
    endloop
  endfacet
  facet normal -7.540339e-001  -0.000000e+000 -6.568354e-001
    outer loop
      vertex -4.080445e+001  1.500000e+000 -4.540037e+001
      vertex -4.051137e+001 -1.400456e+000 -4.573681e+001
      vertex -4.080445e+001 -1.500000e+000 -4.540037e+001
    endloop
  endfacet
  facet normal -9.616047e-001  0.000000e+000 -2.744383e-001
    outer loop
      vertex -4.080445e+001  1.500000e+000 -4.540037e+001
      vertex -4.080445e+001 -1.500000e+000 -4.540037e+001
      vertex -4.092080e+001  1.500000e+000 -4.499267e+001
    endloop
  endfacet
  facet normal -9.616047e-001  -0.000000e+000 -2.744383e-001
    outer loop
      vertex -4.092080e+001  1.500000e+000 -4.499267e+001
      vertex -4.080445e+001 -1.500000e+000 -4.540037e+001
      vertex -4.092080e+001 -1.500000e+000 -4.499267e+001
    endloop
  endfacet
  facet normal -9.888890e-001  0.000000e+000  1.486555e-001
    outer loop
      vertex -4.092080e+001  1.500000e+000 -4.499267e+001
      vertex -4.092080e+001 -1.500000e+000 -4.499267e+001
      vertex -4.085778e+001  1.500000e+000 -4.457340e+001
    endloop
  endfacet
  facet normal -9.888890e-001  0.000000e+000  1.486555e-001
    outer loop
      vertex -4.085778e+001  1.500000e+000 -4.457340e+001
      vertex -4.092080e+001 -1.500000e+000 -4.499267e+001
      vertex -4.085778e+001 -1.500000e+000 -4.457340e+001
    endloop
  endfacet
  facet normal -9.349006e-001  0.000000e+000  3.549095e-001
    outer loop
      vertex -3.119518e+001  1.500000e+000 -1.912024e+001
      vertex -4.085778e+001  1.500000e+000 -4.457340e+001
      vertex -3.121587e+001  3.522343e-015 -1.917474e+001
    endloop
  endfacet
  facet normal -9.349006e-001  2.543130e-006  3.549097e-001
    outer loop
      vertex -3.121587e+001  3.522343e-015 -1.917474e+001
      vertex -4.085778e+001  1.500000e+000 -4.457340e+001
      vertex -3.192569e+001  3.865819e-015 -2.104454e+001
    endloop
  endfacet
  facet normal -9.349006e-001  0.000000e+000  3.549095e-001
    outer loop
      vertex -4.085778e+001  1.500000e+000 -4.457340e+001
      vertex -4.085778e+001 -1.500000e+000 -4.457340e+001
      vertex -3.192569e+001  3.865819e-015 -2.104454e+001
    endloop
  endfacet
  facet normal -9.349006e-001  2.355479e-007  3.549095e-001
    outer loop
      vertex -3.192569e+001  3.865819e-015 -2.104454e+001
      vertex -4.085778e+001 -1.500000e+000 -4.457340e+001
      vertex -3.190684e+001 -1.500000e+000 -2.099490e+001
    endloop
  endfacet
  facet normal  9.966613e-001 -3.690791e-002  7.282954e-002
    outer loop
      vertex -3.087815e+000  1.462135e+000 -2.551339e+001
      vertex -3.134531e+000  3.882643e-015 -2.561506e+001
      vertex -3.073082e+000  1.365861e+000 -2.576380e+001
    endloop
  endfacet
  facet normal  9.851193e-001 -6.178488e-002 -1.603827e-001
    outer loop
      vertex -3.073082e+000  1.365861e+000 -2.576380e+001
      vertex -3.134531e+000  3.882643e-015 -2.561506e+001
      vertex -3.231323e+000  4.007073e-015 -2.620959e+001
    endloop
  endfacet
  facet normal  9.666062e-001 -2.887819e-002 -2.546341e-001
    outer loop
      vertex -3.073082e+000  1.365861e+000 -2.576380e+001
      vertex -3.231323e+000  4.007073e-015 -2.620959e+001
      vertex -3.188527e+000  1.093429e+000 -2.617114e+001
    endloop
  endfacet
  facet normal  7.156425e-001 -3.447739e-003 -6.984583e-001
    outer loop
      vertex -3.188527e+000  1.093429e+000 -2.617114e+001
      vertex -3.231323e+000  4.007073e-015 -2.620959e+001
      vertex -3.652048e+000  4.218847e-015 -2.664067e+001
    endloop
  endfacet
  facet normal  7.168576e-001 -4.500912e-003 -6.972051e-001
    outer loop
      vertex -3.188527e+000  1.093429e+000 -2.617114e+001
      vertex -3.652048e+000  4.218847e-015 -2.664067e+001
      vertex -3.645498e+000  5.000000e-001 -2.663716e+001
    endloop
  endfacet
  facet normal  7.376176e-001 -2.541239e-002  6.747403e-001
    outer loop
      vertex -3.511579e+000  1.500000e+000 -2.489081e+001
      vertex -3.396790e+000  3.874218e-015 -2.507279e+001
      vertex -3.179836e+000  1.500000e+000 -2.525347e+001
    endloop
  endfacet
  facet normal  8.975335e-001 -7.753028e-002  4.340768e-001
    outer loop
      vertex -3.179836e+000  1.500000e+000 -2.525347e+001
      vertex -3.396790e+000  3.874218e-015 -2.507279e+001
      vertex -3.134531e+000  3.882643e-015 -2.561506e+001
    endloop
  endfacet
  facet normal  9.388233e-001 -5.365185e-002  3.401946e-001
    outer loop
      vertex -3.179836e+000  1.500000e+000 -2.525347e+001
      vertex -3.134531e+000  3.882643e-015 -2.561506e+001
      vertex -3.087815e+000  1.462135e+000 -2.551339e+001
    endloop
  endfacet
  facet normal  4.864619e-001 -3.948071e-002  8.728094e-001
    outer loop
      vertex -3.922944e+000  3.984853e-015 -2.477954e+001
      vertex -3.396790e+000  3.874218e-015 -2.507279e+001
      vertex -3.859215e+000  1.500000e+000 -2.474721e+001
    endloop
  endfacet
  facet normal  3.804905e-001 -8.262870e-002  9.210861e-001
    outer loop
      vertex -3.859215e+000  1.500000e+000 -2.474721e+001
      vertex -3.396790e+000  3.874218e-015 -2.507279e+001
      vertex -3.511579e+000  1.500000e+000 -2.489081e+001
    endloop
  endfacet
  facet normal  2.015289e-001 -2.966463e-002  9.790332e-001
    outer loop
      vertex -3.859215e+000  1.500000e+000 -2.474721e+001
      vertex -3.119518e+001  1.500000e+000 -1.912024e+001
      vertex -3.922944e+000  3.984853e-015 -2.477954e+001
    endloop
  endfacet
  facet normal  2.010115e-001 -3.833590e-002  9.788384e-001
    outer loop
      vertex -3.922944e+000  3.984853e-015 -2.477954e+001
      vertex -3.119518e+001  1.500000e+000 -1.912024e+001
      vertex -3.121587e+001  3.522343e-015 -1.917474e+001
    endloop
  endfacet
endsolid CATIA STL
