solid CATIA STL
  facet normal  6.413665e-001  2.304378e-001  7.318110e-001
    outer loop
      vertex  5.618420e+000  9.169116e+000  2.519194e+001
      vertex  3.750646e+000  9.703650e+000  2.666056e+001
      vertex  5.284222e+000  6.991372e+000  2.617058e+001
    endloop
  endfacet
  facet normal  6.125326e-001  2.086044e-001  7.624226e-001
    outer loop
      vertex  5.284222e+000  6.991372e+000  2.617058e+001
      vertex  3.750646e+000  9.703650e+000  2.666056e+001
      vertex  3.750646e+000  5.220991e+000  2.788705e+001
    endloop
  endfacet
  facet normal  6.467432e-001  1.623080e-001  7.452377e-001
    outer loop
      vertex  5.284222e+000  6.991372e+000  2.617058e+001
      vertex  3.750646e+000  5.220991e+000  2.788705e+001
      vertex  4.855730e+000  4.700087e+000  2.704147e+001
    endloop
  endfacet
  facet normal  6.397412e-001  7.908772e-002  7.645105e-001
    outer loop
      vertex  3.750646e+000  5.982415e-001  2.836526e+001
      vertex  4.175382e+000  5.989838e-001  2.800977e+001
      vertex  3.750646e+000  5.220991e+000  2.788705e+001
    endloop
  endfacet
  facet normal  4.866025e-001  6.784223e-002  8.709854e-001
    outer loop
      vertex  3.750646e+000  5.220991e+000  2.788705e+001
      vertex  4.175382e+000  5.989838e-001  2.800977e+001
      vertex  4.305715e+000  1.500000e+000  2.786677e+001
    endloop
  endfacet
  facet normal  6.316355e-001  9.002726e-002  7.700206e-001
    outer loop
      vertex  3.750646e+000  5.220991e+000  2.788705e+001
      vertex  4.305715e+000  1.500000e+000  2.786677e+001
      vertex  4.855730e+000  4.700087e+000  2.704147e+001
    endloop
  endfacet
  facet normal -9.735855e-001  1.989951e-002  2.274536e-001
    outer loop
      vertex -3.295361e+001  1.500000e+000  2.078002e+001
      vertex -3.297255e+001  3.617127e+000  2.051375e+001
      vertex -3.297255e+001  0.000000e+000  2.083020e+001
    endloop
  endfacet
  facet normal -2.000624e-001  1.205052e-001  9.723444e-001
    outer loop
      vertex -3.295361e+001  1.500000e+000  2.078002e+001
      vertex  2.537850e+000  1.500000e+000  2.808249e+001
      vertex -3.297255e+001  3.617127e+000  2.051375e+001
    endloop
  endfacet
  facet normal -2.005107e-001  2.585478e-001  9.449595e-001
    outer loop
      vertex  3.750646e+000  5.220991e+000  2.788705e+001
      vertex  3.750646e+000  9.703650e+000  2.666056e+001
      vertex -3.297255e+001  7.124349e+000  1.957399e+001
    endloop
  endfacet
  facet normal -2.010519e-001  2.535343e-001  9.462021e-001
    outer loop
      vertex  3.750646e+000  5.220991e+000  2.788705e+001
      vertex -3.297255e+001  7.124349e+000  1.957399e+001
      vertex -3.297255e+001  3.617127e+000  2.051375e+001
    endloop
  endfacet
  facet normal -2.003982e-001  1.164096e-001  9.727741e-001
    outer loop
      vertex  3.750646e+000  5.220991e+000  2.788705e+001
      vertex -3.297255e+001  3.617127e+000  2.051375e+001
      vertex  2.537850e+000  1.500000e+000  2.808249e+001
    endloop
  endfacet
  facet normal -1.840480e-001  1.112814e-001  9.765975e-001
    outer loop
      vertex  3.750646e+000  5.220991e+000  2.788705e+001
      vertex  2.537850e+000  1.500000e+000  2.808249e+001
      vertex  3.273268e+000  1.303420e+000  2.824348e+001
    endloop
  endfacet
  facet normal -1.350038e-001  1.060833e-001  9.851499e-001
    outer loop
      vertex  3.750646e+000  5.220991e+000  2.788705e+001
      vertex  3.273268e+000  1.303420e+000  2.824348e+001
      vertex  3.642113e+000  9.328116e-001  2.833393e+001
    endloop
  endfacet
  facet normal  3.005436e-002  1.028532e-001  9.942424e-001
    outer loop
      vertex  3.750646e+000  5.220991e+000  2.788705e+001
      vertex  3.642113e+000  9.328116e-001  2.833393e+001
      vertex  3.750646e+000  5.982415e-001  2.836526e+001
    endloop
  endfacet
  facet normal  5.412111e-001 -2.090738e-001 -8.144806e-001
    outer loop
      vertex  4.987462e+000  6.183172e+000  2.615482e+001
      vertex  4.445859e+000  3.083277e+000  2.659066e+001
      vertex  4.383326e+000  6.180444e+000  2.575408e+001
    endloop
  endfacet
  facet normal  5.321953e-001 -2.107396e-001 -8.199738e-001
    outer loop
      vertex  3.839330e+000  3.114099e+000  2.618908e+001
      vertex  4.383326e+000  6.180444e+000  2.575408e+001
      vertex  4.445859e+000  3.083277e+000  2.659066e+001
    endloop
  endfacet
  facet normal  8.788760e-001 -5.186892e-002  4.742219e-001
    outer loop
      vertex  4.305715e+000  1.500000e+000  2.786677e+001
      vertex  4.175382e+000  5.989838e-001  2.800977e+001
      vertex  4.446550e+000  7.488997e-015  2.744170e+001
    endloop
  endfacet
  facet normal  9.093320e-001 -3.217734e-002  4.148252e-001
    outer loop
      vertex  4.305715e+000  1.500000e+000  2.786677e+001
      vertex  4.446550e+000  7.488997e-015  2.744170e+001
      vertex  4.624236e+000  3.130106e+000  2.729499e+001
    endloop
  endfacet
  facet normal  9.642507e-001 -1.027337e-001  2.442671e-001
    outer loop
      vertex  4.305715e+000  1.500000e+000  2.786677e+001
      vertex  4.624236e+000  3.130106e+000  2.729499e+001
      vertex  4.855730e+000  4.700087e+000  2.704147e+001
    endloop
  endfacet
  facet normal  8.651116e-001 -3.099682e-001 -3.943368e-001
    outer loop
      vertex  5.284222e+000  6.991372e+000  2.617058e+001
      vertex  4.987462e+000  6.183172e+000  2.615482e+001
      vertex  5.618420e+000  9.169116e+000  2.519194e+001
    endloop
  endfacet
  facet normal  5.168970e-001 -3.597205e-001 -7.768004e-001
    outer loop
      vertex  5.618420e+000  9.169116e+000  2.519194e+001
      vertex  4.987462e+000  6.183172e+000  2.615482e+001
      vertex  4.383326e+000  6.180444e+000  2.575408e+001
    endloop
  endfacet
  facet normal  3.694790e-001 -3.169872e-001 -8.735012e-001
    outer loop
      vertex  5.618420e+000  9.169116e+000  2.519194e+001
      vertex  4.383326e+000  6.180444e+000  2.575408e+001
      vertex  5.255477e+000  9.119760e+000  2.505633e+001
    endloop
  endfacet
  facet normal  9.566239e-001 -1.782638e-001 -2.304189e-001
    outer loop
      vertex  4.624236e+000  3.130106e+000  2.729499e+001
      vertex  4.445859e+000  3.083277e+000  2.659066e+001
      vertex  4.855730e+000  4.700087e+000  2.704147e+001
    endloop
  endfacet
  facet normal  9.641534e-001 -1.939187e-001 -1.811184e-001
    outer loop
      vertex  4.855730e+000  4.700087e+000  2.704147e+001
      vertex  4.445859e+000  3.083277e+000  2.659066e+001
      vertex  4.987462e+000  6.183172e+000  2.615482e+001
    endloop
  endfacet
  facet normal  8.665349e-001 -3.105612e-001 -3.907287e-001
    outer loop
      vertex  4.855730e+000  4.700087e+000  2.704147e+001
      vertex  4.987462e+000  6.183172e+000  2.615482e+001
      vertex  5.284222e+000  6.991372e+000  2.617058e+001
    endloop
  endfacet
  facet normal  7.909779e-001 -1.926630e-001  5.807195e-001
    outer loop
      vertex  4.175382e+000  5.989838e-001  2.800977e+001
      vertex  4.100678e+000  5.000000e-001  2.807868e+001
      vertex  4.446550e+000  7.488997e-015  2.744170e+001
    endloop
  endfacet
  facet normal  8.774188e-001 -4.181361e-003  4.797070e-001
    outer loop
      vertex  4.446550e+000  7.488997e-015  2.744170e+001
      vertex  4.100678e+000  5.000000e-001  2.807868e+001
      vertex  4.096287e+000  7.327472e-015  2.808236e+001
    endloop
  endfacet
  facet normal  9.674868e-001 -6.635965e-002 -2.440605e-001
    outer loop
      vertex  4.446550e+000  7.488997e-015  2.744170e+001
      vertex  4.267955e+000  7.400827e-015  2.673372e+001
      vertex  4.624236e+000  3.130106e+000  2.729499e+001
    endloop
  endfacet
  facet normal  9.682661e-001 -6.703977e-002 -2.407623e-001
    outer loop
      vertex  4.624236e+000  3.130106e+000  2.729499e+001
      vertex  4.267955e+000  7.400827e-015  2.673372e+001
      vertex  4.445859e+000  3.083277e+000  2.659066e+001
    endloop
  endfacet
  facet normal  5.435463e-001 -7.017240e-002 -8.364409e-001
    outer loop
      vertex  4.267955e+000  7.400827e-015  2.673372e+001
      vertex  3.655714e+000  1.612607e-015  2.633587e+001
      vertex  4.445859e+000  3.083277e+000  2.659066e+001
    endloop
  endfacet
  facet normal  5.481123e-001 -7.159922e-002 -8.333344e-001
    outer loop
      vertex  4.445859e+000  3.083277e+000  2.659066e+001
      vertex  3.655714e+000  1.612607e-015  2.633587e+001
      vertex  3.839330e+000  3.114099e+000  2.618908e+001
    endloop
  endfacet
  facet normal  6.417322e-001  1.367094e-006  7.669288e-001
    outer loop
      vertex  4.100680e+000 -5.000000e-001  2.807868e+001
      vertex  4.096287e+000  7.327472e-015  2.808236e+001
      vertex -5.115519e+001 -5.000000e-001  7.431435e+001
    endloop
  endfacet
  facet normal  6.417322e-001  0.000000e+000  7.669288e-001
    outer loop
      vertex -5.115519e+001 -5.000000e-001  7.431435e+001
      vertex  4.096287e+000  7.327472e-015  2.808236e+001
      vertex  4.100678e+000  5.000000e-001  2.807868e+001
    endloop
  endfacet
  facet normal  6.417322e-001  0.000000e+000  7.669288e-001
    outer loop
      vertex -5.115519e+001 -5.000000e-001  7.431435e+001
      vertex  4.100678e+000  5.000000e-001  2.807868e+001
      vertex -5.115519e+001  5.000000e-001  7.431435e+001
    endloop
  endfacet
  facet normal  0.000000e+000  1.000000e+000  0.000000e+000
    outer loop
      vertex -5.278284e+001  1.500000e+000  7.371460e+001
      vertex -5.256385e+001  1.500000e+000  7.418916e+001
      vertex -5.273252e+001  1.500000e+000  7.319437e+001
    endloop
  endfacet
  facet normal  -0.000000e+000  9.999999e-001  0.000000e+000
    outer loop
      vertex -5.273252e+001  1.500000e+000  7.319437e+001
      vertex -5.256385e+001  1.500000e+000  7.418916e+001
      vertex  2.537850e+000  1.500000e+000  2.808249e+001
    endloop
  endfacet
  facet normal  0.000000e+000  1.000000e+000  0.000000e+000
    outer loop
      vertex -5.273252e+001  1.500000e+000  7.319437e+001
      vertex  2.537850e+000  1.500000e+000  2.808249e+001
      vertex -3.295361e+001  1.500000e+000  2.078002e+001
    endloop
  endfacet
  facet normal  5.794629e-001  0.000000e+000  8.149986e-001
    outer loop
      vertex -5.115519e+001 -5.000000e-001  7.431435e+001
      vertex -5.115519e+001  5.000000e-001  7.431435e+001
      vertex -5.128334e+001 -6.567566e-001  7.440547e+001
    endloop
  endfacet
  facet normal  5.794630e-001  -0.000000e+000  8.149986e-001
    outer loop
      vertex -5.128334e+001 -6.567566e-001  7.440547e+001
      vertex -5.115519e+001  5.000000e-001  7.431435e+001
      vertex -5.128334e+001  6.567566e-001  7.440547e+001
    endloop
  endfacet
  facet normal  2.311407e-001  0.000000e+000  9.729204e-001
    outer loop
      vertex -5.128334e+001 -6.567566e-001  7.440547e+001
      vertex -5.128334e+001  6.567566e-001  7.440547e+001
      vertex -5.186971e+001 -1.195846e+000  7.454478e+001
    endloop
  endfacet
  facet normal  2.311407e-001  -0.000000e+000  9.729204e-001
    outer loop
      vertex -5.186971e+001 -1.195846e+000  7.454478e+001
      vertex -5.128334e+001  6.567566e-001  7.440547e+001
      vertex -5.186971e+001  1.195846e+000  7.454478e+001
    endloop
  endfacet
  facet normal -2.459071e-001  0.000000e+000  9.692935e-001
    outer loop
      vertex -5.186971e+001 -1.195846e+000  7.454478e+001
      vertex -5.186971e+001  1.195846e+000  7.454478e+001
      vertex -5.220839e+001 -1.400456e+000  7.445885e+001
    endloop
  endfacet
  facet normal -2.459070e-001  0.000000e+000  9.692934e-001
    outer loop
      vertex -5.220839e+001 -1.400456e+000  7.445885e+001
      vertex -5.186971e+001  1.195846e+000  7.454478e+001
      vertex -5.220839e+001  1.400456e+000  7.445885e+001
    endloop
  endfacet
  facet normal -6.044419e-001  0.000000e+000  7.966493e-001
    outer loop
      vertex -5.220839e+001 -1.400456e+000  7.445885e+001
      vertex -5.220839e+001  1.400456e+000  7.445885e+001
      vertex -5.256385e+001 -1.500000e+000  7.418916e+001
    endloop
  endfacet
  facet normal -6.044419e-001  0.000000e+000  7.966492e-001
    outer loop
      vertex -5.256385e+001 -1.500000e+000  7.418916e+001
      vertex -5.220839e+001  1.400456e+000  7.445885e+001
      vertex -5.256385e+001  1.500000e+000  7.418916e+001
    endloop
  endfacet
  facet normal -9.079797e-001  0.000000e+000  4.190142e-001
    outer loop
      vertex -5.256385e+001 -1.500000e+000  7.418916e+001
      vertex -5.256385e+001  1.500000e+000  7.418916e+001
      vertex -5.278284e+001 -1.500000e+000  7.371460e+001
    endloop
  endfacet
  facet normal -9.079797e-001  0.000000e+000  4.190142e-001
    outer loop
      vertex -5.278284e+001 -1.500000e+000  7.371460e+001
      vertex -5.256385e+001  1.500000e+000  7.418916e+001
      vertex -5.278284e+001  1.500000e+000  7.371460e+001
    endloop
  endfacet
  facet normal -9.953540e-001  -0.000000e+000 -9.628315e-002
    outer loop
      vertex -5.278284e+001 -1.500000e+000  7.371460e+001
      vertex -5.278284e+001  1.500000e+000  7.371460e+001
      vertex -5.273252e+001 -1.500000e+000  7.319437e+001
    endloop
  endfacet
  facet normal -9.953540e-001  0.000000e+000 -9.628315e-002
    outer loop
      vertex -5.273252e+001 -1.500000e+000  7.319437e+001
      vertex -5.278284e+001  1.500000e+000  7.371460e+001
      vertex -5.273252e+001  1.500000e+000  7.319437e+001
    endloop
  endfacet
  facet normal  2.011906e-001  9.495842e-001  2.404412e-001
    outer loop
      vertex  2.537850e+000  1.500000e+000  2.808249e+001
      vertex -5.256385e+001  1.500000e+000  7.418916e+001
      vertex  3.273268e+000  1.303420e+000  2.824348e+001
    endloop
  endfacet
  facet normal  1.436781e-001  9.748370e-001  1.704390e-001
    outer loop
      vertex  3.273268e+000  1.303420e+000  2.824348e+001
      vertex -5.256385e+001  1.500000e+000  7.418916e+001
      vertex -5.220839e+001  1.400456e+000  7.445885e+001
    endloop
  endfacet
  facet normal  3.756886e-001  8.105404e-001  4.493130e-001
    outer loop
      vertex  3.273268e+000  1.303420e+000  2.824348e+001
      vertex -5.220839e+001  1.400456e+000  7.445885e+001
      vertex -5.186971e+001  1.195846e+000  7.454478e+001
    endloop
  endfacet
  facet normal  4.950145e-001  6.369095e-001  5.910220e-001
    outer loop
      vertex  3.273268e+000  1.303420e+000  2.824348e+001
      vertex -5.186971e+001  1.195846e+000  7.454478e+001
      vertex  3.642113e+000  9.328116e-001  2.833393e+001
    endloop
  endfacet
  facet normal  5.736922e-001  4.465783e-001  6.866187e-001
    outer loop
      vertex  3.642113e+000  9.328116e-001  2.833393e+001
      vertex -5.186971e+001  1.195846e+000  7.454478e+001
      vertex -5.128334e+001  6.567566e-001  7.440547e+001
    endloop
  endfacet
  facet normal  6.180548e-001  2.696382e-001  7.384468e-001
    outer loop
      vertex  3.642113e+000  9.328116e-001  2.833393e+001
      vertex -5.128334e+001  6.567566e-001  7.440547e+001
      vertex  3.750646e+000  5.982415e-001  2.836526e+001
    endloop
  endfacet
  facet normal  6.397176e-001  7.856502e-002  7.645842e-001
    outer loop
      vertex -5.128334e+001  6.567566e-001  7.440547e+001
      vertex -5.115519e+001  5.000000e-001  7.431435e+001
      vertex  3.750646e+000  5.982415e-001  2.836526e+001
    endloop
  endfacet
  facet normal  6.409554e-001  4.918807e-002  7.660004e-001
    outer loop
      vertex  3.750646e+000  5.982415e-001  2.836526e+001
      vertex -5.115519e+001  5.000000e-001  7.431435e+001
      vertex  4.100678e+000  5.000000e-001  2.807868e+001
    endloop
  endfacet
  facet normal  6.409957e-001  4.948597e-002  7.659475e-001
    outer loop
      vertex  3.750646e+000  5.982415e-001  2.836526e+001
      vertex  4.100678e+000  5.000000e-001  2.807868e+001
      vertex  4.175382e+000  5.989838e-001  2.800977e+001
    endloop
  endfacet
  facet normal  6.094835e-001 -3.130169e-001  7.283887e-001
    outer loop
      vertex  4.100680e+000 -5.000000e-001  2.807868e+001
      vertex -5.115519e+001 -5.000000e-001  7.431435e+001
      vertex  4.448169e+000 -1.094559e+000  2.753242e+001
    endloop
  endfacet
  facet normal  6.411970e-001 -8.062796e-002  7.631289e-001
    outer loop
      vertex  4.448169e+000 -1.094559e+000  2.753242e+001
      vertex -5.115519e+001 -5.000000e-001  7.431435e+001
      vertex -5.128334e+001 -6.567566e-001  7.440547e+001
    endloop
  endfacet
  facet normal  5.738026e-001 -4.467459e-001  6.864172e-001
    outer loop
      vertex  4.448169e+000 -1.094559e+000  2.753242e+001
      vertex -5.128334e+001 -6.567566e-001  7.440547e+001
      vertex -5.186971e+001 -1.195846e+000  7.454478e+001
    endloop
  endfacet
  facet normal  4.280024e-001 -7.453697e-001  5.111143e-001
    outer loop
      vertex  4.448169e+000 -1.094559e+000  2.753242e+001
      vertex -5.186971e+001 -1.195846e+000  7.454478e+001
      vertex  4.473950e+000 -1.365334e+000  2.711595e+001
    endloop
  endfacet
  facet normal  3.757231e-001 -8.105643e-001  4.492414e-001
    outer loop
      vertex  4.473950e+000 -1.365334e+000  2.711595e+001
      vertex -5.186971e+001 -1.195846e+000  7.454478e+001
      vertex -5.220839e+001 -1.400456e+000  7.445885e+001
    endloop
  endfacet
  facet normal  2.480433e-001 -9.223264e-001  2.962910e-001
    outer loop
      vertex  4.473950e+000 -1.365334e+000  2.711595e+001
      vertex -5.220839e+001 -1.400456e+000  7.445885e+001
      vertex  4.403631e+000 -1.464191e+000  2.686709e+001
    endloop
  endfacet
  facet normal  1.429611e-001 -9.747806e-001  1.713624e-001
    outer loop
      vertex  4.403631e+000 -1.464191e+000  2.686709e+001
      vertex -5.220839e+001 -1.400456e+000  7.445885e+001
      vertex -5.256385e+001 -1.500000e+000  7.418916e+001
    endloop
  endfacet
  facet normal  8.586852e-002 -9.910074e-001  1.026207e-001
    outer loop
      vertex  4.403631e+000 -1.464191e+000  2.686709e+001
      vertex -5.256385e+001 -1.500000e+000  7.418916e+001
      vertex  4.262924e+000 -1.500000e+000  2.663902e+001
    endloop
  endfacet
  facet normal  0.000000e+000 -1.000000e+000  0.000000e+000
    outer loop
      vertex -5.278284e+001 -1.500000e+000  7.371460e+001
      vertex -5.273252e+001 -1.500000e+000  7.319437e+001
      vertex -5.256385e+001 -1.500000e+000  7.418916e+001
    endloop
  endfacet
  facet normal  0.000000e+000 -1.000000e+000  -0.000000e+000
    outer loop
      vertex -5.256385e+001 -1.500000e+000  7.418916e+001
      vertex -5.273252e+001 -1.500000e+000  7.319437e+001
      vertex  4.262924e+000 -1.500000e+000  2.663902e+001
    endloop
  endfacet
  facet normal  0.000000e+000 -1.000000e+000  0.000000e+000
    outer loop
      vertex -5.273252e+001 -1.500000e+000  7.319437e+001
      vertex -3.224563e+001 -1.500000e+000  1.890385e+001
      vertex  4.262924e+000 -1.500000e+000  2.663902e+001
    endloop
  endfacet
  facet normal  0.000000e+000 -1.000000e+000  0.000000e+000
    outer loop
      vertex  4.262924e+000 -1.500000e+000  2.663902e+001
      vertex -3.224563e+001 -1.500000e+000  1.890385e+001
      vertex  3.698253e+000 -1.500000e+000  2.630187e+001
    endloop
  endfacet
  facet normal  2.010811e-001  2.789870e-002 -9.791772e-001
    outer loop
      vertex  3.655714e+000  1.612607e-015  2.633587e+001
      vertex  3.698253e+000 -1.500000e+000  2.630187e+001
      vertex -3.226644e+001  2.264349e-014  1.895900e+001
    endloop
  endfacet
  facet normal  2.014438e-001  3.877497e-002 -9.787323e-001
    outer loop
      vertex -3.226644e+001  2.264349e-014  1.895900e+001
      vertex  3.698253e+000 -1.500000e+000  2.630187e+001
      vertex -3.224563e+001 -1.500000e+000  1.890385e+001
    endloop
  endfacet
  facet normal  2.008483e-001 -2.822793e-001 -9.380715e-001
    outer loop
      vertex  5.255477e+000  9.119760e+000  2.505633e+001
      vertex  4.383326e+000  6.180444e+000  2.575408e+001
      vertex -3.226644e+001  6.484359e+000  1.781563e+001
    endloop
  endfacet
  facet normal  2.071164e-001 -1.733352e-001 -9.628385e-001
    outer loop
      vertex -3.226644e+001  6.484359e+000  1.781563e+001
      vertex  4.383326e+000  6.180444e+000  2.575408e+001
      vertex  3.839330e+000  3.114099e+000  2.618908e+001
    endloop
  endfacet
  facet normal  1.959774e-001 -2.538004e-001 -9.471949e-001
    outer loop
      vertex -3.226644e+001  6.484359e+000  1.781563e+001
      vertex  3.839330e+000  3.114099e+000  2.618908e+001
      vertex -3.226644e+001  3.292196e+000  1.867097e+001
    endloop
  endfacet
  facet normal  2.032340e-001 -5.805534e-002 -9.774076e-001
    outer loop
      vertex -3.226644e+001  3.292196e+000  1.867097e+001
      vertex  3.839330e+000  3.114099e+000  2.618908e+001
      vertex  3.655714e+000  1.612607e-015  2.633587e+001
    endloop
  endfacet
  facet normal  2.004247e-001 -8.538703e-002 -9.759811e-001
    outer loop
      vertex -3.226644e+001  3.292196e+000  1.867097e+001
      vertex  3.655714e+000  1.612607e-015  2.633587e+001
      vertex -3.226644e+001  2.264349e-014  1.895900e+001
    endloop
  endfacet
  facet normal  2.001298e-008  9.396926e-001 -3.420202e-001
    outer loop
      vertex  3.750646e+000  9.703650e+000  2.666056e+001
      vertex  5.618420e+000  9.169116e+000  2.519194e+001
      vertex -3.297255e+001  7.124349e+000  1.957399e+001
    endloop
  endfacet
  facet normal -1.963873e-006  9.396963e-001 -3.420101e-001
    outer loop
      vertex -3.297255e+001  7.124349e+000  1.957399e+001
      vertex  5.618420e+000  9.169116e+000  2.519194e+001
      vertex  5.255477e+000  9.119760e+000  2.505633e+001
    endloop
  endfacet
  facet normal -2.521212e-008  9.396926e-001 -3.420202e-001
    outer loop
      vertex -3.297255e+001  7.124349e+000  1.957399e+001
      vertex  5.255477e+000  9.119760e+000  2.505633e+001
      vertex -3.226644e+001  6.484359e+000  1.781563e+001
    endloop
  endfacet
  facet normal  8.454714e-001  3.503829e-003  5.340092e-001
    outer loop
      vertex  4.448169e+000 -1.094559e+000  2.753242e+001
      vertex  4.096287e+000  7.327472e-015  2.808236e+001
      vertex  4.100680e+000 -5.000000e-001  2.807868e+001
    endloop
  endfacet
  facet normal  8.766878e-001  4.102301e-002  4.793074e-001
    outer loop
      vertex  4.096287e+000  7.327472e-015  2.808236e+001
      vertex  4.448169e+000 -1.094559e+000  2.753242e+001
      vertex  4.446550e+000  7.488997e-015  2.744170e+001
    endloop
  endfacet
  facet normal  9.983127e-001  6.260980e-003  5.773032e-002
    outer loop
      vertex  4.446550e+000  7.488997e-015  2.744170e+001
      vertex  4.448169e+000 -1.094559e+000  2.753242e+001
      vertex  4.473950e+000 -1.365334e+000  2.711595e+001
    endloop
  endfacet
  facet normal  9.667017e-001  7.758175e-002 -2.438625e-001
    outer loop
      vertex  4.446550e+000  7.488997e-015  2.744170e+001
      vertex  4.473950e+000 -1.365334e+000  2.711595e+001
      vertex  4.267955e+000  7.400827e-015  2.673372e+001
    endloop
  endfacet
  facet normal  9.538219e-001  6.160594e-002 -2.939872e-001
    outer loop
      vertex  4.267955e+000  7.400827e-015  2.673372e+001
      vertex  4.473950e+000 -1.365334e+000  2.711595e+001
      vertex  4.403631e+000 -1.464191e+000  2.686709e+001
    endloop
  endfacet
  facet normal  8.485200e-001  3.050757e-002 -5.282831e-001
    outer loop
      vertex  4.267955e+000  7.400827e-015  2.673372e+001
      vertex  4.403631e+000 -1.464191e+000  2.686709e+001
      vertex  4.262924e+000 -1.500000e+000  2.663902e+001
    endloop
  endfacet
  facet normal  5.445662e-001  3.443967e-002 -8.380104e-001
    outer loop
      vertex  3.655714e+000  1.612607e-015  2.633587e+001
      vertex  4.267955e+000  7.400827e-015  2.673372e+001
      vertex  3.698253e+000 -1.500000e+000  2.630187e+001
    endloop
  endfacet
  facet normal  5.119451e-001  5.241663e-002 -8.574175e-001
    outer loop
      vertex  3.698253e+000 -1.500000e+000  2.630187e+001
      vertex  4.267955e+000  7.400827e-015  2.673372e+001
      vertex  4.262924e+000 -1.500000e+000  2.663902e+001
    endloop
  endfacet
  facet normal -9.356023e-001  0.000000e+000 -3.530559e-001
    outer loop
      vertex -3.224563e+001 -1.500000e+000  1.890385e+001
      vertex -5.273252e+001 -1.500000e+000  7.319437e+001
      vertex -3.226644e+001  2.264349e-014  1.895900e+001
    endloop
  endfacet
  facet normal -9.356023e-001 -3.814698e-006 -3.530560e-001
    outer loop
      vertex -3.226644e+001  2.264349e-014  1.895900e+001
      vertex -5.273252e+001 -1.500000e+000  7.319437e+001
      vertex -3.297255e+001  0.000000e+000  2.083020e+001
    endloop
  endfacet
  facet normal -9.356023e-001  -0.000000e+000 -3.530558e-001
    outer loop
      vertex -5.273252e+001 -1.500000e+000  7.319437e+001
      vertex -5.273252e+001  1.500000e+000  7.319437e+001
      vertex -3.297255e+001  0.000000e+000  2.083020e+001
    endloop
  endfacet
  facet normal -9.356022e-001  5.922654e-007 -3.530558e-001
    outer loop
      vertex -3.297255e+001  0.000000e+000  2.083020e+001
      vertex -5.273252e+001  1.500000e+000  7.319437e+001
      vertex -3.295361e+001  1.500000e+000  2.078002e+001
    endloop
  endfacet
  facet normal -9.351562e-001 -3.087350e-002 -3.528877e-001
    outer loop
      vertex -3.297255e+001  0.000000e+000  2.083020e+001
      vertex -3.297255e+001  3.617127e+000  2.051375e+001
      vertex -3.226644e+001  2.264349e-014  1.895900e+001
    endloop
  endfacet
  facet normal -9.351562e-001 -3.087355e-002 -3.528876e-001
    outer loop
      vertex -3.226644e+001  2.264349e-014  1.895900e+001
      vertex -3.297255e+001  3.617127e+000  2.051375e+001
      vertex -3.226644e+001  3.292196e+000  1.867097e+001
    endloop
  endfacet
  facet normal -9.351562e-001 -9.168298e-002 -3.421652e-001
    outer loop
      vertex -3.297255e+001  3.617127e+000  2.051375e+001
      vertex -3.297255e+001  7.124349e+000  1.957399e+001
      vertex -3.226644e+001  3.292196e+000  1.867097e+001
    endloop
  endfacet
  facet normal -9.351563e-001 -9.168302e-002 -3.421651e-001
    outer loop
      vertex -3.226644e+001  3.292196e+000  1.867097e+001
      vertex -3.297255e+001  7.124349e+000  1.957399e+001
      vertex -3.226644e+001  6.484359e+000  1.781563e+001
    endloop
  endfacet
endsolid CATIA STL
