solid CATIA STL
  facet normal  0.000000e+000  9.999999e-001  0.000000e+000
    outer loop
      vertex -4.440892e-016 -1.114488e+001 -1.707384e+001
      vertex  8.881784e-016 -1.114488e+001  2.479986e+001
      vertex  3.000000e+000 -1.114488e+001 -1.707384e+001
    endloop
  endfacet
  facet normal  0.000000e+000  9.999999e-001  -0.000000e+000
    outer loop
      vertex  3.000000e+000 -1.114488e+001 -1.707384e+001
      vertex  8.881784e-016 -1.114488e+001  2.479986e+001
      vertex  3.000000e+000 -1.114488e+001  2.479986e+001
    endloop
  endfacet
  facet normal  0.000000e+000 -9.999999e-001  0.000000e+000
    outer loop
      vertex -4.440892e-016  1.114488e+001 -1.707384e+001
      vertex  3.000000e+000  1.114488e+001 -1.707384e+001
      vertex  8.881784e-016  1.114488e+001  2.479986e+001
    endloop
  endfacet
  facet normal  0.000000e+000 -9.999999e-001  0.000000e+000
    outer loop
      vertex  8.881784e-016  1.114488e+001  2.479986e+001
      vertex  3.000000e+000  1.114488e+001 -1.707384e+001
      vertex  3.000000e+000  1.114488e+001  2.479986e+001
    endloop
  endfacet
  facet normal -1.000000e+000  0.000000e+000  0.000000e+000
    outer loop
      vertex  0.000000e+000 -4.900000e+000  3.110000e+001
      vertex  0.000000e+000 -7.276909e+000  3.423516e+001
      vertex  0.000000e+000  1.768625e-014  3.500000e+001
    endloop
  endfacet
  facet normal -1.000000e+000  -0.000000e+000  0.000000e+000
    outer loop
      vertex  0.000000e+000 -3.480827e+001  3.658496e+000
      vertex  0.000000e+000 -3.010000e+001  2.500000e+000
      vertex  0.000000e+000 -3.186777e+001  1.767767e+000
    endloop
  endfacet
  facet normal -9.999999e-001  0.000000e+000  -0.000000e+000
    outer loop
      vertex  0.000000e+000 -1.423578e+001  3.197409e+001
      vertex  0.000000e+000 -7.276909e+000  3.423516e+001
      vertex  0.000000e+000 -4.900000e+000  3.110000e+001
    endloop
  endfacet
  facet normal -1.000000e+000  -0.000000e+000  0.000000e+000
    outer loop
      vertex  0.000000e+000  7.276909e+000  3.423516e+001
      vertex  0.000000e+000  1.423578e+001  3.197409e+001
      vertex  0.000000e+000  4.900000e+000  3.110000e+001
    endloop
  endfacet
  facet normal -1.000000e+000  0.000000e+000  0.000000e+000
    outer loop
      vertex  0.000000e+000  3.186777e+001  1.767767e+000
      vertex  0.000000e+000  3.010000e+001  2.500000e+000
      vertex  0.000000e+000  3.480827e+001  3.658496e+000
    endloop
  endfacet
  facet normal -9.999999e-001  -0.000000e+000  0.000000e+000
    outer loop
      vertex  0.000000e+000  4.900000e+000 -2.317175e+001
      vertex  0.000000e+000  2.601007e+001 -2.341957e+001
      vertex  0.000000e+000  2.057248e+001 -2.831560e+001
    endloop
  endfacet
  facet normal -1.000000e+000  -0.000000e+000  0.000000e+000
    outer loop
      vertex  0.000000e+000  4.900000e+000 -2.317175e+001
      vertex  0.000000e+000  2.057248e+001 -2.831560e+001
      vertex  0.000000e+000  1.423578e+001 -3.197409e+001
    endloop
  endfacet
  facet normal -1.000000e+000  -0.000000e+000  0.000000e+000
    outer loop
      vertex  0.000000e+000  4.900000e+000 -2.317175e+001
      vertex  0.000000e+000  1.423578e+001 -3.197409e+001
      vertex  0.000000e+000  7.276909e+000 -3.423516e+001
    endloop
  endfacet
  facet normal -1.000000e+000  -0.000000e+000  0.000000e+000
    outer loop
      vertex  0.000000e+000  4.900000e+000 -2.317175e+001
      vertex  0.000000e+000  7.276909e+000 -3.423516e+001
      vertex  0.000000e+000 -6.860188e-014 -3.500000e+001
    endloop
  endfacet
  facet normal -1.000000e+000  0.000000e+000  0.000000e+000
    outer loop
      vertex  0.000000e+000  4.900000e+000 -2.317175e+001
      vertex  0.000000e+000 -6.860188e-014 -3.500000e+001
      vertex  0.000000e+000 -4.900000e+000 -2.317175e+001
    endloop
  endfacet
  facet normal -1.000000e+000  0.000000e+000  0.000000e+000
    outer loop
      vertex  0.000000e+000  4.900000e+000 -2.317175e+001
      vertex  0.000000e+000 -4.900000e+000 -2.317175e+001
      vertex  0.000000e+000 -3.132233e+000 -2.243951e+001
    endloop
  endfacet
  facet normal -9.999999e-001  0.000000e+000  0.000000e+000
    outer loop
      vertex  0.000000e+000  4.900000e+000 -2.317175e+001
      vertex  0.000000e+000 -3.132233e+000 -2.243951e+001
      vertex  0.000000e+000  3.132233e+000 -2.243951e+001
    endloop
  endfacet
  facet normal -1.000000e+000  0.000000e+000  0.000000e+000
    outer loop
      vertex  0.000000e+000 -3.480827e+001 -3.658496e+000
      vertex  0.000000e+000 -3.480827e+001  3.658496e+000
      vertex  0.000000e+000 -3.186777e+001  1.767767e+000
    endloop
  endfacet
  facet normal -1.000000e+000  0.000000e+000  0.000000e+000
    outer loop
      vertex  0.000000e+000 -3.480827e+001 -3.658496e+000
      vertex  0.000000e+000 -3.186777e+001  1.767767e+000
      vertex  0.000000e+000 -3.260000e+001 -6.123234e-016
    endloop
  endfacet
  facet normal -9.999999e-001  0.000000e+000  -0.000000e+000
    outer loop
      vertex  0.000000e+000 -3.480827e+001 -3.658496e+000
      vertex  0.000000e+000 -3.260000e+001 -6.123234e-016
      vertex  0.000000e+000 -3.186777e+001 -1.767767e+000
    endloop
  endfacet
  facet normal -1.000000e+000  0.000000e+000  -0.000000e+000
    outer loop
      vertex  0.000000e+000 -3.480827e+001 -3.658496e+000
      vertex  0.000000e+000 -3.186777e+001 -1.767767e+000
      vertex  0.000000e+000 -3.010000e+001 -2.500000e+000
    endloop
  endfacet
  facet normal -1.000000e+000  0.000000e+000  -0.000000e+000
    outer loop
      vertex  0.000000e+000 -2.057248e+001  2.831560e+001
      vertex  0.000000e+000 -1.423578e+001  3.197409e+001
      vertex  0.000000e+000 -4.900000e+000  3.110000e+001
    endloop
  endfacet
  facet normal -1.000000e+000  0.000000e+000  0.000000e+000
    outer loop
      vertex  0.000000e+000 -2.057248e+001  2.831560e+001
      vertex  0.000000e+000 -4.900000e+000  3.110000e+001
      vertex  0.000000e+000 -6.667767e+000  3.036777e+001
    endloop
  endfacet
  facet normal -1.000000e+000  0.000000e+000  0.000000e+000
    outer loop
      vertex  0.000000e+000 -2.057248e+001  2.831560e+001
      vertex  0.000000e+000 -6.667767e+000  3.036777e+001
      vertex  0.000000e+000 -7.400000e+000  2.860000e+001
    endloop
  endfacet
  facet normal -1.000000e+000 -8.202688e-018  1.980304e-017
    outer loop
      vertex -4.440892e-016 -1.114488e+001 -1.707384e+001
      vertex  0.000000e+000 -3.010000e+001 -2.500000e+000
      vertex  0.000000e+000 -2.833223e+001 -1.767767e+000
    endloop
  endfacet
  facet normal -1.000000e+000 -1.887546e-017  7.818471e-018
    outer loop
      vertex -4.440892e-016 -1.114488e+001 -1.707384e+001
      vertex  0.000000e+000 -2.833223e+001 -1.767767e+000
      vertex  0.000000e+000 -2.760000e+001  3.061617e-016
    endloop
  endfacet
  facet normal -1.000000e+000 -4.732960e-017 -1.960456e-017
    outer loop
      vertex -4.440892e-016 -1.114488e+001 -1.707384e+001
      vertex  0.000000e+000 -2.760000e+001  3.061617e-016
      vertex  0.000000e+000 -2.833223e+001  1.767767e+000
    endloop
  endfacet
  facet normal -1.000000e+000  4.165409e-017 -1.675591e-016
    outer loop
      vertex  0.000000e+000 -2.601007e+001 -2.341957e+001
      vertex -4.440892e-016 -1.114488e+001 -1.707384e+001
      vertex  0.000000e+000 -4.900000e+000 -1.817175e+001
    endloop
  endfacet
  facet normal -9.999999e-001  0.000000e+000  0.000000e+000
    outer loop
      vertex  0.000000e+000 -2.601007e+001 -2.341957e+001
      vertex  0.000000e+000 -4.900000e+000 -1.817175e+001
      vertex  0.000000e+000 -6.667767e+000 -1.890398e+001
    endloop
  endfacet
  facet normal -1.000000e+000  0.000000e+000  0.000000e+000
    outer loop
      vertex  0.000000e+000 -2.601007e+001 -2.341957e+001
      vertex  0.000000e+000 -6.667767e+000 -1.890398e+001
      vertex  0.000000e+000 -7.400000e+000 -2.067175e+001
    endloop
  endfacet
  facet normal -1.000000e+000  0.000000e+000  -0.000000e+000
    outer loop
      vertex  0.000000e+000 -2.601007e+001 -2.341957e+001
      vertex  0.000000e+000 -7.400000e+000 -2.067175e+001
      vertex  0.000000e+000 -6.667767e+000 -2.243951e+001
    endloop
  endfacet
  facet normal -1.000000e+000  0.000000e+000  -0.000000e+000
    outer loop
      vertex  0.000000e+000 -2.601007e+001 -2.341957e+001
      vertex  0.000000e+000 -6.667767e+000 -2.243951e+001
      vertex  0.000000e+000 -4.900000e+000 -2.317175e+001
    endloop
  endfacet
  facet normal -1.000000e+000 -5.679461e-017  3.181633e-017
    outer loop
      vertex -4.440892e-016  1.114488e+001 -1.707384e+001
      vertex  8.881784e-016  1.114488e+001  2.479986e+001
      vertex  0.000000e+000  2.601007e+001  2.341957e+001
    endloop
  endfacet
  facet normal -1.000000e+000  2.311987e-017  2.479615e-018
    outer loop
      vertex -4.440892e-016  1.114488e+001 -1.707384e+001
      vertex  0.000000e+000  2.601007e+001  2.341957e+001
      vertex  0.000000e+000  2.833223e+001  1.767767e+000
    endloop
  endfacet
  facet normal -1.000000e+000  4.732961e-017 -1.960457e-017
    outer loop
      vertex -4.440892e-016  1.114488e+001 -1.707384e+001
      vertex  0.000000e+000  2.833223e+001  1.767767e+000
      vertex  0.000000e+000  2.760000e+001  3.061617e-016
    endloop
  endfacet
  facet normal -1.000000e+000  1.887546e-017  7.818471e-018
    outer loop
      vertex -4.440892e-016  1.114488e+001 -1.707384e+001
      vertex  0.000000e+000  2.760000e+001  3.061617e-016
      vertex  0.000000e+000  2.833223e+001 -1.767767e+000
    endloop
  endfacet
  facet normal -1.000000e+000  8.202687e-018  1.980304e-017
    outer loop
      vertex -4.440892e-016  1.114488e+001 -1.707384e+001
      vertex  0.000000e+000  2.833223e+001 -1.767767e+000
      vertex  0.000000e+000  3.010000e+001 -2.500000e+000
    endloop
  endfacet
  facet normal -1.000000e+000  0.000000e+000  0.000000e+000
    outer loop
      vertex  0.000000e+000  2.601007e+001 -2.341957e+001
      vertex  0.000000e+000  4.900000e+000 -2.317175e+001
      vertex  0.000000e+000  6.667767e+000 -2.243951e+001
    endloop
  endfacet
  facet normal -1.000000e+000  0.000000e+000  0.000000e+000
    outer loop
      vertex  0.000000e+000  2.601007e+001 -2.341957e+001
      vertex  0.000000e+000  6.667767e+000 -2.243951e+001
      vertex  0.000000e+000  7.400000e+000 -2.067175e+001
    endloop
  endfacet
  facet normal -1.000000e+000  0.000000e+000  0.000000e+000
    outer loop
      vertex  0.000000e+000  2.601007e+001 -2.341957e+001
      vertex  0.000000e+000  7.400000e+000 -2.067175e+001
      vertex  0.000000e+000  6.667767e+000 -1.890398e+001
    endloop
  endfacet
  facet normal -9.999999e-001  0.000000e+000  0.000000e+000
    outer loop
      vertex  0.000000e+000  2.601007e+001 -2.341957e+001
      vertex  0.000000e+000  6.667767e+000 -1.890398e+001
      vertex  0.000000e+000  4.900000e+000 -1.817175e+001
    endloop
  endfacet
  facet normal -1.000000e+000 -4.165409e-017 -1.675591e-016
    outer loop
      vertex  0.000000e+000  2.601007e+001 -2.341957e+001
      vertex  0.000000e+000  4.900000e+000 -1.817175e+001
      vertex -4.440892e-016  1.114488e+001 -1.707384e+001
    endloop
  endfacet
  facet normal -1.000000e+000  0.000000e+000  0.000000e+000
    outer loop
      vertex  0.000000e+000  3.480827e+001 -3.658496e+000
      vertex  0.000000e+000  3.010000e+001 -2.500000e+000
      vertex  0.000000e+000  3.186777e+001 -1.767767e+000
    endloop
  endfacet
  facet normal -1.000000e+000  0.000000e+000  0.000000e+000
    outer loop
      vertex  0.000000e+000  3.480827e+001 -3.658496e+000
      vertex  0.000000e+000  3.186777e+001 -1.767767e+000
      vertex  0.000000e+000  3.260000e+001 -6.123234e-016
    endloop
  endfacet
  facet normal -9.999999e-001  0.000000e+000  0.000000e+000
    outer loop
      vertex  0.000000e+000  3.480827e+001 -3.658496e+000
      vertex  0.000000e+000  3.260000e+001 -6.123234e-016
      vertex  0.000000e+000  3.186777e+001  1.767767e+000
    endloop
  endfacet
  facet normal -1.000000e+000  0.000000e+000  0.000000e+000
    outer loop
      vertex  0.000000e+000  3.480827e+001 -3.658496e+000
      vertex  0.000000e+000  3.186777e+001  1.767767e+000
      vertex  0.000000e+000  3.480827e+001  3.658496e+000
    endloop
  endfacet
  facet normal -1.000000e+000  0.000000e+000  0.000000e+000
    outer loop
      vertex  0.000000e+000  2.400000e+000  2.860000e+001
      vertex  0.000000e+000 -3.132233e+000  3.036777e+001
      vertex  0.000000e+000  3.132233e+000  3.036777e+001
    endloop
  endfacet
  facet normal -9.999999e-001  0.000000e+000  0.000000e+000
    outer loop
      vertex  0.000000e+000  3.132233e+000  3.036777e+001
      vertex  0.000000e+000 -3.132233e+000  3.036777e+001
      vertex  0.000000e+000 -4.900000e+000  3.110000e+001
    endloop
  endfacet
  facet normal -1.000000e+000  0.000000e+000  0.000000e+000
    outer loop
      vertex  0.000000e+000  3.132233e+000  3.036777e+001
      vertex  0.000000e+000 -4.900000e+000  3.110000e+001
      vertex  0.000000e+000  4.900000e+000  3.110000e+001
    endloop
  endfacet
  facet normal -1.000000e+000  0.000000e+000  0.000000e+000
    outer loop
      vertex  0.000000e+000  4.900000e+000  3.110000e+001
      vertex  0.000000e+000 -4.900000e+000  3.110000e+001
      vertex  0.000000e+000  1.768625e-014  3.500000e+001
    endloop
  endfacet
  facet normal -1.000000e+000  0.000000e+000  0.000000e+000
    outer loop
      vertex  0.000000e+000  4.900000e+000  3.110000e+001
      vertex  0.000000e+000  1.768625e-014  3.500000e+001
      vertex  0.000000e+000  7.276909e+000  3.423516e+001
    endloop
  endfacet
  facet normal -1.000000e+000  0.000000e+000  0.000000e+000
    outer loop
      vertex  0.000000e+000 -3.132233e+000  3.036777e+001
      vertex  0.000000e+000  2.400000e+000  2.860000e+001
      vertex  0.000000e+000 -2.400000e+000  2.860000e+001
    endloop
  endfacet
  facet normal -1.000000e+000  0.000000e+000  0.000000e+000
    outer loop
      vertex  0.000000e+000 -2.400000e+000  2.860000e+001
      vertex  0.000000e+000  2.400000e+000  2.860000e+001
      vertex  0.000000e+000  3.132233e+000  2.683223e+001
    endloop
  endfacet
  facet normal -1.000000e+000  0.000000e+000  0.000000e+000
    outer loop
      vertex  0.000000e+000 -2.400000e+000  2.860000e+001
      vertex  0.000000e+000  3.132233e+000  2.683223e+001
      vertex  0.000000e+000 -3.132233e+000  2.683223e+001
    endloop
  endfacet
  facet normal -9.999999e-001  0.000000e+000  0.000000e+000
    outer loop
      vertex  0.000000e+000 -3.132233e+000  2.683223e+001
      vertex  0.000000e+000  3.132233e+000  2.683223e+001
      vertex  0.000000e+000  4.900000e+000  2.610000e+001
    endloop
  endfacet
  facet normal -1.000000e+000  0.000000e+000  0.000000e+000
    outer loop
      vertex  0.000000e+000 -3.132233e+000  2.683223e+001
      vertex  0.000000e+000  4.900000e+000  2.610000e+001
      vertex  0.000000e+000 -4.900000e+000  2.610000e+001
    endloop
  endfacet
  facet normal -1.000000e+000  0.000000e+000 -6.831414e-016
    outer loop
      vertex  0.000000e+000 -4.900000e+000  2.610000e+001
      vertex  0.000000e+000  4.900000e+000  2.610000e+001
      vertex  8.881784e-016  1.114488e+001  2.479986e+001
    endloop
  endfacet
  facet normal -1.000000e+000  -0.000000e+000 -6.831414e-016
    outer loop
      vertex  0.000000e+000 -4.900000e+000  2.610000e+001
      vertex  8.881784e-016  1.114488e+001  2.479986e+001
      vertex  8.881784e-016 -1.114488e+001  2.479986e+001
    endloop
  endfacet
  facet normal -1.000000e+000  0.000000e+000  0.000000e+000
    outer loop
      vertex  0.000000e+000  3.328698e+001 -1.081559e+001
      vertex  0.000000e+000  3.031089e+001 -1.750000e+001
      vertex  0.000000e+000  3.480827e+001 -3.658496e+000
    endloop
  endfacet
  facet normal -1.000000e+000  -0.000000e+000  0.000000e+000
    outer loop
      vertex  0.000000e+000  3.480827e+001 -3.658496e+000
      vertex  0.000000e+000  3.031089e+001 -1.750000e+001
      vertex  0.000000e+000  3.010000e+001 -2.500000e+000
    endloop
  endfacet
  facet normal -1.000000e+000  0.000000e+000  0.000000e+000
    outer loop
      vertex  0.000000e+000  3.031089e+001 -1.750000e+001
      vertex  0.000000e+000  2.601007e+001 -2.341957e+001
      vertex  0.000000e+000  3.010000e+001 -2.500000e+000
    endloop
  endfacet
  facet normal -1.000000e+000  2.757320e-017 -5.390765e-018
    outer loop
      vertex  0.000000e+000  3.010000e+001 -2.500000e+000
      vertex  0.000000e+000  2.601007e+001 -2.341957e+001
      vertex -4.440892e-016  1.114488e+001 -1.707384e+001
    endloop
  endfacet
  facet normal -1.000000e+000  0.000000e+000  0.000000e+000
    outer loop
      vertex  0.000000e+000  3.480827e+001  3.658496e+000
      vertex  0.000000e+000  3.010000e+001  2.500000e+000
      vertex  0.000000e+000  3.328698e+001  1.081559e+001
    endloop
  endfacet
  facet normal -1.000000e+000  -0.000000e+000  0.000000e+000
    outer loop
      vertex  0.000000e+000  3.328698e+001  1.081559e+001
      vertex  0.000000e+000  3.010000e+001  2.500000e+000
      vertex  0.000000e+000  3.031089e+001  1.750000e+001
    endloop
  endfacet
  facet normal -1.000000e+000  0.000000e+000  0.000000e+000
    outer loop
      vertex  0.000000e+000  3.010000e+001  2.500000e+000
      vertex  0.000000e+000  2.833223e+001  1.767767e+000
      vertex  0.000000e+000  3.031089e+001  1.750000e+001
    endloop
  endfacet
  facet normal -1.000000e+000  -0.000000e+000  0.000000e+000
    outer loop
      vertex  0.000000e+000  3.031089e+001  1.750000e+001
      vertex  0.000000e+000  2.833223e+001  1.767767e+000
      vertex  0.000000e+000  2.601007e+001  2.341957e+001
    endloop
  endfacet
  facet normal -1.000000e+000  0.000000e+000  0.000000e+000
    outer loop
      vertex  0.000000e+000 -6.860188e-014 -3.500000e+001
      vertex  0.000000e+000 -7.276909e+000 -3.423516e+001
      vertex  0.000000e+000 -4.900000e+000 -2.317175e+001
    endloop
  endfacet
  facet normal -1.000000e+000  0.000000e+000  0.000000e+000
    outer loop
      vertex  0.000000e+000 -4.900000e+000 -2.317175e+001
      vertex  0.000000e+000 -7.276909e+000 -3.423516e+001
      vertex  0.000000e+000 -2.601007e+001 -2.341957e+001
    endloop
  endfacet
  facet normal -1.000000e+000  0.000000e+000  0.000000e+000
    outer loop
      vertex  0.000000e+000 -7.276909e+000 -3.423516e+001
      vertex  0.000000e+000 -1.423578e+001 -3.197409e+001
      vertex  0.000000e+000 -2.601007e+001 -2.341957e+001
    endloop
  endfacet
  facet normal -1.000000e+000  0.000000e+000  0.000000e+000
    outer loop
      vertex  0.000000e+000 -2.601007e+001 -2.341957e+001
      vertex  0.000000e+000 -1.423578e+001 -3.197409e+001
      vertex  0.000000e+000 -2.057248e+001 -2.831560e+001
    endloop
  endfacet
  facet normal -1.000000e+000  0.000000e+000  0.000000e+000
    outer loop
      vertex  0.000000e+000  3.132233e+000 -1.890398e+001
      vertex  0.000000e+000 -4.900000e+000 -1.817175e+001
      vertex  0.000000e+000  4.900000e+000 -1.817175e+001
    endloop
  endfacet
  facet normal -1.000000e+000  -0.000000e+000 -4.044867e-016
    outer loop
      vertex  0.000000e+000  4.900000e+000 -1.817175e+001
      vertex  0.000000e+000 -4.900000e+000 -1.817175e+001
      vertex -4.440892e-016 -1.114488e+001 -1.707384e+001
    endloop
  endfacet
  facet normal -9.999999e-001  0.000000e+000 -4.044867e-016
    outer loop
      vertex  0.000000e+000  4.900000e+000 -1.817175e+001
      vertex -4.440892e-016 -1.114488e+001 -1.707384e+001
      vertex -4.440892e-016  1.114488e+001 -1.707384e+001
    endloop
  endfacet
  facet normal -9.999999e-001  0.000000e+000  0.000000e+000
    outer loop
      vertex  0.000000e+000 -4.900000e+000 -1.817175e+001
      vertex  0.000000e+000  3.132233e+000 -1.890398e+001
      vertex  0.000000e+000 -3.132233e+000 -1.890398e+001
    endloop
  endfacet
  facet normal -1.000000e+000  0.000000e+000  0.000000e+000
    outer loop
      vertex  0.000000e+000 -3.132233e+000 -1.890398e+001
      vertex  0.000000e+000  3.132233e+000 -1.890398e+001
      vertex  0.000000e+000  2.400000e+000 -2.067175e+001
    endloop
  endfacet
  facet normal -1.000000e+000  0.000000e+000  0.000000e+000
    outer loop
      vertex  0.000000e+000 -3.132233e+000 -1.890398e+001
      vertex  0.000000e+000  2.400000e+000 -2.067175e+001
      vertex  0.000000e+000 -2.400000e+000 -2.067175e+001
    endloop
  endfacet
  facet normal -1.000000e+000  0.000000e+000  0.000000e+000
    outer loop
      vertex  0.000000e+000 -2.400000e+000 -2.067175e+001
      vertex  0.000000e+000  2.400000e+000 -2.067175e+001
      vertex  0.000000e+000  3.132233e+000 -2.243951e+001
    endloop
  endfacet
  facet normal -1.000000e+000  0.000000e+000  0.000000e+000
    outer loop
      vertex  0.000000e+000 -2.400000e+000 -2.067175e+001
      vertex  0.000000e+000  3.132233e+000 -2.243951e+001
      vertex  0.000000e+000 -3.132233e+000 -2.243951e+001
    endloop
  endfacet
  facet normal -1.000000e+000 -2.280230e-017 -1.656684e-017
    outer loop
      vertex  0.000000e+000 -2.601007e+001 -2.341957e+001
      vertex  0.000000e+000 -3.031089e+001 -1.750000e+001
      vertex -4.440892e-016 -1.114488e+001 -1.707384e+001
    endloop
  endfacet
  facet normal -1.000000e+000 -2.317791e-017  3.258628e-019
    outer loop
      vertex -4.440892e-016 -1.114488e+001 -1.707384e+001
      vertex  0.000000e+000 -3.031089e+001 -1.750000e+001
      vertex  0.000000e+000 -3.010000e+001 -2.500000e+000
    endloop
  endfacet
  facet normal -1.000000e+000  0.000000e+000  0.000000e+000
    outer loop
      vertex  0.000000e+000 -3.031089e+001 -1.750000e+001
      vertex  0.000000e+000 -3.328698e+001 -1.081559e+001
      vertex  0.000000e+000 -3.010000e+001 -2.500000e+000
    endloop
  endfacet
  facet normal -1.000000e+000  0.000000e+000  0.000000e+000
    outer loop
      vertex  0.000000e+000 -3.010000e+001 -2.500000e+000
      vertex  0.000000e+000 -3.328698e+001 -1.081559e+001
      vertex  0.000000e+000 -3.480827e+001 -3.658496e+000
    endloop
  endfacet
  facet normal -1.000000e+000  9.040461e-018  3.181633e-017
    outer loop
      vertex  0.000000e+000 -2.833223e+001  1.767767e+000
      vertex  8.881784e-016 -1.114488e+001  2.479986e+001
      vertex -4.440892e-016 -1.114488e+001 -1.707384e+001
    endloop
  endfacet
  facet normal -9.999999e-001  6.034988e-017 -6.472548e-018
    outer loop
      vertex  8.881784e-016 -1.114488e+001  2.479986e+001
      vertex  0.000000e+000 -2.833223e+001  1.767767e+000
      vertex  0.000000e+000 -2.601007e+001  2.341957e+001
    endloop
  endfacet
  facet normal -1.000000e+000  0.000000e+000  0.000000e+000
    outer loop
      vertex  0.000000e+000 -2.601007e+001  2.341957e+001
      vertex  0.000000e+000 -2.833223e+001  1.767767e+000
      vertex  0.000000e+000 -3.010000e+001  2.500000e+000
    endloop
  endfacet
  facet normal -1.000000e+000  0.000000e+000  0.000000e+000
    outer loop
      vertex  0.000000e+000 -2.601007e+001  2.341957e+001
      vertex  0.000000e+000 -3.010000e+001  2.500000e+000
      vertex  0.000000e+000 -3.031089e+001  1.750000e+001
    endloop
  endfacet
  facet normal -1.000000e+000  0.000000e+000  -0.000000e+000
    outer loop
      vertex  0.000000e+000 -3.031089e+001  1.750000e+001
      vertex  0.000000e+000 -3.010000e+001  2.500000e+000
      vertex  0.000000e+000 -3.480827e+001  3.658496e+000
    endloop
  endfacet
  facet normal -1.000000e+000  0.000000e+000  0.000000e+000
    outer loop
      vertex  0.000000e+000 -3.031089e+001  1.750000e+001
      vertex  0.000000e+000 -3.480827e+001  3.658496e+000
      vertex  0.000000e+000 -3.328698e+001  1.081559e+001
    endloop
  endfacet
  facet normal -1.000000e+000  0.000000e+000  0.000000e+000
    outer loop
      vertex  0.000000e+000 -7.400000e+000  2.860000e+001
      vertex  0.000000e+000 -6.667767e+000  2.683223e+001
      vertex  0.000000e+000 -2.057248e+001  2.831560e+001
    endloop
  endfacet
  facet normal -9.999999e-001  0.000000e+000  -0.000000e+000
    outer loop
      vertex  0.000000e+000 -2.057248e+001  2.831560e+001
      vertex  0.000000e+000 -6.667767e+000  2.683223e+001
      vertex  0.000000e+000 -2.601007e+001  2.341957e+001
    endloop
  endfacet
  facet normal -1.000000e+000  -0.000000e+000  0.000000e+000
    outer loop
      vertex  0.000000e+000 -6.667767e+000  2.683223e+001
      vertex  0.000000e+000 -4.900000e+000  2.610000e+001
      vertex  0.000000e+000 -2.601007e+001  2.341957e+001
    endloop
  endfacet
  facet normal -1.000000e+000  2.223488e-016 -1.751137e-015
    outer loop
      vertex  0.000000e+000 -2.601007e+001  2.341957e+001
      vertex  0.000000e+000 -4.900000e+000  2.610000e+001
      vertex  8.881784e-016 -1.114488e+001  2.479986e+001
    endloop
  endfacet
  facet normal -1.000000e+000  0.000000e+000  0.000000e+000
    outer loop
      vertex  0.000000e+000  7.400000e+000  2.860000e+001
      vertex  0.000000e+000  6.667767e+000  3.036777e+001
      vertex  0.000000e+000  2.057248e+001  2.831560e+001
    endloop
  endfacet
  facet normal -1.000000e+000  0.000000e+000  0.000000e+000
    outer loop
      vertex  0.000000e+000  2.057248e+001  2.831560e+001
      vertex  0.000000e+000  6.667767e+000  3.036777e+001
      vertex  0.000000e+000  4.900000e+000  3.110000e+001
    endloop
  endfacet
  facet normal -1.000000e+000  0.000000e+000  0.000000e+000
    outer loop
      vertex  0.000000e+000  2.057248e+001  2.831560e+001
      vertex  0.000000e+000  4.900000e+000  3.110000e+001
      vertex  0.000000e+000  1.423578e+001  3.197409e+001
    endloop
  endfacet
  facet normal -1.000000e+000  0.000000e+000  0.000000e+000
    outer loop
      vertex  0.000000e+000  2.057248e+001  2.831560e+001
      vertex  0.000000e+000  2.601007e+001  2.341957e+001
      vertex  0.000000e+000  7.400000e+000  2.860000e+001
    endloop
  endfacet
  facet normal -1.000000e+000  0.000000e+000  -0.000000e+000
    outer loop
      vertex  0.000000e+000  7.400000e+000  2.860000e+001
      vertex  0.000000e+000  2.601007e+001  2.341957e+001
      vertex  0.000000e+000  6.667767e+000  2.683223e+001
    endloop
  endfacet
  facet normal -1.000000e+000 -1.261264e-016 -7.148598e-016
    outer loop
      vertex  0.000000e+000  2.601007e+001  2.341957e+001
      vertex  8.881784e-016  1.114488e+001  2.479986e+001
      vertex  0.000000e+000  6.667767e+000  2.683223e+001
    endloop
  endfacet
  facet normal -1.000000e+000  9.465128e-017 -2.285084e-016
    outer loop
      vertex  0.000000e+000  6.667767e+000  2.683223e+001
      vertex  8.881784e-016  1.114488e+001  2.479986e+001
      vertex  0.000000e+000  4.900000e+000  2.610000e+001
    endloop
  endfacet
  facet normal  0.000000e+000  0.000000e+000 -1.000000e+000
    outer loop
      vertex  8.881784e-016 -1.114488e+001  2.479986e+001
      vertex  8.881784e-016  1.114488e+001  2.479986e+001
      vertex  3.000000e+000 -1.114488e+001  2.479986e+001
    endloop
  endfacet
  facet normal  0.000000e+000  0.000000e+000 -1.000000e+000
    outer loop
      vertex  3.000000e+000 -1.114488e+001  2.479986e+001
      vertex  8.881784e-016  1.114488e+001  2.479986e+001
      vertex  3.000000e+000  1.114488e+001  2.479986e+001
    endloop
  endfacet
  facet normal  0.000000e+000  0.000000e+000  1.000000e+000
    outer loop
      vertex -4.440892e-016  1.114488e+001 -1.707384e+001
      vertex -4.440892e-016 -1.114488e+001 -1.707384e+001
      vertex  3.000000e+000  1.114488e+001 -1.707384e+001
    endloop
  endfacet
  facet normal  0.000000e+000  0.000000e+000  1.000000e+000
    outer loop
      vertex  3.000000e+000  1.114488e+001 -1.707384e+001
      vertex -4.440892e-016 -1.114488e+001 -1.707384e+001
      vertex  3.000000e+000 -1.114488e+001 -1.707384e+001
    endloop
  endfacet
  facet normal  1.000000e+000  -0.000000e+000  0.000000e+000
    outer loop
      vertex  3.000000e+000  1.768625e-014  3.500000e+001
      vertex  3.000000e+000 -7.276909e+000  3.423516e+001
      vertex  3.000000e+000 -4.900000e+000  3.110000e+001
    endloop
  endfacet
  facet normal  1.000000e+000  0.000000e+000  0.000000e+000
    outer loop
      vertex  3.000000e+000 -3.186777e+001  1.767767e+000
      vertex  3.000000e+000 -3.010000e+001  2.500000e+000
      vertex  3.000000e+000 -3.480827e+001  3.658496e+000
    endloop
  endfacet
  facet normal  9.999999e-001  0.000000e+000  0.000000e+000
    outer loop
      vertex  3.000000e+000 -4.900000e+000  3.110000e+001
      vertex  3.000000e+000 -7.276909e+000  3.423516e+001
      vertex  3.000000e+000 -1.423578e+001  3.197409e+001
    endloop
  endfacet
  facet normal  1.000000e+000  0.000000e+000  0.000000e+000
    outer loop
      vertex  3.000000e+000  4.900000e+000  3.110000e+001
      vertex  3.000000e+000  1.423578e+001  3.197409e+001
      vertex  3.000000e+000  7.276909e+000  3.423516e+001
    endloop
  endfacet
  facet normal  1.000000e+000  -0.000000e+000  0.000000e+000
    outer loop
      vertex  3.000000e+000  3.480827e+001  3.658496e+000
      vertex  3.000000e+000  3.010000e+001  2.500000e+000
      vertex  3.000000e+000  3.186777e+001  1.767767e+000
    endloop
  endfacet
  facet normal  9.999999e-001  0.000000e+000  0.000000e+000
    outer loop
      vertex  3.000000e+000  4.900000e+000 -2.317175e+001
      vertex  3.000000e+000  3.132233e+000 -2.243951e+001
      vertex  3.000000e+000 -3.132233e+000 -2.243951e+001
    endloop
  endfacet
  facet normal  1.000000e+000  0.000000e+000  0.000000e+000
    outer loop
      vertex  3.000000e+000  4.900000e+000 -2.317175e+001
      vertex  3.000000e+000 -3.132233e+000 -2.243951e+001
      vertex  3.000000e+000 -4.900000e+000 -2.317175e+001
    endloop
  endfacet
  facet normal  1.000000e+000  -0.000000e+000  0.000000e+000
    outer loop
      vertex  3.000000e+000  4.900000e+000 -2.317175e+001
      vertex  3.000000e+000 -4.900000e+000 -2.317175e+001
      vertex  3.000000e+000 -6.860188e-014 -3.500000e+001
    endloop
  endfacet
  facet normal  1.000000e+000  0.000000e+000  0.000000e+000
    outer loop
      vertex  3.000000e+000  4.900000e+000 -2.317175e+001
      vertex  3.000000e+000 -6.860188e-014 -3.500000e+001
      vertex  3.000000e+000  7.276909e+000 -3.423516e+001
    endloop
  endfacet
  facet normal  1.000000e+000  0.000000e+000  -0.000000e+000
    outer loop
      vertex  3.000000e+000  4.900000e+000 -2.317175e+001
      vertex  3.000000e+000  7.276909e+000 -3.423516e+001
      vertex  3.000000e+000  1.423578e+001 -3.197409e+001
    endloop
  endfacet
  facet normal  1.000000e+000  0.000000e+000  -0.000000e+000
    outer loop
      vertex  3.000000e+000  4.900000e+000 -2.317175e+001
      vertex  3.000000e+000  1.423578e+001 -3.197409e+001
      vertex  3.000000e+000  2.057248e+001 -2.831560e+001
    endloop
  endfacet
  facet normal  1.000000e+000  0.000000e+000  -0.000000e+000
    outer loop
      vertex  3.000000e+000  4.900000e+000 -2.317175e+001
      vertex  3.000000e+000  2.057248e+001 -2.831560e+001
      vertex  3.000000e+000  2.601007e+001 -2.341957e+001
    endloop
  endfacet
  facet normal  1.000000e+000  0.000000e+000  0.000000e+000
    outer loop
      vertex  3.000000e+000 -3.480827e+001 -3.658496e+000
      vertex  3.000000e+000 -3.010000e+001 -2.500000e+000
      vertex  3.000000e+000 -3.186777e+001 -1.767767e+000
    endloop
  endfacet
  facet normal  1.000000e+000  0.000000e+000  0.000000e+000
    outer loop
      vertex  3.000000e+000 -3.480827e+001 -3.658496e+000
      vertex  3.000000e+000 -3.186777e+001 -1.767767e+000
      vertex  3.000000e+000 -3.260000e+001 -6.123234e-016
    endloop
  endfacet
  facet normal  9.999999e-001  0.000000e+000  -0.000000e+000
    outer loop
      vertex  3.000000e+000 -3.480827e+001 -3.658496e+000
      vertex  3.000000e+000 -3.260000e+001 -6.123234e-016
      vertex  3.000000e+000 -3.186777e+001  1.767767e+000
    endloop
  endfacet
  facet normal  1.000000e+000  0.000000e+000  0.000000e+000
    outer loop
      vertex  3.000000e+000 -3.480827e+001 -3.658496e+000
      vertex  3.000000e+000 -3.186777e+001  1.767767e+000
      vertex  3.000000e+000 -3.480827e+001  3.658496e+000
    endloop
  endfacet
  facet normal  1.000000e+000  0.000000e+000  -0.000000e+000
    outer loop
      vertex  3.000000e+000 -2.057248e+001  2.831560e+001
      vertex  3.000000e+000 -7.400000e+000  2.860000e+001
      vertex  3.000000e+000 -6.667767e+000  3.036777e+001
    endloop
  endfacet
  facet normal  1.000000e+000  0.000000e+000  -0.000000e+000
    outer loop
      vertex  3.000000e+000 -2.057248e+001  2.831560e+001
      vertex  3.000000e+000 -6.667767e+000  3.036777e+001
      vertex  3.000000e+000 -4.900000e+000  3.110000e+001
    endloop
  endfacet
  facet normal  1.000000e+000  0.000000e+000  0.000000e+000
    outer loop
      vertex  3.000000e+000 -2.057248e+001  2.831560e+001
      vertex  3.000000e+000 -4.900000e+000  3.110000e+001
      vertex  3.000000e+000 -1.423578e+001  3.197409e+001
    endloop
  endfacet
  facet normal  1.000000e+000  0.000000e+000  0.000000e+000
    outer loop
      vertex  3.000000e+000 -1.114488e+001 -1.707384e+001
      vertex  3.000000e+000 -2.833223e+001  1.767767e+000
      vertex  3.000000e+000 -2.760000e+001  3.061617e-016
    endloop
  endfacet
  facet normal  1.000000e+000  0.000000e+000  0.000000e+000
    outer loop
      vertex  3.000000e+000 -1.114488e+001 -1.707384e+001
      vertex  3.000000e+000 -2.760000e+001  3.061617e-016
      vertex  3.000000e+000 -2.833223e+001 -1.767767e+000
    endloop
  endfacet
  facet normal  1.000000e+000  0.000000e+000  0.000000e+000
    outer loop
      vertex  3.000000e+000 -1.114488e+001 -1.707384e+001
      vertex  3.000000e+000 -2.833223e+001 -1.767767e+000
      vertex  3.000000e+000 -3.010000e+001 -2.500000e+000
    endloop
  endfacet
  facet normal  1.000000e+000  0.000000e+000  0.000000e+000
    outer loop
      vertex  3.000000e+000 -2.601007e+001 -2.341957e+001
      vertex  3.000000e+000 -4.900000e+000 -2.317175e+001
      vertex  3.000000e+000 -6.667767e+000 -2.243951e+001
    endloop
  endfacet
  facet normal  1.000000e+000  0.000000e+000  0.000000e+000
    outer loop
      vertex  3.000000e+000 -2.601007e+001 -2.341957e+001
      vertex  3.000000e+000 -6.667767e+000 -2.243951e+001
      vertex  3.000000e+000 -7.400000e+000 -2.067175e+001
    endloop
  endfacet
  facet normal  1.000000e+000  0.000000e+000  -0.000000e+000
    outer loop
      vertex  3.000000e+000 -2.601007e+001 -2.341957e+001
      vertex  3.000000e+000 -7.400000e+000 -2.067175e+001
      vertex  3.000000e+000 -6.667767e+000 -1.890398e+001
    endloop
  endfacet
  facet normal  9.999999e-001  0.000000e+000  -0.000000e+000
    outer loop
      vertex  3.000000e+000 -2.601007e+001 -2.341957e+001
      vertex  3.000000e+000 -6.667767e+000 -1.890398e+001
      vertex  3.000000e+000 -4.900000e+000 -1.817175e+001
    endloop
  endfacet
  facet normal  1.000000e+000  0.000000e+000  0.000000e+000
    outer loop
      vertex  3.000000e+000 -2.601007e+001 -2.341957e+001
      vertex  3.000000e+000 -4.900000e+000 -1.817175e+001
      vertex  3.000000e+000 -1.114488e+001 -1.707384e+001
    endloop
  endfacet
  facet normal  1.000000e+000  0.000000e+000  0.000000e+000
    outer loop
      vertex  3.000000e+000  1.114488e+001 -1.707384e+001
      vertex  3.000000e+000  3.010000e+001 -2.500000e+000
      vertex  3.000000e+000  2.833223e+001 -1.767767e+000
    endloop
  endfacet
  facet normal  1.000000e+000  0.000000e+000  0.000000e+000
    outer loop
      vertex  3.000000e+000  1.114488e+001 -1.707384e+001
      vertex  3.000000e+000  2.833223e+001 -1.767767e+000
      vertex  3.000000e+000  2.760000e+001  3.061617e-016
    endloop
  endfacet
  facet normal  1.000000e+000  0.000000e+000  -0.000000e+000
    outer loop
      vertex  3.000000e+000  1.114488e+001 -1.707384e+001
      vertex  3.000000e+000  2.760000e+001  3.061617e-016
      vertex  3.000000e+000  2.833223e+001  1.767767e+000
    endloop
  endfacet
  facet normal  1.000000e+000  0.000000e+000  0.000000e+000
    outer loop
      vertex  3.000000e+000  1.114488e+001 -1.707384e+001
      vertex  3.000000e+000  2.833223e+001  1.767767e+000
      vertex  3.000000e+000  2.601007e+001  2.341957e+001
    endloop
  endfacet
  facet normal  1.000000e+000  0.000000e+000  0.000000e+000
    outer loop
      vertex  3.000000e+000  1.114488e+001 -1.707384e+001
      vertex  3.000000e+000  2.601007e+001  2.341957e+001
      vertex  3.000000e+000  1.114488e+001  2.479986e+001
    endloop
  endfacet
  facet normal  1.000000e+000  0.000000e+000  0.000000e+000
    outer loop
      vertex  3.000000e+000  2.601007e+001 -2.341957e+001
      vertex  3.000000e+000  1.114488e+001 -1.707384e+001
      vertex  3.000000e+000  4.900000e+000 -1.817175e+001
    endloop
  endfacet
  facet normal  9.999999e-001  0.000000e+000  0.000000e+000
    outer loop
      vertex  3.000000e+000  2.601007e+001 -2.341957e+001
      vertex  3.000000e+000  4.900000e+000 -1.817175e+001
      vertex  3.000000e+000  6.667767e+000 -1.890398e+001
    endloop
  endfacet
  facet normal  1.000000e+000  0.000000e+000  0.000000e+000
    outer loop
      vertex  3.000000e+000  2.601007e+001 -2.341957e+001
      vertex  3.000000e+000  6.667767e+000 -1.890398e+001
      vertex  3.000000e+000  7.400000e+000 -2.067175e+001
    endloop
  endfacet
  facet normal  1.000000e+000  0.000000e+000  0.000000e+000
    outer loop
      vertex  3.000000e+000  2.601007e+001 -2.341957e+001
      vertex  3.000000e+000  7.400000e+000 -2.067175e+001
      vertex  3.000000e+000  6.667767e+000 -2.243951e+001
    endloop
  endfacet
  facet normal  1.000000e+000  0.000000e+000  0.000000e+000
    outer loop
      vertex  3.000000e+000  2.601007e+001 -2.341957e+001
      vertex  3.000000e+000  6.667767e+000 -2.243951e+001
      vertex  3.000000e+000  4.900000e+000 -2.317175e+001
    endloop
  endfacet
  facet normal  1.000000e+000  0.000000e+000  0.000000e+000
    outer loop
      vertex  3.000000e+000  3.480827e+001 -3.658496e+000
      vertex  3.000000e+000  3.480827e+001  3.658496e+000
      vertex  3.000000e+000  3.186777e+001  1.767767e+000
    endloop
  endfacet
  facet normal  1.000000e+000  0.000000e+000  0.000000e+000
    outer loop
      vertex  3.000000e+000  3.480827e+001 -3.658496e+000
      vertex  3.000000e+000  3.186777e+001  1.767767e+000
      vertex  3.000000e+000  3.260000e+001 -6.123234e-016
    endloop
  endfacet
  facet normal  9.999999e-001  0.000000e+000  0.000000e+000
    outer loop
      vertex  3.000000e+000  3.480827e+001 -3.658496e+000
      vertex  3.000000e+000  3.260000e+001 -6.123234e-016
      vertex  3.000000e+000  3.186777e+001 -1.767767e+000
    endloop
  endfacet
  facet normal  1.000000e+000  0.000000e+000  0.000000e+000
    outer loop
      vertex  3.000000e+000  3.480827e+001 -3.658496e+000
      vertex  3.000000e+000  3.186777e+001 -1.767767e+000
      vertex  3.000000e+000  3.010000e+001 -2.500000e+000
    endloop
  endfacet
  facet normal  1.000000e+000  0.000000e+000  0.000000e+000
    outer loop
      vertex  3.000000e+000  7.276909e+000  3.423516e+001
      vertex  3.000000e+000  1.768625e-014  3.500000e+001
      vertex  3.000000e+000  4.900000e+000  3.110000e+001
    endloop
  endfacet
  facet normal  1.000000e+000  0.000000e+000  0.000000e+000
    outer loop
      vertex  3.000000e+000  4.900000e+000  3.110000e+001
      vertex  3.000000e+000  1.768625e-014  3.500000e+001
      vertex  3.000000e+000 -4.900000e+000  3.110000e+001
    endloop
  endfacet
  facet normal  1.000000e+000  -0.000000e+000  0.000000e+000
    outer loop
      vertex  3.000000e+000  4.900000e+000  3.110000e+001
      vertex  3.000000e+000 -4.900000e+000  3.110000e+001
      vertex  3.000000e+000  3.132233e+000  3.036777e+001
    endloop
  endfacet
  facet normal  9.999999e-001  0.000000e+000  0.000000e+000
    outer loop
      vertex  3.000000e+000  3.132233e+000  3.036777e+001
      vertex  3.000000e+000 -4.900000e+000  3.110000e+001
      vertex  3.000000e+000 -3.132233e+000  3.036777e+001
    endloop
  endfacet
  facet normal  1.000000e+000  -0.000000e+000  0.000000e+000
    outer loop
      vertex  3.000000e+000  3.132233e+000  3.036777e+001
      vertex  3.000000e+000 -3.132233e+000  3.036777e+001
      vertex  3.000000e+000  2.400000e+000  2.860000e+001
    endloop
  endfacet
  facet normal  1.000000e+000  0.000000e+000  0.000000e+000
    outer loop
      vertex  3.000000e+000  2.400000e+000  2.860000e+001
      vertex  3.000000e+000 -3.132233e+000  3.036777e+001
      vertex  3.000000e+000 -2.400000e+000  2.860000e+001
    endloop
  endfacet
  facet normal  1.000000e+000  -0.000000e+000  0.000000e+000
    outer loop
      vertex  3.000000e+000  2.400000e+000  2.860000e+001
      vertex  3.000000e+000 -2.400000e+000  2.860000e+001
      vertex  3.000000e+000  3.132233e+000  2.683223e+001
    endloop
  endfacet
  facet normal  1.000000e+000  0.000000e+000  0.000000e+000
    outer loop
      vertex  3.000000e+000  3.132233e+000  2.683223e+001
      vertex  3.000000e+000 -2.400000e+000  2.860000e+001
      vertex  3.000000e+000 -3.132233e+000  2.683223e+001
    endloop
  endfacet
  facet normal  9.999999e-001  -0.000000e+000  0.000000e+000
    outer loop
      vertex  3.000000e+000  3.132233e+000  2.683223e+001
      vertex  3.000000e+000 -3.132233e+000  2.683223e+001
      vertex  3.000000e+000  4.900000e+000  2.610000e+001
    endloop
  endfacet
  facet normal  1.000000e+000  0.000000e+000  0.000000e+000
    outer loop
      vertex  3.000000e+000  4.900000e+000  2.610000e+001
      vertex  3.000000e+000 -3.132233e+000  2.683223e+001
      vertex  3.000000e+000 -4.900000e+000  2.610000e+001
    endloop
  endfacet
  facet normal  1.000000e+000  -0.000000e+000  0.000000e+000
    outer loop
      vertex  3.000000e+000  4.900000e+000  2.610000e+001
      vertex  3.000000e+000 -4.900000e+000  2.610000e+001
      vertex  3.000000e+000  1.114488e+001  2.479986e+001
    endloop
  endfacet
  facet normal  1.000000e+000  0.000000e+000  0.000000e+000
    outer loop
      vertex  3.000000e+000  1.114488e+001  2.479986e+001
      vertex  3.000000e+000 -4.900000e+000  2.610000e+001
      vertex  3.000000e+000 -1.114488e+001  2.479986e+001
    endloop
  endfacet
  facet normal  1.000000e+000  0.000000e+000  0.000000e+000
    outer loop
      vertex  3.000000e+000  3.328698e+001 -1.081559e+001
      vertex  3.000000e+000  3.480827e+001 -3.658496e+000
      vertex  3.000000e+000  3.031089e+001 -1.750000e+001
    endloop
  endfacet
  facet normal  1.000000e+000  0.000000e+000  -0.000000e+000
    outer loop
      vertex  3.000000e+000  3.031089e+001 -1.750000e+001
      vertex  3.000000e+000  3.480827e+001 -3.658496e+000
      vertex  3.000000e+000  3.010000e+001 -2.500000e+000
    endloop
  endfacet
  facet normal  1.000000e+000  0.000000e+000  0.000000e+000
    outer loop
      vertex  3.000000e+000  3.031089e+001 -1.750000e+001
      vertex  3.000000e+000  3.010000e+001 -2.500000e+000
      vertex  3.000000e+000  2.601007e+001 -2.341957e+001
    endloop
  endfacet
  facet normal  9.999999e-001  0.000000e+000  -0.000000e+000
    outer loop
      vertex  3.000000e+000  2.601007e+001 -2.341957e+001
      vertex  3.000000e+000  3.010000e+001 -2.500000e+000
      vertex  3.000000e+000  1.114488e+001 -1.707384e+001
    endloop
  endfacet
  facet normal  1.000000e+000  0.000000e+000  0.000000e+000
    outer loop
      vertex  3.000000e+000  3.480827e+001  3.658496e+000
      vertex  3.000000e+000  3.328698e+001  1.081559e+001
      vertex  3.000000e+000  3.010000e+001  2.500000e+000
    endloop
  endfacet
  facet normal  1.000000e+000  0.000000e+000  0.000000e+000
    outer loop
      vertex  3.000000e+000  3.010000e+001  2.500000e+000
      vertex  3.000000e+000  3.328698e+001  1.081559e+001
      vertex  3.000000e+000  3.031089e+001  1.750000e+001
    endloop
  endfacet
  facet normal  1.000000e+000  0.000000e+000  0.000000e+000
    outer loop
      vertex  3.000000e+000  3.010000e+001  2.500000e+000
      vertex  3.000000e+000  3.031089e+001  1.750000e+001
      vertex  3.000000e+000  2.833223e+001  1.767767e+000
    endloop
  endfacet
  facet normal  1.000000e+000  0.000000e+000  -0.000000e+000
    outer loop
      vertex  3.000000e+000  2.833223e+001  1.767767e+000
      vertex  3.000000e+000  3.031089e+001  1.750000e+001
      vertex  3.000000e+000  2.601007e+001  2.341957e+001
    endloop
  endfacet
  facet normal  1.000000e+000  0.000000e+000  0.000000e+000
    outer loop
      vertex  3.000000e+000 -6.860188e-014 -3.500000e+001
      vertex  3.000000e+000 -4.900000e+000 -2.317175e+001
      vertex  3.000000e+000 -7.276909e+000 -3.423516e+001
    endloop
  endfacet
  facet normal  1.000000e+000  0.000000e+000  -0.000000e+000
    outer loop
      vertex  3.000000e+000 -7.276909e+000 -3.423516e+001
      vertex  3.000000e+000 -4.900000e+000 -2.317175e+001
      vertex  3.000000e+000 -2.601007e+001 -2.341957e+001
    endloop
  endfacet
  facet normal  1.000000e+000  0.000000e+000  0.000000e+000
    outer loop
      vertex  3.000000e+000 -7.276909e+000 -3.423516e+001
      vertex  3.000000e+000 -2.601007e+001 -2.341957e+001
      vertex  3.000000e+000 -1.423578e+001 -3.197409e+001
    endloop
  endfacet
  facet normal  1.000000e+000  0.000000e+000  0.000000e+000
    outer loop
      vertex  3.000000e+000 -1.423578e+001 -3.197409e+001
      vertex  3.000000e+000 -2.601007e+001 -2.341957e+001
      vertex  3.000000e+000 -2.057248e+001 -2.831560e+001
    endloop
  endfacet
  facet normal  9.999999e-001  -0.000000e+000  0.000000e+000
    outer loop
      vertex  3.000000e+000  1.114488e+001 -1.707384e+001
      vertex  3.000000e+000 -1.114488e+001 -1.707384e+001
      vertex  3.000000e+000  4.900000e+000 -1.817175e+001
    endloop
  endfacet
  facet normal  1.000000e+000  0.000000e+000  0.000000e+000
    outer loop
      vertex  3.000000e+000  4.900000e+000 -1.817175e+001
      vertex  3.000000e+000 -1.114488e+001 -1.707384e+001
      vertex  3.000000e+000 -4.900000e+000 -1.817175e+001
    endloop
  endfacet
  facet normal  1.000000e+000  -0.000000e+000  0.000000e+000
    outer loop
      vertex  3.000000e+000  4.900000e+000 -1.817175e+001
      vertex  3.000000e+000 -4.900000e+000 -1.817175e+001
      vertex  3.000000e+000  3.132233e+000 -1.890398e+001
    endloop
  endfacet
  facet normal  9.999999e-001  0.000000e+000  0.000000e+000
    outer loop
      vertex  3.000000e+000  3.132233e+000 -1.890398e+001
      vertex  3.000000e+000 -4.900000e+000 -1.817175e+001
      vertex  3.000000e+000 -3.132233e+000 -1.890398e+001
    endloop
  endfacet
  facet normal  1.000000e+000  -0.000000e+000  0.000000e+000
    outer loop
      vertex  3.000000e+000  3.132233e+000 -1.890398e+001
      vertex  3.000000e+000 -3.132233e+000 -1.890398e+001
      vertex  3.000000e+000  2.400000e+000 -2.067175e+001
    endloop
  endfacet
  facet normal  1.000000e+000  0.000000e+000  0.000000e+000
    outer loop
      vertex  3.000000e+000  2.400000e+000 -2.067175e+001
      vertex  3.000000e+000 -3.132233e+000 -1.890398e+001
      vertex  3.000000e+000 -2.400000e+000 -2.067175e+001
    endloop
  endfacet
  facet normal  1.000000e+000  -0.000000e+000  0.000000e+000
    outer loop
      vertex  3.000000e+000  2.400000e+000 -2.067175e+001
      vertex  3.000000e+000 -2.400000e+000 -2.067175e+001
      vertex  3.000000e+000  3.132233e+000 -2.243951e+001
    endloop
  endfacet
  facet normal  1.000000e+000  0.000000e+000  0.000000e+000
    outer loop
      vertex  3.000000e+000  3.132233e+000 -2.243951e+001
      vertex  3.000000e+000 -2.400000e+000 -2.067175e+001
      vertex  3.000000e+000 -3.132233e+000 -2.243951e+001
    endloop
  endfacet
  facet normal  1.000000e+000  0.000000e+000  0.000000e+000
    outer loop
      vertex  3.000000e+000 -2.601007e+001 -2.341957e+001
      vertex  3.000000e+000 -1.114488e+001 -1.707384e+001
      vertex  3.000000e+000 -3.031089e+001 -1.750000e+001
    endloop
  endfacet
  facet normal  1.000000e+000  0.000000e+000  0.000000e+000
    outer loop
      vertex  3.000000e+000 -3.031089e+001 -1.750000e+001
      vertex  3.000000e+000 -1.114488e+001 -1.707384e+001
      vertex  3.000000e+000 -3.010000e+001 -2.500000e+000
    endloop
  endfacet
  facet normal  1.000000e+000  0.000000e+000  0.000000e+000
    outer loop
      vertex  3.000000e+000 -3.031089e+001 -1.750000e+001
      vertex  3.000000e+000 -3.010000e+001 -2.500000e+000
      vertex  3.000000e+000 -3.328698e+001 -1.081559e+001
    endloop
  endfacet
  facet normal  1.000000e+000  0.000000e+000  -0.000000e+000
    outer loop
      vertex  3.000000e+000 -3.328698e+001 -1.081559e+001
      vertex  3.000000e+000 -3.010000e+001 -2.500000e+000
      vertex  3.000000e+000 -3.480827e+001 -3.658496e+000
    endloop
  endfacet
  facet normal  1.000000e+000  0.000000e+000  0.000000e+000
    outer loop
      vertex  3.000000e+000 -1.114488e+001 -1.707384e+001
      vertex  3.000000e+000 -1.114488e+001  2.479986e+001
      vertex  3.000000e+000 -2.833223e+001  1.767767e+000
    endloop
  endfacet
  facet normal  9.999999e-001  0.000000e+000  0.000000e+000
    outer loop
      vertex  3.000000e+000 -2.833223e+001  1.767767e+000
      vertex  3.000000e+000 -1.114488e+001  2.479986e+001
      vertex  3.000000e+000 -2.601007e+001  2.341957e+001
    endloop
  endfacet
  facet normal  1.000000e+000  0.000000e+000  0.000000e+000
    outer loop
      vertex  3.000000e+000 -2.833223e+001  1.767767e+000
      vertex  3.000000e+000 -2.601007e+001  2.341957e+001
      vertex  3.000000e+000 -3.010000e+001  2.500000e+000
    endloop
  endfacet
  facet normal  1.000000e+000  0.000000e+000  -0.000000e+000
    outer loop
      vertex  3.000000e+000 -3.010000e+001  2.500000e+000
      vertex  3.000000e+000 -2.601007e+001  2.341957e+001
      vertex  3.000000e+000 -3.031089e+001  1.750000e+001
    endloop
  endfacet
  facet normal  1.000000e+000  0.000000e+000  0.000000e+000
    outer loop
      vertex  3.000000e+000 -3.010000e+001  2.500000e+000
      vertex  3.000000e+000 -3.031089e+001  1.750000e+001
      vertex  3.000000e+000 -3.480827e+001  3.658496e+000
    endloop
  endfacet
  facet normal  1.000000e+000  0.000000e+000  0.000000e+000
    outer loop
      vertex  3.000000e+000 -3.480827e+001  3.658496e+000
      vertex  3.000000e+000 -3.031089e+001  1.750000e+001
      vertex  3.000000e+000 -3.328698e+001  1.081559e+001
    endloop
  endfacet
  facet normal  1.000000e+000  -0.000000e+000  0.000000e+000
    outer loop
      vertex  3.000000e+000 -7.400000e+000  2.860000e+001
      vertex  3.000000e+000 -2.057248e+001  2.831560e+001
      vertex  3.000000e+000 -6.667767e+000  2.683223e+001
    endloop
  endfacet
  facet normal  9.999999e-001  0.000000e+000  0.000000e+000
    outer loop
      vertex  3.000000e+000 -6.667767e+000  2.683223e+001
      vertex  3.000000e+000 -2.057248e+001  2.831560e+001
      vertex  3.000000e+000 -2.601007e+001  2.341957e+001
    endloop
  endfacet
  facet normal  1.000000e+000  0.000000e+000  0.000000e+000
    outer loop
      vertex  3.000000e+000 -6.667767e+000  2.683223e+001
      vertex  3.000000e+000 -2.601007e+001  2.341957e+001
      vertex  3.000000e+000 -4.900000e+000  2.610000e+001
    endloop
  endfacet
  facet normal  1.000000e+000  0.000000e+000  0.000000e+000
    outer loop
      vertex  3.000000e+000 -4.900000e+000  2.610000e+001
      vertex  3.000000e+000 -2.601007e+001  2.341957e+001
      vertex  3.000000e+000 -1.114488e+001  2.479986e+001
    endloop
  endfacet
  facet normal  1.000000e+000  -0.000000e+000  0.000000e+000
    outer loop
      vertex  3.000000e+000  1.423578e+001  3.197409e+001
      vertex  3.000000e+000  4.900000e+000  3.110000e+001
      vertex  3.000000e+000  2.057248e+001  2.831560e+001
    endloop
  endfacet
  facet normal  1.000000e+000  0.000000e+000  0.000000e+000
    outer loop
      vertex  3.000000e+000  2.057248e+001  2.831560e+001
      vertex  3.000000e+000  4.900000e+000  3.110000e+001
      vertex  3.000000e+000  6.667767e+000  3.036777e+001
    endloop
  endfacet
  facet normal  1.000000e+000  0.000000e+000  0.000000e+000
    outer loop
      vertex  3.000000e+000  2.057248e+001  2.831560e+001
      vertex  3.000000e+000  6.667767e+000  3.036777e+001
      vertex  3.000000e+000  7.400000e+000  2.860000e+001
    endloop
  endfacet
  facet normal  1.000000e+000  0.000000e+000  0.000000e+000
    outer loop
      vertex  3.000000e+000  2.057248e+001  2.831560e+001
      vertex  3.000000e+000  7.400000e+000  2.860000e+001
      vertex  3.000000e+000  2.601007e+001  2.341957e+001
    endloop
  endfacet
  facet normal  1.000000e+000  0.000000e+000  0.000000e+000
    outer loop
      vertex  3.000000e+000  2.601007e+001  2.341957e+001
      vertex  3.000000e+000  7.400000e+000  2.860000e+001
      vertex  3.000000e+000  6.667767e+000  2.683223e+001
    endloop
  endfacet
  facet normal  1.000000e+000  0.000000e+000  0.000000e+000
    outer loop
      vertex  3.000000e+000  2.601007e+001  2.341957e+001
      vertex  3.000000e+000  6.667767e+000  2.683223e+001
      vertex  3.000000e+000  1.114488e+001  2.479986e+001
    endloop
  endfacet
  facet normal  1.000000e+000  0.000000e+000  0.000000e+000
    outer loop
      vertex  3.000000e+000  1.114488e+001  2.479986e+001
      vertex  3.000000e+000  6.667767e+000  2.683223e+001
      vertex  3.000000e+000  4.900000e+000  2.610000e+001
    endloop
  endfacet
  facet normal  0.000000e+000  1.045286e-001  9.945219e-001
    outer loop
      vertex  0.000000e+000  1.768625e-014  3.500000e+001
      vertex  3.000000e+000  1.768625e-014  3.500000e+001
      vertex  0.000000e+000  7.276909e+000  3.423516e+001
    endloop
  endfacet
  facet normal  -0.000000e+000  1.045286e-001  9.945219e-001
    outer loop
      vertex  0.000000e+000  7.276909e+000  3.423516e+001
      vertex  3.000000e+000  1.768625e-014  3.500000e+001
      vertex  3.000000e+000  7.276909e+000  3.423516e+001
    endloop
  endfacet
  facet normal  0.000000e+000  3.090169e-001  9.510565e-001
    outer loop
      vertex  0.000000e+000  7.276909e+000  3.423516e+001
      vertex  3.000000e+000  7.276909e+000  3.423516e+001
      vertex  0.000000e+000  1.423578e+001  3.197409e+001
    endloop
  endfacet
  facet normal  -0.000000e+000  3.090169e-001  9.510565e-001
    outer loop
      vertex  0.000000e+000  1.423578e+001  3.197409e+001
      vertex  3.000000e+000  7.276909e+000  3.423516e+001
      vertex  3.000000e+000  1.423578e+001  3.197409e+001
    endloop
  endfacet
  facet normal  0.000000e+000  4.999999e-001  8.660254e-001
    outer loop
      vertex  0.000000e+000  1.423578e+001  3.197409e+001
      vertex  3.000000e+000  1.423578e+001  3.197409e+001
      vertex  0.000000e+000  2.057248e+001  2.831560e+001
    endloop
  endfacet
  facet normal  -0.000000e+000  4.999999e-001  8.660254e-001
    outer loop
      vertex  0.000000e+000  2.057248e+001  2.831560e+001
      vertex  3.000000e+000  1.423578e+001  3.197409e+001
      vertex  3.000000e+000  2.057248e+001  2.831560e+001
    endloop
  endfacet
  facet normal  0.000000e+000  6.691306e-001  7.431448e-001
    outer loop
      vertex  0.000000e+000  2.057248e+001  2.831560e+001
      vertex  3.000000e+000  2.057248e+001  2.831560e+001
      vertex  0.000000e+000  2.601007e+001  2.341957e+001
    endloop
  endfacet
  facet normal  -0.000000e+000  6.691306e-001  7.431448e-001
    outer loop
      vertex  0.000000e+000  2.601007e+001  2.341957e+001
      vertex  3.000000e+000  2.057248e+001  2.831560e+001
      vertex  3.000000e+000  2.601007e+001  2.341957e+001
    endloop
  endfacet
  facet normal  0.000000e+000  8.090170e-001  5.877852e-001
    outer loop
      vertex  0.000000e+000  2.601007e+001  2.341957e+001
      vertex  3.000000e+000  2.601007e+001  2.341957e+001
      vertex  0.000000e+000  3.031089e+001  1.750000e+001
    endloop
  endfacet
  facet normal  -0.000000e+000  8.090170e-001  5.877852e-001
    outer loop
      vertex  0.000000e+000  3.031089e+001  1.750000e+001
      vertex  3.000000e+000  2.601007e+001  2.341957e+001
      vertex  3.000000e+000  3.031089e+001  1.750000e+001
    endloop
  endfacet
  facet normal  0.000000e+000  9.135453e-001  4.067369e-001
    outer loop
      vertex  0.000000e+000  3.031089e+001  1.750000e+001
      vertex  3.000000e+000  3.031089e+001  1.750000e+001
      vertex  0.000000e+000  3.328698e+001  1.081559e+001
    endloop
  endfacet
  facet normal  -0.000000e+000  9.135453e-001  4.067369e-001
    outer loop
      vertex  0.000000e+000  3.328698e+001  1.081559e+001
      vertex  3.000000e+000  3.031089e+001  1.750000e+001
      vertex  3.000000e+000  3.328698e+001  1.081559e+001
    endloop
  endfacet
  facet normal  0.000000e+000  9.781476e-001  2.079114e-001
    outer loop
      vertex  0.000000e+000  3.328698e+001  1.081559e+001
      vertex  3.000000e+000  3.328698e+001  1.081559e+001
      vertex  0.000000e+000  3.480827e+001  3.658496e+000
    endloop
  endfacet
  facet normal  -0.000000e+000  9.781476e-001  2.079114e-001
    outer loop
      vertex  0.000000e+000  3.480827e+001  3.658496e+000
      vertex  3.000000e+000  3.328698e+001  1.081559e+001
      vertex  3.000000e+000  3.480827e+001  3.658496e+000
    endloop
  endfacet
  facet normal  0.000000e+000  1.000000e+000  0.000000e+000
    outer loop
      vertex  0.000000e+000  3.480827e+001  3.658496e+000
      vertex  3.000000e+000  3.480827e+001  3.658496e+000
      vertex  0.000000e+000  3.480827e+001 -3.658496e+000
    endloop
  endfacet
  facet normal  0.000000e+000  1.000000e+000  0.000000e+000
    outer loop
      vertex  0.000000e+000  3.480827e+001 -3.658496e+000
      vertex  3.000000e+000  3.480827e+001  3.658496e+000
      vertex  3.000000e+000  3.480827e+001 -3.658496e+000
    endloop
  endfacet
  facet normal  0.000000e+000  9.781476e-001 -2.079114e-001
    outer loop
      vertex  0.000000e+000  3.480827e+001 -3.658496e+000
      vertex  3.000000e+000  3.480827e+001 -3.658496e+000
      vertex  0.000000e+000  3.328698e+001 -1.081559e+001
    endloop
  endfacet
  facet normal  0.000000e+000  9.781476e-001 -2.079114e-001
    outer loop
      vertex  0.000000e+000  3.328698e+001 -1.081559e+001
      vertex  3.000000e+000  3.480827e+001 -3.658496e+000
      vertex  3.000000e+000  3.328698e+001 -1.081559e+001
    endloop
  endfacet
  facet normal  0.000000e+000  9.135453e-001 -4.067369e-001
    outer loop
      vertex  0.000000e+000  3.328698e+001 -1.081559e+001
      vertex  3.000000e+000  3.328698e+001 -1.081559e+001
      vertex  0.000000e+000  3.031089e+001 -1.750000e+001
    endloop
  endfacet
  facet normal  0.000000e+000  9.135453e-001 -4.067369e-001
    outer loop
      vertex  0.000000e+000  3.031089e+001 -1.750000e+001
      vertex  3.000000e+000  3.328698e+001 -1.081559e+001
      vertex  3.000000e+000  3.031089e+001 -1.750000e+001
    endloop
  endfacet
  facet normal  0.000000e+000  8.090170e-001 -5.877852e-001
    outer loop
      vertex  0.000000e+000  3.031089e+001 -1.750000e+001
      vertex  3.000000e+000  3.031089e+001 -1.750000e+001
      vertex  0.000000e+000  2.601007e+001 -2.341957e+001
    endloop
  endfacet
  facet normal  0.000000e+000  8.090170e-001 -5.877852e-001
    outer loop
      vertex  0.000000e+000  2.601007e+001 -2.341957e+001
      vertex  3.000000e+000  3.031089e+001 -1.750000e+001
      vertex  3.000000e+000  2.601007e+001 -2.341957e+001
    endloop
  endfacet
  facet normal  0.000000e+000  6.691306e-001 -7.431448e-001
    outer loop
      vertex  0.000000e+000  2.601007e+001 -2.341957e+001
      vertex  3.000000e+000  2.601007e+001 -2.341957e+001
      vertex  0.000000e+000  2.057248e+001 -2.831560e+001
    endloop
  endfacet
  facet normal  0.000000e+000  6.691306e-001 -7.431448e-001
    outer loop
      vertex  0.000000e+000  2.057248e+001 -2.831560e+001
      vertex  3.000000e+000  2.601007e+001 -2.341957e+001
      vertex  3.000000e+000  2.057248e+001 -2.831560e+001
    endloop
  endfacet
  facet normal  0.000000e+000  4.999999e-001 -8.660254e-001
    outer loop
      vertex  0.000000e+000  2.057248e+001 -2.831560e+001
      vertex  3.000000e+000  2.057248e+001 -2.831560e+001
      vertex  0.000000e+000  1.423578e+001 -3.197409e+001
    endloop
  endfacet
  facet normal  0.000000e+000  4.999999e-001 -8.660254e-001
    outer loop
      vertex  0.000000e+000  1.423578e+001 -3.197409e+001
      vertex  3.000000e+000  2.057248e+001 -2.831560e+001
      vertex  3.000000e+000  1.423578e+001 -3.197409e+001
    endloop
  endfacet
  facet normal  0.000000e+000  3.090169e-001 -9.510565e-001
    outer loop
      vertex  0.000000e+000  1.423578e+001 -3.197409e+001
      vertex  3.000000e+000  1.423578e+001 -3.197409e+001
      vertex  0.000000e+000  7.276909e+000 -3.423516e+001
    endloop
  endfacet
  facet normal  0.000000e+000  3.090169e-001 -9.510565e-001
    outer loop
      vertex  0.000000e+000  7.276909e+000 -3.423516e+001
      vertex  3.000000e+000  1.423578e+001 -3.197409e+001
      vertex  3.000000e+000  7.276909e+000 -3.423516e+001
    endloop
  endfacet
  facet normal  0.000000e+000  1.045286e-001 -9.945219e-001
    outer loop
      vertex  0.000000e+000  7.276909e+000 -3.423516e+001
      vertex  3.000000e+000  7.276909e+000 -3.423516e+001
      vertex  0.000000e+000 -6.860188e-014 -3.500000e+001
    endloop
  endfacet
  facet normal  0.000000e+000  1.045286e-001 -9.945219e-001
    outer loop
      vertex  0.000000e+000 -6.860188e-014 -3.500000e+001
      vertex  3.000000e+000  7.276909e+000 -3.423516e+001
      vertex  3.000000e+000 -6.860188e-014 -3.500000e+001
    endloop
  endfacet
  facet normal  -0.000000e+000 -1.045286e-001 -9.945219e-001
    outer loop
      vertex  0.000000e+000 -6.860188e-014 -3.500000e+001
      vertex  3.000000e+000 -6.860188e-014 -3.500000e+001
      vertex  0.000000e+000 -7.276909e+000 -3.423516e+001
    endloop
  endfacet
  facet normal  0.000000e+000 -1.045286e-001 -9.945219e-001
    outer loop
      vertex  0.000000e+000 -7.276909e+000 -3.423516e+001
      vertex  3.000000e+000 -6.860188e-014 -3.500000e+001
      vertex  3.000000e+000 -7.276909e+000 -3.423516e+001
    endloop
  endfacet
  facet normal  -0.000000e+000 -3.090169e-001 -9.510565e-001
    outer loop
      vertex  0.000000e+000 -7.276909e+000 -3.423516e+001
      vertex  3.000000e+000 -7.276909e+000 -3.423516e+001
      vertex  0.000000e+000 -1.423578e+001 -3.197409e+001
    endloop
  endfacet
  facet normal  0.000000e+000 -3.090169e-001 -9.510565e-001
    outer loop
      vertex  0.000000e+000 -1.423578e+001 -3.197409e+001
      vertex  3.000000e+000 -7.276909e+000 -3.423516e+001
      vertex  3.000000e+000 -1.423578e+001 -3.197409e+001
    endloop
  endfacet
  facet normal  -0.000000e+000 -4.999999e-001 -8.660254e-001
    outer loop
      vertex  0.000000e+000 -1.423578e+001 -3.197409e+001
      vertex  3.000000e+000 -1.423578e+001 -3.197409e+001
      vertex  0.000000e+000 -2.057248e+001 -2.831560e+001
    endloop
  endfacet
  facet normal  0.000000e+000 -4.999999e-001 -8.660254e-001
    outer loop
      vertex  0.000000e+000 -2.057248e+001 -2.831560e+001
      vertex  3.000000e+000 -1.423578e+001 -3.197409e+001
      vertex  3.000000e+000 -2.057248e+001 -2.831560e+001
    endloop
  endfacet
  facet normal  -0.000000e+000 -6.691306e-001 -7.431448e-001
    outer loop
      vertex  0.000000e+000 -2.057248e+001 -2.831560e+001
      vertex  3.000000e+000 -2.057248e+001 -2.831560e+001
      vertex  0.000000e+000 -2.601007e+001 -2.341957e+001
    endloop
  endfacet
  facet normal  0.000000e+000 -6.691306e-001 -7.431448e-001
    outer loop
      vertex  0.000000e+000 -2.601007e+001 -2.341957e+001
      vertex  3.000000e+000 -2.057248e+001 -2.831560e+001
      vertex  3.000000e+000 -2.601007e+001 -2.341957e+001
    endloop
  endfacet
  facet normal  -0.000000e+000 -8.090170e-001 -5.877852e-001
    outer loop
      vertex  0.000000e+000 -2.601007e+001 -2.341957e+001
      vertex  3.000000e+000 -2.601007e+001 -2.341957e+001
      vertex  0.000000e+000 -3.031089e+001 -1.750000e+001
    endloop
  endfacet
  facet normal  0.000000e+000 -8.090170e-001 -5.877852e-001
    outer loop
      vertex  0.000000e+000 -3.031089e+001 -1.750000e+001
      vertex  3.000000e+000 -2.601007e+001 -2.341957e+001
      vertex  3.000000e+000 -3.031089e+001 -1.750000e+001
    endloop
  endfacet
  facet normal  -0.000000e+000 -9.135453e-001 -4.067369e-001
    outer loop
      vertex  0.000000e+000 -3.031089e+001 -1.750000e+001
      vertex  3.000000e+000 -3.031089e+001 -1.750000e+001
      vertex  0.000000e+000 -3.328698e+001 -1.081559e+001
    endloop
  endfacet
  facet normal  0.000000e+000 -9.135453e-001 -4.067369e-001
    outer loop
      vertex  0.000000e+000 -3.328698e+001 -1.081559e+001
      vertex  3.000000e+000 -3.031089e+001 -1.750000e+001
      vertex  3.000000e+000 -3.328698e+001 -1.081559e+001
    endloop
  endfacet
  facet normal  -0.000000e+000 -9.781476e-001 -2.079114e-001
    outer loop
      vertex  0.000000e+000 -3.328698e+001 -1.081559e+001
      vertex  3.000000e+000 -3.328698e+001 -1.081559e+001
      vertex  0.000000e+000 -3.480827e+001 -3.658496e+000
    endloop
  endfacet
  facet normal  0.000000e+000 -9.781476e-001 -2.079114e-001
    outer loop
      vertex  0.000000e+000 -3.480827e+001 -3.658496e+000
      vertex  3.000000e+000 -3.328698e+001 -1.081559e+001
      vertex  3.000000e+000 -3.480827e+001 -3.658496e+000
    endloop
  endfacet
  facet normal  0.000000e+000 -1.000000e+000  0.000000e+000
    outer loop
      vertex  0.000000e+000 -3.480827e+001 -3.658496e+000
      vertex  3.000000e+000 -3.480827e+001 -3.658496e+000
      vertex  0.000000e+000 -3.480827e+001  3.658496e+000
    endloop
  endfacet
  facet normal  0.000000e+000 -1.000000e+000  0.000000e+000
    outer loop
      vertex  0.000000e+000 -3.480827e+001  3.658496e+000
      vertex  3.000000e+000 -3.480827e+001 -3.658496e+000
      vertex  3.000000e+000 -3.480827e+001  3.658496e+000
    endloop
  endfacet
  facet normal  0.000000e+000 -9.781476e-001  2.079114e-001
    outer loop
      vertex  0.000000e+000 -3.480827e+001  3.658496e+000
      vertex  3.000000e+000 -3.480827e+001  3.658496e+000
      vertex  0.000000e+000 -3.328698e+001  1.081559e+001
    endloop
  endfacet
  facet normal  0.000000e+000 -9.781476e-001  2.079114e-001
    outer loop
      vertex  0.000000e+000 -3.328698e+001  1.081559e+001
      vertex  3.000000e+000 -3.480827e+001  3.658496e+000
      vertex  3.000000e+000 -3.328698e+001  1.081559e+001
    endloop
  endfacet
  facet normal  0.000000e+000 -9.135453e-001  4.067369e-001
    outer loop
      vertex  0.000000e+000 -3.328698e+001  1.081559e+001
      vertex  3.000000e+000 -3.328698e+001  1.081559e+001
      vertex  0.000000e+000 -3.031089e+001  1.750000e+001
    endloop
  endfacet
  facet normal  0.000000e+000 -9.135453e-001  4.067369e-001
    outer loop
      vertex  0.000000e+000 -3.031089e+001  1.750000e+001
      vertex  3.000000e+000 -3.328698e+001  1.081559e+001
      vertex  3.000000e+000 -3.031089e+001  1.750000e+001
    endloop
  endfacet
  facet normal  0.000000e+000 -8.090170e-001  5.877852e-001
    outer loop
      vertex  0.000000e+000 -3.031089e+001  1.750000e+001
      vertex  3.000000e+000 -3.031089e+001  1.750000e+001
      vertex  0.000000e+000 -2.601007e+001  2.341957e+001
    endloop
  endfacet
  facet normal  0.000000e+000 -8.090170e-001  5.877852e-001
    outer loop
      vertex  0.000000e+000 -2.601007e+001  2.341957e+001
      vertex  3.000000e+000 -3.031089e+001  1.750000e+001
      vertex  3.000000e+000 -2.601007e+001  2.341957e+001
    endloop
  endfacet
  facet normal  0.000000e+000 -6.691306e-001  7.431448e-001
    outer loop
      vertex  0.000000e+000 -2.601007e+001  2.341957e+001
      vertex  3.000000e+000 -2.601007e+001  2.341957e+001
      vertex  0.000000e+000 -2.057248e+001  2.831560e+001
    endloop
  endfacet
  facet normal  0.000000e+000 -6.691306e-001  7.431448e-001
    outer loop
      vertex  0.000000e+000 -2.057248e+001  2.831560e+001
      vertex  3.000000e+000 -2.601007e+001  2.341957e+001
      vertex  3.000000e+000 -2.057248e+001  2.831560e+001
    endloop
  endfacet
  facet normal  0.000000e+000 -4.999999e-001  8.660254e-001
    outer loop
      vertex  0.000000e+000 -2.057248e+001  2.831560e+001
      vertex  3.000000e+000 -2.057248e+001  2.831560e+001
      vertex  0.000000e+000 -1.423578e+001  3.197409e+001
    endloop
  endfacet
  facet normal  0.000000e+000 -4.999999e-001  8.660254e-001
    outer loop
      vertex  0.000000e+000 -1.423578e+001  3.197409e+001
      vertex  3.000000e+000 -2.057248e+001  2.831560e+001
      vertex  3.000000e+000 -1.423578e+001  3.197409e+001
    endloop
  endfacet
  facet normal  0.000000e+000 -3.090169e-001  9.510565e-001
    outer loop
      vertex  0.000000e+000 -1.423578e+001  3.197409e+001
      vertex  3.000000e+000 -1.423578e+001  3.197409e+001
      vertex  0.000000e+000 -7.276909e+000  3.423516e+001
    endloop
  endfacet
  facet normal  0.000000e+000 -3.090169e-001  9.510565e-001
    outer loop
      vertex  0.000000e+000 -7.276909e+000  3.423516e+001
      vertex  3.000000e+000 -1.423578e+001  3.197409e+001
      vertex  3.000000e+000 -7.276909e+000  3.423516e+001
    endloop
  endfacet
  facet normal  0.000000e+000 -1.045286e-001  9.945219e-001
    outer loop
      vertex  0.000000e+000 -7.276909e+000  3.423516e+001
      vertex  3.000000e+000 -7.276909e+000  3.423516e+001
      vertex  0.000000e+000  1.768625e-014  3.500000e+001
    endloop
  endfacet
  facet normal  0.000000e+000 -1.045286e-001  9.945219e-001
    outer loop
      vertex  0.000000e+000  1.768625e-014  3.500000e+001
      vertex  3.000000e+000 -7.276909e+000  3.423516e+001
      vertex  3.000000e+000  1.768625e-014  3.500000e+001
    endloop
  endfacet
  facet normal  -0.000000e+000  3.826834e-001  9.238795e-001
    outer loop
      vertex  3.000000e+000 -4.900000e+000 -2.317175e+001
      vertex  0.000000e+000 -6.667767e+000 -2.243951e+001
      vertex  3.000000e+000 -6.667767e+000 -2.243951e+001
    endloop
  endfacet
  facet normal  0.000000e+000  9.238795e-001  3.826834e-001
    outer loop
      vertex  3.000000e+000 -6.667767e+000 -2.243951e+001
      vertex  0.000000e+000 -6.667767e+000 -2.243951e+001
      vertex  0.000000e+000 -7.400000e+000 -2.067175e+001
    endloop
  endfacet
  facet normal  -0.000000e+000  9.238795e-001  3.826834e-001
    outer loop
      vertex  3.000000e+000 -6.667767e+000 -2.243951e+001
      vertex  0.000000e+000 -7.400000e+000 -2.067175e+001
      vertex  3.000000e+000 -7.400000e+000 -2.067175e+001
    endloop
  endfacet
  facet normal  0.000000e+000  3.826834e-001  9.238795e-001
    outer loop
      vertex  0.000000e+000 -6.667767e+000 -2.243951e+001
      vertex  3.000000e+000 -4.900000e+000 -2.317175e+001
      vertex  0.000000e+000 -4.900000e+000 -2.317175e+001
    endloop
  endfacet
  facet normal  0.000000e+000 -3.826834e-001  9.238795e-001
    outer loop
      vertex  0.000000e+000 -4.900000e+000 -2.317175e+001
      vertex  3.000000e+000 -4.900000e+000 -2.317175e+001
      vertex  3.000000e+000 -3.132233e+000 -2.243951e+001
    endloop
  endfacet
  facet normal  0.000000e+000 -3.826834e-001  9.238795e-001
    outer loop
      vertex  0.000000e+000 -4.900000e+000 -2.317175e+001
      vertex  3.000000e+000 -3.132233e+000 -2.243951e+001
      vertex  0.000000e+000 -3.132233e+000 -2.243951e+001
    endloop
  endfacet
  facet normal  0.000000e+000 -9.238795e-001  3.826834e-001
    outer loop
      vertex  0.000000e+000 -3.132233e+000 -2.243951e+001
      vertex  3.000000e+000 -3.132233e+000 -2.243951e+001
      vertex  3.000000e+000 -2.400000e+000 -2.067175e+001
    endloop
  endfacet
  facet normal  0.000000e+000 -9.238795e-001  3.826834e-001
    outer loop
      vertex  0.000000e+000 -3.132233e+000 -2.243951e+001
      vertex  3.000000e+000 -2.400000e+000 -2.067175e+001
      vertex  0.000000e+000 -2.400000e+000 -2.067175e+001
    endloop
  endfacet
  facet normal  0.000000e+000 -3.826834e-001 -9.238795e-001
    outer loop
      vertex  3.000000e+000 -4.900000e+000 -1.817175e+001
      vertex  0.000000e+000 -3.132233e+000 -1.890398e+001
      vertex  3.000000e+000 -3.132233e+000 -1.890398e+001
    endloop
  endfacet
  facet normal  -0.000000e+000 -9.238795e-001 -3.826834e-001
    outer loop
      vertex  3.000000e+000 -3.132233e+000 -1.890398e+001
      vertex  0.000000e+000 -3.132233e+000 -1.890398e+001
      vertex  0.000000e+000 -2.400000e+000 -2.067175e+001
    endloop
  endfacet
  facet normal  0.000000e+000 -9.238795e-001 -3.826834e-001
    outer loop
      vertex  3.000000e+000 -3.132233e+000 -1.890398e+001
      vertex  0.000000e+000 -2.400000e+000 -2.067175e+001
      vertex  3.000000e+000 -2.400000e+000 -2.067175e+001
    endloop
  endfacet
  facet normal  -0.000000e+000 -3.826834e-001 -9.238795e-001
    outer loop
      vertex  0.000000e+000 -3.132233e+000 -1.890398e+001
      vertex  3.000000e+000 -4.900000e+000 -1.817175e+001
      vertex  0.000000e+000 -4.900000e+000 -1.817175e+001
    endloop
  endfacet
  facet normal  0.000000e+000  3.826834e-001 -9.238795e-001
    outer loop
      vertex  0.000000e+000 -4.900000e+000 -1.817175e+001
      vertex  3.000000e+000 -4.900000e+000 -1.817175e+001
      vertex  3.000000e+000 -6.667767e+000 -1.890398e+001
    endloop
  endfacet
  facet normal  0.000000e+000  3.826834e-001 -9.238795e-001
    outer loop
      vertex  0.000000e+000 -4.900000e+000 -1.817175e+001
      vertex  3.000000e+000 -6.667767e+000 -1.890398e+001
      vertex  0.000000e+000 -6.667767e+000 -1.890398e+001
    endloop
  endfacet
  facet normal  0.000000e+000  9.238795e-001 -3.826834e-001
    outer loop
      vertex  0.000000e+000 -6.667767e+000 -1.890398e+001
      vertex  3.000000e+000 -6.667767e+000 -1.890398e+001
      vertex  3.000000e+000 -7.400000e+000 -2.067175e+001
    endloop
  endfacet
  facet normal  0.000000e+000  9.238795e-001 -3.826834e-001
    outer loop
      vertex  0.000000e+000 -6.667767e+000 -1.890398e+001
      vertex  3.000000e+000 -7.400000e+000 -2.067175e+001
      vertex  0.000000e+000 -7.400000e+000 -2.067175e+001
    endloop
  endfacet
  facet normal  -0.000000e+000  3.826834e-001  9.238795e-001
    outer loop
      vertex  3.000000e+000 -4.900000e+000  2.610000e+001
      vertex  0.000000e+000 -6.667767e+000  2.683223e+001
      vertex  3.000000e+000 -6.667767e+000  2.683223e+001
    endloop
  endfacet
  facet normal  0.000000e+000  9.238795e-001  3.826834e-001
    outer loop
      vertex  3.000000e+000 -6.667767e+000  2.683223e+001
      vertex  0.000000e+000 -6.667767e+000  2.683223e+001
      vertex  0.000000e+000 -7.400000e+000  2.860000e+001
    endloop
  endfacet
  facet normal  -0.000000e+000  9.238795e-001  3.826834e-001
    outer loop
      vertex  3.000000e+000 -6.667767e+000  2.683223e+001
      vertex  0.000000e+000 -7.400000e+000  2.860000e+001
      vertex  3.000000e+000 -7.400000e+000  2.860000e+001
    endloop
  endfacet
  facet normal  0.000000e+000  3.826834e-001  9.238795e-001
    outer loop
      vertex  0.000000e+000 -6.667767e+000  2.683223e+001
      vertex  3.000000e+000 -4.900000e+000  2.610000e+001
      vertex  0.000000e+000 -4.900000e+000  2.610000e+001
    endloop
  endfacet
  facet normal  0.000000e+000 -3.826834e-001  9.238795e-001
    outer loop
      vertex  0.000000e+000 -4.900000e+000  2.610000e+001
      vertex  3.000000e+000 -4.900000e+000  2.610000e+001
      vertex  3.000000e+000 -3.132233e+000  2.683223e+001
    endloop
  endfacet
  facet normal  0.000000e+000 -3.826834e-001  9.238795e-001
    outer loop
      vertex  0.000000e+000 -4.900000e+000  2.610000e+001
      vertex  3.000000e+000 -3.132233e+000  2.683223e+001
      vertex  0.000000e+000 -3.132233e+000  2.683223e+001
    endloop
  endfacet
  facet normal  0.000000e+000 -9.238795e-001  3.826834e-001
    outer loop
      vertex  0.000000e+000 -3.132233e+000  2.683223e+001
      vertex  3.000000e+000 -3.132233e+000  2.683223e+001
      vertex  3.000000e+000 -2.400000e+000  2.860000e+001
    endloop
  endfacet
  facet normal  0.000000e+000 -9.238795e-001  3.826834e-001
    outer loop
      vertex  0.000000e+000 -3.132233e+000  2.683223e+001
      vertex  3.000000e+000 -2.400000e+000  2.860000e+001
      vertex  0.000000e+000 -2.400000e+000  2.860000e+001
    endloop
  endfacet
  facet normal  0.000000e+000 -3.826834e-001 -9.238795e-001
    outer loop
      vertex  3.000000e+000 -4.900000e+000  3.110000e+001
      vertex  0.000000e+000 -3.132233e+000  3.036777e+001
      vertex  3.000000e+000 -3.132233e+000  3.036777e+001
    endloop
  endfacet
  facet normal  -0.000000e+000 -9.238795e-001 -3.826834e-001
    outer loop
      vertex  3.000000e+000 -3.132233e+000  3.036777e+001
      vertex  0.000000e+000 -3.132233e+000  3.036777e+001
      vertex  0.000000e+000 -2.400000e+000  2.860000e+001
    endloop
  endfacet
  facet normal  0.000000e+000 -9.238795e-001 -3.826834e-001
    outer loop
      vertex  3.000000e+000 -3.132233e+000  3.036777e+001
      vertex  0.000000e+000 -2.400000e+000  2.860000e+001
      vertex  3.000000e+000 -2.400000e+000  2.860000e+001
    endloop
  endfacet
  facet normal  -0.000000e+000 -3.826834e-001 -9.238795e-001
    outer loop
      vertex  0.000000e+000 -3.132233e+000  3.036777e+001
      vertex  3.000000e+000 -4.900000e+000  3.110000e+001
      vertex  0.000000e+000 -4.900000e+000  3.110000e+001
    endloop
  endfacet
  facet normal  0.000000e+000  3.826834e-001 -9.238795e-001
    outer loop
      vertex  0.000000e+000 -4.900000e+000  3.110000e+001
      vertex  3.000000e+000 -4.900000e+000  3.110000e+001
      vertex  3.000000e+000 -6.667767e+000  3.036777e+001
    endloop
  endfacet
  facet normal  0.000000e+000  3.826834e-001 -9.238795e-001
    outer loop
      vertex  0.000000e+000 -4.900000e+000  3.110000e+001
      vertex  3.000000e+000 -6.667767e+000  3.036777e+001
      vertex  0.000000e+000 -6.667767e+000  3.036777e+001
    endloop
  endfacet
  facet normal  0.000000e+000  9.238795e-001 -3.826834e-001
    outer loop
      vertex  0.000000e+000 -6.667767e+000  3.036777e+001
      vertex  3.000000e+000 -6.667767e+000  3.036777e+001
      vertex  3.000000e+000 -7.400000e+000  2.860000e+001
    endloop
  endfacet
  facet normal  0.000000e+000  9.238795e-001 -3.826834e-001
    outer loop
      vertex  0.000000e+000 -6.667767e+000  3.036777e+001
      vertex  3.000000e+000 -7.400000e+000  2.860000e+001
      vertex  0.000000e+000 -7.400000e+000  2.860000e+001
    endloop
  endfacet
  facet normal  -0.000000e+000  3.826834e-001  9.238795e-001
    outer loop
      vertex  3.000000e+000 -3.010000e+001 -2.500000e+000
      vertex  0.000000e+000 -3.186777e+001 -1.767767e+000
      vertex  3.000000e+000 -3.186777e+001 -1.767767e+000
    endloop
  endfacet
  facet normal  0.000000e+000  9.238799e-001  3.826826e-001
    outer loop
      vertex  3.000000e+000 -3.186777e+001 -1.767767e+000
      vertex  0.000000e+000 -3.186777e+001 -1.767767e+000
      vertex  0.000000e+000 -3.260000e+001 -6.123234e-016
    endloop
  endfacet
  facet normal  -0.000000e+000  9.238799e-001  3.826826e-001
    outer loop
      vertex  3.000000e+000 -3.186777e+001 -1.767767e+000
      vertex  0.000000e+000 -3.260000e+001 -6.123234e-016
      vertex  3.000000e+000 -3.260000e+001 -6.123234e-016
    endloop
  endfacet
  facet normal  0.000000e+000  3.826834e-001  9.238795e-001
    outer loop
      vertex  0.000000e+000 -3.186777e+001 -1.767767e+000
      vertex  3.000000e+000 -3.010000e+001 -2.500000e+000
      vertex  0.000000e+000 -3.010000e+001 -2.500000e+000
    endloop
  endfacet
  facet normal  0.000000e+000 -3.826834e-001  9.238795e-001
    outer loop
      vertex  0.000000e+000 -3.010000e+001 -2.500000e+000
      vertex  3.000000e+000 -3.010000e+001 -2.500000e+000
      vertex  3.000000e+000 -2.833223e+001 -1.767767e+000
    endloop
  endfacet
  facet normal  0.000000e+000 -3.826834e-001  9.238795e-001
    outer loop
      vertex  0.000000e+000 -3.010000e+001 -2.500000e+000
      vertex  3.000000e+000 -2.833223e+001 -1.767767e+000
      vertex  0.000000e+000 -2.833223e+001 -1.767767e+000
    endloop
  endfacet
  facet normal  0.000000e+000 -9.238795e-001  3.826834e-001
    outer loop
      vertex  0.000000e+000 -2.833223e+001 -1.767767e+000
      vertex  3.000000e+000 -2.833223e+001 -1.767767e+000
      vertex  3.000000e+000 -2.760000e+001  3.061617e-016
    endloop
  endfacet
  facet normal  0.000000e+000 -9.238795e-001  3.826834e-001
    outer loop
      vertex  0.000000e+000 -2.833223e+001 -1.767767e+000
      vertex  3.000000e+000 -2.760000e+001  3.061617e-016
      vertex  0.000000e+000 -2.760000e+001  3.061617e-016
    endloop
  endfacet
  facet normal  0.000000e+000 -3.826834e-001 -9.238795e-001
    outer loop
      vertex  3.000000e+000 -3.010000e+001  2.500000e+000
      vertex  0.000000e+000 -2.833223e+001  1.767767e+000
      vertex  3.000000e+000 -2.833223e+001  1.767767e+000
    endloop
  endfacet
  facet normal  -0.000000e+000 -9.238795e-001 -3.826834e-001
    outer loop
      vertex  3.000000e+000 -2.833223e+001  1.767767e+000
      vertex  0.000000e+000 -2.833223e+001  1.767767e+000
      vertex  0.000000e+000 -2.760000e+001  3.061617e-016
    endloop
  endfacet
  facet normal  0.000000e+000 -9.238795e-001 -3.826834e-001
    outer loop
      vertex  3.000000e+000 -2.833223e+001  1.767767e+000
      vertex  0.000000e+000 -2.760000e+001  3.061617e-016
      vertex  3.000000e+000 -2.760000e+001  3.061617e-016
    endloop
  endfacet
  facet normal  -0.000000e+000 -3.826834e-001 -9.238795e-001
    outer loop
      vertex  0.000000e+000 -2.833223e+001  1.767767e+000
      vertex  3.000000e+000 -3.010000e+001  2.500000e+000
      vertex  0.000000e+000 -3.010000e+001  2.500000e+000
    endloop
  endfacet
  facet normal  0.000000e+000  3.826834e-001 -9.238795e-001
    outer loop
      vertex  0.000000e+000 -3.010000e+001  2.500000e+000
      vertex  3.000000e+000 -3.010000e+001  2.500000e+000
      vertex  3.000000e+000 -3.186777e+001  1.767767e+000
    endloop
  endfacet
  facet normal  0.000000e+000  3.826834e-001 -9.238795e-001
    outer loop
      vertex  0.000000e+000 -3.010000e+001  2.500000e+000
      vertex  3.000000e+000 -3.186777e+001  1.767767e+000
      vertex  0.000000e+000 -3.186777e+001  1.767767e+000
    endloop
  endfacet
  facet normal  0.000000e+000  9.238799e-001 -3.826826e-001
    outer loop
      vertex  0.000000e+000 -3.186777e+001  1.767767e+000
      vertex  3.000000e+000 -3.186777e+001  1.767767e+000
      vertex  3.000000e+000 -3.260000e+001 -6.123234e-016
    endloop
  endfacet
  facet normal  0.000000e+000  9.238799e-001 -3.826826e-001
    outer loop
      vertex  0.000000e+000 -3.186777e+001  1.767767e+000
      vertex  3.000000e+000 -3.260000e+001 -6.123234e-016
      vertex  0.000000e+000 -3.260000e+001 -6.123234e-016
    endloop
  endfacet
  facet normal  0.000000e+000 -3.826834e-001  9.238795e-001
    outer loop
      vertex  0.000000e+000  4.900000e+000  2.610000e+001
      vertex  3.000000e+000  6.667767e+000  2.683223e+001
      vertex  0.000000e+000  6.667767e+000  2.683223e+001
    endloop
  endfacet
  facet normal  0.000000e+000 -9.238795e-001  3.826834e-001
    outer loop
      vertex  0.000000e+000  6.667767e+000  2.683223e+001
      vertex  3.000000e+000  6.667767e+000  2.683223e+001
      vertex  3.000000e+000  7.400000e+000  2.860000e+001
    endloop
  endfacet
  facet normal  0.000000e+000 -9.238795e-001  3.826834e-001
    outer loop
      vertex  0.000000e+000  6.667767e+000  2.683223e+001
      vertex  3.000000e+000  7.400000e+000  2.860000e+001
      vertex  0.000000e+000  7.400000e+000  2.860000e+001
    endloop
  endfacet
  facet normal  0.000000e+000 -3.826834e-001  9.238795e-001
    outer loop
      vertex  3.000000e+000  6.667767e+000  2.683223e+001
      vertex  0.000000e+000  4.900000e+000  2.610000e+001
      vertex  3.000000e+000  4.900000e+000  2.610000e+001
    endloop
  endfacet
  facet normal  0.000000e+000  3.826834e-001  9.238795e-001
    outer loop
      vertex  3.000000e+000  4.900000e+000  2.610000e+001
      vertex  0.000000e+000  4.900000e+000  2.610000e+001
      vertex  0.000000e+000  3.132233e+000  2.683223e+001
    endloop
  endfacet
  facet normal  -0.000000e+000  3.826834e-001  9.238795e-001
    outer loop
      vertex  3.000000e+000  4.900000e+000  2.610000e+001
      vertex  0.000000e+000  3.132233e+000  2.683223e+001
      vertex  3.000000e+000  3.132233e+000  2.683223e+001
    endloop
  endfacet
  facet normal  0.000000e+000  9.238795e-001  3.826834e-001
    outer loop
      vertex  3.000000e+000  3.132233e+000  2.683223e+001
      vertex  0.000000e+000  3.132233e+000  2.683223e+001
      vertex  0.000000e+000  2.400000e+000  2.860000e+001
    endloop
  endfacet
  facet normal  -0.000000e+000  9.238795e-001  3.826834e-001
    outer loop
      vertex  3.000000e+000  3.132233e+000  2.683223e+001
      vertex  0.000000e+000  2.400000e+000  2.860000e+001
      vertex  3.000000e+000  2.400000e+000  2.860000e+001
    endloop
  endfacet
  facet normal  0.000000e+000  3.826834e-001 -9.238795e-001
    outer loop
      vertex  0.000000e+000  4.900000e+000  3.110000e+001
      vertex  3.000000e+000  3.132233e+000  3.036777e+001
      vertex  0.000000e+000  3.132233e+000  3.036777e+001
    endloop
  endfacet
  facet normal  0.000000e+000  9.238795e-001 -3.826834e-001
    outer loop
      vertex  0.000000e+000  3.132233e+000  3.036777e+001
      vertex  3.000000e+000  3.132233e+000  3.036777e+001
      vertex  3.000000e+000  2.400000e+000  2.860000e+001
    endloop
  endfacet
  facet normal  0.000000e+000  9.238795e-001 -3.826834e-001
    outer loop
      vertex  0.000000e+000  3.132233e+000  3.036777e+001
      vertex  3.000000e+000  2.400000e+000  2.860000e+001
      vertex  0.000000e+000  2.400000e+000  2.860000e+001
    endloop
  endfacet
  facet normal  0.000000e+000  3.826834e-001 -9.238795e-001
    outer loop
      vertex  3.000000e+000  3.132233e+000  3.036777e+001
      vertex  0.000000e+000  4.900000e+000  3.110000e+001
      vertex  3.000000e+000  4.900000e+000  3.110000e+001
    endloop
  endfacet
  facet normal  -0.000000e+000 -3.826834e-001 -9.238795e-001
    outer loop
      vertex  3.000000e+000  4.900000e+000  3.110000e+001
      vertex  0.000000e+000  4.900000e+000  3.110000e+001
      vertex  0.000000e+000  6.667767e+000  3.036777e+001
    endloop
  endfacet
  facet normal  0.000000e+000 -3.826834e-001 -9.238795e-001
    outer loop
      vertex  3.000000e+000  4.900000e+000  3.110000e+001
      vertex  0.000000e+000  6.667767e+000  3.036777e+001
      vertex  3.000000e+000  6.667767e+000  3.036777e+001
    endloop
  endfacet
  facet normal  -0.000000e+000 -9.238795e-001 -3.826834e-001
    outer loop
      vertex  3.000000e+000  6.667767e+000  3.036777e+001
      vertex  0.000000e+000  6.667767e+000  3.036777e+001
      vertex  0.000000e+000  7.400000e+000  2.860000e+001
    endloop
  endfacet
  facet normal  0.000000e+000 -9.238795e-001 -3.826834e-001
    outer loop
      vertex  3.000000e+000  6.667767e+000  3.036777e+001
      vertex  0.000000e+000  7.400000e+000  2.860000e+001
      vertex  3.000000e+000  7.400000e+000  2.860000e+001
    endloop
  endfacet
  facet normal  0.000000e+000 -3.826834e-001  9.238795e-001
    outer loop
      vertex  0.000000e+000  4.900000e+000 -2.317175e+001
      vertex  3.000000e+000  6.667767e+000 -2.243951e+001
      vertex  0.000000e+000  6.667767e+000 -2.243951e+001
    endloop
  endfacet
  facet normal  0.000000e+000 -9.238795e-001  3.826834e-001
    outer loop
      vertex  0.000000e+000  6.667767e+000 -2.243951e+001
      vertex  3.000000e+000  6.667767e+000 -2.243951e+001
      vertex  3.000000e+000  7.400000e+000 -2.067175e+001
    endloop
  endfacet
  facet normal  0.000000e+000 -9.238795e-001  3.826834e-001
    outer loop
      vertex  0.000000e+000  6.667767e+000 -2.243951e+001
      vertex  3.000000e+000  7.400000e+000 -2.067175e+001
      vertex  0.000000e+000  7.400000e+000 -2.067175e+001
    endloop
  endfacet
  facet normal  0.000000e+000 -3.826834e-001  9.238795e-001
    outer loop
      vertex  3.000000e+000  6.667767e+000 -2.243951e+001
      vertex  0.000000e+000  4.900000e+000 -2.317175e+001
      vertex  3.000000e+000  4.900000e+000 -2.317175e+001
    endloop
  endfacet
  facet normal  0.000000e+000  3.826834e-001  9.238795e-001
    outer loop
      vertex  3.000000e+000  4.900000e+000 -2.317175e+001
      vertex  0.000000e+000  4.900000e+000 -2.317175e+001
      vertex  0.000000e+000  3.132233e+000 -2.243951e+001
    endloop
  endfacet
  facet normal  -0.000000e+000  3.826834e-001  9.238795e-001
    outer loop
      vertex  3.000000e+000  4.900000e+000 -2.317175e+001
      vertex  0.000000e+000  3.132233e+000 -2.243951e+001
      vertex  3.000000e+000  3.132233e+000 -2.243951e+001
    endloop
  endfacet
  facet normal  0.000000e+000  9.238795e-001  3.826834e-001
    outer loop
      vertex  3.000000e+000  3.132233e+000 -2.243951e+001
      vertex  0.000000e+000  3.132233e+000 -2.243951e+001
      vertex  0.000000e+000  2.400000e+000 -2.067175e+001
    endloop
  endfacet
  facet normal  -0.000000e+000  9.238795e-001  3.826834e-001
    outer loop
      vertex  3.000000e+000  3.132233e+000 -2.243951e+001
      vertex  0.000000e+000  2.400000e+000 -2.067175e+001
      vertex  3.000000e+000  2.400000e+000 -2.067175e+001
    endloop
  endfacet
  facet normal  0.000000e+000  3.826834e-001 -9.238795e-001
    outer loop
      vertex  0.000000e+000  4.900000e+000 -1.817175e+001
      vertex  3.000000e+000  3.132233e+000 -1.890398e+001
      vertex  0.000000e+000  3.132233e+000 -1.890398e+001
    endloop
  endfacet
  facet normal  0.000000e+000  9.238795e-001 -3.826834e-001
    outer loop
      vertex  0.000000e+000  3.132233e+000 -1.890398e+001
      vertex  3.000000e+000  3.132233e+000 -1.890398e+001
      vertex  3.000000e+000  2.400000e+000 -2.067175e+001
    endloop
  endfacet
  facet normal  0.000000e+000  9.238795e-001 -3.826834e-001
    outer loop
      vertex  0.000000e+000  3.132233e+000 -1.890398e+001
      vertex  3.000000e+000  2.400000e+000 -2.067175e+001
      vertex  0.000000e+000  2.400000e+000 -2.067175e+001
    endloop
  endfacet
  facet normal  0.000000e+000  3.826834e-001 -9.238795e-001
    outer loop
      vertex  3.000000e+000  3.132233e+000 -1.890398e+001
      vertex  0.000000e+000  4.900000e+000 -1.817175e+001
      vertex  3.000000e+000  4.900000e+000 -1.817175e+001
    endloop
  endfacet
  facet normal  -0.000000e+000 -3.826834e-001 -9.238795e-001
    outer loop
      vertex  3.000000e+000  4.900000e+000 -1.817175e+001
      vertex  0.000000e+000  4.900000e+000 -1.817175e+001
      vertex  0.000000e+000  6.667767e+000 -1.890398e+001
    endloop
  endfacet
  facet normal  0.000000e+000 -3.826834e-001 -9.238795e-001
    outer loop
      vertex  3.000000e+000  4.900000e+000 -1.817175e+001
      vertex  0.000000e+000  6.667767e+000 -1.890398e+001
      vertex  3.000000e+000  6.667767e+000 -1.890398e+001
    endloop
  endfacet
  facet normal  -0.000000e+000 -9.238795e-001 -3.826834e-001
    outer loop
      vertex  3.000000e+000  6.667767e+000 -1.890398e+001
      vertex  0.000000e+000  6.667767e+000 -1.890398e+001
      vertex  0.000000e+000  7.400000e+000 -2.067175e+001
    endloop
  endfacet
  facet normal  0.000000e+000 -9.238795e-001 -3.826834e-001
    outer loop
      vertex  3.000000e+000  6.667767e+000 -1.890398e+001
      vertex  0.000000e+000  7.400000e+000 -2.067175e+001
      vertex  3.000000e+000  7.400000e+000 -2.067175e+001
    endloop
  endfacet
  facet normal  0.000000e+000 -3.826834e-001  9.238795e-001
    outer loop
      vertex  0.000000e+000  3.010000e+001 -2.500000e+000
      vertex  3.000000e+000  3.186777e+001 -1.767767e+000
      vertex  0.000000e+000  3.186777e+001 -1.767767e+000
    endloop
  endfacet
  facet normal  0.000000e+000 -9.238799e-001  3.826826e-001
    outer loop
      vertex  0.000000e+000  3.186777e+001 -1.767767e+000
      vertex  3.000000e+000  3.186777e+001 -1.767767e+000
      vertex  3.000000e+000  3.260000e+001 -6.123234e-016
    endloop
  endfacet
  facet normal  0.000000e+000 -9.238799e-001  3.826826e-001
    outer loop
      vertex  0.000000e+000  3.186777e+001 -1.767767e+000
      vertex  3.000000e+000  3.260000e+001 -6.123234e-016
      vertex  0.000000e+000  3.260000e+001 -6.123234e-016
    endloop
  endfacet
  facet normal  0.000000e+000 -3.826834e-001  9.238795e-001
    outer loop
      vertex  3.000000e+000  3.186777e+001 -1.767767e+000
      vertex  0.000000e+000  3.010000e+001 -2.500000e+000
      vertex  3.000000e+000  3.010000e+001 -2.500000e+000
    endloop
  endfacet
  facet normal  0.000000e+000  3.826834e-001  9.238795e-001
    outer loop
      vertex  3.000000e+000  3.010000e+001 -2.500000e+000
      vertex  0.000000e+000  3.010000e+001 -2.500000e+000
      vertex  0.000000e+000  2.833223e+001 -1.767767e+000
    endloop
  endfacet
  facet normal  -0.000000e+000  3.826834e-001  9.238795e-001
    outer loop
      vertex  3.000000e+000  3.010000e+001 -2.500000e+000
      vertex  0.000000e+000  2.833223e+001 -1.767767e+000
      vertex  3.000000e+000  2.833223e+001 -1.767767e+000
    endloop
  endfacet
  facet normal  0.000000e+000  9.238795e-001  3.826834e-001
    outer loop
      vertex  3.000000e+000  2.833223e+001 -1.767767e+000
      vertex  0.000000e+000  2.833223e+001 -1.767767e+000
      vertex  0.000000e+000  2.760000e+001  3.061617e-016
    endloop
  endfacet
  facet normal  -0.000000e+000  9.238795e-001  3.826834e-001
    outer loop
      vertex  3.000000e+000  2.833223e+001 -1.767767e+000
      vertex  0.000000e+000  2.760000e+001  3.061617e-016
      vertex  3.000000e+000  2.760000e+001  3.061617e-016
    endloop
  endfacet
  facet normal  0.000000e+000  3.826834e-001 -9.238795e-001
    outer loop
      vertex  0.000000e+000  3.010000e+001  2.500000e+000
      vertex  3.000000e+000  2.833223e+001  1.767767e+000
      vertex  0.000000e+000  2.833223e+001  1.767767e+000
    endloop
  endfacet
  facet normal  0.000000e+000  9.238795e-001 -3.826834e-001
    outer loop
      vertex  0.000000e+000  2.833223e+001  1.767767e+000
      vertex  3.000000e+000  2.833223e+001  1.767767e+000
      vertex  3.000000e+000  2.760000e+001  3.061617e-016
    endloop
  endfacet
  facet normal  0.000000e+000  9.238795e-001 -3.826834e-001
    outer loop
      vertex  0.000000e+000  2.833223e+001  1.767767e+000
      vertex  3.000000e+000  2.760000e+001  3.061617e-016
      vertex  0.000000e+000  2.760000e+001  3.061617e-016
    endloop
  endfacet
  facet normal  0.000000e+000  3.826834e-001 -9.238795e-001
    outer loop
      vertex  3.000000e+000  2.833223e+001  1.767767e+000
      vertex  0.000000e+000  3.010000e+001  2.500000e+000
      vertex  3.000000e+000  3.010000e+001  2.500000e+000
    endloop
  endfacet
  facet normal  -0.000000e+000 -3.826834e-001 -9.238795e-001
    outer loop
      vertex  3.000000e+000  3.010000e+001  2.500000e+000
      vertex  0.000000e+000  3.010000e+001  2.500000e+000
      vertex  0.000000e+000  3.186777e+001  1.767767e+000
    endloop
  endfacet
  facet normal  0.000000e+000 -3.826834e-001 -9.238795e-001
    outer loop
      vertex  3.000000e+000  3.010000e+001  2.500000e+000
      vertex  0.000000e+000  3.186777e+001  1.767767e+000
      vertex  3.000000e+000  3.186777e+001  1.767767e+000
    endloop
  endfacet
  facet normal  -0.000000e+000 -9.238799e-001 -3.826826e-001
    outer loop
      vertex  3.000000e+000  3.186777e+001  1.767767e+000
      vertex  0.000000e+000  3.186777e+001  1.767767e+000
      vertex  0.000000e+000  3.260000e+001 -6.123234e-016
    endloop
  endfacet
  facet normal  0.000000e+000 -9.238799e-001 -3.826826e-001
    outer loop
      vertex  3.000000e+000  3.186777e+001  1.767767e+000
      vertex  0.000000e+000  3.260000e+001 -6.123234e-016
      vertex  3.000000e+000  3.260000e+001 -6.123234e-016
    endloop
  endfacet
endsolid CATIA STL
