solid CATIA STL
  facet normal  1.000000e+000  0.000000e+000  -0.000000e+000
    outer loop
      vertex  1.180000e+002 -2.550000e+000  4.416729e+000
      vertex  1.180000e+002  2.602375e-016  4.250000e+000
      vertex  1.180000e+002  3.122849e-016  5.100000e+000
    endloop
  endfacet
  facet normal  1.000000e+000  0.000000e+000  0.000000e+000
    outer loop
      vertex  1.180000e+002  2.550000e+000 -4.416729e+000
      vertex  1.180000e+002  2.994046e-015 -4.250000e+000
      vertex  1.180000e+002 -9.368548e-016 -5.100000e+000
    endloop
  endfacet
  facet normal  1.000000e+000  0.000000e+000  0.000000e+000
    outer loop
      vertex  1.180000e+002 -9.368548e-016 -5.100000e+000
      vertex  1.180000e+002  2.994046e-015 -4.250000e+000
      vertex  1.180000e+002 -2.550000e+000 -4.416729e+000
    endloop
  endfacet
  facet normal  1.000000e+000  0.000000e+000  0.000000e+000
    outer loop
      vertex  1.180000e+002 -2.550000e+000 -4.416729e+000
      vertex  1.180000e+002  2.994046e-015 -4.250000e+000
      vertex  1.180000e+002 -2.125000e+000 -3.680608e+000
    endloop
  endfacet
  facet normal  1.000000e+000  0.000000e+000  0.000000e+000
    outer loop
      vertex  1.180000e+002 -2.550000e+000 -4.416729e+000
      vertex  1.180000e+002 -2.125000e+000 -3.680608e+000
      vertex  1.180000e+002 -4.416729e+000 -2.550000e+000
    endloop
  endfacet
  facet normal  9.999999e-001  -0.000000e+000  0.000000e+000
    outer loop
      vertex  1.180000e+002 -4.416729e+000 -2.550000e+000
      vertex  1.180000e+002 -2.125000e+000 -3.680608e+000
      vertex  1.180000e+002 -3.680608e+000 -2.125000e+000
    endloop
  endfacet
  facet normal  1.000000e+000  0.000000e+000  0.000000e+000
    outer loop
      vertex  1.180000e+002 -4.416729e+000 -2.550000e+000
      vertex  1.180000e+002 -3.680608e+000 -2.125000e+000
      vertex  1.180000e+002 -5.100000e+000  6.245699e-016
    endloop
  endfacet
  facet normal  1.000000e+000  0.000000e+000  0.000000e+000
    outer loop
      vertex  1.180000e+002 -5.100000e+000  6.245699e-016
      vertex  1.180000e+002 -3.680608e+000 -2.125000e+000
      vertex  1.180000e+002 -4.250000e+000  5.204749e-016
    endloop
  endfacet
  facet normal  1.000000e+000  0.000000e+000  0.000000e+000
    outer loop
      vertex  1.180000e+002 -5.100000e+000  6.245699e-016
      vertex  1.180000e+002 -4.250000e+000  5.204749e-016
      vertex  1.180000e+002 -4.416729e+000  2.550000e+000
    endloop
  endfacet
  facet normal  1.000000e+000  0.000000e+000  0.000000e+000
    outer loop
      vertex  1.180000e+002 -4.416729e+000  2.550000e+000
      vertex  1.180000e+002 -4.250000e+000  5.204749e-016
      vertex  1.180000e+002 -3.680608e+000  2.125000e+000
    endloop
  endfacet
  facet normal  1.000000e+000  0.000000e+000  -0.000000e+000
    outer loop
      vertex  1.180000e+002 -4.416729e+000  2.550000e+000
      vertex  1.180000e+002 -3.680608e+000  2.125000e+000
      vertex  1.180000e+002 -2.550000e+000  4.416729e+000
    endloop
  endfacet
  facet normal  9.999999e-001  0.000000e+000  0.000000e+000
    outer loop
      vertex  1.180000e+002 -2.550000e+000  4.416729e+000
      vertex  1.180000e+002 -3.680608e+000  2.125000e+000
      vertex  1.180000e+002 -2.125000e+000  3.680608e+000
    endloop
  endfacet
  facet normal  1.000000e+000  0.000000e+000  -0.000000e+000
    outer loop
      vertex  1.180000e+002 -2.550000e+000  4.416729e+000
      vertex  1.180000e+002 -2.125000e+000  3.680608e+000
      vertex  1.180000e+002  2.602375e-016  4.250000e+000
    endloop
  endfacet
  facet normal  1.000000e+000  0.000000e+000  0.000000e+000
    outer loop
      vertex  1.180000e+002  3.122849e-016  5.100000e+000
      vertex  1.180000e+002  2.602375e-016  4.250000e+000
      vertex  1.180000e+002  2.550000e+000  4.416729e+000
    endloop
  endfacet
  facet normal  1.000000e+000  0.000000e+000  0.000000e+000
    outer loop
      vertex  1.180000e+002  2.550000e+000  4.416729e+000
      vertex  1.180000e+002  2.602375e-016  4.250000e+000
      vertex  1.180000e+002  2.125000e+000  3.680608e+000
    endloop
  endfacet
  facet normal  1.000000e+000  -0.000000e+000  0.000000e+000
    outer loop
      vertex  1.180000e+002  2.550000e+000  4.416729e+000
      vertex  1.180000e+002  2.125000e+000  3.680608e+000
      vertex  1.180000e+002  4.416729e+000  2.550000e+000
    endloop
  endfacet
  facet normal  9.999999e-001  0.000000e+000  0.000000e+000
    outer loop
      vertex  1.180000e+002  4.416729e+000  2.550000e+000
      vertex  1.180000e+002  2.125000e+000  3.680608e+000
      vertex  1.180000e+002  3.680608e+000  2.125000e+000
    endloop
  endfacet
  facet normal  1.000000e+000  -0.000000e+000  0.000000e+000
    outer loop
      vertex  1.180000e+002  4.416729e+000  2.550000e+000
      vertex  1.180000e+002  3.680608e+000  2.125000e+000
      vertex  1.180000e+002  5.100000e+000  0.000000e+000
    endloop
  endfacet
  facet normal  1.000000e+000  0.000000e+000  0.000000e+000
    outer loop
      vertex  1.180000e+002  5.100000e+000  0.000000e+000
      vertex  1.180000e+002  3.680608e+000  2.125000e+000
      vertex  1.180000e+002  4.250000e+000  0.000000e+000
    endloop
  endfacet
  facet normal  1.000000e+000  -0.000000e+000  0.000000e+000
    outer loop
      vertex  1.180000e+002  5.100000e+000  0.000000e+000
      vertex  1.180000e+002  4.250000e+000  0.000000e+000
      vertex  1.180000e+002  4.416729e+000 -2.550000e+000
    endloop
  endfacet
  facet normal  1.000000e+000  0.000000e+000  0.000000e+000
    outer loop
      vertex  1.180000e+002  4.416729e+000 -2.550000e+000
      vertex  1.180000e+002  4.250000e+000  0.000000e+000
      vertex  1.180000e+002  3.680608e+000 -2.125000e+000
    endloop
  endfacet
  facet normal  1.000000e+000  0.000000e+000  0.000000e+000
    outer loop
      vertex  1.180000e+002  4.416729e+000 -2.550000e+000
      vertex  1.180000e+002  3.680608e+000 -2.125000e+000
      vertex  1.180000e+002  2.550000e+000 -4.416729e+000
    endloop
  endfacet
  facet normal  9.999999e-001  0.000000e+000  -0.000000e+000
    outer loop
      vertex  1.180000e+002  2.550000e+000 -4.416729e+000
      vertex  1.180000e+002  3.680608e+000 -2.125000e+000
      vertex  1.180000e+002  2.125000e+000 -3.680608e+000
    endloop
  endfacet
  facet normal  1.000000e+000  0.000000e+000  0.000000e+000
    outer loop
      vertex  1.180000e+002  2.550000e+000 -4.416729e+000
      vertex  1.180000e+002  2.125000e+000 -3.680608e+000
      vertex  1.180000e+002  2.994046e-015 -4.250000e+000
    endloop
  endfacet
  facet normal -1.000000e+000  0.000000e+000  0.000000e+000
    outer loop
      vertex  0.000000e+000  3.122849e-016  5.100000e+000
      vertex  0.000000e+000  2.602375e-016  4.250000e+000
      vertex  0.000000e+000 -2.550000e+000  4.416729e+000
    endloop
  endfacet
  facet normal -1.000000e+000  0.000000e+000  -0.000000e+000
    outer loop
      vertex  0.000000e+000 -9.368548e-016 -5.100000e+000
      vertex  0.000000e+000  2.994046e-015 -4.250000e+000
      vertex  0.000000e+000  2.550000e+000 -4.416729e+000
    endloop
  endfacet
  facet normal -1.000000e+000  0.000000e+000  0.000000e+000
    outer loop
      vertex  0.000000e+000  2.602375e-016  4.250000e+000
      vertex  0.000000e+000 -2.125000e+000  3.680608e+000
      vertex  0.000000e+000 -2.550000e+000  4.416729e+000
    endloop
  endfacet
  facet normal -9.999999e-001  0.000000e+000  -0.000000e+000
    outer loop
      vertex  0.000000e+000 -2.550000e+000  4.416729e+000
      vertex  0.000000e+000 -2.125000e+000  3.680608e+000
      vertex  0.000000e+000 -3.680608e+000  2.125000e+000
    endloop
  endfacet
  facet normal -1.000000e+000  0.000000e+000  0.000000e+000
    outer loop
      vertex  0.000000e+000 -2.550000e+000  4.416729e+000
      vertex  0.000000e+000 -3.680608e+000  2.125000e+000
      vertex  0.000000e+000 -4.416729e+000  2.550000e+000
    endloop
  endfacet
  facet normal -1.000000e+000  0.000000e+000  0.000000e+000
    outer loop
      vertex  0.000000e+000 -4.416729e+000  2.550000e+000
      vertex  0.000000e+000 -3.680608e+000  2.125000e+000
      vertex  0.000000e+000 -4.250000e+000  5.204749e-016
    endloop
  endfacet
  facet normal -1.000000e+000  0.000000e+000  0.000000e+000
    outer loop
      vertex  0.000000e+000 -4.416729e+000  2.550000e+000
      vertex  0.000000e+000 -4.250000e+000  5.204749e-016
      vertex  0.000000e+000 -5.100000e+000  6.245699e-016
    endloop
  endfacet
  facet normal -1.000000e+000  0.000000e+000  0.000000e+000
    outer loop
      vertex  0.000000e+000 -5.100000e+000  6.245699e-016
      vertex  0.000000e+000 -4.250000e+000  5.204749e-016
      vertex  0.000000e+000 -3.680608e+000 -2.125000e+000
    endloop
  endfacet
  facet normal -1.000000e+000  -0.000000e+000  0.000000e+000
    outer loop
      vertex  0.000000e+000 -5.100000e+000  6.245699e-016
      vertex  0.000000e+000 -3.680608e+000 -2.125000e+000
      vertex  0.000000e+000 -4.416729e+000 -2.550000e+000
    endloop
  endfacet
  facet normal -9.999999e-001  0.000000e+000  0.000000e+000
    outer loop
      vertex  0.000000e+000 -4.416729e+000 -2.550000e+000
      vertex  0.000000e+000 -3.680608e+000 -2.125000e+000
      vertex  0.000000e+000 -2.125000e+000 -3.680608e+000
    endloop
  endfacet
  facet normal -1.000000e+000  -0.000000e+000  0.000000e+000
    outer loop
      vertex  0.000000e+000 -4.416729e+000 -2.550000e+000
      vertex  0.000000e+000 -2.125000e+000 -3.680608e+000
      vertex  0.000000e+000 -2.550000e+000 -4.416729e+000
    endloop
  endfacet
  facet normal -1.000000e+000  0.000000e+000  0.000000e+000
    outer loop
      vertex  0.000000e+000 -2.550000e+000 -4.416729e+000
      vertex  0.000000e+000 -2.125000e+000 -3.680608e+000
      vertex  0.000000e+000  2.994046e-015 -4.250000e+000
    endloop
  endfacet
  facet normal -1.000000e+000  0.000000e+000  0.000000e+000
    outer loop
      vertex  0.000000e+000 -2.550000e+000 -4.416729e+000
      vertex  0.000000e+000  2.994046e-015 -4.250000e+000
      vertex  0.000000e+000 -9.368548e-016 -5.100000e+000
    endloop
  endfacet
  facet normal -1.000000e+000  0.000000e+000  -0.000000e+000
    outer loop
      vertex  0.000000e+000  2.994046e-015 -4.250000e+000
      vertex  0.000000e+000  2.125000e+000 -3.680608e+000
      vertex  0.000000e+000  2.550000e+000 -4.416729e+000
    endloop
  endfacet
  facet normal -9.999999e-001  0.000000e+000  0.000000e+000
    outer loop
      vertex  0.000000e+000  2.550000e+000 -4.416729e+000
      vertex  0.000000e+000  2.125000e+000 -3.680608e+000
      vertex  0.000000e+000  3.680608e+000 -2.125000e+000
    endloop
  endfacet
  facet normal -1.000000e+000  0.000000e+000  -0.000000e+000
    outer loop
      vertex  0.000000e+000  2.550000e+000 -4.416729e+000
      vertex  0.000000e+000  3.680608e+000 -2.125000e+000
      vertex  0.000000e+000  4.416729e+000 -2.550000e+000
    endloop
  endfacet
  facet normal -1.000000e+000  0.000000e+000  0.000000e+000
    outer loop
      vertex  0.000000e+000  4.416729e+000 -2.550000e+000
      vertex  0.000000e+000  3.680608e+000 -2.125000e+000
      vertex  0.000000e+000  4.250000e+000  0.000000e+000
    endloop
  endfacet
  facet normal -1.000000e+000  0.000000e+000  0.000000e+000
    outer loop
      vertex  0.000000e+000  4.416729e+000 -2.550000e+000
      vertex  0.000000e+000  4.250000e+000  0.000000e+000
      vertex  0.000000e+000  5.100000e+000  0.000000e+000
    endloop
  endfacet
  facet normal -1.000000e+000  0.000000e+000  0.000000e+000
    outer loop
      vertex  0.000000e+000  5.100000e+000  0.000000e+000
      vertex  0.000000e+000  4.250000e+000  0.000000e+000
      vertex  0.000000e+000  3.680608e+000  2.125000e+000
    endloop
  endfacet
  facet normal -1.000000e+000  0.000000e+000  0.000000e+000
    outer loop
      vertex  0.000000e+000  5.100000e+000  0.000000e+000
      vertex  0.000000e+000  3.680608e+000  2.125000e+000
      vertex  0.000000e+000  4.416729e+000  2.550000e+000
    endloop
  endfacet
  facet normal -9.999999e-001  -0.000000e+000  0.000000e+000
    outer loop
      vertex  0.000000e+000  4.416729e+000  2.550000e+000
      vertex  0.000000e+000  3.680608e+000  2.125000e+000
      vertex  0.000000e+000  2.125000e+000  3.680608e+000
    endloop
  endfacet
  facet normal -1.000000e+000  0.000000e+000  0.000000e+000
    outer loop
      vertex  0.000000e+000  4.416729e+000  2.550000e+000
      vertex  0.000000e+000  2.125000e+000  3.680608e+000
      vertex  0.000000e+000  2.550000e+000  4.416729e+000
    endloop
  endfacet
  facet normal -1.000000e+000  0.000000e+000  0.000000e+000
    outer loop
      vertex  0.000000e+000  2.550000e+000  4.416729e+000
      vertex  0.000000e+000  2.125000e+000  3.680608e+000
      vertex  0.000000e+000  2.602375e-016  4.250000e+000
    endloop
  endfacet
  facet normal -1.000000e+000  0.000000e+000  0.000000e+000
    outer loop
      vertex  0.000000e+000  2.550000e+000  4.416729e+000
      vertex  0.000000e+000  2.602375e-016  4.250000e+000
      vertex  0.000000e+000  3.122849e-016  5.100000e+000
    endloop
  endfacet
  facet normal  0.000000e+000  2.588190e-001 -9.659258e-001
    outer loop
      vertex  0.000000e+000  2.602375e-016  4.250000e+000
      vertex  1.180000e+002 -2.125000e+000  3.680608e+000
      vertex  0.000000e+000 -2.125000e+000  3.680608e+000
    endloop
  endfacet
  facet normal  0.000000e+000  7.071068e-001 -7.071068e-001
    outer loop
      vertex  0.000000e+000 -2.125000e+000  3.680608e+000
      vertex  1.180000e+002 -2.125000e+000  3.680608e+000
      vertex  1.180000e+002 -3.680608e+000  2.125000e+000
    endloop
  endfacet
  facet normal  0.000000e+000  7.071068e-001 -7.071068e-001
    outer loop
      vertex  0.000000e+000 -2.125000e+000  3.680608e+000
      vertex  1.180000e+002 -3.680608e+000  2.125000e+000
      vertex  0.000000e+000 -3.680608e+000  2.125000e+000
    endloop
  endfacet
  facet normal  0.000000e+000  9.659258e-001 -2.588190e-001
    outer loop
      vertex  0.000000e+000 -3.680608e+000  2.125000e+000
      vertex  1.180000e+002 -3.680608e+000  2.125000e+000
      vertex  1.180000e+002 -4.250000e+000  5.204749e-016
    endloop
  endfacet
  facet normal  0.000000e+000  9.659258e-001 -2.588190e-001
    outer loop
      vertex  0.000000e+000 -3.680608e+000  2.125000e+000
      vertex  1.180000e+002 -4.250000e+000  5.204749e-016
      vertex  0.000000e+000 -4.250000e+000  5.204749e-016
    endloop
  endfacet
  facet normal  0.000000e+000  2.588190e-001 -9.659258e-001
    outer loop
      vertex  1.180000e+002 -2.125000e+000  3.680608e+000
      vertex  0.000000e+000  2.602375e-016  4.250000e+000
      vertex  1.180000e+002  2.602375e-016  4.250000e+000
    endloop
  endfacet
  facet normal  -0.000000e+000 -2.588190e-001 -9.659258e-001
    outer loop
      vertex  1.180000e+002  2.602375e-016  4.250000e+000
      vertex  0.000000e+000  2.602375e-016  4.250000e+000
      vertex  0.000000e+000  2.125000e+000  3.680608e+000
    endloop
  endfacet
  facet normal  0.000000e+000 -2.588190e-001 -9.659258e-001
    outer loop
      vertex  1.180000e+002  2.602375e-016  4.250000e+000
      vertex  0.000000e+000  2.125000e+000  3.680608e+000
      vertex  1.180000e+002  2.125000e+000  3.680608e+000
    endloop
  endfacet
  facet normal  -0.000000e+000 -7.071068e-001 -7.071068e-001
    outer loop
      vertex  1.180000e+002  2.125000e+000  3.680608e+000
      vertex  0.000000e+000  2.125000e+000  3.680608e+000
      vertex  0.000000e+000  3.680608e+000  2.125000e+000
    endloop
  endfacet
  facet normal  0.000000e+000 -7.071068e-001 -7.071068e-001
    outer loop
      vertex  1.180000e+002  2.125000e+000  3.680608e+000
      vertex  0.000000e+000  3.680608e+000  2.125000e+000
      vertex  1.180000e+002  3.680608e+000  2.125000e+000
    endloop
  endfacet
  facet normal  -0.000000e+000 -9.659258e-001 -2.588190e-001
    outer loop
      vertex  1.180000e+002  3.680608e+000  2.125000e+000
      vertex  0.000000e+000  3.680608e+000  2.125000e+000
      vertex  0.000000e+000  4.250000e+000  0.000000e+000
    endloop
  endfacet
  facet normal  0.000000e+000 -9.659258e-001 -2.588190e-001
    outer loop
      vertex  1.180000e+002  3.680608e+000  2.125000e+000
      vertex  0.000000e+000  4.250000e+000  0.000000e+000
      vertex  1.180000e+002  4.250000e+000  0.000000e+000
    endloop
  endfacet
  facet normal  0.000000e+000 -2.588190e-001  9.659258e-001
    outer loop
      vertex  0.000000e+000  2.994046e-015 -4.250000e+000
      vertex  1.180000e+002  2.125000e+000 -3.680608e+000
      vertex  0.000000e+000  2.125000e+000 -3.680608e+000
    endloop
  endfacet
  facet normal  0.000000e+000 -7.071068e-001  7.071068e-001
    outer loop
      vertex  0.000000e+000  2.125000e+000 -3.680608e+000
      vertex  1.180000e+002  2.125000e+000 -3.680608e+000
      vertex  1.180000e+002  3.680608e+000 -2.125000e+000
    endloop
  endfacet
  facet normal  0.000000e+000 -7.071068e-001  7.071068e-001
    outer loop
      vertex  0.000000e+000  2.125000e+000 -3.680608e+000
      vertex  1.180000e+002  3.680608e+000 -2.125000e+000
      vertex  0.000000e+000  3.680608e+000 -2.125000e+000
    endloop
  endfacet
  facet normal  0.000000e+000 -9.659258e-001  2.588190e-001
    outer loop
      vertex  0.000000e+000  3.680608e+000 -2.125000e+000
      vertex  1.180000e+002  3.680608e+000 -2.125000e+000
      vertex  1.180000e+002  4.250000e+000  0.000000e+000
    endloop
  endfacet
  facet normal  0.000000e+000 -9.659258e-001  2.588190e-001
    outer loop
      vertex  0.000000e+000  3.680608e+000 -2.125000e+000
      vertex  1.180000e+002  4.250000e+000  0.000000e+000
      vertex  0.000000e+000  4.250000e+000  0.000000e+000
    endloop
  endfacet
  facet normal  0.000000e+000 -2.588190e-001  9.659258e-001
    outer loop
      vertex  1.180000e+002  2.125000e+000 -3.680608e+000
      vertex  0.000000e+000  2.994046e-015 -4.250000e+000
      vertex  1.180000e+002  2.994046e-015 -4.250000e+000
    endloop
  endfacet
  facet normal  0.000000e+000  2.588190e-001  9.659258e-001
    outer loop
      vertex  1.180000e+002  2.994046e-015 -4.250000e+000
      vertex  0.000000e+000  2.994046e-015 -4.250000e+000
      vertex  0.000000e+000 -2.125000e+000 -3.680608e+000
    endloop
  endfacet
  facet normal  -0.000000e+000  2.588190e-001  9.659258e-001
    outer loop
      vertex  1.180000e+002  2.994046e-015 -4.250000e+000
      vertex  0.000000e+000 -2.125000e+000 -3.680608e+000
      vertex  1.180000e+002 -2.125000e+000 -3.680608e+000
    endloop
  endfacet
  facet normal  0.000000e+000  7.071068e-001  7.071068e-001
    outer loop
      vertex  1.180000e+002 -2.125000e+000 -3.680608e+000
      vertex  0.000000e+000 -2.125000e+000 -3.680608e+000
      vertex  0.000000e+000 -3.680608e+000 -2.125000e+000
    endloop
  endfacet
  facet normal  -0.000000e+000  7.071068e-001  7.071068e-001
    outer loop
      vertex  1.180000e+002 -2.125000e+000 -3.680608e+000
      vertex  0.000000e+000 -3.680608e+000 -2.125000e+000
      vertex  1.180000e+002 -3.680608e+000 -2.125000e+000
    endloop
  endfacet
  facet normal  0.000000e+000  9.659258e-001  2.588190e-001
    outer loop
      vertex  1.180000e+002 -3.680608e+000 -2.125000e+000
      vertex  0.000000e+000 -3.680608e+000 -2.125000e+000
      vertex  0.000000e+000 -4.250000e+000  5.204749e-016
    endloop
  endfacet
  facet normal  -0.000000e+000  9.659258e-001  2.588190e-001
    outer loop
      vertex  1.180000e+002 -3.680608e+000 -2.125000e+000
      vertex  0.000000e+000 -4.250000e+000  5.204749e-016
      vertex  1.180000e+002 -4.250000e+000  5.204749e-016
    endloop
  endfacet
  facet normal  0.000000e+000  9.659258e-001 -2.588191e-001
    outer loop
      vertex  0.000000e+000  5.100000e+000  0.000000e+000
      vertex  1.180000e+002  5.100000e+000  0.000000e+000
      vertex  0.000000e+000  4.416729e+000 -2.550000e+000
    endloop
  endfacet
  facet normal  0.000000e+000  9.659258e-001 -2.588191e-001
    outer loop
      vertex  0.000000e+000  4.416729e+000 -2.550000e+000
      vertex  1.180000e+002  5.100000e+000  0.000000e+000
      vertex  1.180000e+002  4.416729e+000 -2.550000e+000
    endloop
  endfacet
  facet normal  0.000000e+000  7.071068e-001 -7.071068e-001
    outer loop
      vertex  0.000000e+000  4.416729e+000 -2.550000e+000
      vertex  1.180000e+002  4.416729e+000 -2.550000e+000
      vertex  0.000000e+000  2.550000e+000 -4.416729e+000
    endloop
  endfacet
  facet normal  0.000000e+000  7.071068e-001 -7.071068e-001
    outer loop
      vertex  0.000000e+000  2.550000e+000 -4.416729e+000
      vertex  1.180000e+002  4.416729e+000 -2.550000e+000
      vertex  1.180000e+002  2.550000e+000 -4.416729e+000
    endloop
  endfacet
  facet normal  0.000000e+000  2.588191e-001 -9.659258e-001
    outer loop
      vertex  0.000000e+000  2.550000e+000 -4.416729e+000
      vertex  1.180000e+002  2.550000e+000 -4.416729e+000
      vertex  0.000000e+000 -9.368548e-016 -5.100000e+000
    endloop
  endfacet
  facet normal  0.000000e+000  2.588191e-001 -9.659258e-001
    outer loop
      vertex  0.000000e+000 -9.368548e-016 -5.100000e+000
      vertex  1.180000e+002  2.550000e+000 -4.416729e+000
      vertex  1.180000e+002 -9.368548e-016 -5.100000e+000
    endloop
  endfacet
  facet normal  -0.000000e+000 -2.588191e-001 -9.659258e-001
    outer loop
      vertex  0.000000e+000 -9.368548e-016 -5.100000e+000
      vertex  1.180000e+002 -9.368548e-016 -5.100000e+000
      vertex  0.000000e+000 -2.550000e+000 -4.416729e+000
    endloop
  endfacet
  facet normal  0.000000e+000 -2.588191e-001 -9.659258e-001
    outer loop
      vertex  0.000000e+000 -2.550000e+000 -4.416729e+000
      vertex  1.180000e+002 -9.368548e-016 -5.100000e+000
      vertex  1.180000e+002 -2.550000e+000 -4.416729e+000
    endloop
  endfacet
  facet normal  -0.000000e+000 -7.071068e-001 -7.071068e-001
    outer loop
      vertex  0.000000e+000 -2.550000e+000 -4.416729e+000
      vertex  1.180000e+002 -2.550000e+000 -4.416729e+000
      vertex  0.000000e+000 -4.416729e+000 -2.550000e+000
    endloop
  endfacet
  facet normal  0.000000e+000 -7.071068e-001 -7.071068e-001
    outer loop
      vertex  0.000000e+000 -4.416729e+000 -2.550000e+000
      vertex  1.180000e+002 -2.550000e+000 -4.416729e+000
      vertex  1.180000e+002 -4.416729e+000 -2.550000e+000
    endloop
  endfacet
  facet normal  -0.000000e+000 -9.659258e-001 -2.588191e-001
    outer loop
      vertex  0.000000e+000 -4.416729e+000 -2.550000e+000
      vertex  1.180000e+002 -4.416729e+000 -2.550000e+000
      vertex  0.000000e+000 -5.100000e+000  6.245699e-016
    endloop
  endfacet
  facet normal  0.000000e+000 -9.659258e-001 -2.588191e-001
    outer loop
      vertex  0.000000e+000 -5.100000e+000  6.245699e-016
      vertex  1.180000e+002 -4.416729e+000 -2.550000e+000
      vertex  1.180000e+002 -5.100000e+000  6.245699e-016
    endloop
  endfacet
  facet normal  0.000000e+000 -9.659258e-001  2.588191e-001
    outer loop
      vertex  0.000000e+000 -5.100000e+000  6.245699e-016
      vertex  1.180000e+002 -5.100000e+000  6.245699e-016
      vertex  0.000000e+000 -4.416729e+000  2.550000e+000
    endloop
  endfacet
  facet normal  0.000000e+000 -9.659258e-001  2.588191e-001
    outer loop
      vertex  0.000000e+000 -4.416729e+000  2.550000e+000
      vertex  1.180000e+002 -5.100000e+000  6.245699e-016
      vertex  1.180000e+002 -4.416729e+000  2.550000e+000
    endloop
  endfacet
  facet normal  0.000000e+000 -7.071068e-001  7.071068e-001
    outer loop
      vertex  0.000000e+000 -4.416729e+000  2.550000e+000
      vertex  1.180000e+002 -4.416729e+000  2.550000e+000
      vertex  0.000000e+000 -2.550000e+000  4.416729e+000
    endloop
  endfacet
  facet normal  0.000000e+000 -7.071068e-001  7.071068e-001
    outer loop
      vertex  0.000000e+000 -2.550000e+000  4.416729e+000
      vertex  1.180000e+002 -4.416729e+000  2.550000e+000
      vertex  1.180000e+002 -2.550000e+000  4.416729e+000
    endloop
  endfacet
  facet normal  0.000000e+000 -2.588191e-001  9.659258e-001
    outer loop
      vertex  0.000000e+000 -2.550000e+000  4.416729e+000
      vertex  1.180000e+002 -2.550000e+000  4.416729e+000
      vertex  0.000000e+000  3.122849e-016  5.100000e+000
    endloop
  endfacet
  facet normal  0.000000e+000 -2.588191e-001  9.659258e-001
    outer loop
      vertex  0.000000e+000  3.122849e-016  5.100000e+000
      vertex  1.180000e+002 -2.550000e+000  4.416729e+000
      vertex  1.180000e+002  3.122849e-016  5.100000e+000
    endloop
  endfacet
  facet normal  0.000000e+000  2.588191e-001  9.659258e-001
    outer loop
      vertex  0.000000e+000  3.122849e-016  5.100000e+000
      vertex  1.180000e+002  3.122849e-016  5.100000e+000
      vertex  0.000000e+000  2.550000e+000  4.416729e+000
    endloop
  endfacet
  facet normal  -0.000000e+000  2.588191e-001  9.659258e-001
    outer loop
      vertex  0.000000e+000  2.550000e+000  4.416729e+000
      vertex  1.180000e+002  3.122849e-016  5.100000e+000
      vertex  1.180000e+002  2.550000e+000  4.416729e+000
    endloop
  endfacet
  facet normal  0.000000e+000  7.071068e-001  7.071068e-001
    outer loop
      vertex  0.000000e+000  2.550000e+000  4.416729e+000
      vertex  1.180000e+002  2.550000e+000  4.416729e+000
      vertex  0.000000e+000  4.416729e+000  2.550000e+000
    endloop
  endfacet
  facet normal  -0.000000e+000  7.071068e-001  7.071068e-001
    outer loop
      vertex  0.000000e+000  4.416729e+000  2.550000e+000
      vertex  1.180000e+002  2.550000e+000  4.416729e+000
      vertex  1.180000e+002  4.416729e+000  2.550000e+000
    endloop
  endfacet
  facet normal  0.000000e+000  9.659258e-001  2.588191e-001
    outer loop
      vertex  0.000000e+000  4.416729e+000  2.550000e+000
      vertex  1.180000e+002  4.416729e+000  2.550000e+000
      vertex  0.000000e+000  5.100000e+000  0.000000e+000
    endloop
  endfacet
  facet normal  -0.000000e+000  9.659258e-001  2.588191e-001
    outer loop
      vertex  0.000000e+000  5.100000e+000  0.000000e+000
      vertex  1.180000e+002  4.416729e+000  2.550000e+000
      vertex  1.180000e+002  5.100000e+000  0.000000e+000
    endloop
  endfacet
endsolid CATIA STL
