solid CATIA STL
  facet normal  0.000000e+000  7.071068e-001 -7.071068e-001
    outer loop
      vertex -2.000000e+000 -8.485281e-001  0.000000e+000
      vertex -2.000000e+000 -8.909546e+000 -8.061017e+000
      vertex -5.000000e+000 -8.485281e-001  1.776357e-015
    endloop
  endfacet
  facet normal  0.000000e+000  7.071068e-001 -7.071068e-001
    outer loop
      vertex -5.000000e+000 -8.485281e-001  1.776357e-015
      vertex -2.000000e+000 -8.909546e+000 -8.061017e+000
      vertex -5.000000e+000 -8.909546e+000 -8.061017e+000
    endloop
  endfacet
  facet normal  0.000000e+000  7.071068e-001  7.071068e-001
    outer loop
      vertex -5.000000e+000 -8.909546e+000 -8.061017e+000
      vertex -2.000000e+000 -8.909546e+000 -8.061017e+000
      vertex -5.000000e+000 -8.061017e+000 -8.909546e+000
    endloop
  endfacet
  facet normal  -0.000000e+000  7.071068e-001  7.071068e-001
    outer loop
      vertex -5.000000e+000 -8.061017e+000 -8.909546e+000
      vertex -2.000000e+000 -8.909546e+000 -8.061017e+000
      vertex -2.000000e+000 -8.061017e+000 -8.909546e+000
    endloop
  endfacet
  facet normal -9.999999e-001  0.000000e+000  0.000000e+000
    outer loop
      vertex -5.000000e+000  2.664535e-015 -8.485281e-001
      vertex -5.000000e+000  8.061017e+000 -8.909546e+000
      vertex -5.000000e+000 -8.061017e+000 -8.909546e+000
    endloop
  endfacet
  facet normal -1.000000e+000  0.000000e+000  0.000000e+000
    outer loop
      vertex -5.000000e+000 -1.520280e+001 -1.520280e+001
      vertex -5.000000e+000 -1.861955e+001 -1.075000e+001
      vertex -5.000000e+000  1.520280e+001 -1.520280e+001
    endloop
  endfacet
  facet normal -1.000000e+000  0.000000e+000  0.000000e+000
    outer loop
      vertex -5.000000e+000 -8.485281e+000  8.485281e+000
      vertex -5.000000e+000 -1.861955e+001  1.075000e+001
      vertex -5.000000e+000 -1.520280e+001  1.520280e+001
    endloop
  endfacet
  facet normal -9.999999e-001  0.000000e+000  0.000000e+000
    outer loop
      vertex -5.000000e+000  8.485281e+000 -8.485281e+000
      vertex -5.000000e+000  1.520280e+001 -1.520280e+001
      vertex -5.000000e+000  8.061017e+000 -8.909546e+000
    endloop
  endfacet
  facet normal -1.000000e+000  0.000000e+000  -0.000000e+000
    outer loop
      vertex -5.000000e+000  8.061017e+000 -8.909546e+000
      vertex -5.000000e+000  1.520280e+001 -1.520280e+001
      vertex -5.000000e+000 -1.861955e+001 -1.075000e+001
    endloop
  endfacet
  facet normal -1.000000e+000  0.000000e+000  0.000000e+000
    outer loop
      vertex -5.000000e+000  8.061017e+000 -8.909546e+000
      vertex -5.000000e+000 -1.861955e+001 -1.075000e+001
      vertex -5.000000e+000 -8.061017e+000 -8.909546e+000
    endloop
  endfacet
  facet normal -1.000000e+000  -0.000000e+000  0.000000e+000
    outer loop
      vertex -5.000000e+000 -8.061017e+000 -8.909546e+000
      vertex -5.000000e+000 -1.861955e+001 -1.075000e+001
      vertex -5.000000e+000 -2.076740e+001 -5.564610e+000
    endloop
  endfacet
  facet normal -1.000000e+000  0.000000e+000  0.000000e+000
    outer loop
      vertex -5.000000e+000 -8.061017e+000 -8.909546e+000
      vertex -5.000000e+000 -2.076740e+001 -5.564610e+000
      vertex -5.000000e+000 -8.909546e+000 -8.061017e+000
    endloop
  endfacet
  facet normal -1.000000e+000  0.000000e+000  0.000000e+000
    outer loop
      vertex -5.000000e+000 -8.909546e+000 -8.061017e+000
      vertex -5.000000e+000 -2.076740e+001 -5.564610e+000
      vertex -5.000000e+000 -2.150000e+001  2.632991e-015
    endloop
  endfacet
  facet normal -1.000000e+000  0.000000e+000  0.000000e+000
    outer loop
      vertex -5.000000e+000 -8.909546e+000 -8.061017e+000
      vertex -5.000000e+000 -2.150000e+001  2.632991e-015
      vertex -5.000000e+000 -8.485281e-001  1.776357e-015
    endloop
  endfacet
  facet normal -1.000000e+000  0.000000e+000  0.000000e+000
    outer loop
      vertex -5.000000e+000 -8.485281e-001  1.776357e-015
      vertex -5.000000e+000 -2.150000e+001  2.632991e-015
      vertex -5.000000e+000 -2.076740e+001  5.564610e+000
    endloop
  endfacet
  facet normal -9.999999e-001  0.000000e+000  0.000000e+000
    outer loop
      vertex -5.000000e+000 -8.485281e-001  1.776357e-015
      vertex -5.000000e+000 -2.076740e+001  5.564610e+000
      vertex -5.000000e+000 -8.909546e+000  8.061017e+000
    endloop
  endfacet
  facet normal -1.000000e+000  -0.000000e+000  0.000000e+000
    outer loop
      vertex -5.000000e+000 -8.909546e+000  8.061017e+000
      vertex -5.000000e+000 -2.076740e+001  5.564610e+000
      vertex -5.000000e+000 -1.861955e+001  1.075000e+001
    endloop
  endfacet
  facet normal -1.000000e+000  0.000000e+000  0.000000e+000
    outer loop
      vertex -5.000000e+000 -8.909546e+000  8.061017e+000
      vertex -5.000000e+000 -1.861955e+001  1.075000e+001
      vertex -5.000000e+000 -8.485281e+000  8.485281e+000
    endloop
  endfacet
  facet normal -1.000000e+000  0.000000e+000  0.000000e+000
    outer loop
      vertex -5.000000e+000 -3.949486e-015 -2.150000e+001
      vertex -5.000000e+000 -5.564610e+000 -2.076740e+001
      vertex -5.000000e+000  5.564610e+000 -2.076740e+001
    endloop
  endfacet
  facet normal -1.000000e+000  0.000000e+000  0.000000e+000
    outer loop
      vertex -5.000000e+000  5.564610e+000 -2.076740e+001
      vertex -5.000000e+000 -5.564610e+000 -2.076740e+001
      vertex -5.000000e+000 -1.075000e+001 -1.861955e+001
    endloop
  endfacet
  facet normal -1.000000e+000  0.000000e+000  0.000000e+000
    outer loop
      vertex -5.000000e+000  5.564610e+000 -2.076740e+001
      vertex -5.000000e+000 -1.075000e+001 -1.861955e+001
      vertex -5.000000e+000  1.075000e+001 -1.861955e+001
    endloop
  endfacet
  facet normal -1.000000e+000  0.000000e+000  0.000000e+000
    outer loop
      vertex -5.000000e+000  1.075000e+001 -1.861955e+001
      vertex -5.000000e+000 -1.075000e+001 -1.861955e+001
      vertex -5.000000e+000 -1.520280e+001 -1.520280e+001
    endloop
  endfacet
  facet normal -1.000000e+000  0.000000e+000  0.000000e+000
    outer loop
      vertex -5.000000e+000  1.075000e+001 -1.861955e+001
      vertex -5.000000e+000 -1.520280e+001 -1.520280e+001
      vertex -5.000000e+000  1.520280e+001 -1.520280e+001
    endloop
  endfacet
  facet normal  1.000000e+000  0.000000e+000  0.000000e+000
    outer loop
      vertex -2.000000e+000  8.061017e+000 -8.909546e+000
      vertex -2.000000e+000  1.131371e+001 -1.131371e+001
      vertex -2.000000e+000  8.485281e+000 -8.485281e+000
    endloop
  endfacet
  facet normal  1.000000e+000  0.000000e+000  0.000000e+000
    outer loop
      vertex -2.000000e+000 -2.502951e+000 -1.580301e+001
      vertex -2.000000e+000  2.502951e+000 -1.580301e+001
      vertex -2.000000e+000 -7.263848e+000 -1.425610e+001
    endloop
  endfacet
  facet normal  9.999999e-001  -0.000000e+000  0.000000e+000
    outer loop
      vertex -2.000000e+000 -7.263848e+000 -1.425610e+001
      vertex -2.000000e+000  2.502951e+000 -1.580301e+001
      vertex -2.000000e+000  7.263848e+000 -1.425610e+001
    endloop
  endfacet
  facet normal  1.000000e+000  0.000000e+000  0.000000e+000
    outer loop
      vertex -2.000000e+000 -7.263848e+000 -1.425610e+001
      vertex -2.000000e+000  7.263848e+000 -1.425610e+001
      vertex -2.000000e+000 -1.131371e+001 -1.131371e+001
    endloop
  endfacet
  facet normal  1.000000e+000  -0.000000e+000  0.000000e+000
    outer loop
      vertex -2.000000e+000 -1.131371e+001 -1.131371e+001
      vertex -2.000000e+000  7.263848e+000 -1.425610e+001
      vertex -2.000000e+000  1.131371e+001 -1.131371e+001
    endloop
  endfacet
  facet normal  1.000000e+000  0.000000e+000  0.000000e+000
    outer loop
      vertex -2.000000e+000 -1.131371e+001 -1.131371e+001
      vertex -2.000000e+000  1.131371e+001 -1.131371e+001
      vertex -2.000000e+000 -8.061017e+000 -8.909546e+000
    endloop
  endfacet
  facet normal  1.000000e+000  -0.000000e+000  0.000000e+000
    outer loop
      vertex -2.000000e+000 -8.061017e+000 -8.909546e+000
      vertex -2.000000e+000  1.131371e+001 -1.131371e+001
      vertex -2.000000e+000  8.061017e+000 -8.909546e+000
    endloop
  endfacet
  facet normal  9.999999e-001  0.000000e+000  0.000000e+000
    outer loop
      vertex -2.000000e+000 -8.061017e+000 -8.909546e+000
      vertex -2.000000e+000  8.061017e+000 -8.909546e+000
      vertex -2.000000e+000  1.884111e-016 -8.485281e-001
    endloop
  endfacet
  facet normal  1.000000e+000  0.000000e+000  0.000000e+000
    outer loop
      vertex -2.000000e+000 -8.485281e+000  8.485281e+000
      vertex -2.000000e+000 -1.131371e+001  1.131371e+001
      vertex -2.000000e+000 -8.909546e+000  8.061017e+000
    endloop
  endfacet
  facet normal  9.999999e-001  0.000000e+000  0.000000e+000
    outer loop
      vertex -2.000000e+000 -8.909546e+000  8.061017e+000
      vertex -2.000000e+000 -1.131371e+001  1.131371e+001
      vertex -2.000000e+000 -1.425610e+001  7.263848e+000
    endloop
  endfacet
  facet normal  9.999999e-001  -0.000000e+000  0.000000e+000
    outer loop
      vertex -2.000000e+000 -8.909546e+000  8.061017e+000
      vertex -2.000000e+000 -1.425610e+001  7.263848e+000
      vertex -2.000000e+000 -8.485281e-001  0.000000e+000
    endloop
  endfacet
  facet normal  1.000000e+000  0.000000e+000  0.000000e+000
    outer loop
      vertex -2.000000e+000 -8.485281e-001  0.000000e+000
      vertex -2.000000e+000 -1.425610e+001  7.263848e+000
      vertex -2.000000e+000 -1.580301e+001  2.502951e+000
    endloop
  endfacet
  facet normal  1.000000e+000  0.000000e+000  0.000000e+000
    outer loop
      vertex -2.000000e+000 -8.485281e-001  0.000000e+000
      vertex -2.000000e+000 -1.580301e+001  2.502951e+000
      vertex -2.000000e+000 -1.580301e+001 -2.502951e+000
    endloop
  endfacet
  facet normal  9.999999e-001  -0.000000e+000  0.000000e+000
    outer loop
      vertex -2.000000e+000 -8.485281e-001  0.000000e+000
      vertex -2.000000e+000 -1.580301e+001 -2.502951e+000
      vertex -2.000000e+000 -8.909546e+000 -8.061017e+000
    endloop
  endfacet
  facet normal  1.000000e+000  0.000000e+000  0.000000e+000
    outer loop
      vertex -2.000000e+000 -8.909546e+000 -8.061017e+000
      vertex -2.000000e+000 -1.580301e+001 -2.502951e+000
      vertex -2.000000e+000 -1.425610e+001 -7.263848e+000
    endloop
  endfacet
  facet normal  1.000000e+000  0.000000e+000  0.000000e+000
    outer loop
      vertex -2.000000e+000 -8.909546e+000 -8.061017e+000
      vertex -2.000000e+000 -1.425610e+001 -7.263848e+000
      vertex -2.000000e+000 -8.061017e+000 -8.909546e+000
    endloop
  endfacet
  facet normal  9.999999e-001  0.000000e+000  0.000000e+000
    outer loop
      vertex -2.000000e+000 -8.061017e+000 -8.909546e+000
      vertex -2.000000e+000 -1.425610e+001 -7.263848e+000
      vertex -2.000000e+000 -1.131371e+001 -1.131371e+001
    endloop
  endfacet
  facet normal  0.000000e+000  7.071068e-001  7.071068e-001
    outer loop
      vertex -2.000000e+000  8.485281e+000 -8.485281e+000
      vertex -2.000000e+000  1.131371e+001 -1.131371e+001
      vertex -5.000000e+000  8.485281e+000 -8.485281e+000
    endloop
  endfacet
  facet normal  0.000000e+000  7.071068e-001  7.071068e-001
    outer loop
      vertex -5.000000e+000  8.485281e+000 -8.485281e+000
      vertex -2.000000e+000  1.131371e+001 -1.131371e+001
      vertex -5.000000e+000  1.520280e+001 -1.520280e+001
    endloop
  endfacet
  facet normal  0.000000e+000  7.071068e-001  7.071068e-001
    outer loop
      vertex -2.000000e+000  1.131371e+001 -1.131371e+001
      vertex  0.000000e+000  1.131371e+001 -1.131371e+001
      vertex -5.000000e+000  1.520280e+001 -1.520280e+001
    endloop
  endfacet
  facet normal  -0.000000e+000  7.071068e-001  7.071068e-001
    outer loop
      vertex -5.000000e+000  1.520280e+001 -1.520280e+001
      vertex  0.000000e+000  1.131371e+001 -1.131371e+001
      vertex  0.000000e+000  1.520280e+001 -1.520280e+001
    endloop
  endfacet
  facet normal  0.000000e+000 -7.071076e-001  7.071060e-001
    outer loop
      vertex -5.000000e+000  8.485281e+000 -8.485281e+000
      vertex -5.000000e+000  8.061017e+000 -8.909546e+000
      vertex -2.000000e+000  8.485281e+000 -8.485281e+000
    endloop
  endfacet
  facet normal  0.000000e+000 -7.071076e-001  7.071060e-001
    outer loop
      vertex -2.000000e+000  8.485281e+000 -8.485281e+000
      vertex -5.000000e+000  8.061017e+000 -8.909546e+000
      vertex -2.000000e+000  8.061017e+000 -8.909546e+000
    endloop
  endfacet
  facet normal  0.000000e+000  7.071068e-001  7.071068e-001
    outer loop
      vertex -2.000000e+000  1.884111e-016 -8.485281e-001
      vertex -2.000000e+000  8.061017e+000 -8.909546e+000
      vertex -5.000000e+000  2.664535e-015 -8.485281e-001
    endloop
  endfacet
  facet normal  0.000000e+000  7.071068e-001  7.071068e-001
    outer loop
      vertex -5.000000e+000  2.664535e-015 -8.485281e-001
      vertex -2.000000e+000  8.061017e+000 -8.909546e+000
      vertex -5.000000e+000  8.061017e+000 -8.909546e+000
    endloop
  endfacet
  facet normal -5.836281e-016 -7.071068e-001  7.071068e-001
    outer loop
      vertex -2.000000e+000  1.884111e-016 -8.485281e-001
      vertex -5.000000e+000  2.664535e-015 -8.485281e-001
      vertex -2.000000e+000 -8.061017e+000 -8.909546e+000
    endloop
  endfacet
  facet normal  0.000000e+000 -7.071068e-001  7.071068e-001
    outer loop
      vertex -2.000000e+000 -8.061017e+000 -8.909546e+000
      vertex -5.000000e+000  2.664535e-015 -8.485281e-001
      vertex -5.000000e+000 -8.061017e+000 -8.909546e+000
    endloop
  endfacet
  facet normal  0.000000e+000  7.071068e-001  7.071068e-001
    outer loop
      vertex -5.000000e+000 -8.485281e+000  8.485281e+000
      vertex -5.000000e+000 -1.520280e+001  1.520280e+001
      vertex -2.000000e+000 -8.485281e+000  8.485281e+000
    endloop
  endfacet
  facet normal  0.000000e+000  7.071068e-001  7.071068e-001
    outer loop
      vertex -2.000000e+000 -8.485281e+000  8.485281e+000
      vertex -5.000000e+000 -1.520280e+001  1.520280e+001
      vertex -2.000000e+000 -1.131371e+001  1.131371e+001
    endloop
  endfacet
  facet normal  0.000000e+000  7.071068e-001  7.071068e-001
    outer loop
      vertex -5.000000e+000 -1.520280e+001  1.520280e+001
      vertex  0.000000e+000 -1.520280e+001  1.520280e+001
      vertex -2.000000e+000 -1.131371e+001  1.131371e+001
    endloop
  endfacet
  facet normal  -0.000000e+000  7.071068e-001  7.071068e-001
    outer loop
      vertex -2.000000e+000 -1.131371e+001  1.131371e+001
      vertex  0.000000e+000 -1.520280e+001  1.520280e+001
      vertex  0.000000e+000 -1.131371e+001  1.131371e+001
    endloop
  endfacet
  facet normal  0.000000e+000  7.071068e-001  7.071068e-001
    outer loop
      vertex -2.000000e+000 -8.909546e+000  8.061017e+000
      vertex -2.000000e+000 -8.485281e-001  0.000000e+000
      vertex -5.000000e+000 -8.909546e+000  8.061017e+000
    endloop
  endfacet
  facet normal  0.000000e+000  7.071068e-001  7.071068e-001
    outer loop
      vertex -5.000000e+000 -8.909546e+000  8.061017e+000
      vertex -2.000000e+000 -8.485281e-001  0.000000e+000
      vertex -5.000000e+000 -8.485281e-001  1.776357e-015
    endloop
  endfacet
  facet normal  0.000000e+000  7.071060e-001 -7.071076e-001
    outer loop
      vertex -5.000000e+000 -8.485281e+000  8.485281e+000
      vertex -2.000000e+000 -8.485281e+000  8.485281e+000
      vertex -5.000000e+000 -8.909546e+000  8.061017e+000
    endloop
  endfacet
  facet normal  0.000000e+000  7.071060e-001 -7.071076e-001
    outer loop
      vertex -5.000000e+000 -8.909546e+000  8.061017e+000
      vertex -2.000000e+000 -8.485281e+000  8.485281e+000
      vertex -2.000000e+000 -8.909546e+000  8.061017e+000
    endloop
  endfacet
  facet normal  1.000000e+000  0.000000e+000  0.000000e+000
    outer loop
      vertex  0.000000e+000 -1.131371e+001  1.131371e+001
      vertex  0.000000e+000 -1.520280e+001  1.520280e+001
      vertex  0.000000e+000 -1.861955e+001  1.075000e+001
    endloop
  endfacet
  facet normal  1.000000e+000  0.000000e+000  0.000000e+000
    outer loop
      vertex  0.000000e+000  1.520280e+001 -1.520280e+001
      vertex  0.000000e+000  1.131371e+001 -1.131371e+001
      vertex  0.000000e+000  7.263848e+000 -1.425610e+001
    endloop
  endfacet
  facet normal  1.000000e+000  0.000000e+000  0.000000e+000
    outer loop
      vertex  0.000000e+000  1.520280e+001 -1.520280e+001
      vertex  0.000000e+000  7.263848e+000 -1.425610e+001
      vertex  0.000000e+000  2.502951e+000 -1.580301e+001
    endloop
  endfacet
  facet normal  1.000000e+000  -0.000000e+000  0.000000e+000
    outer loop
      vertex  0.000000e+000  1.520280e+001 -1.520280e+001
      vertex  0.000000e+000  2.502951e+000 -1.580301e+001
      vertex  0.000000e+000  1.075000e+001 -1.861955e+001
    endloop
  endfacet
  facet normal  1.000000e+000  -0.000000e+000  0.000000e+000
    outer loop
      vertex  0.000000e+000  2.502951e+000 -1.580301e+001
      vertex  0.000000e+000 -2.502951e+000 -1.580301e+001
      vertex  0.000000e+000  1.075000e+001 -1.861955e+001
    endloop
  endfacet
  facet normal  1.000000e+000  0.000000e+000  0.000000e+000
    outer loop
      vertex  0.000000e+000  1.075000e+001 -1.861955e+001
      vertex  0.000000e+000 -2.502951e+000 -1.580301e+001
      vertex  0.000000e+000 -1.075000e+001 -1.861955e+001
    endloop
  endfacet
  facet normal  1.000000e+000  -0.000000e+000  0.000000e+000
    outer loop
      vertex  0.000000e+000  1.075000e+001 -1.861955e+001
      vertex  0.000000e+000 -1.075000e+001 -1.861955e+001
      vertex  0.000000e+000  5.564610e+000 -2.076740e+001
    endloop
  endfacet
  facet normal  1.000000e+000  0.000000e+000  0.000000e+000
    outer loop
      vertex  0.000000e+000  5.564610e+000 -2.076740e+001
      vertex  0.000000e+000 -1.075000e+001 -1.861955e+001
      vertex  0.000000e+000 -5.564610e+000 -2.076740e+001
    endloop
  endfacet
  facet normal  1.000000e+000  -0.000000e+000  0.000000e+000
    outer loop
      vertex  0.000000e+000  5.564610e+000 -2.076740e+001
      vertex  0.000000e+000 -5.564610e+000 -2.076740e+001
      vertex  0.000000e+000 -3.949486e-015 -2.150000e+001
    endloop
  endfacet
  facet normal  1.000000e+000  -0.000000e+000  0.000000e+000
    outer loop
      vertex  0.000000e+000 -1.131371e+001  1.131371e+001
      vertex  0.000000e+000 -1.861955e+001  1.075000e+001
      vertex  0.000000e+000 -1.425610e+001  7.263848e+000
    endloop
  endfacet
  facet normal  1.000000e+000  0.000000e+000  0.000000e+000
    outer loop
      vertex  0.000000e+000 -1.425610e+001  7.263848e+000
      vertex  0.000000e+000 -1.861955e+001  1.075000e+001
      vertex  0.000000e+000 -2.076740e+001  5.564610e+000
    endloop
  endfacet
  facet normal  9.999999e-001  -0.000000e+000  0.000000e+000
    outer loop
      vertex  0.000000e+000 -1.425610e+001  7.263848e+000
      vertex  0.000000e+000 -2.076740e+001  5.564610e+000
      vertex  0.000000e+000 -1.580301e+001  2.502951e+000
    endloop
  endfacet
  facet normal  1.000000e+000  0.000000e+000  0.000000e+000
    outer loop
      vertex  0.000000e+000 -1.580301e+001  2.502951e+000
      vertex  0.000000e+000 -2.076740e+001  5.564610e+000
      vertex  0.000000e+000 -2.150000e+001  2.632991e-015
    endloop
  endfacet
  facet normal  1.000000e+000  -0.000000e+000  0.000000e+000
    outer loop
      vertex  0.000000e+000 -1.580301e+001  2.502951e+000
      vertex  0.000000e+000 -2.150000e+001  2.632991e-015
      vertex  0.000000e+000 -1.580301e+001 -2.502951e+000
    endloop
  endfacet
  facet normal  1.000000e+000  0.000000e+000  0.000000e+000
    outer loop
      vertex  0.000000e+000 -1.580301e+001 -2.502951e+000
      vertex  0.000000e+000 -2.150000e+001  2.632991e-015
      vertex  0.000000e+000 -1.425610e+001 -7.263848e+000
    endloop
  endfacet
  facet normal  1.000000e+000  0.000000e+000  0.000000e+000
    outer loop
      vertex  0.000000e+000 -1.425610e+001 -7.263848e+000
      vertex  0.000000e+000 -2.150000e+001  2.632991e-015
      vertex  0.000000e+000 -2.076740e+001 -5.564610e+000
    endloop
  endfacet
  facet normal  1.000000e+000  0.000000e+000  0.000000e+000
    outer loop
      vertex  0.000000e+000 -1.425610e+001 -7.263848e+000
      vertex  0.000000e+000 -2.076740e+001 -5.564610e+000
      vertex  0.000000e+000 -1.131371e+001 -1.131371e+001
    endloop
  endfacet
  facet normal  1.000000e+000  0.000000e+000  0.000000e+000
    outer loop
      vertex  0.000000e+000 -1.131371e+001 -1.131371e+001
      vertex  0.000000e+000 -2.076740e+001 -5.564610e+000
      vertex  0.000000e+000 -1.861955e+001 -1.075000e+001
    endloop
  endfacet
  facet normal  1.000000e+000  0.000000e+000  0.000000e+000
    outer loop
      vertex  0.000000e+000 -1.131371e+001 -1.131371e+001
      vertex  0.000000e+000 -1.861955e+001 -1.075000e+001
      vertex  0.000000e+000 -7.263848e+000 -1.425610e+001
    endloop
  endfacet
  facet normal  1.000000e+000  0.000000e+000  0.000000e+000
    outer loop
      vertex  0.000000e+000 -7.263848e+000 -1.425610e+001
      vertex  0.000000e+000 -1.861955e+001 -1.075000e+001
      vertex  0.000000e+000 -1.520280e+001 -1.520280e+001
    endloop
  endfacet
  facet normal  1.000000e+000  -0.000000e+000  0.000000e+000
    outer loop
      vertex  0.000000e+000 -7.263848e+000 -1.425610e+001
      vertex  0.000000e+000 -1.520280e+001 -1.520280e+001
      vertex  0.000000e+000 -2.502951e+000 -1.580301e+001
    endloop
  endfacet
  facet normal  1.000000e+000  0.000000e+000  0.000000e+000
    outer loop
      vertex  0.000000e+000 -2.502951e+000 -1.580301e+001
      vertex  0.000000e+000 -1.520280e+001 -1.520280e+001
      vertex  0.000000e+000 -1.075000e+001 -1.861955e+001
    endloop
  endfacet
  facet normal  0.000000e+000  5.877853e-001  8.090170e-001
    outer loop
      vertex -2.000000e+000 -1.131371e+001 -1.131371e+001
      vertex  0.000000e+000 -7.263848e+000 -1.425610e+001
      vertex -2.000000e+000 -7.263848e+000 -1.425610e+001
    endloop
  endfacet
  facet normal  -0.000000e+000  3.090170e-001  9.510565e-001
    outer loop
      vertex -2.000000e+000 -7.263848e+000 -1.425610e+001
      vertex  0.000000e+000 -7.263848e+000 -1.425610e+001
      vertex  0.000000e+000 -2.502951e+000 -1.580301e+001
    endloop
  endfacet
  facet normal  0.000000e+000  3.090170e-001  9.510565e-001
    outer loop
      vertex -2.000000e+000 -7.263848e+000 -1.425610e+001
      vertex  0.000000e+000 -2.502951e+000 -1.580301e+001
      vertex -2.000000e+000 -2.502951e+000 -1.580301e+001
    endloop
  endfacet
  facet normal  0.000000e+000  0.000000e+000  1.000000e+000
    outer loop
      vertex -2.000000e+000 -2.502951e+000 -1.580301e+001
      vertex  0.000000e+000 -2.502951e+000 -1.580301e+001
      vertex  0.000000e+000  2.502951e+000 -1.580301e+001
    endloop
  endfacet
  facet normal  0.000000e+000  0.000000e+000  1.000000e+000
    outer loop
      vertex -2.000000e+000 -2.502951e+000 -1.580301e+001
      vertex  0.000000e+000  2.502951e+000 -1.580301e+001
      vertex -2.000000e+000  2.502951e+000 -1.580301e+001
    endloop
  endfacet
  facet normal  0.000000e+000 -3.090170e-001  9.510565e-001
    outer loop
      vertex -2.000000e+000  2.502951e+000 -1.580301e+001
      vertex  0.000000e+000  2.502951e+000 -1.580301e+001
      vertex  0.000000e+000  7.263848e+000 -1.425610e+001
    endloop
  endfacet
  facet normal  0.000000e+000 -3.090170e-001  9.510565e-001
    outer loop
      vertex -2.000000e+000  2.502951e+000 -1.580301e+001
      vertex  0.000000e+000  7.263848e+000 -1.425610e+001
      vertex -2.000000e+000  7.263848e+000 -1.425610e+001
    endloop
  endfacet
  facet normal  0.000000e+000 -5.877853e-001  8.090170e-001
    outer loop
      vertex -2.000000e+000  7.263848e+000 -1.425610e+001
      vertex  0.000000e+000  7.263848e+000 -1.425610e+001
      vertex  0.000000e+000  1.131371e+001 -1.131371e+001
    endloop
  endfacet
  facet normal  0.000000e+000 -5.877853e-001  8.090170e-001
    outer loop
      vertex -2.000000e+000  7.263848e+000 -1.425610e+001
      vertex  0.000000e+000  1.131371e+001 -1.131371e+001
      vertex -2.000000e+000  1.131371e+001 -1.131371e+001
    endloop
  endfacet
  facet normal  -0.000000e+000  5.877853e-001  8.090170e-001
    outer loop
      vertex  0.000000e+000 -7.263848e+000 -1.425610e+001
      vertex -2.000000e+000 -1.131371e+001 -1.131371e+001
      vertex  0.000000e+000 -1.131371e+001 -1.131371e+001
    endloop
  endfacet
  facet normal  0.000000e+000  8.090170e-001  5.877853e-001
    outer loop
      vertex  0.000000e+000 -1.131371e+001 -1.131371e+001
      vertex -2.000000e+000 -1.131371e+001 -1.131371e+001
      vertex -2.000000e+000 -1.425610e+001 -7.263848e+000
    endloop
  endfacet
  facet normal  -0.000000e+000  8.090170e-001  5.877853e-001
    outer loop
      vertex  0.000000e+000 -1.131371e+001 -1.131371e+001
      vertex -2.000000e+000 -1.425610e+001 -7.263848e+000
      vertex  0.000000e+000 -1.425610e+001 -7.263848e+000
    endloop
  endfacet
  facet normal  0.000000e+000  9.510565e-001  3.090170e-001
    outer loop
      vertex  0.000000e+000 -1.425610e+001 -7.263848e+000
      vertex -2.000000e+000 -1.425610e+001 -7.263848e+000
      vertex -2.000000e+000 -1.580301e+001 -2.502951e+000
    endloop
  endfacet
  facet normal  -0.000000e+000  9.510565e-001  3.090170e-001
    outer loop
      vertex  0.000000e+000 -1.425610e+001 -7.263848e+000
      vertex -2.000000e+000 -1.580301e+001 -2.502951e+000
      vertex  0.000000e+000 -1.580301e+001 -2.502951e+000
    endloop
  endfacet
  facet normal  0.000000e+000  1.000000e+000  0.000000e+000
    outer loop
      vertex  0.000000e+000 -1.580301e+001 -2.502951e+000
      vertex -2.000000e+000 -1.580301e+001 -2.502951e+000
      vertex -2.000000e+000 -1.580301e+001  2.502951e+000
    endloop
  endfacet
  facet normal  -0.000000e+000  1.000000e+000  0.000000e+000
    outer loop
      vertex  0.000000e+000 -1.580301e+001 -2.502951e+000
      vertex -2.000000e+000 -1.580301e+001  2.502951e+000
      vertex  0.000000e+000 -1.580301e+001  2.502951e+000
    endloop
  endfacet
  facet normal  0.000000e+000  9.510565e-001 -3.090170e-001
    outer loop
      vertex  0.000000e+000 -1.580301e+001  2.502951e+000
      vertex -2.000000e+000 -1.580301e+001  2.502951e+000
      vertex -2.000000e+000 -1.425610e+001  7.263848e+000
    endloop
  endfacet
  facet normal  0.000000e+000  9.510565e-001 -3.090170e-001
    outer loop
      vertex  0.000000e+000 -1.580301e+001  2.502951e+000
      vertex -2.000000e+000 -1.425610e+001  7.263848e+000
      vertex  0.000000e+000 -1.425610e+001  7.263848e+000
    endloop
  endfacet
  facet normal  0.000000e+000  8.090170e-001 -5.877853e-001
    outer loop
      vertex  0.000000e+000 -1.425610e+001  7.263848e+000
      vertex -2.000000e+000 -1.425610e+001  7.263848e+000
      vertex -2.000000e+000 -1.131371e+001  1.131371e+001
    endloop
  endfacet
  facet normal  0.000000e+000  8.090170e-001 -5.877853e-001
    outer loop
      vertex  0.000000e+000 -1.425610e+001  7.263848e+000
      vertex -2.000000e+000 -1.131371e+001  1.131371e+001
      vertex  0.000000e+000 -1.131371e+001  1.131371e+001
    endloop
  endfacet
  facet normal  0.000000e+000  6.087614e-001 -7.933533e-001
    outer loop
      vertex -5.000000e+000  1.520280e+001 -1.520280e+001
      vertex  0.000000e+000  1.520280e+001 -1.520280e+001
      vertex -5.000000e+000  1.075000e+001 -1.861955e+001
    endloop
  endfacet
  facet normal  0.000000e+000  6.087614e-001 -7.933533e-001
    outer loop
      vertex -5.000000e+000  1.075000e+001 -1.861955e+001
      vertex  0.000000e+000  1.520280e+001 -1.520280e+001
      vertex  0.000000e+000  1.075000e+001 -1.861955e+001
    endloop
  endfacet
  facet normal  0.000000e+000  3.826832e-001 -9.238796e-001
    outer loop
      vertex -5.000000e+000  1.075000e+001 -1.861955e+001
      vertex  0.000000e+000  1.075000e+001 -1.861955e+001
      vertex -5.000000e+000  5.564610e+000 -2.076740e+001
    endloop
  endfacet
  facet normal  0.000000e+000  3.826832e-001 -9.238796e-001
    outer loop
      vertex -5.000000e+000  5.564610e+000 -2.076740e+001
      vertex  0.000000e+000  1.075000e+001 -1.861955e+001
      vertex  0.000000e+000  5.564610e+000 -2.076740e+001
    endloop
  endfacet
  facet normal  0.000000e+000  1.305263e-001 -9.914448e-001
    outer loop
      vertex -5.000000e+000  5.564610e+000 -2.076740e+001
      vertex  0.000000e+000  5.564610e+000 -2.076740e+001
      vertex -5.000000e+000 -3.949486e-015 -2.150000e+001
    endloop
  endfacet
  facet normal  0.000000e+000  1.305263e-001 -9.914448e-001
    outer loop
      vertex -5.000000e+000 -3.949486e-015 -2.150000e+001
      vertex  0.000000e+000  5.564610e+000 -2.076740e+001
      vertex  0.000000e+000 -3.949486e-015 -2.150000e+001
    endloop
  endfacet
  facet normal  -0.000000e+000 -1.305263e-001 -9.914448e-001
    outer loop
      vertex -5.000000e+000 -3.949486e-015 -2.150000e+001
      vertex  0.000000e+000 -3.949486e-015 -2.150000e+001
      vertex -5.000000e+000 -5.564610e+000 -2.076740e+001
    endloop
  endfacet
  facet normal  0.000000e+000 -1.305263e-001 -9.914448e-001
    outer loop
      vertex -5.000000e+000 -5.564610e+000 -2.076740e+001
      vertex  0.000000e+000 -3.949486e-015 -2.150000e+001
      vertex  0.000000e+000 -5.564610e+000 -2.076740e+001
    endloop
  endfacet
  facet normal  -0.000000e+000 -3.826832e-001 -9.238796e-001
    outer loop
      vertex -5.000000e+000 -5.564610e+000 -2.076740e+001
      vertex  0.000000e+000 -5.564610e+000 -2.076740e+001
      vertex -5.000000e+000 -1.075000e+001 -1.861955e+001
    endloop
  endfacet
  facet normal  0.000000e+000 -3.826832e-001 -9.238796e-001
    outer loop
      vertex -5.000000e+000 -1.075000e+001 -1.861955e+001
      vertex  0.000000e+000 -5.564610e+000 -2.076740e+001
      vertex  0.000000e+000 -1.075000e+001 -1.861955e+001
    endloop
  endfacet
  facet normal  -0.000000e+000 -6.087614e-001 -7.933533e-001
    outer loop
      vertex -5.000000e+000 -1.075000e+001 -1.861955e+001
      vertex  0.000000e+000 -1.075000e+001 -1.861955e+001
      vertex -5.000000e+000 -1.520280e+001 -1.520280e+001
    endloop
  endfacet
  facet normal  0.000000e+000 -6.087614e-001 -7.933533e-001
    outer loop
      vertex -5.000000e+000 -1.520280e+001 -1.520280e+001
      vertex  0.000000e+000 -1.075000e+001 -1.861955e+001
      vertex  0.000000e+000 -1.520280e+001 -1.520280e+001
    endloop
  endfacet
  facet normal  -0.000000e+000 -7.933533e-001 -6.087614e-001
    outer loop
      vertex -5.000000e+000 -1.520280e+001 -1.520280e+001
      vertex  0.000000e+000 -1.520280e+001 -1.520280e+001
      vertex -5.000000e+000 -1.861955e+001 -1.075000e+001
    endloop
  endfacet
  facet normal  0.000000e+000 -7.933533e-001 -6.087614e-001
    outer loop
      vertex -5.000000e+000 -1.861955e+001 -1.075000e+001
      vertex  0.000000e+000 -1.520280e+001 -1.520280e+001
      vertex  0.000000e+000 -1.861955e+001 -1.075000e+001
    endloop
  endfacet
  facet normal  -0.000000e+000 -9.238796e-001 -3.826832e-001
    outer loop
      vertex -5.000000e+000 -1.861955e+001 -1.075000e+001
      vertex  0.000000e+000 -1.861955e+001 -1.075000e+001
      vertex -5.000000e+000 -2.076740e+001 -5.564610e+000
    endloop
  endfacet
  facet normal  0.000000e+000 -9.238796e-001 -3.826832e-001
    outer loop
      vertex -5.000000e+000 -2.076740e+001 -5.564610e+000
      vertex  0.000000e+000 -1.861955e+001 -1.075000e+001
      vertex  0.000000e+000 -2.076740e+001 -5.564610e+000
    endloop
  endfacet
  facet normal  -0.000000e+000 -9.914448e-001 -1.305263e-001
    outer loop
      vertex -5.000000e+000 -2.076740e+001 -5.564610e+000
      vertex  0.000000e+000 -2.076740e+001 -5.564610e+000
      vertex -5.000000e+000 -2.150000e+001  2.632991e-015
    endloop
  endfacet
  facet normal  0.000000e+000 -9.914448e-001 -1.305263e-001
    outer loop
      vertex -5.000000e+000 -2.150000e+001  2.632991e-015
      vertex  0.000000e+000 -2.076740e+001 -5.564610e+000
      vertex  0.000000e+000 -2.150000e+001  2.632991e-015
    endloop
  endfacet
  facet normal  0.000000e+000 -9.914448e-001  1.305263e-001
    outer loop
      vertex -5.000000e+000 -2.150000e+001  2.632991e-015
      vertex  0.000000e+000 -2.150000e+001  2.632991e-015
      vertex -5.000000e+000 -2.076740e+001  5.564610e+000
    endloop
  endfacet
  facet normal  0.000000e+000 -9.914448e-001  1.305263e-001
    outer loop
      vertex -5.000000e+000 -2.076740e+001  5.564610e+000
      vertex  0.000000e+000 -2.150000e+001  2.632991e-015
      vertex  0.000000e+000 -2.076740e+001  5.564610e+000
    endloop
  endfacet
  facet normal  0.000000e+000 -9.238796e-001  3.826832e-001
    outer loop
      vertex -5.000000e+000 -2.076740e+001  5.564610e+000
      vertex  0.000000e+000 -2.076740e+001  5.564610e+000
      vertex -5.000000e+000 -1.861955e+001  1.075000e+001
    endloop
  endfacet
  facet normal  0.000000e+000 -9.238796e-001  3.826832e-001
    outer loop
      vertex -5.000000e+000 -1.861955e+001  1.075000e+001
      vertex  0.000000e+000 -2.076740e+001  5.564610e+000
      vertex  0.000000e+000 -1.861955e+001  1.075000e+001
    endloop
  endfacet
  facet normal  0.000000e+000 -7.933533e-001  6.087614e-001
    outer loop
      vertex -5.000000e+000 -1.861955e+001  1.075000e+001
      vertex  0.000000e+000 -1.861955e+001  1.075000e+001
      vertex -5.000000e+000 -1.520280e+001  1.520280e+001
    endloop
  endfacet
  facet normal  0.000000e+000 -7.933533e-001  6.087614e-001
    outer loop
      vertex -5.000000e+000 -1.520280e+001  1.520280e+001
      vertex  0.000000e+000 -1.861955e+001  1.075000e+001
      vertex  0.000000e+000 -1.520280e+001  1.520280e+001
    endloop
  endfacet
endsolid CATIA STL
