solid CATIA STL
  facet normal  1.000000e+000  0.000000e+000  0.000000e+000
    outer loop
      vertex  2.000000e+000  6.717515e+000  6.717515e+000
      vertex  2.000000e+000  3.635493e+000  8.776855e+000
      vertex  2.000000e+000  3.490243e-016  5.700000e+000
    endloop
  endfacet
  facet normal  1.000000e+000  0.000000e+000  0.000000e+000
    outer loop
      vertex  2.000000e+000  3.490243e-016  5.700000e+000
      vertex  2.000000e+000  3.635493e+000  8.776855e+000
      vertex  2.000000e+000  5.817072e-016  9.500000e+000
    endloop
  endfacet
  facet normal  1.000000e+000  0.000000e+000  0.000000e+000
    outer loop
      vertex  2.000000e+000  3.490243e-016  5.700000e+000
      vertex  2.000000e+000  5.817072e-016  9.500000e+000
      vertex  2.000000e+000 -6.717515e+000  6.717515e+000
    endloop
  endfacet
  facet normal  1.000000e+000  0.000000e+000  0.000000e+000
    outer loop
      vertex  2.000000e+000 -6.717515e+000  6.717515e+000
      vertex  2.000000e+000  5.817072e-016  9.500000e+000
      vertex  2.000000e+000 -3.635493e+000  8.776855e+000
    endloop
  endfacet
  facet normal  1.000000e+000  0.000000e+000  0.000000e+000
    outer loop
      vertex  2.000000e+000  3.490243e-016  5.700000e+000
      vertex  2.000000e+000 -6.717515e+000  6.717515e+000
      vertex  2.000000e+000 -2.850000e+000  4.936345e+000
    endloop
  endfacet
  facet normal  1.000000e+000  0.000000e+000  0.000000e+000
    outer loop
      vertex  2.000000e+000 -2.850000e+000  4.936345e+000
      vertex  2.000000e+000 -6.717515e+000  6.717515e+000
      vertex  2.000000e+000 -8.776855e+000  3.635493e+000
    endloop
  endfacet
  facet normal  1.000000e+000  -0.000000e+000  0.000000e+000
    outer loop
      vertex  2.000000e+000 -2.850000e+000  4.936345e+000
      vertex  2.000000e+000 -8.776855e+000  3.635493e+000
      vertex  2.000000e+000 -4.936345e+000  2.850000e+000
    endloop
  endfacet
  facet normal  1.000000e+000  0.000000e+000  0.000000e+000
    outer loop
      vertex  2.000000e+000 -4.936345e+000  2.850000e+000
      vertex  2.000000e+000 -8.776855e+000  3.635493e+000
      vertex  2.000000e+000 -5.700000e+000  6.980487e-016
    endloop
  endfacet
  facet normal  1.000000e+000  0.000000e+000  0.000000e+000
    outer loop
      vertex  2.000000e+000 -5.700000e+000  6.980487e-016
      vertex  2.000000e+000 -8.776855e+000  3.635493e+000
      vertex  2.000000e+000 -9.500000e+000  1.163414e-015
    endloop
  endfacet
  facet normal  1.000000e+000  0.000000e+000  0.000000e+000
    outer loop
      vertex  2.000000e+000 -5.700000e+000  6.980487e-016
      vertex  2.000000e+000 -9.500000e+000  1.163414e-015
      vertex  2.000000e+000 -4.936345e+000 -2.850000e+000
    endloop
  endfacet
  facet normal  1.000000e+000  0.000000e+000  0.000000e+000
    outer loop
      vertex  2.000000e+000 -4.936345e+000 -2.850000e+000
      vertex  2.000000e+000 -9.500000e+000  1.163414e-015
      vertex  2.000000e+000 -8.776855e+000 -3.635493e+000
    endloop
  endfacet
  facet normal  1.000000e+000  -0.000000e+000  0.000000e+000
    outer loop
      vertex  2.000000e+000 -4.936345e+000 -2.850000e+000
      vertex  2.000000e+000 -8.776855e+000 -3.635493e+000
      vertex  2.000000e+000 -2.850000e+000 -4.936345e+000
    endloop
  endfacet
  facet normal  1.000000e+000  0.000000e+000  0.000000e+000
    outer loop
      vertex  2.000000e+000 -2.850000e+000 -4.936345e+000
      vertex  2.000000e+000 -8.776855e+000 -3.635493e+000
      vertex  2.000000e+000 -6.717515e+000 -6.717515e+000
    endloop
  endfacet
  facet normal  1.000000e+000  0.000000e+000  0.000000e+000
    outer loop
      vertex  2.000000e+000 -2.850000e+000 -4.936345e+000
      vertex  2.000000e+000 -6.717515e+000 -6.717515e+000
      vertex  2.000000e+000 -1.047073e-015 -5.700000e+000
    endloop
  endfacet
  facet normal  1.000000e+000  0.000000e+000  0.000000e+000
    outer loop
      vertex  2.000000e+000  3.635493e+000 -8.776855e+000
      vertex  2.000000e+000  6.717515e+000 -6.717515e+000
      vertex  2.000000e+000 -1.018282e-014 -9.500000e+000
    endloop
  endfacet
  facet normal  1.000000e+000  0.000000e+000  0.000000e+000
    outer loop
      vertex  2.000000e+000 -1.018282e-014 -9.500000e+000
      vertex  2.000000e+000  6.717515e+000 -6.717515e+000
      vertex  2.000000e+000 -1.047073e-015 -5.700000e+000
    endloop
  endfacet
  facet normal  1.000000e+000  0.000000e+000  0.000000e+000
    outer loop
      vertex  2.000000e+000 -1.018282e-014 -9.500000e+000
      vertex  2.000000e+000 -1.047073e-015 -5.700000e+000
      vertex  2.000000e+000 -3.635493e+000 -8.776855e+000
    endloop
  endfacet
  facet normal  1.000000e+000  0.000000e+000  -0.000000e+000
    outer loop
      vertex  2.000000e+000 -3.635493e+000 -8.776855e+000
      vertex  2.000000e+000 -1.047073e-015 -5.700000e+000
      vertex  2.000000e+000 -6.717515e+000 -6.717515e+000
    endloop
  endfacet
  facet normal  1.000000e+000  -0.000000e+000  0.000000e+000
    outer loop
      vertex  2.000000e+000  6.717515e+000  6.717515e+000
      vertex  2.000000e+000  3.490243e-016  5.700000e+000
      vertex  2.000000e+000  8.776855e+000  3.635493e+000
    endloop
  endfacet
  facet normal  1.000000e+000  0.000000e+000  0.000000e+000
    outer loop
      vertex  2.000000e+000  8.776855e+000  3.635493e+000
      vertex  2.000000e+000  3.490243e-016  5.700000e+000
      vertex  2.000000e+000  2.850000e+000  4.936345e+000
    endloop
  endfacet
  facet normal  1.000000e+000  0.000000e+000  0.000000e+000
    outer loop
      vertex  2.000000e+000  8.776855e+000  3.635493e+000
      vertex  2.000000e+000  2.850000e+000  4.936345e+000
      vertex  2.000000e+000  4.936345e+000  2.850000e+000
    endloop
  endfacet
  facet normal  1.000000e+000  -0.000000e+000  0.000000e+000
    outer loop
      vertex  2.000000e+000  8.776855e+000  3.635493e+000
      vertex  2.000000e+000  4.936345e+000  2.850000e+000
      vertex  2.000000e+000  9.500000e+000  0.000000e+000
    endloop
  endfacet
  facet normal  1.000000e+000  0.000000e+000  0.000000e+000
    outer loop
      vertex  2.000000e+000  9.500000e+000  0.000000e+000
      vertex  2.000000e+000  4.936345e+000  2.850000e+000
      vertex  2.000000e+000  5.700000e+000  0.000000e+000
    endloop
  endfacet
  facet normal  1.000000e+000  -0.000000e+000  0.000000e+000
    outer loop
      vertex  2.000000e+000  9.500000e+000  0.000000e+000
      vertex  2.000000e+000  5.700000e+000  0.000000e+000
      vertex  2.000000e+000  8.776855e+000 -3.635493e+000
    endloop
  endfacet
  facet normal  1.000000e+000  0.000000e+000  0.000000e+000
    outer loop
      vertex  2.000000e+000  8.776855e+000 -3.635493e+000
      vertex  2.000000e+000  5.700000e+000  0.000000e+000
      vertex  2.000000e+000  4.936345e+000 -2.850000e+000
    endloop
  endfacet
  facet normal  1.000000e+000  0.000000e+000  0.000000e+000
    outer loop
      vertex  2.000000e+000  8.776855e+000 -3.635493e+000
      vertex  2.000000e+000  4.936345e+000 -2.850000e+000
      vertex  2.000000e+000  6.717515e+000 -6.717515e+000
    endloop
  endfacet
  facet normal  1.000000e+000  0.000000e+000  0.000000e+000
    outer loop
      vertex  2.000000e+000  6.717515e+000 -6.717515e+000
      vertex  2.000000e+000  4.936345e+000 -2.850000e+000
      vertex  2.000000e+000  2.850000e+000 -4.936345e+000
    endloop
  endfacet
  facet normal  1.000000e+000  0.000000e+000  0.000000e+000
    outer loop
      vertex  2.000000e+000  6.717515e+000 -6.717515e+000
      vertex  2.000000e+000  2.850000e+000 -4.936345e+000
      vertex  2.000000e+000 -1.047073e-015 -5.700000e+000
    endloop
  endfacet
  facet normal -1.000000e+000  0.000000e+000  0.000000e+000
    outer loop
      vertex  0.000000e+000  6.717515e+000  6.717515e+000
      vertex  0.000000e+000  3.490243e-016  5.700000e+000
      vertex  0.000000e+000  3.635493e+000  8.776855e+000
    endloop
  endfacet
  facet normal -9.999999e-001  -0.000000e+000  0.000000e+000
    outer loop
      vertex  0.000000e+000  3.635493e+000  8.776855e+000
      vertex  0.000000e+000  3.490243e-016  5.700000e+000
      vertex  0.000000e+000  5.817072e-016  9.500000e+000
    endloop
  endfacet
  facet normal -9.999999e-001  0.000000e+000  0.000000e+000
    outer loop
      vertex  0.000000e+000  3.490243e-016  5.700000e+000
      vertex  0.000000e+000 -6.717515e+000  6.717515e+000
      vertex  0.000000e+000  5.817072e-016  9.500000e+000
    endloop
  endfacet
  facet normal -1.000000e+000  0.000000e+000  0.000000e+000
    outer loop
      vertex  0.000000e+000  5.817072e-016  9.500000e+000
      vertex  0.000000e+000 -6.717515e+000  6.717515e+000
      vertex  0.000000e+000 -3.635493e+000  8.776855e+000
    endloop
  endfacet
  facet normal -1.000000e+000  0.000000e+000  0.000000e+000
    outer loop
      vertex  0.000000e+000 -4.936345e+000  2.850000e+000
      vertex  0.000000e+000 -8.776855e+000  3.635493e+000
      vertex  0.000000e+000 -2.850000e+000  4.936345e+000
    endloop
  endfacet
  facet normal -1.000000e+000  -0.000000e+000  0.000000e+000
    outer loop
      vertex  0.000000e+000 -2.850000e+000  4.936345e+000
      vertex  0.000000e+000 -8.776855e+000  3.635493e+000
      vertex  0.000000e+000 -6.717515e+000  6.717515e+000
    endloop
  endfacet
  facet normal -1.000000e+000  0.000000e+000  0.000000e+000
    outer loop
      vertex  0.000000e+000 -2.850000e+000  4.936345e+000
      vertex  0.000000e+000 -6.717515e+000  6.717515e+000
      vertex  0.000000e+000  3.490243e-016  5.700000e+000
    endloop
  endfacet
  facet normal -1.000000e+000  0.000000e+000  0.000000e+000
    outer loop
      vertex  0.000000e+000 -1.047073e-015 -5.700000e+000
      vertex  0.000000e+000 -6.717515e+000 -6.717515e+000
      vertex  0.000000e+000 -2.850000e+000 -4.936345e+000
    endloop
  endfacet
  facet normal -1.000000e+000  -0.000000e+000  0.000000e+000
    outer loop
      vertex  0.000000e+000 -2.850000e+000 -4.936345e+000
      vertex  0.000000e+000 -6.717515e+000 -6.717515e+000
      vertex  0.000000e+000 -8.776855e+000 -3.635493e+000
    endloop
  endfacet
  facet normal -1.000000e+000  0.000000e+000  0.000000e+000
    outer loop
      vertex  0.000000e+000 -2.850000e+000 -4.936345e+000
      vertex  0.000000e+000 -8.776855e+000 -3.635493e+000
      vertex  0.000000e+000 -4.936345e+000 -2.850000e+000
    endloop
  endfacet
  facet normal -1.000000e+000  -0.000000e+000  0.000000e+000
    outer loop
      vertex  0.000000e+000 -4.936345e+000 -2.850000e+000
      vertex  0.000000e+000 -8.776855e+000 -3.635493e+000
      vertex  0.000000e+000 -9.500000e+000  1.163414e-015
    endloop
  endfacet
  facet normal -1.000000e+000  0.000000e+000  0.000000e+000
    outer loop
      vertex  0.000000e+000 -4.936345e+000 -2.850000e+000
      vertex  0.000000e+000 -9.500000e+000  1.163414e-015
      vertex  0.000000e+000 -5.700000e+000  6.980487e-016
    endloop
  endfacet
  facet normal -1.000000e+000  0.000000e+000  0.000000e+000
    outer loop
      vertex  0.000000e+000 -5.700000e+000  6.980487e-016
      vertex  0.000000e+000 -9.500000e+000  1.163414e-015
      vertex  0.000000e+000 -8.776855e+000  3.635493e+000
    endloop
  endfacet
  facet normal -1.000000e+000  0.000000e+000  0.000000e+000
    outer loop
      vertex  0.000000e+000 -5.700000e+000  6.980487e-016
      vertex  0.000000e+000 -8.776855e+000  3.635493e+000
      vertex  0.000000e+000 -4.936345e+000  2.850000e+000
    endloop
  endfacet
  facet normal -1.000000e+000  0.000000e+000  0.000000e+000
    outer loop
      vertex  0.000000e+000  3.635493e+000 -8.776855e+000
      vertex  0.000000e+000 -1.018282e-014 -9.500000e+000
      vertex  0.000000e+000  6.717515e+000 -6.717515e+000
    endloop
  endfacet
  facet normal -9.999999e-001  -0.000000e+000  0.000000e+000
    outer loop
      vertex  0.000000e+000  6.717515e+000 -6.717515e+000
      vertex  0.000000e+000 -1.018282e-014 -9.500000e+000
      vertex  0.000000e+000 -1.047073e-015 -5.700000e+000
    endloop
  endfacet
  facet normal -9.999999e-001  0.000000e+000  0.000000e+000
    outer loop
      vertex  0.000000e+000 -1.018282e-014 -9.500000e+000
      vertex  0.000000e+000 -3.635493e+000 -8.776855e+000
      vertex  0.000000e+000 -1.047073e-015 -5.700000e+000
    endloop
  endfacet
  facet normal -1.000000e+000  0.000000e+000  0.000000e+000
    outer loop
      vertex  0.000000e+000 -1.047073e-015 -5.700000e+000
      vertex  0.000000e+000 -3.635493e+000 -8.776855e+000
      vertex  0.000000e+000 -6.717515e+000 -6.717515e+000
    endloop
  endfacet
  facet normal -1.000000e+000  0.000000e+000  0.000000e+000
    outer loop
      vertex  0.000000e+000  4.936345e+000  2.850000e+000
      vertex  0.000000e+000  2.850000e+000  4.936345e+000
      vertex  0.000000e+000  8.776855e+000  3.635493e+000
    endloop
  endfacet
  facet normal -1.000000e+000  0.000000e+000  0.000000e+000
    outer loop
      vertex  0.000000e+000  8.776855e+000  3.635493e+000
      vertex  0.000000e+000  2.850000e+000  4.936345e+000
      vertex  0.000000e+000  3.490243e-016  5.700000e+000
    endloop
  endfacet
  facet normal -1.000000e+000  0.000000e+000  0.000000e+000
    outer loop
      vertex  0.000000e+000  8.776855e+000  3.635493e+000
      vertex  0.000000e+000  3.490243e-016  5.700000e+000
      vertex  0.000000e+000  6.717515e+000  6.717515e+000
    endloop
  endfacet
  facet normal -1.000000e+000  0.000000e+000  -0.000000e+000
    outer loop
      vertex  0.000000e+000 -1.047073e-015 -5.700000e+000
      vertex  0.000000e+000  2.850000e+000 -4.936345e+000
      vertex  0.000000e+000  6.717515e+000 -6.717515e+000
    endloop
  endfacet
  facet normal -1.000000e+000  0.000000e+000  0.000000e+000
    outer loop
      vertex  0.000000e+000  6.717515e+000 -6.717515e+000
      vertex  0.000000e+000  2.850000e+000 -4.936345e+000
      vertex  0.000000e+000  4.936345e+000 -2.850000e+000
    endloop
  endfacet
  facet normal -1.000000e+000  0.000000e+000  0.000000e+000
    outer loop
      vertex  0.000000e+000  6.717515e+000 -6.717515e+000
      vertex  0.000000e+000  4.936345e+000 -2.850000e+000
      vertex  0.000000e+000  8.776855e+000 -3.635493e+000
    endloop
  endfacet
  facet normal -1.000000e+000  0.000000e+000  0.000000e+000
    outer loop
      vertex  0.000000e+000  8.776855e+000 -3.635493e+000
      vertex  0.000000e+000  4.936345e+000 -2.850000e+000
      vertex  0.000000e+000  5.700000e+000  0.000000e+000
    endloop
  endfacet
  facet normal -1.000000e+000  0.000000e+000  0.000000e+000
    outer loop
      vertex  0.000000e+000  8.776855e+000 -3.635493e+000
      vertex  0.000000e+000  5.700000e+000  0.000000e+000
      vertex  0.000000e+000  9.500000e+000  0.000000e+000
    endloop
  endfacet
  facet normal -1.000000e+000  0.000000e+000  0.000000e+000
    outer loop
      vertex  0.000000e+000  9.500000e+000  0.000000e+000
      vertex  0.000000e+000  5.700000e+000  0.000000e+000
      vertex  0.000000e+000  4.936345e+000  2.850000e+000
    endloop
  endfacet
  facet normal -1.000000e+000  0.000000e+000  0.000000e+000
    outer loop
      vertex  0.000000e+000  9.500000e+000  0.000000e+000
      vertex  0.000000e+000  4.936345e+000  2.850000e+000
      vertex  0.000000e+000  8.776855e+000  3.635493e+000
    endloop
  endfacet
  facet normal  0.000000e+000  2.588191e-001 -9.659259e-001
    outer loop
      vertex  0.000000e+000  3.490243e-016  5.700000e+000
      vertex  2.000000e+000 -2.850000e+000  4.936345e+000
      vertex  0.000000e+000 -2.850000e+000  4.936345e+000
    endloop
  endfacet
  facet normal  0.000000e+000  7.071068e-001 -7.071068e-001
    outer loop
      vertex  0.000000e+000 -2.850000e+000  4.936345e+000
      vertex  2.000000e+000 -2.850000e+000  4.936345e+000
      vertex  2.000000e+000 -4.936345e+000  2.850000e+000
    endloop
  endfacet
  facet normal  0.000000e+000  7.071068e-001 -7.071068e-001
    outer loop
      vertex  0.000000e+000 -2.850000e+000  4.936345e+000
      vertex  2.000000e+000 -4.936345e+000  2.850000e+000
      vertex  0.000000e+000 -4.936345e+000  2.850000e+000
    endloop
  endfacet
  facet normal  0.000000e+000  9.659259e-001 -2.588191e-001
    outer loop
      vertex  0.000000e+000 -4.936345e+000  2.850000e+000
      vertex  2.000000e+000 -4.936345e+000  2.850000e+000
      vertex  2.000000e+000 -5.700000e+000  6.980487e-016
    endloop
  endfacet
  facet normal  0.000000e+000  9.659259e-001 -2.588191e-001
    outer loop
      vertex  0.000000e+000 -4.936345e+000  2.850000e+000
      vertex  2.000000e+000 -5.700000e+000  6.980487e-016
      vertex  0.000000e+000 -5.700000e+000  6.980487e-016
    endloop
  endfacet
  facet normal  0.000000e+000  2.588191e-001 -9.659259e-001
    outer loop
      vertex  2.000000e+000 -2.850000e+000  4.936345e+000
      vertex  0.000000e+000  3.490243e-016  5.700000e+000
      vertex  2.000000e+000  3.490243e-016  5.700000e+000
    endloop
  endfacet
  facet normal  -0.000000e+000 -2.588191e-001 -9.659259e-001
    outer loop
      vertex  2.000000e+000  3.490243e-016  5.700000e+000
      vertex  0.000000e+000  3.490243e-016  5.700000e+000
      vertex  0.000000e+000  2.850000e+000  4.936345e+000
    endloop
  endfacet
  facet normal  0.000000e+000 -2.588191e-001 -9.659259e-001
    outer loop
      vertex  2.000000e+000  3.490243e-016  5.700000e+000
      vertex  0.000000e+000  2.850000e+000  4.936345e+000
      vertex  2.000000e+000  2.850000e+000  4.936345e+000
    endloop
  endfacet
  facet normal  -0.000000e+000 -7.071068e-001 -7.071068e-001
    outer loop
      vertex  2.000000e+000  2.850000e+000  4.936345e+000
      vertex  0.000000e+000  2.850000e+000  4.936345e+000
      vertex  0.000000e+000  4.936345e+000  2.850000e+000
    endloop
  endfacet
  facet normal  0.000000e+000 -7.071068e-001 -7.071068e-001
    outer loop
      vertex  2.000000e+000  2.850000e+000  4.936345e+000
      vertex  0.000000e+000  4.936345e+000  2.850000e+000
      vertex  2.000000e+000  4.936345e+000  2.850000e+000
    endloop
  endfacet
  facet normal  -0.000000e+000 -9.659259e-001 -2.588191e-001
    outer loop
      vertex  2.000000e+000  4.936345e+000  2.850000e+000
      vertex  0.000000e+000  4.936345e+000  2.850000e+000
      vertex  0.000000e+000  5.700000e+000  0.000000e+000
    endloop
  endfacet
  facet normal  0.000000e+000 -9.659259e-001 -2.588191e-001
    outer loop
      vertex  2.000000e+000  4.936345e+000  2.850000e+000
      vertex  0.000000e+000  5.700000e+000  0.000000e+000
      vertex  2.000000e+000  5.700000e+000  0.000000e+000
    endloop
  endfacet
  facet normal  0.000000e+000 -2.588191e-001  9.659259e-001
    outer loop
      vertex  0.000000e+000 -1.047073e-015 -5.700000e+000
      vertex  2.000000e+000  2.850000e+000 -4.936345e+000
      vertex  0.000000e+000  2.850000e+000 -4.936345e+000
    endloop
  endfacet
  facet normal  0.000000e+000 -7.071068e-001  7.071068e-001
    outer loop
      vertex  0.000000e+000  2.850000e+000 -4.936345e+000
      vertex  2.000000e+000  2.850000e+000 -4.936345e+000
      vertex  2.000000e+000  4.936345e+000 -2.850000e+000
    endloop
  endfacet
  facet normal  0.000000e+000 -7.071068e-001  7.071068e-001
    outer loop
      vertex  0.000000e+000  2.850000e+000 -4.936345e+000
      vertex  2.000000e+000  4.936345e+000 -2.850000e+000
      vertex  0.000000e+000  4.936345e+000 -2.850000e+000
    endloop
  endfacet
  facet normal  0.000000e+000 -9.659259e-001  2.588191e-001
    outer loop
      vertex  0.000000e+000  4.936345e+000 -2.850000e+000
      vertex  2.000000e+000  4.936345e+000 -2.850000e+000
      vertex  2.000000e+000  5.700000e+000  0.000000e+000
    endloop
  endfacet
  facet normal  0.000000e+000 -9.659259e-001  2.588191e-001
    outer loop
      vertex  0.000000e+000  4.936345e+000 -2.850000e+000
      vertex  2.000000e+000  5.700000e+000  0.000000e+000
      vertex  0.000000e+000  5.700000e+000  0.000000e+000
    endloop
  endfacet
  facet normal  0.000000e+000 -2.588191e-001  9.659259e-001
    outer loop
      vertex  2.000000e+000  2.850000e+000 -4.936345e+000
      vertex  0.000000e+000 -1.047073e-015 -5.700000e+000
      vertex  2.000000e+000 -1.047073e-015 -5.700000e+000
    endloop
  endfacet
  facet normal  0.000000e+000  2.588191e-001  9.659259e-001
    outer loop
      vertex  2.000000e+000 -1.047073e-015 -5.700000e+000
      vertex  0.000000e+000 -1.047073e-015 -5.700000e+000
      vertex  0.000000e+000 -2.850000e+000 -4.936345e+000
    endloop
  endfacet
  facet normal  -0.000000e+000  2.588191e-001  9.659259e-001
    outer loop
      vertex  2.000000e+000 -1.047073e-015 -5.700000e+000
      vertex  0.000000e+000 -2.850000e+000 -4.936345e+000
      vertex  2.000000e+000 -2.850000e+000 -4.936345e+000
    endloop
  endfacet
  facet normal  0.000000e+000  7.071068e-001  7.071068e-001
    outer loop
      vertex  2.000000e+000 -2.850000e+000 -4.936345e+000
      vertex  0.000000e+000 -2.850000e+000 -4.936345e+000
      vertex  0.000000e+000 -4.936345e+000 -2.850000e+000
    endloop
  endfacet
  facet normal  -0.000000e+000  7.071068e-001  7.071068e-001
    outer loop
      vertex  2.000000e+000 -2.850000e+000 -4.936345e+000
      vertex  0.000000e+000 -4.936345e+000 -2.850000e+000
      vertex  2.000000e+000 -4.936345e+000 -2.850000e+000
    endloop
  endfacet
  facet normal  0.000000e+000  9.659259e-001  2.588191e-001
    outer loop
      vertex  2.000000e+000 -4.936345e+000 -2.850000e+000
      vertex  0.000000e+000 -4.936345e+000 -2.850000e+000
      vertex  0.000000e+000 -5.700000e+000  6.980487e-016
    endloop
  endfacet
  facet normal  -0.000000e+000  9.659259e-001  2.588191e-001
    outer loop
      vertex  2.000000e+000 -4.936345e+000 -2.850000e+000
      vertex  0.000000e+000 -5.700000e+000  6.980487e-016
      vertex  2.000000e+000 -5.700000e+000  6.980487e-016
    endloop
  endfacet
  facet normal  0.000000e+000  9.807853e-001 -1.950904e-001
    outer loop
      vertex  0.000000e+000  9.500000e+000  0.000000e+000
      vertex  2.000000e+000  9.500000e+000  0.000000e+000
      vertex  0.000000e+000  8.776855e+000 -3.635493e+000
    endloop
  endfacet
  facet normal  0.000000e+000  9.807853e-001 -1.950904e-001
    outer loop
      vertex  0.000000e+000  8.776855e+000 -3.635493e+000
      vertex  2.000000e+000  9.500000e+000  0.000000e+000
      vertex  2.000000e+000  8.776855e+000 -3.635493e+000
    endloop
  endfacet
  facet normal  0.000000e+000  8.314697e-001 -5.555702e-001
    outer loop
      vertex  0.000000e+000  8.776855e+000 -3.635493e+000
      vertex  2.000000e+000  8.776855e+000 -3.635493e+000
      vertex  0.000000e+000  6.717515e+000 -6.717515e+000
    endloop
  endfacet
  facet normal  0.000000e+000  8.314697e-001 -5.555702e-001
    outer loop
      vertex  0.000000e+000  6.717515e+000 -6.717515e+000
      vertex  2.000000e+000  8.776855e+000 -3.635493e+000
      vertex  2.000000e+000  6.717515e+000 -6.717515e+000
    endloop
  endfacet
  facet normal  0.000000e+000  5.555702e-001 -8.314697e-001
    outer loop
      vertex  0.000000e+000  6.717515e+000 -6.717515e+000
      vertex  2.000000e+000  6.717515e+000 -6.717515e+000
      vertex  0.000000e+000  3.635493e+000 -8.776855e+000
    endloop
  endfacet
  facet normal  0.000000e+000  5.555702e-001 -8.314697e-001
    outer loop
      vertex  0.000000e+000  3.635493e+000 -8.776855e+000
      vertex  2.000000e+000  6.717515e+000 -6.717515e+000
      vertex  2.000000e+000  3.635493e+000 -8.776855e+000
    endloop
  endfacet
  facet normal  0.000000e+000  1.950904e-001 -9.807853e-001
    outer loop
      vertex  0.000000e+000  3.635493e+000 -8.776855e+000
      vertex  2.000000e+000  3.635493e+000 -8.776855e+000
      vertex  0.000000e+000 -1.018282e-014 -9.500000e+000
    endloop
  endfacet
  facet normal  0.000000e+000  1.950904e-001 -9.807853e-001
    outer loop
      vertex  0.000000e+000 -1.018282e-014 -9.500000e+000
      vertex  2.000000e+000  3.635493e+000 -8.776855e+000
      vertex  2.000000e+000 -1.018282e-014 -9.500000e+000
    endloop
  endfacet
  facet normal  -0.000000e+000 -1.950904e-001 -9.807853e-001
    outer loop
      vertex  0.000000e+000 -1.018282e-014 -9.500000e+000
      vertex  2.000000e+000 -1.018282e-014 -9.500000e+000
      vertex  0.000000e+000 -3.635493e+000 -8.776855e+000
    endloop
  endfacet
  facet normal  0.000000e+000 -1.950904e-001 -9.807853e-001
    outer loop
      vertex  0.000000e+000 -3.635493e+000 -8.776855e+000
      vertex  2.000000e+000 -1.018282e-014 -9.500000e+000
      vertex  2.000000e+000 -3.635493e+000 -8.776855e+000
    endloop
  endfacet
  facet normal  -0.000000e+000 -5.555702e-001 -8.314697e-001
    outer loop
      vertex  0.000000e+000 -3.635493e+000 -8.776855e+000
      vertex  2.000000e+000 -3.635493e+000 -8.776855e+000
      vertex  0.000000e+000 -6.717515e+000 -6.717515e+000
    endloop
  endfacet
  facet normal  0.000000e+000 -5.555702e-001 -8.314697e-001
    outer loop
      vertex  0.000000e+000 -6.717515e+000 -6.717515e+000
      vertex  2.000000e+000 -3.635493e+000 -8.776855e+000
      vertex  2.000000e+000 -6.717515e+000 -6.717515e+000
    endloop
  endfacet
  facet normal  -0.000000e+000 -8.314697e-001 -5.555702e-001
    outer loop
      vertex  0.000000e+000 -6.717515e+000 -6.717515e+000
      vertex  2.000000e+000 -6.717515e+000 -6.717515e+000
      vertex  0.000000e+000 -8.776855e+000 -3.635493e+000
    endloop
  endfacet
  facet normal  0.000000e+000 -8.314697e-001 -5.555702e-001
    outer loop
      vertex  0.000000e+000 -8.776855e+000 -3.635493e+000
      vertex  2.000000e+000 -6.717515e+000 -6.717515e+000
      vertex  2.000000e+000 -8.776855e+000 -3.635493e+000
    endloop
  endfacet
  facet normal  -0.000000e+000 -9.807853e-001 -1.950904e-001
    outer loop
      vertex  0.000000e+000 -8.776855e+000 -3.635493e+000
      vertex  2.000000e+000 -8.776855e+000 -3.635493e+000
      vertex  0.000000e+000 -9.500000e+000  1.163414e-015
    endloop
  endfacet
  facet normal  0.000000e+000 -9.807853e-001 -1.950904e-001
    outer loop
      vertex  0.000000e+000 -9.500000e+000  1.163414e-015
      vertex  2.000000e+000 -8.776855e+000 -3.635493e+000
      vertex  2.000000e+000 -9.500000e+000  1.163414e-015
    endloop
  endfacet
  facet normal  0.000000e+000 -9.807853e-001  1.950904e-001
    outer loop
      vertex  0.000000e+000 -9.500000e+000  1.163414e-015
      vertex  2.000000e+000 -9.500000e+000  1.163414e-015
      vertex  0.000000e+000 -8.776855e+000  3.635493e+000
    endloop
  endfacet
  facet normal  0.000000e+000 -9.807853e-001  1.950904e-001
    outer loop
      vertex  0.000000e+000 -8.776855e+000  3.635493e+000
      vertex  2.000000e+000 -9.500000e+000  1.163414e-015
      vertex  2.000000e+000 -8.776855e+000  3.635493e+000
    endloop
  endfacet
  facet normal  0.000000e+000 -8.314697e-001  5.555702e-001
    outer loop
      vertex  0.000000e+000 -8.776855e+000  3.635493e+000
      vertex  2.000000e+000 -8.776855e+000  3.635493e+000
      vertex  0.000000e+000 -6.717515e+000  6.717515e+000
    endloop
  endfacet
  facet normal  0.000000e+000 -8.314697e-001  5.555702e-001
    outer loop
      vertex  0.000000e+000 -6.717515e+000  6.717515e+000
      vertex  2.000000e+000 -8.776855e+000  3.635493e+000
      vertex  2.000000e+000 -6.717515e+000  6.717515e+000
    endloop
  endfacet
  facet normal  0.000000e+000 -5.555702e-001  8.314697e-001
    outer loop
      vertex  0.000000e+000 -6.717515e+000  6.717515e+000
      vertex  2.000000e+000 -6.717515e+000  6.717515e+000
      vertex  0.000000e+000 -3.635493e+000  8.776855e+000
    endloop
  endfacet
  facet normal  0.000000e+000 -5.555702e-001  8.314697e-001
    outer loop
      vertex  0.000000e+000 -3.635493e+000  8.776855e+000
      vertex  2.000000e+000 -6.717515e+000  6.717515e+000
      vertex  2.000000e+000 -3.635493e+000  8.776855e+000
    endloop
  endfacet
  facet normal  0.000000e+000 -1.950904e-001  9.807853e-001
    outer loop
      vertex  0.000000e+000 -3.635493e+000  8.776855e+000
      vertex  2.000000e+000 -3.635493e+000  8.776855e+000
      vertex  0.000000e+000  5.817072e-016  9.500000e+000
    endloop
  endfacet
  facet normal  0.000000e+000 -1.950904e-001  9.807853e-001
    outer loop
      vertex  0.000000e+000  5.817072e-016  9.500000e+000
      vertex  2.000000e+000 -3.635493e+000  8.776855e+000
      vertex  2.000000e+000  5.817072e-016  9.500000e+000
    endloop
  endfacet
  facet normal  0.000000e+000  1.950904e-001  9.807853e-001
    outer loop
      vertex  0.000000e+000  5.817072e-016  9.500000e+000
      vertex  2.000000e+000  5.817072e-016  9.500000e+000
      vertex  0.000000e+000  3.635493e+000  8.776855e+000
    endloop
  endfacet
  facet normal  -0.000000e+000  1.950904e-001  9.807853e-001
    outer loop
      vertex  0.000000e+000  3.635493e+000  8.776855e+000
      vertex  2.000000e+000  5.817072e-016  9.500000e+000
      vertex  2.000000e+000  3.635493e+000  8.776855e+000
    endloop
  endfacet
  facet normal  0.000000e+000  5.555702e-001  8.314697e-001
    outer loop
      vertex  0.000000e+000  3.635493e+000  8.776855e+000
      vertex  2.000000e+000  3.635493e+000  8.776855e+000
      vertex  0.000000e+000  6.717515e+000  6.717515e+000
    endloop
  endfacet
  facet normal  -0.000000e+000  5.555702e-001  8.314697e-001
    outer loop
      vertex  0.000000e+000  6.717515e+000  6.717515e+000
      vertex  2.000000e+000  3.635493e+000  8.776855e+000
      vertex  2.000000e+000  6.717515e+000  6.717515e+000
    endloop
  endfacet
  facet normal  0.000000e+000  8.314697e-001  5.555702e-001
    outer loop
      vertex  0.000000e+000  6.717515e+000  6.717515e+000
      vertex  2.000000e+000  6.717515e+000  6.717515e+000
      vertex  0.000000e+000  8.776855e+000  3.635493e+000
    endloop
  endfacet
  facet normal  -0.000000e+000  8.314697e-001  5.555702e-001
    outer loop
      vertex  0.000000e+000  8.776855e+000  3.635493e+000
      vertex  2.000000e+000  6.717515e+000  6.717515e+000
      vertex  2.000000e+000  8.776855e+000  3.635493e+000
    endloop
  endfacet
  facet normal  0.000000e+000  9.807853e-001  1.950904e-001
    outer loop
      vertex  0.000000e+000  8.776855e+000  3.635493e+000
      vertex  2.000000e+000  8.776855e+000  3.635493e+000
      vertex  0.000000e+000  9.500000e+000  0.000000e+000
    endloop
  endfacet
  facet normal  -0.000000e+000  9.807853e-001  1.950904e-001
    outer loop
      vertex  0.000000e+000  9.500000e+000  0.000000e+000
      vertex  2.000000e+000  8.776855e+000  3.635493e+000
      vertex  2.000000e+000  9.500000e+000  0.000000e+000
    endloop
  endfacet
endsolid CATIA STL
