solid CATIA STL
  facet normal -1.000000e+000  -0.000000e+000  0.000000e+000
    outer loop
      vertex -3.000000e+000  2.105713e-015  2.000000e+001
      vertex -3.000000e+000 -2.750000e+000  1.926314e+001
      vertex -3.000000e+000 -1.075000e+001  1.861955e+001
    endloop
  endfacet
  facet normal -1.000000e+000  0.000000e+000  0.000000e+000
    outer loop
      vertex -3.000000e+000  8.061017e+000  8.909546e+000
      vertex -3.000000e+000  5.895315e-015  9.000000e+000
      vertex -3.000000e+000  2.750000e+000  9.736860e+000
    endloop
  endfacet
  facet normal -1.000000e+000  0.000000e+000  0.000000e+000
    outer loop
      vertex -3.000000e+000  8.061017e+000  8.909546e+000
      vertex -3.000000e+000  2.750000e+000  9.736860e+000
      vertex -3.000000e+000  4.763140e+000  1.175000e+001
    endloop
  endfacet
  facet normal -1.000000e+000  0.000000e+000  0.000000e+000
    outer loop
      vertex -3.000000e+000  8.061017e+000  8.909546e+000
      vertex -3.000000e+000  4.763140e+000  1.175000e+001
      vertex -3.000000e+000  1.861955e+001  1.075000e+001
    endloop
  endfacet
  facet normal -1.000000e+000  0.000000e+000  -0.000000e+000
    outer loop
      vertex -3.000000e+000  8.061017e+000  8.909546e+000
      vertex -3.000000e+000  1.861955e+001  1.075000e+001
      vertex -3.000000e+000  2.076740e+001  5.564610e+000
    endloop
  endfacet
  facet normal -1.000000e+000  0.000000e+000  0.000000e+000
    outer loop
      vertex -3.000000e+000  8.061017e+000  8.909546e+000
      vertex -3.000000e+000  2.076740e+001  5.564610e+000
      vertex -3.000000e+000  8.909546e+000  8.061017e+000
    endloop
  endfacet
  facet normal -9.999999e-001  0.000000e+000  0.000000e+000
    outer loop
      vertex -3.000000e+000 -8.061017e+000  8.909546e+000
      vertex -3.000000e+000 -8.485281e+000  8.485281e+000
      vertex -3.000000e+000 -1.520280e+001  1.520280e+001
    endloop
  endfacet
  facet normal -1.000000e+000  0.000000e+000  0.000000e+000
    outer loop
      vertex -3.000000e+000 -8.061017e+000  8.909546e+000
      vertex -3.000000e+000 -1.520280e+001  1.520280e+001
      vertex -3.000000e+000 -5.500000e+000  1.450000e+001
    endloop
  endfacet
  facet normal -1.000000e+000  0.000000e+000  -0.000000e+000
    outer loop
      vertex -3.000000e+000 -8.061017e+000  8.909546e+000
      vertex -3.000000e+000 -5.500000e+000  1.450000e+001
      vertex -3.000000e+000 -4.763140e+000  1.175000e+001
    endloop
  endfacet
  facet normal -1.000000e+000  0.000000e+000  -0.000000e+000
    outer loop
      vertex -3.000000e+000 -8.061017e+000  8.909546e+000
      vertex -3.000000e+000 -4.763140e+000  1.175000e+001
      vertex -3.000000e+000 -2.750000e+000  9.736860e+000
    endloop
  endfacet
  facet normal -1.000000e+000  0.000000e+000  -0.000000e+000
    outer loop
      vertex -3.000000e+000 -8.061017e+000  8.909546e+000
      vertex -3.000000e+000 -2.750000e+000  9.736860e+000
      vertex -3.000000e+000  5.895315e-015  9.000000e+000
    endloop
  endfacet
  facet normal -1.000000e+000  0.000000e+000  -0.000000e+000
    outer loop
      vertex -3.000000e+000 -8.061017e+000  8.909546e+000
      vertex -3.000000e+000  5.895315e-015  9.000000e+000
      vertex -3.000000e+000  8.061017e+000  8.909546e+000
    endloop
  endfacet
  facet normal -9.999999e-001  -0.000000e+000  0.000000e+000
    outer loop
      vertex -3.000000e+000 -8.061017e+000  8.909546e+000
      vertex -3.000000e+000  8.061017e+000  8.909546e+000
      vertex -3.000000e+000  1.776357e-015  8.485281e-001
    endloop
  endfacet
  facet normal -1.000000e+000  0.000000e+000  0.000000e+000
    outer loop
      vertex -3.000000e+000 -5.564610e+000  2.076740e+001
      vertex -3.000000e+000  6.582476e-015  2.150000e+001
      vertex -3.000000e+000 -1.075000e+001  1.861955e+001
    endloop
  endfacet
  facet normal -1.000000e+000  0.000000e+000  0.000000e+000
    outer loop
      vertex -3.000000e+000 -1.075000e+001  1.861955e+001
      vertex -3.000000e+000  6.582476e-015  2.150000e+001
      vertex -3.000000e+000  2.105713e-015  2.000000e+001
    endloop
  endfacet
  facet normal -1.000000e+000  -0.000000e+000  0.000000e+000
    outer loop
      vertex -3.000000e+000  6.582476e-015  2.150000e+001
      vertex -3.000000e+000  5.564610e+000  2.076740e+001
      vertex -3.000000e+000  2.105713e-015  2.000000e+001
    endloop
  endfacet
  facet normal -9.999999e-001  0.000000e+000  0.000000e+000
    outer loop
      vertex -3.000000e+000  2.105713e-015  2.000000e+001
      vertex -3.000000e+000  5.564610e+000  2.076740e+001
      vertex -3.000000e+000  1.075000e+001  1.861955e+001
    endloop
  endfacet
  facet normal -9.999999e-001  0.000000e+000  0.000000e+000
    outer loop
      vertex -3.000000e+000 -5.500000e+000  1.450000e+001
      vertex -3.000000e+000 -1.520280e+001  1.520280e+001
      vertex -3.000000e+000 -4.763140e+000  1.725000e+001
    endloop
  endfacet
  facet normal -1.000000e+000  -0.000000e+000  0.000000e+000
    outer loop
      vertex -3.000000e+000 -4.763140e+000  1.725000e+001
      vertex -3.000000e+000 -1.520280e+001  1.520280e+001
      vertex -3.000000e+000 -1.075000e+001  1.861955e+001
    endloop
  endfacet
  facet normal -9.999999e-001  0.000000e+000  0.000000e+000
    outer loop
      vertex -3.000000e+000 -4.763140e+000  1.725000e+001
      vertex -3.000000e+000 -1.075000e+001  1.861955e+001
      vertex -3.000000e+000 -2.750000e+000  1.926314e+001
    endloop
  endfacet
  facet normal -1.000000e+000  0.000000e+000  0.000000e+000
    outer loop
      vertex -3.000000e+000  2.105713e-015  2.000000e+001
      vertex -3.000000e+000  1.075000e+001  1.861955e+001
      vertex -3.000000e+000  2.750000e+000  1.926314e+001
    endloop
  endfacet
  facet normal -1.000000e+000  0.000000e+000  0.000000e+000
    outer loop
      vertex -3.000000e+000  2.750000e+000  1.926314e+001
      vertex -3.000000e+000  1.075000e+001  1.861955e+001
      vertex -3.000000e+000  1.520280e+001  1.520280e+001
    endloop
  endfacet
  facet normal -1.000000e+000  0.000000e+000  0.000000e+000
    outer loop
      vertex -3.000000e+000  2.750000e+000  1.926314e+001
      vertex -3.000000e+000  1.520280e+001  1.520280e+001
      vertex -3.000000e+000  4.763140e+000  1.725000e+001
    endloop
  endfacet
  facet normal -9.999999e-001  -0.000000e+000  0.000000e+000
    outer loop
      vertex -3.000000e+000  4.763140e+000  1.725000e+001
      vertex -3.000000e+000  1.520280e+001  1.520280e+001
      vertex -3.000000e+000  5.500000e+000  1.450000e+001
    endloop
  endfacet
  facet normal -1.000000e+000  0.000000e+000  0.000000e+000
    outer loop
      vertex -3.000000e+000  5.500000e+000  1.450000e+001
      vertex -3.000000e+000  1.520280e+001  1.520280e+001
      vertex -3.000000e+000  1.861955e+001  1.075000e+001
    endloop
  endfacet
  facet normal -9.999999e-001  0.000000e+000  0.000000e+000
    outer loop
      vertex -3.000000e+000  5.500000e+000  1.450000e+001
      vertex -3.000000e+000  1.861955e+001  1.075000e+001
      vertex -3.000000e+000  4.763140e+000  1.175000e+001
    endloop
  endfacet
  facet normal -1.000000e+000  0.000000e+000  0.000000e+000
    outer loop
      vertex -3.000000e+000  1.520280e+001 -1.520280e+001
      vertex -3.000000e+000  8.485281e+000 -8.485281e+000
      vertex -3.000000e+000  1.861955e+001 -1.075000e+001
    endloop
  endfacet
  facet normal -1.000000e+000  0.000000e+000  0.000000e+000
    outer loop
      vertex -3.000000e+000  1.861955e+001 -1.075000e+001
      vertex -3.000000e+000  8.485281e+000 -8.485281e+000
      vertex -3.000000e+000  8.909546e+000 -8.061017e+000
    endloop
  endfacet
  facet normal -1.000000e+000  0.000000e+000  0.000000e+000
    outer loop
      vertex -3.000000e+000  1.861955e+001 -1.075000e+001
      vertex -3.000000e+000  8.909546e+000 -8.061017e+000
      vertex -3.000000e+000  2.076740e+001 -5.564610e+000
    endloop
  endfacet
  facet normal -9.999999e-001  -0.000000e+000  0.000000e+000
    outer loop
      vertex -3.000000e+000  2.076740e+001 -5.564610e+000
      vertex -3.000000e+000  8.909546e+000 -8.061017e+000
      vertex -3.000000e+000  8.485281e-001  1.776357e-015
    endloop
  endfacet
  facet normal -1.000000e+000  0.000000e+000  0.000000e+000
    outer loop
      vertex -3.000000e+000  2.076740e+001 -5.564610e+000
      vertex -3.000000e+000  8.485281e-001  1.776357e-015
      vertex -3.000000e+000  2.150000e+001 -5.265981e-015
    endloop
  endfacet
  facet normal -1.000000e+000  0.000000e+000  0.000000e+000
    outer loop
      vertex -3.000000e+000  2.150000e+001 -5.265981e-015
      vertex -3.000000e+000  8.485281e-001  1.776357e-015
      vertex -3.000000e+000  8.909546e+000  8.061017e+000
    endloop
  endfacet
  facet normal -1.000000e+000  0.000000e+000  0.000000e+000
    outer loop
      vertex -3.000000e+000  2.150000e+001 -5.265981e-015
      vertex -3.000000e+000  8.909546e+000  8.061017e+000
      vertex -3.000000e+000  2.076740e+001  5.564610e+000
    endloop
  endfacet
  facet normal  0.000000e+000  6.259449e-001 -7.798673e-001
    outer loop
      vertex  0.000000e+000 -1.131371e+001  1.131371e+001
      vertex  0.000000e+000 -8.597532e+000  1.349379e+001
      vertex  2.000000e+000 -1.131371e+001  1.131371e+001
    endloop
  endfacet
  facet normal  0.000000e+000  6.259449e-001 -7.798673e-001
    outer loop
      vertex  2.000000e+000 -1.131371e+001  1.131371e+001
      vertex  0.000000e+000 -8.597532e+000  1.349379e+001
      vertex  2.000000e+000 -8.597532e+000  1.349379e+001
    endloop
  endfacet
  facet normal  0.000000e+000  4.423624e-001 -8.968364e-001
    outer loop
      vertex  0.000000e+000 -8.597532e+000  1.349379e+001
      vertex  0.000000e+000 -5.473968e+000  1.503448e+001
      vertex  2.000000e+000 -8.597532e+000  1.349379e+001
    endloop
  endfacet
  facet normal  0.000000e+000  4.423624e-001 -8.968364e-001
    outer loop
      vertex  2.000000e+000 -8.597532e+000  1.349379e+001
      vertex  0.000000e+000 -5.473968e+000  1.503448e+001
      vertex  2.000000e+000 -5.473968e+000  1.503448e+001
    endloop
  endfacet
  facet normal  -0.000000e+000 -8.752574e-001 -4.836574e-001
    outer loop
      vertex  0.000000e+000  1.496605e+001  5.658393e+000
      vertex  2.000000e+000  1.275488e+001  9.659873e+000
      vertex  0.000000e+000  1.275488e+001  9.659873e+000
    endloop
  endfacet
  facet normal  0.000000e+000 -7.027467e-001 -7.114401e-001
    outer loop
      vertex  0.000000e+000  1.275488e+001  9.659873e+000
      vertex  2.000000e+000  1.275488e+001  9.659873e+000
      vertex  2.000000e+000  9.502331e+000  1.287267e+001
    endloop
  endfacet
  facet normal  -0.000000e+000 -7.027467e-001 -7.114401e-001
    outer loop
      vertex  0.000000e+000  1.275488e+001  9.659873e+000
      vertex  2.000000e+000  9.502331e+000  1.287267e+001
      vertex  0.000000e+000  9.502331e+000  1.287267e+001
    endloop
  endfacet
  facet normal  0.000000e+000 -4.728600e-001 -8.811375e-001
    outer loop
      vertex  0.000000e+000  9.502331e+000  1.287267e+001
      vertex  2.000000e+000  9.502331e+000  1.287267e+001
      vertex  2.000000e+000  5.473968e+000  1.503448e+001
    endloop
  endfacet
  facet normal  -0.000000e+000 -4.728600e-001 -8.811375e-001
    outer loop
      vertex  0.000000e+000  9.502331e+000  1.287267e+001
      vertex  2.000000e+000  5.473968e+000  1.503448e+001
      vertex  0.000000e+000  5.473968e+000  1.503448e+001
    endloop
  endfacet
  facet normal  0.000000e+000 -8.752574e-001 -4.836574e-001
    outer loop
      vertex  2.000000e+000  1.275488e+001  9.659873e+000
      vertex  0.000000e+000  1.496605e+001  5.658393e+000
      vertex  2.000000e+000  1.496605e+001  5.658393e+000
    endloop
  endfacet
  facet normal  -0.000000e+000 -9.763079e-001 -2.163860e-001
    outer loop
      vertex  2.000000e+000  1.496605e+001  5.658393e+000
      vertex  0.000000e+000  1.496605e+001  5.658393e+000
      vertex  0.000000e+000  1.595532e+001  1.194933e+000
    endloop
  endfacet
  facet normal  0.000000e+000 -9.763079e-001 -2.163860e-001
    outer loop
      vertex  2.000000e+000  1.496605e+001  5.658393e+000
      vertex  0.000000e+000  1.595532e+001  1.194933e+000
      vertex  2.000000e+000  1.595532e+001  1.194933e+000
    endloop
  endfacet
  facet normal  0.000000e+000 -9.976476e-001  6.855174e-002
    outer loop
      vertex  2.000000e+000  1.595532e+001  1.194933e+000
      vertex  0.000000e+000  1.595532e+001  1.194933e+000
      vertex  0.000000e+000  1.564191e+001 -3.366087e+000
    endloop
  endfacet
  facet normal  0.000000e+000 -9.976476e-001  6.855174e-002
    outer loop
      vertex  2.000000e+000  1.595532e+001  1.194933e+000
      vertex  0.000000e+000  1.564191e+001 -3.366087e+000
      vertex  2.000000e+000  1.564191e+001 -3.366087e+000
    endloop
  endfacet
  facet normal  0.000000e+000 -9.375344e-001  3.478928e-001
    outer loop
      vertex  2.000000e+000  1.564191e+001 -3.366087e+000
      vertex  0.000000e+000  1.564191e+001 -3.366087e+000
      vertex  0.000000e+000  1.405143e+001 -7.652283e+000
    endloop
  endfacet
  facet normal  0.000000e+000 -9.375344e-001  3.478928e-001
    outer loop
      vertex  2.000000e+000  1.564191e+001 -3.366087e+000
      vertex  0.000000e+000  1.405143e+001 -7.652283e+000
      vertex  2.000000e+000  1.405143e+001 -7.652283e+000
    endloop
  endfacet
  facet normal  0.000000e+000 -8.008760e-001  5.988303e-001
    outer loop
      vertex  2.000000e+000  1.405143e+001 -7.652283e+000
      vertex  0.000000e+000  1.405143e+001 -7.652283e+000
      vertex  0.000000e+000  1.131371e+001 -1.131371e+001
    endloop
  endfacet
  facet normal  0.000000e+000 -8.008760e-001  5.988303e-001
    outer loop
      vertex  2.000000e+000  1.405143e+001 -7.652283e+000
      vertex  0.000000e+000  1.131371e+001 -1.131371e+001
      vertex  2.000000e+000  1.131371e+001 -1.131371e+001
    endloop
  endfacet
  facet normal  1.000000e+000  0.000000e+000  0.000000e+000
    outer loop
      vertex  2.000000e+000 -5.564610e+000  2.076740e+001
      vertex  2.000000e+000  5.564610e+000  2.076740e+001
      vertex  2.000000e+000  6.582476e-015  2.150000e+001
    endloop
  endfacet
  facet normal  9.999999e-001  0.000000e+000  -0.000000e+000
    outer loop
      vertex  2.000000e+000 -1.520280e+001  1.520280e+001
      vertex  2.000000e+000 -1.131371e+001  1.131371e+001
      vertex  2.000000e+000 -8.597532e+000  1.349379e+001
    endloop
  endfacet
  facet normal  1.000000e+000  0.000000e+000  -0.000000e+000
    outer loop
      vertex  2.000000e+000 -1.520280e+001  1.520280e+001
      vertex  2.000000e+000 -8.597532e+000  1.349379e+001
      vertex  2.000000e+000 -5.473968e+000  1.503448e+001
    endloop
  endfacet
  facet normal  1.000000e+000  0.000000e+000  -0.000000e+000
    outer loop
      vertex  2.000000e+000 -1.520280e+001  1.520280e+001
      vertex  2.000000e+000 -5.473968e+000  1.503448e+001
      vertex  2.000000e+000 -4.574799e+000  1.755307e+001
    endloop
  endfacet
  facet normal  1.000000e+000  0.000000e+000  -0.000000e+000
    outer loop
      vertex  2.000000e+000 -1.520280e+001  1.520280e+001
      vertex  2.000000e+000 -4.574799e+000  1.755307e+001
      vertex  2.000000e+000 -2.594044e+000  1.934984e+001
    endloop
  endfacet
  facet normal  1.000000e+000  0.000000e+000  0.000000e+000
    outer loop
      vertex  2.000000e+000 -1.520280e+001  1.520280e+001
      vertex  2.000000e+000 -2.594044e+000  1.934984e+001
      vertex  2.000000e+000 -1.075000e+001  1.861955e+001
    endloop
  endfacet
  facet normal  1.000000e+000  0.000000e+000  0.000000e+000
    outer loop
      vertex  2.000000e+000 -1.075000e+001  1.861955e+001
      vertex  2.000000e+000 -2.594044e+000  1.934984e+001
      vertex  2.000000e+000 -5.564610e+000  2.076740e+001
    endloop
  endfacet
  facet normal  1.000000e+000  0.000000e+000  0.000000e+000
    outer loop
      vertex  2.000000e+000 -5.564610e+000  2.076740e+001
      vertex  2.000000e+000 -2.594044e+000  1.934984e+001
      vertex  2.000000e+000  1.558023e-015  2.000000e+001
    endloop
  endfacet
  facet normal  1.000000e+000  0.000000e+000  -0.000000e+000
    outer loop
      vertex  2.000000e+000 -5.564610e+000  2.076740e+001
      vertex  2.000000e+000  1.558023e-015  2.000000e+001
      vertex  2.000000e+000  5.564610e+000  2.076740e+001
    endloop
  endfacet
  facet normal  9.999999e-001  -0.000000e+000  0.000000e+000
    outer loop
      vertex  2.000000e+000  5.564610e+000  2.076740e+001
      vertex  2.000000e+000  1.558023e-015  2.000000e+001
      vertex  2.000000e+000  1.075000e+001  1.861955e+001
    endloop
  endfacet
  facet normal  1.000000e+000  0.000000e+000  0.000000e+000
    outer loop
      vertex  2.000000e+000  1.075000e+001  1.861955e+001
      vertex  2.000000e+000  1.558023e-015  2.000000e+001
      vertex  2.000000e+000  2.594044e+000  1.934984e+001
    endloop
  endfacet
  facet normal  1.000000e+000  0.000000e+000  0.000000e+000
    outer loop
      vertex  2.000000e+000  1.075000e+001  1.861955e+001
      vertex  2.000000e+000  2.594044e+000  1.934984e+001
      vertex  2.000000e+000  1.520280e+001  1.520280e+001
    endloop
  endfacet
  facet normal  1.000000e+000  0.000000e+000  0.000000e+000
    outer loop
      vertex  2.000000e+000  1.520280e+001  1.520280e+001
      vertex  2.000000e+000  2.594044e+000  1.934984e+001
      vertex  2.000000e+000  4.574799e+000  1.755307e+001
    endloop
  endfacet
  facet normal  1.000000e+000  0.000000e+000  0.000000e+000
    outer loop
      vertex  2.000000e+000  1.520280e+001  1.520280e+001
      vertex  2.000000e+000  4.574799e+000  1.755307e+001
      vertex  2.000000e+000  5.473968e+000  1.503448e+001
    endloop
  endfacet
  facet normal  1.000000e+000  -0.000000e+000  0.000000e+000
    outer loop
      vertex  2.000000e+000  1.520280e+001  1.520280e+001
      vertex  2.000000e+000  5.473968e+000  1.503448e+001
      vertex  2.000000e+000  1.861955e+001  1.075000e+001
    endloop
  endfacet
  facet normal  1.000000e+000  0.000000e+000  0.000000e+000
    outer loop
      vertex  2.000000e+000  1.861955e+001  1.075000e+001
      vertex  2.000000e+000  5.473968e+000  1.503448e+001
      vertex  2.000000e+000  9.502331e+000  1.287267e+001
    endloop
  endfacet
  facet normal  1.000000e+000  0.000000e+000  0.000000e+000
    outer loop
      vertex  2.000000e+000  1.861955e+001  1.075000e+001
      vertex  2.000000e+000  9.502331e+000  1.287267e+001
      vertex  2.000000e+000  1.275488e+001  9.659873e+000
    endloop
  endfacet
  facet normal  1.000000e+000  -0.000000e+000  0.000000e+000
    outer loop
      vertex  2.000000e+000  1.861955e+001  1.075000e+001
      vertex  2.000000e+000  1.275488e+001  9.659873e+000
      vertex  2.000000e+000  2.076740e+001  5.564610e+000
    endloop
  endfacet
  facet normal  1.000000e+000  0.000000e+000  0.000000e+000
    outer loop
      vertex  2.000000e+000  2.076740e+001  5.564610e+000
      vertex  2.000000e+000  1.275488e+001  9.659873e+000
      vertex  2.000000e+000  1.496605e+001  5.658393e+000
    endloop
  endfacet
  facet normal  1.000000e+000  0.000000e+000  0.000000e+000
    outer loop
      vertex  2.000000e+000  2.076740e+001  5.564610e+000
      vertex  2.000000e+000  1.496605e+001  5.658393e+000
      vertex  2.000000e+000  2.150000e+001 -5.265981e-015
    endloop
  endfacet
  facet normal  1.000000e+000  0.000000e+000  0.000000e+000
    outer loop
      vertex  2.000000e+000  2.150000e+001 -5.265981e-015
      vertex  2.000000e+000  1.496605e+001  5.658393e+000
      vertex  2.000000e+000  1.595532e+001  1.194933e+000
    endloop
  endfacet
  facet normal  1.000000e+000  0.000000e+000  0.000000e+000
    outer loop
      vertex  2.000000e+000  2.150000e+001 -5.265981e-015
      vertex  2.000000e+000  1.595532e+001  1.194933e+000
      vertex  2.000000e+000  2.076740e+001 -5.564610e+000
    endloop
  endfacet
  facet normal  1.000000e+000  0.000000e+000  0.000000e+000
    outer loop
      vertex  2.000000e+000  2.076740e+001 -5.564610e+000
      vertex  2.000000e+000  1.595532e+001  1.194933e+000
      vertex  2.000000e+000  1.564191e+001 -3.366087e+000
    endloop
  endfacet
  facet normal  1.000000e+000  0.000000e+000  0.000000e+000
    outer loop
      vertex  2.000000e+000  2.076740e+001 -5.564610e+000
      vertex  2.000000e+000  1.564191e+001 -3.366087e+000
      vertex  2.000000e+000  1.405143e+001 -7.652283e+000
    endloop
  endfacet
  facet normal  1.000000e+000  -0.000000e+000  0.000000e+000
    outer loop
      vertex  2.000000e+000  2.076740e+001 -5.564610e+000
      vertex  2.000000e+000  1.405143e+001 -7.652283e+000
      vertex  2.000000e+000  1.861955e+001 -1.075000e+001
    endloop
  endfacet
  facet normal  1.000000e+000  0.000000e+000  0.000000e+000
    outer loop
      vertex  2.000000e+000  1.861955e+001 -1.075000e+001
      vertex  2.000000e+000  1.405143e+001 -7.652283e+000
      vertex  2.000000e+000  1.131371e+001 -1.131371e+001
    endloop
  endfacet
  facet normal  9.999999e-001  -0.000000e+000  0.000000e+000
    outer loop
      vertex  2.000000e+000  1.861955e+001 -1.075000e+001
      vertex  2.000000e+000  1.131371e+001 -1.131371e+001
      vertex  2.000000e+000  1.520280e+001 -1.520280e+001
    endloop
  endfacet
  facet normal  1.000000e+000  0.000000e+000  0.000000e+000
    outer loop
      vertex  0.000000e+000  5.500000e+000  1.450000e+001
      vertex  0.000000e+000  9.502331e+000  1.287267e+001
      vertex  0.000000e+000  5.473968e+000  1.503448e+001
    endloop
  endfacet
  facet normal  9.999999e-001  0.000000e+000  -0.000000e+000
    outer loop
      vertex -4.440892e-016 -8.061017e+000  8.909546e+000
      vertex -4.440892e-016  0.000000e+000  8.485281e-001
      vertex -4.440892e-016  8.061017e+000  8.909546e+000
    endloop
  endfacet
  facet normal  1.000000e+000  0.000000e+000 -4.909553e-015
    outer loop
      vertex -4.440892e-016 -8.061017e+000  8.909546e+000
      vertex -4.440892e-016  8.061017e+000  8.909546e+000
      vertex  0.000000e+000  3.874648e-015  9.000000e+000
    endloop
  endfacet
  facet normal  1.000000e+000 -5.287660e-017 -1.973381e-016
    outer loop
      vertex -4.440892e-016 -8.061017e+000  8.909546e+000
      vertex  0.000000e+000  3.874648e-015  9.000000e+000
      vertex  0.000000e+000 -2.750000e+000  9.736860e+000
    endloop
  endfacet
  facet normal  1.000000e+000 -7.234690e-017 -7.234690e-017
    outer loop
      vertex -4.440892e-016 -8.061017e+000  8.909546e+000
      vertex  0.000000e+000 -2.750000e+000  9.736860e+000
      vertex  0.000000e+000 -4.763140e+000  1.175000e+001
    endloop
  endfacet
  facet normal  1.000000e+000  1.128583e-017 -1.694477e-016
    outer loop
      vertex -4.440892e-016 -8.061017e+000  8.909546e+000
      vertex  0.000000e+000 -4.763140e+000  1.175000e+001
      vertex  0.000000e+000 -1.131371e+001  1.131371e+001
    endloop
  endfacet
  facet normal  1.000000e+000  5.233638e-016  5.233638e-016
    outer loop
      vertex -4.440892e-016 -8.061017e+000  8.909546e+000
      vertex  0.000000e+000 -1.131371e+001  1.131371e+001
      vertex  0.000000e+000 -8.485281e+000  8.485281e+000
    endloop
  endfacet
  facet normal  1.000000e+000  5.287660e-017 -1.973381e-016
    outer loop
      vertex  0.000000e+000  3.874648e-015  9.000000e+000
      vertex -4.440892e-016  8.061017e+000  8.909546e+000
      vertex  0.000000e+000  2.750000e+000  9.736860e+000
    endloop
  endfacet
  facet normal  1.000000e+000 -4.345186e-018 -5.646784e-016
    outer loop
      vertex  0.000000e+000  2.750000e+000  9.736860e+000
      vertex -4.440892e-016  8.061017e+000  8.909546e+000
      vertex  0.000000e+000  1.275488e+001  9.659873e+000
    endloop
  endfacet
  facet normal  1.000000e+000  0.000000e+000  0.000000e+000
    outer loop
      vertex  0.000000e+000  2.750000e+000  9.736860e+000
      vertex  0.000000e+000  1.275488e+001  9.659873e+000
      vertex  0.000000e+000  4.763140e+000  1.175000e+001
    endloop
  endfacet
  facet normal  1.000000e+000  -0.000000e+000  0.000000e+000
    outer loop
      vertex  0.000000e+000  4.763140e+000  1.175000e+001
      vertex  0.000000e+000  1.275488e+001  9.659873e+000
      vertex  0.000000e+000  9.502331e+000  1.287267e+001
    endloop
  endfacet
  facet normal  9.999999e-001  0.000000e+000  0.000000e+000
    outer loop
      vertex  0.000000e+000  4.763140e+000  1.175000e+001
      vertex  0.000000e+000  9.502331e+000  1.287267e+001
      vertex  0.000000e+000  5.500000e+000  1.450000e+001
    endloop
  endfacet
  facet normal  1.000000e+000  0.000000e+000  0.000000e+000
    outer loop
      vertex  0.000000e+000 -1.131371e+001  1.131371e+001
      vertex  0.000000e+000 -4.763140e+000  1.175000e+001
      vertex  0.000000e+000 -8.597532e+000  1.349379e+001
    endloop
  endfacet
  facet normal  1.000000e+000  -0.000000e+000  0.000000e+000
    outer loop
      vertex  0.000000e+000 -8.597532e+000  1.349379e+001
      vertex  0.000000e+000 -4.763140e+000  1.175000e+001
      vertex  0.000000e+000 -5.500000e+000  1.450000e+001
    endloop
  endfacet
  facet normal  1.000000e+000  0.000000e+000  -0.000000e+000
    outer loop
      vertex  0.000000e+000 -8.597532e+000  1.349379e+001
      vertex  0.000000e+000 -5.500000e+000  1.450000e+001
      vertex  0.000000e+000 -5.473968e+000  1.503448e+001
    endloop
  endfacet
  facet normal  1.000000e+000 -8.693177e-017 -4.803752e-017
    outer loop
      vertex  0.000000e+000  1.275488e+001  9.659873e+000
      vertex -4.440892e-016  8.061017e+000  8.909546e+000
      vertex  0.000000e+000  1.496605e+001  5.658393e+000
    endloop
  endfacet
  facet normal  9.999999e-001  3.441401e-016  8.675036e-016
    outer loop
      vertex  0.000000e+000  1.496605e+001  5.658393e+000
      vertex -4.440892e-016  8.061017e+000  8.909546e+000
      vertex  0.000000e+000  8.909546e+000  8.061017e+000
    endloop
  endfacet
  facet normal  1.000000e+000  0.000000e+000  0.000000e+000
    outer loop
      vertex  0.000000e+000  1.496605e+001  5.658393e+000
      vertex  0.000000e+000  8.909546e+000  8.061017e+000
      vertex  0.000000e+000  1.595532e+001  1.194933e+000
    endloop
  endfacet
  facet normal  1.000000e+000  0.000000e+000  0.000000e+000
    outer loop
      vertex  0.000000e+000  1.595532e+001  1.194933e+000
      vertex  0.000000e+000  8.909546e+000  8.061017e+000
      vertex  0.000000e+000  8.485281e-001  0.000000e+000
    endloop
  endfacet
  facet normal  1.000000e+000  -0.000000e+000  0.000000e+000
    outer loop
      vertex  0.000000e+000  1.595532e+001  1.194933e+000
      vertex  0.000000e+000  8.485281e-001  0.000000e+000
      vertex  0.000000e+000  1.564191e+001 -3.366087e+000
    endloop
  endfacet
  facet normal  1.000000e+000  0.000000e+000  0.000000e+000
    outer loop
      vertex  0.000000e+000  1.564191e+001 -3.366087e+000
      vertex  0.000000e+000  8.485281e-001  0.000000e+000
      vertex  0.000000e+000  8.909546e+000 -8.061017e+000
    endloop
  endfacet
  facet normal  1.000000e+000  0.000000e+000  0.000000e+000
    outer loop
      vertex  0.000000e+000  1.564191e+001 -3.366087e+000
      vertex  0.000000e+000  8.909546e+000 -8.061017e+000
      vertex  0.000000e+000  1.405143e+001 -7.652283e+000
    endloop
  endfacet
  facet normal  1.000000e+000  0.000000e+000  0.000000e+000
    outer loop
      vertex  0.000000e+000  8.909546e+000 -8.061017e+000
      vertex  0.000000e+000  8.485281e+000 -8.485281e+000
      vertex  0.000000e+000  1.405143e+001 -7.652283e+000
    endloop
  endfacet
  facet normal  1.000000e+000  0.000000e+000  0.000000e+000
    outer loop
      vertex  0.000000e+000  1.405143e+001 -7.652283e+000
      vertex  0.000000e+000  8.485281e+000 -8.485281e+000
      vertex  0.000000e+000  1.131371e+001 -1.131371e+001
    endloop
  endfacet
  facet normal -8.113185e-003 -6.718486e-001 -7.406440e-001
    outer loop
      vertex  2.000000e+000  2.594044e+000  1.934984e+001
      vertex -3.000000e+000  2.750000e+000  1.926314e+001
      vertex  2.000000e+000  4.574799e+000  1.755307e+001
    endloop
  endfacet
  facet normal  1.622272e-002  7.070137e-001 -7.070137e-001
    outer loop
      vertex  2.000000e+000 -4.574799e+000  1.755307e+001
      vertex -3.000000e+000 -4.763140e+000  1.725000e+001
      vertex -3.000000e+000 -2.750000e+000  1.926314e+001
    endloop
  endfacet
  facet normal  0.000000e+000 -9.659259e-001 -2.588191e-001
    outer loop
      vertex -3.000000e+000  4.763140e+000  1.725000e+001
      vertex -3.000000e+000  5.500000e+000  1.450000e+001
      vertex  0.000000e+000  5.500000e+000  1.450000e+001
    endloop
  endfacet
  facet normal  1.968099e-001 -9.792809e-001 -4.769584e-002
    outer loop
      vertex -3.000000e+000  4.763140e+000  1.725000e+001
      vertex  0.000000e+000  5.500000e+000  1.450000e+001
      vertex  0.000000e+000  5.473968e+000  1.503448e+001
    endloop
  endfacet
  facet normal  0.000000e+000 -9.521915e-001 -3.055019e-001
    outer loop
      vertex -3.000000e+000  4.763140e+000  1.725000e+001
      vertex  0.000000e+000  5.473968e+000  1.503448e+001
      vertex  2.000000e+000  5.473968e+000  1.503448e+001
    endloop
  endfacet
  facet normal -1.509345e-002 -9.416732e-001 -3.361902e-001
    outer loop
      vertex -3.000000e+000  4.763140e+000  1.725000e+001
      vertex  2.000000e+000  5.473968e+000  1.503448e+001
      vertex  2.000000e+000  4.574799e+000  1.755307e+001
    endloop
  endfacet
  facet normal  1.622272e-002 -7.070137e-001 -7.070137e-001
    outer loop
      vertex -3.000000e+000  4.763140e+000  1.725000e+001
      vertex  2.000000e+000  4.574799e+000  1.755307e+001
      vertex -3.000000e+000  2.750000e+000  1.926314e+001
    endloop
  endfacet
  facet normal -8.113185e-003  6.718486e-001 -7.406440e-001
    outer loop
      vertex  2.000000e+000 -4.574799e+000  1.755307e+001
      vertex -3.000000e+000 -2.750000e+000  1.926314e+001
      vertex  2.000000e+000 -2.594044e+000  1.934984e+001
    endloop
  endfacet
  facet normal  8.675679e-003  2.588093e-001 -9.658895e-001
    outer loop
      vertex  2.000000e+000 -2.594044e+000  1.934984e+001
      vertex -3.000000e+000 -2.750000e+000  1.926314e+001
      vertex -3.000000e+000  2.105713e-015  2.000000e+001
    endloop
  endfacet
  facet normal  2.663047e-017  2.431165e-001 -9.699971e-001
    outer loop
      vertex  2.000000e+000 -2.594044e+000  1.934984e+001
      vertex -3.000000e+000  2.105713e-015  2.000000e+001
      vertex  2.000000e+000  1.558023e-015  2.000000e+001
    endloop
  endfacet
  facet normal -2.835049e-017 -2.588191e-001 -9.659259e-001
    outer loop
      vertex  2.000000e+000  1.558023e-015  2.000000e+001
      vertex -3.000000e+000  2.105713e-015  2.000000e+001
      vertex -3.000000e+000  2.750000e+000  1.926314e+001
    endloop
  endfacet
  facet normal  9.235986e-003 -2.431062e-001 -9.699557e-001
    outer loop
      vertex  2.000000e+000  1.558023e-015  2.000000e+001
      vertex -3.000000e+000  2.750000e+000  1.926314e+001
      vertex  2.000000e+000  2.594044e+000  1.934984e+001
    endloop
  endfacet
  facet normal  0.000000e+000  9.417804e-001 -3.362285e-001
    outer loop
      vertex  2.000000e+000 -5.473968e+000  1.503448e+001
      vertex  0.000000e+000 -5.473968e+000  1.503448e+001
      vertex  2.000000e+000 -4.574799e+000  1.755307e+001
    endloop
  endfacet
  facet normal -1.592277e-002  9.455981e-001 -3.249472e-001
    outer loop
      vertex  2.000000e+000 -4.574799e+000  1.755307e+001
      vertex  0.000000e+000 -5.473968e+000  1.503448e+001
      vertex -3.000000e+000 -4.763140e+000  1.725000e+001
    endloop
  endfacet
  facet normal  1.968099e-001  9.792809e-001 -4.769584e-002
    outer loop
      vertex  0.000000e+000 -5.473968e+000  1.503448e+001
      vertex  0.000000e+000 -5.500000e+000  1.450000e+001
      vertex -3.000000e+000 -4.763140e+000  1.725000e+001
    endloop
  endfacet
  facet normal  0.000000e+000  9.659259e-001 -2.588191e-001
    outer loop
      vertex -3.000000e+000 -4.763140e+000  1.725000e+001
      vertex  0.000000e+000 -5.500000e+000  1.450000e+001
      vertex -3.000000e+000 -5.500000e+000  1.450000e+001
    endloop
  endfacet
  facet normal  -0.000000e+000  2.588191e-001  9.659259e-001
    outer loop
      vertex  0.000000e+000  3.874648e-015  9.000000e+000
      vertex -3.000000e+000 -2.750000e+000  9.736860e+000
      vertex  0.000000e+000 -2.750000e+000  9.736860e+000
    endloop
  endfacet
  facet normal  0.000000e+000  7.071068e-001  7.071068e-001
    outer loop
      vertex  0.000000e+000 -2.750000e+000  9.736860e+000
      vertex -3.000000e+000 -2.750000e+000  9.736860e+000
      vertex -3.000000e+000 -4.763140e+000  1.175000e+001
    endloop
  endfacet
  facet normal  -0.000000e+000  7.071068e-001  7.071068e-001
    outer loop
      vertex  0.000000e+000 -2.750000e+000  9.736860e+000
      vertex -3.000000e+000 -4.763140e+000  1.175000e+001
      vertex  0.000000e+000 -4.763140e+000  1.175000e+001
    endloop
  endfacet
  facet normal  0.000000e+000  9.659259e-001  2.588191e-001
    outer loop
      vertex  0.000000e+000 -4.763140e+000  1.175000e+001
      vertex -3.000000e+000 -4.763140e+000  1.175000e+001
      vertex -3.000000e+000 -5.500000e+000  1.450000e+001
    endloop
  endfacet
  facet normal  -0.000000e+000  9.659259e-001  2.588191e-001
    outer loop
      vertex  0.000000e+000 -4.763140e+000  1.175000e+001
      vertex -3.000000e+000 -5.500000e+000  1.450000e+001
      vertex  0.000000e+000 -5.500000e+000  1.450000e+001
    endloop
  endfacet
  facet normal  1.743291e-016  2.588191e-001  9.659259e-001
    outer loop
      vertex -3.000000e+000 -2.750000e+000  9.736860e+000
      vertex  0.000000e+000  3.874648e-015  9.000000e+000
      vertex -3.000000e+000  5.895315e-015  9.000000e+000
    endloop
  endfacet
  facet normal -1.743291e-016 -2.588191e-001  9.659259e-001
    outer loop
      vertex -3.000000e+000  5.895315e-015  9.000000e+000
      vertex  0.000000e+000  3.874648e-015  9.000000e+000
      vertex  0.000000e+000  2.750000e+000  9.736860e+000
    endloop
  endfacet
  facet normal  0.000000e+000 -2.588191e-001  9.659259e-001
    outer loop
      vertex -3.000000e+000  5.895315e-015  9.000000e+000
      vertex  0.000000e+000  2.750000e+000  9.736860e+000
      vertex -3.000000e+000  2.750000e+000  9.736860e+000
    endloop
  endfacet
  facet normal  0.000000e+000 -7.071068e-001  7.071068e-001
    outer loop
      vertex -3.000000e+000  2.750000e+000  9.736860e+000
      vertex  0.000000e+000  2.750000e+000  9.736860e+000
      vertex  0.000000e+000  4.763140e+000  1.175000e+001
    endloop
  endfacet
  facet normal  0.000000e+000 -7.071068e-001  7.071068e-001
    outer loop
      vertex -3.000000e+000  2.750000e+000  9.736860e+000
      vertex  0.000000e+000  4.763140e+000  1.175000e+001
      vertex -3.000000e+000  4.763140e+000  1.175000e+001
    endloop
  endfacet
  facet normal  0.000000e+000 -9.659259e-001  2.588191e-001
    outer loop
      vertex -3.000000e+000  4.763140e+000  1.175000e+001
      vertex  0.000000e+000  4.763140e+000  1.175000e+001
      vertex  0.000000e+000  5.500000e+000  1.450000e+001
    endloop
  endfacet
  facet normal  0.000000e+000 -9.659259e-001  2.588191e-001
    outer loop
      vertex -3.000000e+000  4.763140e+000  1.175000e+001
      vertex  0.000000e+000  5.500000e+000  1.450000e+001
      vertex -3.000000e+000  5.500000e+000  1.450000e+001
    endloop
  endfacet
  facet normal  4.186914e-016  7.071068e-001 -7.071068e-001
    outer loop
      vertex -4.440892e-016  0.000000e+000  8.485281e-001
      vertex -3.000000e+000  1.776357e-015  8.485281e-001
      vertex -4.440892e-016  8.061017e+000  8.909546e+000
    endloop
  endfacet
  facet normal  0.000000e+000  7.071068e-001 -7.071068e-001
    outer loop
      vertex -4.440892e-016  8.061017e+000  8.909546e+000
      vertex -3.000000e+000  1.776357e-015  8.485281e-001
      vertex -3.000000e+000  8.061017e+000  8.909546e+000
    endloop
  endfacet
  facet normal  0.000000e+000 -7.071068e-001 -7.071068e-001
    outer loop
      vertex -3.000000e+000  8.061017e+000  8.909546e+000
      vertex -3.000000e+000  8.909546e+000  8.061017e+000
      vertex -4.440892e-016  8.061017e+000  8.909546e+000
    endloop
  endfacet
  facet normal  0.000000e+000 -7.071068e-001 -7.071068e-001
    outer loop
      vertex -4.440892e-016  8.061017e+000  8.909546e+000
      vertex -3.000000e+000  8.909546e+000  8.061017e+000
      vertex  0.000000e+000  8.909546e+000  8.061017e+000
    endloop
  endfacet
  facet normal  0.000000e+000 -7.071068e-001 -7.071068e-001
    outer loop
      vertex  0.000000e+000  8.485281e+000 -8.485281e+000
      vertex -3.000000e+000  8.485281e+000 -8.485281e+000
      vertex  0.000000e+000  1.131371e+001 -1.131371e+001
    endloop
  endfacet
  facet normal  0.000000e+000 -7.071068e-001 -7.071068e-001
    outer loop
      vertex  0.000000e+000  1.131371e+001 -1.131371e+001
      vertex -3.000000e+000  8.485281e+000 -8.485281e+000
      vertex -3.000000e+000  1.520280e+001 -1.520280e+001
    endloop
  endfacet
  facet normal  0.000000e+000 -7.071068e-001 -7.071068e-001
    outer loop
      vertex  0.000000e+000  1.131371e+001 -1.131371e+001
      vertex -3.000000e+000  1.520280e+001 -1.520280e+001
      vertex  2.000000e+000  1.131371e+001 -1.131371e+001
    endloop
  endfacet
  facet normal  0.000000e+000 -7.071068e-001 -7.071068e-001
    outer loop
      vertex  2.000000e+000  1.131371e+001 -1.131371e+001
      vertex -3.000000e+000  1.520280e+001 -1.520280e+001
      vertex  2.000000e+000  1.520280e+001 -1.520280e+001
    endloop
  endfacet
  facet normal  0.000000e+000 -7.071068e-001  7.071068e-001
    outer loop
      vertex  0.000000e+000  8.485281e-001  0.000000e+000
      vertex  0.000000e+000  8.909546e+000  8.061017e+000
      vertex -3.000000e+000  8.485281e-001  1.776357e-015
    endloop
  endfacet
  facet normal  0.000000e+000 -7.071068e-001  7.071068e-001
    outer loop
      vertex -3.000000e+000  8.485281e-001  1.776357e-015
      vertex  0.000000e+000  8.909546e+000  8.061017e+000
      vertex -3.000000e+000  8.909546e+000  8.061017e+000
    endloop
  endfacet
  facet normal -4.186914e-016 -7.071068e-001 -7.071068e-001
    outer loop
      vertex  0.000000e+000  8.485281e-001  0.000000e+000
      vertex -3.000000e+000  8.485281e-001  1.776357e-015
      vertex  0.000000e+000  8.909546e+000 -8.061017e+000
    endloop
  endfacet
  facet normal  -0.000000e+000 -7.071068e-001 -7.071068e-001
    outer loop
      vertex  0.000000e+000  8.909546e+000 -8.061017e+000
      vertex -3.000000e+000  8.485281e-001  1.776357e-015
      vertex -3.000000e+000  8.909546e+000 -8.061017e+000
    endloop
  endfacet
  facet normal  0.000000e+000 -7.071060e-001  7.071076e-001
    outer loop
      vertex -3.000000e+000  8.485281e+000 -8.485281e+000
      vertex  0.000000e+000  8.485281e+000 -8.485281e+000
      vertex -3.000000e+000  8.909546e+000 -8.061017e+000
    endloop
  endfacet
  facet normal  0.000000e+000 -7.071060e-001  7.071076e-001
    outer loop
      vertex -3.000000e+000  8.909546e+000 -8.061017e+000
      vertex  0.000000e+000  8.485281e+000 -8.485281e+000
      vertex  0.000000e+000  8.909546e+000 -8.061017e+000
    endloop
  endfacet
  facet normal  -0.000000e+000 -7.071068e-001 -7.071068e-001
    outer loop
      vertex -3.000000e+000 -8.485281e+000  8.485281e+000
      vertex  0.000000e+000 -8.485281e+000  8.485281e+000
      vertex -3.000000e+000 -1.520280e+001  1.520280e+001
    endloop
  endfacet
  facet normal  0.000000e+000 -7.071068e-001 -7.071068e-001
    outer loop
      vertex -3.000000e+000 -1.520280e+001  1.520280e+001
      vertex  0.000000e+000 -8.485281e+000  8.485281e+000
      vertex  0.000000e+000 -1.131371e+001  1.131371e+001
    endloop
  endfacet
  facet normal  0.000000e+000 -7.071068e-001 -7.071068e-001
    outer loop
      vertex -3.000000e+000 -1.520280e+001  1.520280e+001
      vertex  0.000000e+000 -1.131371e+001  1.131371e+001
      vertex  2.000000e+000 -1.520280e+001  1.520280e+001
    endloop
  endfacet
  facet normal  0.000000e+000 -7.071068e-001 -7.071068e-001
    outer loop
      vertex  2.000000e+000 -1.520280e+001  1.520280e+001
      vertex  0.000000e+000 -1.131371e+001  1.131371e+001
      vertex  2.000000e+000 -1.131371e+001  1.131371e+001
    endloop
  endfacet
  facet normal  0.000000e+000  7.071076e-001 -7.071060e-001
    outer loop
      vertex -3.000000e+000 -8.485281e+000  8.485281e+000
      vertex -3.000000e+000 -8.061017e+000  8.909546e+000
      vertex  0.000000e+000 -8.485281e+000  8.485281e+000
    endloop
  endfacet
  facet normal  0.000000e+000  7.071076e-001 -7.071060e-001
    outer loop
      vertex  0.000000e+000 -8.485281e+000  8.485281e+000
      vertex -3.000000e+000 -8.061017e+000  8.909546e+000
      vertex -4.440892e-016 -8.061017e+000  8.909546e+000
    endloop
  endfacet
  facet normal  0.000000e+000 -7.071068e-001 -7.071068e-001
    outer loop
      vertex -4.440892e-016 -8.061017e+000  8.909546e+000
      vertex -3.000000e+000 -8.061017e+000  8.909546e+000
      vertex -4.440892e-016  0.000000e+000  8.485281e-001
    endloop
  endfacet
  facet normal -4.186914e-016 -7.071068e-001 -7.071068e-001
    outer loop
      vertex -4.440892e-016  0.000000e+000  8.485281e-001
      vertex -3.000000e+000 -8.061017e+000  8.909546e+000
      vertex -3.000000e+000  1.776357e-015  8.485281e-001
    endloop
  endfacet
  facet normal  0.000000e+000 -6.087614e-001  7.933533e-001
    outer loop
      vertex -3.000000e+000 -1.520280e+001  1.520280e+001
      vertex  2.000000e+000 -1.520280e+001  1.520280e+001
      vertex -3.000000e+000 -1.075000e+001  1.861955e+001
    endloop
  endfacet
  facet normal  0.000000e+000 -6.087614e-001  7.933533e-001
    outer loop
      vertex -3.000000e+000 -1.075000e+001  1.861955e+001
      vertex  2.000000e+000 -1.520280e+001  1.520280e+001
      vertex  2.000000e+000 -1.075000e+001  1.861955e+001
    endloop
  endfacet
  facet normal  0.000000e+000 -3.826832e-001  9.238796e-001
    outer loop
      vertex -3.000000e+000 -1.075000e+001  1.861955e+001
      vertex  2.000000e+000 -1.075000e+001  1.861955e+001
      vertex -3.000000e+000 -5.564610e+000  2.076740e+001
    endloop
  endfacet
  facet normal  0.000000e+000 -3.826832e-001  9.238796e-001
    outer loop
      vertex -3.000000e+000 -5.564610e+000  2.076740e+001
      vertex  2.000000e+000 -1.075000e+001  1.861955e+001
      vertex  2.000000e+000 -5.564610e+000  2.076740e+001
    endloop
  endfacet
  facet normal  0.000000e+000 -1.305263e-001  9.914448e-001
    outer loop
      vertex -3.000000e+000 -5.564610e+000  2.076740e+001
      vertex  2.000000e+000 -5.564610e+000  2.076740e+001
      vertex -3.000000e+000  6.582476e-015  2.150000e+001
    endloop
  endfacet
  facet normal  0.000000e+000 -1.305263e-001  9.914448e-001
    outer loop
      vertex -3.000000e+000  6.582476e-015  2.150000e+001
      vertex  2.000000e+000 -5.564610e+000  2.076740e+001
      vertex  2.000000e+000  6.582476e-015  2.150000e+001
    endloop
  endfacet
  facet normal  0.000000e+000  1.305263e-001  9.914448e-001
    outer loop
      vertex -3.000000e+000  6.582476e-015  2.150000e+001
      vertex  2.000000e+000  6.582476e-015  2.150000e+001
      vertex -3.000000e+000  5.564610e+000  2.076740e+001
    endloop
  endfacet
  facet normal  -0.000000e+000  1.305263e-001  9.914448e-001
    outer loop
      vertex -3.000000e+000  5.564610e+000  2.076740e+001
      vertex  2.000000e+000  6.582476e-015  2.150000e+001
      vertex  2.000000e+000  5.564610e+000  2.076740e+001
    endloop
  endfacet
  facet normal  0.000000e+000  3.826832e-001  9.238796e-001
    outer loop
      vertex -3.000000e+000  5.564610e+000  2.076740e+001
      vertex  2.000000e+000  5.564610e+000  2.076740e+001
      vertex -3.000000e+000  1.075000e+001  1.861955e+001
    endloop
  endfacet
  facet normal  -0.000000e+000  3.826832e-001  9.238796e-001
    outer loop
      vertex -3.000000e+000  1.075000e+001  1.861955e+001
      vertex  2.000000e+000  5.564610e+000  2.076740e+001
      vertex  2.000000e+000  1.075000e+001  1.861955e+001
    endloop
  endfacet
  facet normal  0.000000e+000  6.087614e-001  7.933533e-001
    outer loop
      vertex -3.000000e+000  1.075000e+001  1.861955e+001
      vertex  2.000000e+000  1.075000e+001  1.861955e+001
      vertex -3.000000e+000  1.520280e+001  1.520280e+001
    endloop
  endfacet
  facet normal  -0.000000e+000  6.087614e-001  7.933533e-001
    outer loop
      vertex -3.000000e+000  1.520280e+001  1.520280e+001
      vertex  2.000000e+000  1.075000e+001  1.861955e+001
      vertex  2.000000e+000  1.520280e+001  1.520280e+001
    endloop
  endfacet
  facet normal  0.000000e+000  7.933533e-001  6.087614e-001
    outer loop
      vertex -3.000000e+000  1.520280e+001  1.520280e+001
      vertex  2.000000e+000  1.520280e+001  1.520280e+001
      vertex -3.000000e+000  1.861955e+001  1.075000e+001
    endloop
  endfacet
  facet normal  -0.000000e+000  7.933533e-001  6.087614e-001
    outer loop
      vertex -3.000000e+000  1.861955e+001  1.075000e+001
      vertex  2.000000e+000  1.520280e+001  1.520280e+001
      vertex  2.000000e+000  1.861955e+001  1.075000e+001
    endloop
  endfacet
  facet normal  0.000000e+000  9.238796e-001  3.826832e-001
    outer loop
      vertex -3.000000e+000  1.861955e+001  1.075000e+001
      vertex  2.000000e+000  1.861955e+001  1.075000e+001
      vertex -3.000000e+000  2.076740e+001  5.564610e+000
    endloop
  endfacet
  facet normal  -0.000000e+000  9.238796e-001  3.826832e-001
    outer loop
      vertex -3.000000e+000  2.076740e+001  5.564610e+000
      vertex  2.000000e+000  1.861955e+001  1.075000e+001
      vertex  2.000000e+000  2.076740e+001  5.564610e+000
    endloop
  endfacet
  facet normal  0.000000e+000  9.914448e-001  1.305263e-001
    outer loop
      vertex -3.000000e+000  2.076740e+001  5.564610e+000
      vertex  2.000000e+000  2.076740e+001  5.564610e+000
      vertex -3.000000e+000  2.150000e+001 -5.265981e-015
    endloop
  endfacet
  facet normal  -0.000000e+000  9.914448e-001  1.305263e-001
    outer loop
      vertex -3.000000e+000  2.150000e+001 -5.265981e-015
      vertex  2.000000e+000  2.076740e+001  5.564610e+000
      vertex  2.000000e+000  2.150000e+001 -5.265981e-015
    endloop
  endfacet
  facet normal  0.000000e+000  9.914448e-001 -1.305263e-001
    outer loop
      vertex -3.000000e+000  2.150000e+001 -5.265981e-015
      vertex  2.000000e+000  2.150000e+001 -5.265981e-015
      vertex -3.000000e+000  2.076740e+001 -5.564610e+000
    endloop
  endfacet
  facet normal  0.000000e+000  9.914448e-001 -1.305263e-001
    outer loop
      vertex -3.000000e+000  2.076740e+001 -5.564610e+000
      vertex  2.000000e+000  2.150000e+001 -5.265981e-015
      vertex  2.000000e+000  2.076740e+001 -5.564610e+000
    endloop
  endfacet
  facet normal  0.000000e+000  9.238796e-001 -3.826832e-001
    outer loop
      vertex -3.000000e+000  2.076740e+001 -5.564610e+000
      vertex  2.000000e+000  2.076740e+001 -5.564610e+000
      vertex -3.000000e+000  1.861955e+001 -1.075000e+001
    endloop
  endfacet
  facet normal  0.000000e+000  9.238796e-001 -3.826832e-001
    outer loop
      vertex -3.000000e+000  1.861955e+001 -1.075000e+001
      vertex  2.000000e+000  2.076740e+001 -5.564610e+000
      vertex  2.000000e+000  1.861955e+001 -1.075000e+001
    endloop
  endfacet
  facet normal  0.000000e+000  7.933533e-001 -6.087614e-001
    outer loop
      vertex -3.000000e+000  1.861955e+001 -1.075000e+001
      vertex  2.000000e+000  1.861955e+001 -1.075000e+001
      vertex -3.000000e+000  1.520280e+001 -1.520280e+001
    endloop
  endfacet
  facet normal  0.000000e+000  7.933533e-001 -6.087614e-001
    outer loop
      vertex -3.000000e+000  1.520280e+001 -1.520280e+001
      vertex  2.000000e+000  1.861955e+001 -1.075000e+001
      vertex  2.000000e+000  1.520280e+001 -1.520280e+001
    endloop
  endfacet
endsolid CATIA STL
