solid CATIA STL
  facet normal -1.000000e+000  0.000000e+000  0.000000e+000
    outer loop
      vertex  0.000000e+000 -2.337915e+001 -1.010419e+001
      vertex  0.000000e+000 -2.457689e+001 -8.431889e+000
      vertex  0.000000e+000 -2.500000e+001 -6.418901e+000
    endloop
  endfacet
  facet normal -1.000000e+000  0.000000e+000  0.000000e+000
    outer loop
      vertex  0.000000e+000  2.000000e+001  4.330127e+000
      vertex  0.000000e+000  1.625000e+001  2.165064e+000
      vertex  0.000000e+000  1.474138e+001  4.789763e+000
    endloop
  endfacet
  facet normal -1.000000e+000  0.000000e+000  0.000000e+000
    outer loop
      vertex  0.000000e+000  2.000000e+001  4.330127e+000
      vertex  0.000000e+000  1.474138e+001  4.789763e+000
      vertex  0.000000e+000  1.253976e+001  9.110671e+000
    endloop
  endfacet
  facet normal -1.000000e+000  0.000000e+000  0.000000e+000
    outer loop
      vertex  0.000000e+000  2.000000e+001  4.330127e+000
      vertex  0.000000e+000  1.253976e+001  9.110671e+000
      vertex  0.000000e+000  9.110671e+000  1.253976e+001
    endloop
  endfacet
  facet normal -1.000000e+000  0.000000e+000  0.000000e+000
    outer loop
      vertex  0.000000e+000  2.000000e+001  4.330127e+000
      vertex  0.000000e+000  9.110671e+000  1.253976e+001
      vertex  0.000000e+000  3.219027e+000  1.740553e+001
    endloop
  endfacet
  facet normal -9.999999e-001  0.000000e+000  0.000000e+000
    outer loop
      vertex  0.000000e+000  2.000000e+001  4.330127e+000
      vertex  0.000000e+000  3.219027e+000  1.740553e+001
      vertex  0.000000e+000  2.160951e+001  1.115277e+001
    endloop
  endfacet
  facet normal -9.999999e-001  0.000000e+000  -0.000000e+000
    outer loop
      vertex  0.000000e+000  2.000000e+001  4.330127e+000
      vertex  0.000000e+000  2.160951e+001  1.115277e+001
      vertex  0.000000e+000  2.337915e+001  1.010419e+001
    endloop
  endfacet
  facet normal -1.000000e+000  0.000000e+000  -0.000000e+000
    outer loop
      vertex  0.000000e+000  2.000000e+001  4.330127e+000
      vertex  0.000000e+000  2.337915e+001  1.010419e+001
      vertex  0.000000e+000  2.457689e+001  8.431889e+000
    endloop
  endfacet
  facet normal -1.000000e+000  0.000000e+000  -0.000000e+000
    outer loop
      vertex  0.000000e+000  2.000000e+001  4.330127e+000
      vertex  0.000000e+000  2.457689e+001  8.431889e+000
      vertex  0.000000e+000  2.500000e+001  6.418901e+000
    endloop
  endfacet
  facet normal -1.000000e+000  0.000000e+000  0.000000e+000
    outer loop
      vertex  0.000000e+000  2.000000e+001  4.330127e+000
      vertex  0.000000e+000  2.500000e+001  6.418901e+000
      vertex  0.000000e+000  2.375000e+001  2.165064e+000
    endloop
  endfacet
  facet normal -1.000000e+000  0.000000e+000  -0.000000e+000
    outer loop
      vertex  0.000000e+000  2.000000e+001 -4.330127e+000
      vertex  0.000000e+000  2.375000e+001 -2.165064e+000
      vertex  0.000000e+000  2.500000e+001 -6.418901e+000
    endloop
  endfacet
  facet normal -1.000000e+000  -0.000000e+000  0.000000e+000
    outer loop
      vertex  0.000000e+000  2.000000e+001 -4.330127e+000
      vertex  0.000000e+000  2.500000e+001 -6.418901e+000
      vertex  0.000000e+000  2.457689e+001 -8.431889e+000
    endloop
  endfacet
  facet normal -1.000000e+000  -0.000000e+000  0.000000e+000
    outer loop
      vertex  0.000000e+000  2.000000e+001 -4.330127e+000
      vertex  0.000000e+000  2.457689e+001 -8.431889e+000
      vertex  0.000000e+000  2.337915e+001 -1.010419e+001
    endloop
  endfacet
  facet normal -9.999999e-001  -0.000000e+000  0.000000e+000
    outer loop
      vertex  0.000000e+000  2.000000e+001 -4.330127e+000
      vertex  0.000000e+000  2.337915e+001 -1.010419e+001
      vertex  0.000000e+000  2.160951e+001 -1.115277e+001
    endloop
  endfacet
  facet normal -9.999999e-001  -0.000000e+000  0.000000e+000
    outer loop
      vertex  0.000000e+000  2.000000e+001 -4.330127e+000
      vertex  0.000000e+000  2.160951e+001 -1.115277e+001
      vertex  0.000000e+000  3.219027e+000 -1.740553e+001
    endloop
  endfacet
  facet normal -1.000000e+000  0.000000e+000  0.000000e+000
    outer loop
      vertex  0.000000e+000  2.000000e+001 -4.330127e+000
      vertex  0.000000e+000  3.219027e+000 -1.740553e+001
      vertex  0.000000e+000  9.110671e+000 -1.253976e+001
    endloop
  endfacet
  facet normal -1.000000e+000  0.000000e+000  0.000000e+000
    outer loop
      vertex  0.000000e+000  2.000000e+001 -4.330127e+000
      vertex  0.000000e+000  9.110671e+000 -1.253976e+001
      vertex  0.000000e+000  1.253976e+001 -9.110671e+000
    endloop
  endfacet
  facet normal -1.000000e+000  0.000000e+000  0.000000e+000
    outer loop
      vertex  0.000000e+000  2.000000e+001 -4.330127e+000
      vertex  0.000000e+000  1.253976e+001 -9.110671e+000
      vertex  0.000000e+000  1.474138e+001 -4.789763e+000
    endloop
  endfacet
  facet normal -1.000000e+000  0.000000e+000  0.000000e+000
    outer loop
      vertex  0.000000e+000  2.000000e+001 -4.330127e+000
      vertex  0.000000e+000  1.474138e+001 -4.789763e+000
      vertex  0.000000e+000  1.625000e+001 -2.165064e+000
    endloop
  endfacet
  facet normal -1.000000e+000  0.000000e+000  0.000000e+000
    outer loop
      vertex  0.000000e+000 -1.625000e+001 -2.165064e+000
      vertex  0.000000e+000 -1.625000e+001  2.165064e+000
      vertex  0.000000e+000 -1.474138e+001  4.789763e+000
    endloop
  endfacet
  facet normal -9.999999e-001  0.000000e+000  0.000000e+000
    outer loop
      vertex  0.000000e+000 -1.625000e+001 -2.165064e+000
      vertex  0.000000e+000 -1.474138e+001  4.789763e+000
      vertex  0.000000e+000 -1.550000e+001 -1.898203e-015
    endloop
  endfacet
  facet normal -1.000000e+000  0.000000e+000  -0.000000e+000
    outer loop
      vertex  0.000000e+000 -1.625000e+001 -2.165064e+000
      vertex  0.000000e+000 -1.550000e+001 -1.898203e-015
      vertex  0.000000e+000 -1.474138e+001 -4.789763e+000
    endloop
  endfacet
  facet normal -1.000000e+000  0.000000e+000  0.000000e+000
    outer loop
      vertex  0.000000e+000 -1.625000e+001 -2.165064e+000
      vertex  0.000000e+000 -1.474138e+001 -4.789763e+000
      vertex  0.000000e+000 -2.000000e+001 -4.330127e+000
    endloop
  endfacet
  facet normal -1.000000e+000  0.000000e+000  0.000000e+000
    outer loop
      vertex  0.000000e+000 -3.219027e+000 -1.740553e+001
      vertex  0.000000e+000 -2.160951e+001 -1.115277e+001
      vertex  0.000000e+000 -9.110671e+000 -1.253976e+001
    endloop
  endfacet
  facet normal -1.000000e+000  0.000000e+000  0.000000e+000
    outer loop
      vertex  0.000000e+000 -3.219027e+000 -1.740553e+001
      vertex  0.000000e+000 -9.110671e+000 -1.253976e+001
      vertex  0.000000e+000 -4.789763e+000 -1.474138e+001
    endloop
  endfacet
  facet normal -1.000000e+000  0.000000e+000  0.000000e+000
    outer loop
      vertex  0.000000e+000 -3.219027e+000 -1.740553e+001
      vertex  0.000000e+000 -4.789763e+000 -1.474138e+001
      vertex  0.000000e+000  9.491013e-016 -1.550000e+001
    endloop
  endfacet
  facet normal -1.000000e+000  0.000000e+000  0.000000e+000
    outer loop
      vertex  0.000000e+000 -3.219027e+000 -1.740553e+001
      vertex  0.000000e+000  9.491013e-016 -1.550000e+001
      vertex  0.000000e+000 -1.836970e-015 -1.793780e+001
    endloop
  endfacet
  facet normal -1.000000e+000  0.000000e+000  0.000000e+000
    outer loop
      vertex  0.000000e+000 -2.160951e+001 -1.115277e+001
      vertex  0.000000e+000 -2.337915e+001 -1.010419e+001
      vertex  0.000000e+000 -2.500000e+001 -6.418901e+000
    endloop
  endfacet
  facet normal -1.000000e+000  0.000000e+000  0.000000e+000
    outer loop
      vertex  0.000000e+000 -2.160951e+001 -1.115277e+001
      vertex  0.000000e+000 -2.500000e+001 -6.418901e+000
      vertex  0.000000e+000 -2.000000e+001 -4.330127e+000
    endloop
  endfacet
  facet normal -1.000000e+000  0.000000e+000  -0.000000e+000
    outer loop
      vertex  0.000000e+000 -2.160951e+001 -1.115277e+001
      vertex  0.000000e+000 -2.000000e+001 -4.330127e+000
      vertex  0.000000e+000 -1.474138e+001 -4.789763e+000
    endloop
  endfacet
  facet normal -1.000000e+000  0.000000e+000  -0.000000e+000
    outer loop
      vertex  0.000000e+000 -2.160951e+001 -1.115277e+001
      vertex  0.000000e+000 -1.474138e+001 -4.789763e+000
      vertex  0.000000e+000 -1.253976e+001 -9.110671e+000
    endloop
  endfacet
  facet normal -1.000000e+000  0.000000e+000  -0.000000e+000
    outer loop
      vertex  0.000000e+000 -2.160951e+001 -1.115277e+001
      vertex  0.000000e+000 -1.253976e+001 -9.110671e+000
      vertex  0.000000e+000 -9.110671e+000 -1.253976e+001
    endloop
  endfacet
  facet normal -1.000000e+000  0.000000e+000  0.000000e+000
    outer loop
      vertex  0.000000e+000 -2.160951e+001  1.115277e+001
      vertex  0.000000e+000 -3.219027e+000  1.740553e+001
      vertex  0.000000e+000 -4.789763e+000  1.474138e+001
    endloop
  endfacet
  facet normal -1.000000e+000  0.000000e+000  0.000000e+000
    outer loop
      vertex  0.000000e+000 -2.160951e+001  1.115277e+001
      vertex  0.000000e+000 -4.789763e+000  1.474138e+001
      vertex  0.000000e+000 -9.110671e+000  1.253976e+001
    endloop
  endfacet
  facet normal -1.000000e+000  0.000000e+000  0.000000e+000
    outer loop
      vertex  0.000000e+000 -2.160951e+001  1.115277e+001
      vertex  0.000000e+000 -9.110671e+000  1.253976e+001
      vertex  0.000000e+000 -1.253976e+001  9.110671e+000
    endloop
  endfacet
  facet normal -9.999999e-001  -0.000000e+000  0.000000e+000
    outer loop
      vertex  0.000000e+000 -2.160951e+001  1.115277e+001
      vertex  0.000000e+000 -1.253976e+001  9.110671e+000
      vertex  0.000000e+000 -2.000000e+001  4.330127e+000
    endloop
  endfacet
  facet normal -1.000000e+000  0.000000e+000  0.000000e+000
    outer loop
      vertex  0.000000e+000 -2.000000e+001  4.330127e+000
      vertex  0.000000e+000 -2.375000e+001  2.165064e+000
      vertex  0.000000e+000 -2.500000e+001  6.418901e+000
    endloop
  endfacet
  facet normal -1.000000e+000  0.000000e+000  0.000000e+000
    outer loop
      vertex  0.000000e+000 -2.000000e+001  4.330127e+000
      vertex  0.000000e+000 -2.500000e+001  6.418901e+000
      vertex  0.000000e+000 -2.457689e+001  8.431889e+000
    endloop
  endfacet
  facet normal -1.000000e+000  0.000000e+000  0.000000e+000
    outer loop
      vertex  0.000000e+000 -2.000000e+001  4.330127e+000
      vertex  0.000000e+000 -2.457689e+001  8.431889e+000
      vertex  0.000000e+000 -2.337915e+001  1.010419e+001
    endloop
  endfacet
  facet normal -9.999999e-001  0.000000e+000  0.000000e+000
    outer loop
      vertex  0.000000e+000 -2.000000e+001  4.330127e+000
      vertex  0.000000e+000 -2.337915e+001  1.010419e+001
      vertex  0.000000e+000 -2.160951e+001  1.115277e+001
    endloop
  endfacet
  facet normal -1.000000e+000  0.000000e+000  0.000000e+000
    outer loop
      vertex  0.000000e+000  9.110671e+000  1.253976e+001
      vertex  0.000000e+000  4.789763e+000  1.474138e+001
      vertex  0.000000e+000  3.219027e+000  1.740553e+001
    endloop
  endfacet
  facet normal -1.000000e+000  0.000000e+000  -0.000000e+000
    outer loop
      vertex  0.000000e+000  3.219027e+000  1.740553e+001
      vertex  0.000000e+000  4.789763e+000  1.474138e+001
      vertex  0.000000e+000  9.491013e-016  1.550000e+001
    endloop
  endfacet
  facet normal -1.000000e+000  0.000000e+000  0.000000e+000
    outer loop
      vertex  0.000000e+000  3.219027e+000  1.740553e+001
      vertex  0.000000e+000  9.491013e-016  1.550000e+001
      vertex  0.000000e+000  2.832769e-015  1.793780e+001
    endloop
  endfacet
  facet normal -1.000000e+000  0.000000e+000  0.000000e+000
    outer loop
      vertex  0.000000e+000  2.832769e-015  1.793780e+001
      vertex  0.000000e+000  9.491013e-016  1.550000e+001
      vertex  0.000000e+000 -4.789763e+000  1.474138e+001
    endloop
  endfacet
  facet normal -1.000000e+000  0.000000e+000  0.000000e+000
    outer loop
      vertex  0.000000e+000  2.832769e-015  1.793780e+001
      vertex  0.000000e+000 -4.789763e+000  1.474138e+001
      vertex  0.000000e+000 -3.219027e+000  1.740553e+001
    endloop
  endfacet
  facet normal -1.000000e+000  -0.000000e+000  0.000000e+000
    outer loop
      vertex  0.000000e+000 -1.253976e+001  9.110671e+000
      vertex  0.000000e+000 -1.474138e+001  4.789763e+000
      vertex  0.000000e+000 -2.000000e+001  4.330127e+000
    endloop
  endfacet
  facet normal -1.000000e+000  0.000000e+000  0.000000e+000
    outer loop
      vertex  0.000000e+000 -2.000000e+001  4.330127e+000
      vertex  0.000000e+000 -1.474138e+001  4.789763e+000
      vertex  0.000000e+000 -1.625000e+001  2.165064e+000
    endloop
  endfacet
  facet normal -1.000000e+000  0.000000e+000  0.000000e+000
    outer loop
      vertex  0.000000e+000 -2.000000e+001 -4.330127e+000
      vertex  0.000000e+000 -2.500000e+001 -6.418901e+000
      vertex  0.000000e+000 -2.375000e+001 -2.165064e+000
    endloop
  endfacet
  facet normal -1.000000e+000  -0.000000e+000  0.000000e+000
    outer loop
      vertex  0.000000e+000 -2.375000e+001 -2.165064e+000
      vertex  0.000000e+000 -2.500000e+001 -6.418901e+000
      vertex  0.000000e+000 -2.500000e+001  6.418901e+000
    endloop
  endfacet
  facet normal -1.000000e+000  0.000000e+000  0.000000e+000
    outer loop
      vertex  0.000000e+000 -2.375000e+001 -2.165064e+000
      vertex  0.000000e+000 -2.500000e+001  6.418901e+000
      vertex  0.000000e+000 -2.375000e+001  2.165064e+000
    endloop
  endfacet
  facet normal -1.000000e+000  0.000000e+000  -0.000000e+000
    outer loop
      vertex  0.000000e+000  1.474138e+001 -4.789763e+000
      vertex  0.000000e+000  1.550000e+001  0.000000e+000
      vertex  0.000000e+000  1.625000e+001 -2.165064e+000
    endloop
  endfacet
  facet normal -1.000000e+000  0.000000e+000  0.000000e+000
    outer loop
      vertex  0.000000e+000  1.625000e+001 -2.165064e+000
      vertex  0.000000e+000  1.550000e+001  0.000000e+000
      vertex  0.000000e+000  1.474138e+001  4.789763e+000
    endloop
  endfacet
  facet normal -1.000000e+000  0.000000e+000  0.000000e+000
    outer loop
      vertex  0.000000e+000  1.625000e+001 -2.165064e+000
      vertex  0.000000e+000  1.474138e+001  4.789763e+000
      vertex  0.000000e+000  1.625000e+001  2.165064e+000
    endloop
  endfacet
  facet normal -1.000000e+000  0.000000e+000  0.000000e+000
    outer loop
      vertex  0.000000e+000  9.110671e+000 -1.253976e+001
      vertex  0.000000e+000  3.219027e+000 -1.740553e+001
      vertex  0.000000e+000  4.789763e+000 -1.474138e+001
    endloop
  endfacet
  facet normal -1.000000e+000  0.000000e+000  0.000000e+000
    outer loop
      vertex  0.000000e+000  4.789763e+000 -1.474138e+001
      vertex  0.000000e+000  3.219027e+000 -1.740553e+001
      vertex  0.000000e+000 -1.836970e-015 -1.793780e+001
    endloop
  endfacet
  facet normal -1.000000e+000  0.000000e+000  0.000000e+000
    outer loop
      vertex  0.000000e+000  4.789763e+000 -1.474138e+001
      vertex  0.000000e+000 -1.836970e-015 -1.793780e+001
      vertex  0.000000e+000  9.491013e-016 -1.550000e+001
    endloop
  endfacet
  facet normal -1.000000e+000  0.000000e+000  0.000000e+000
    outer loop
      vertex  0.000000e+000  2.375000e+001 -2.165064e+000
      vertex  0.000000e+000  2.375000e+001  2.165064e+000
      vertex  0.000000e+000  2.500000e+001 -6.418901e+000
    endloop
  endfacet
  facet normal -1.000000e+000  0.000000e+000  0.000000e+000
    outer loop
      vertex  0.000000e+000  2.500000e+001 -6.418901e+000
      vertex  0.000000e+000  2.375000e+001  2.165064e+000
      vertex  0.000000e+000  2.500000e+001  6.418901e+000
    endloop
  endfacet
  facet normal  1.000000e+000  -0.000000e+000  -0.000000e+000
    outer loop
      vertex  4.000000e+000 -2.500000e+001 -6.418901e+000
      vertex  4.000000e+000 -2.457689e+001 -8.431889e+000
      vertex  4.000000e+000 -2.337915e+001 -1.010419e+001
    endloop
  endfacet
  facet normal  1.000000e+000  0.000000e+000  -0.000000e+000
    outer loop
      vertex  4.000000e+000  2.000000e+001  4.330127e+000
      vertex  4.000000e+000  2.375000e+001  2.165064e+000
      vertex  4.000000e+000  2.500000e+001  6.418901e+000
    endloop
  endfacet
  facet normal  1.000000e+000  0.000000e+000  0.000000e+000
    outer loop
      vertex  4.000000e+000  2.000000e+001  4.330127e+000
      vertex  4.000000e+000  2.500000e+001  6.418901e+000
      vertex  4.000000e+000  2.457689e+001  8.431889e+000
    endloop
  endfacet
  facet normal  1.000000e+000  0.000000e+000  0.000000e+000
    outer loop
      vertex  4.000000e+000  2.000000e+001  4.330127e+000
      vertex  4.000000e+000  2.457689e+001  8.431889e+000
      vertex  4.000000e+000  2.337915e+001  1.010419e+001
    endloop
  endfacet
  facet normal  9.999999e-001  0.000000e+000  0.000000e+000
    outer loop
      vertex  4.000000e+000  2.000000e+001  4.330127e+000
      vertex  4.000000e+000  2.337915e+001  1.010419e+001
      vertex  4.000000e+000  2.160951e+001  1.115277e+001
    endloop
  endfacet
  facet normal  9.999999e-001  0.000000e+000  0.000000e+000
    outer loop
      vertex  4.000000e+000  2.000000e+001  4.330127e+000
      vertex  4.000000e+000  2.160951e+001  1.115277e+001
      vertex  4.000000e+000  3.219027e+000  1.740553e+001
    endloop
  endfacet
  facet normal  1.000000e+000  0.000000e+000  0.000000e+000
    outer loop
      vertex  4.000000e+000  2.000000e+001  4.330127e+000
      vertex  4.000000e+000  3.219027e+000  1.740553e+001
      vertex  4.000000e+000  9.110671e+000  1.253976e+001
    endloop
  endfacet
  facet normal  1.000000e+000  0.000000e+000  0.000000e+000
    outer loop
      vertex  4.000000e+000  2.000000e+001  4.330127e+000
      vertex  4.000000e+000  9.110671e+000  1.253976e+001
      vertex  4.000000e+000  1.253976e+001  9.110671e+000
    endloop
  endfacet
  facet normal  1.000000e+000  0.000000e+000  0.000000e+000
    outer loop
      vertex  4.000000e+000  2.000000e+001  4.330127e+000
      vertex  4.000000e+000  1.253976e+001  9.110671e+000
      vertex  4.000000e+000  1.474138e+001  4.789763e+000
    endloop
  endfacet
  facet normal  1.000000e+000  0.000000e+000  0.000000e+000
    outer loop
      vertex  4.000000e+000  2.000000e+001  4.330127e+000
      vertex  4.000000e+000  1.474138e+001  4.789763e+000
      vertex  4.000000e+000  1.625000e+001  2.165064e+000
    endloop
  endfacet
  facet normal  1.000000e+000  0.000000e+000  0.000000e+000
    outer loop
      vertex  4.000000e+000  2.000000e+001 -4.330127e+000
      vertex  4.000000e+000  1.625000e+001 -2.165064e+000
      vertex  4.000000e+000  1.474138e+001 -4.789763e+000
    endloop
  endfacet
  facet normal  1.000000e+000  -0.000000e+000  0.000000e+000
    outer loop
      vertex  4.000000e+000  2.000000e+001 -4.330127e+000
      vertex  4.000000e+000  1.474138e+001 -4.789763e+000
      vertex  4.000000e+000  1.253976e+001 -9.110671e+000
    endloop
  endfacet
  facet normal  1.000000e+000  -0.000000e+000  0.000000e+000
    outer loop
      vertex  4.000000e+000  2.000000e+001 -4.330127e+000
      vertex  4.000000e+000  1.253976e+001 -9.110671e+000
      vertex  4.000000e+000  9.110671e+000 -1.253976e+001
    endloop
  endfacet
  facet normal  1.000000e+000  -0.000000e+000  0.000000e+000
    outer loop
      vertex  4.000000e+000  2.000000e+001 -4.330127e+000
      vertex  4.000000e+000  9.110671e+000 -1.253976e+001
      vertex  4.000000e+000  3.219027e+000 -1.740553e+001
    endloop
  endfacet
  facet normal  9.999999e-001  0.000000e+000  0.000000e+000
    outer loop
      vertex  4.000000e+000  2.000000e+001 -4.330127e+000
      vertex  4.000000e+000  3.219027e+000 -1.740553e+001
      vertex  4.000000e+000  2.160951e+001 -1.115277e+001
    endloop
  endfacet
  facet normal  9.999999e-001  0.000000e+000  -0.000000e+000
    outer loop
      vertex  4.000000e+000  2.000000e+001 -4.330127e+000
      vertex  4.000000e+000  2.160951e+001 -1.115277e+001
      vertex  4.000000e+000  2.337915e+001 -1.010419e+001
    endloop
  endfacet
  facet normal  1.000000e+000  0.000000e+000  -0.000000e+000
    outer loop
      vertex  4.000000e+000  2.000000e+001 -4.330127e+000
      vertex  4.000000e+000  2.337915e+001 -1.010419e+001
      vertex  4.000000e+000  2.457689e+001 -8.431889e+000
    endloop
  endfacet
  facet normal  1.000000e+000  0.000000e+000  -0.000000e+000
    outer loop
      vertex  4.000000e+000  2.000000e+001 -4.330127e+000
      vertex  4.000000e+000  2.457689e+001 -8.431889e+000
      vertex  4.000000e+000  2.500000e+001 -6.418901e+000
    endloop
  endfacet
  facet normal  1.000000e+000  0.000000e+000  0.000000e+000
    outer loop
      vertex  4.000000e+000  2.000000e+001 -4.330127e+000
      vertex  4.000000e+000  2.500000e+001 -6.418901e+000
      vertex  4.000000e+000  2.375000e+001 -2.165064e+000
    endloop
  endfacet
  facet normal  1.000000e+000  -0.000000e+000  0.000000e+000
    outer loop
      vertex  4.000000e+000 -1.625000e+001 -2.165064e+000
      vertex  4.000000e+000 -2.000000e+001 -4.330127e+000
      vertex  4.000000e+000 -1.474138e+001 -4.789763e+000
    endloop
  endfacet
  facet normal  1.000000e+000  0.000000e+000  0.000000e+000
    outer loop
      vertex  4.000000e+000 -1.625000e+001 -2.165064e+000
      vertex  4.000000e+000 -1.474138e+001 -4.789763e+000
      vertex  4.000000e+000 -1.550000e+001 -1.898203e-015
    endloop
  endfacet
  facet normal  9.999999e-001  0.000000e+000  -0.000000e+000
    outer loop
      vertex  4.000000e+000 -1.625000e+001 -2.165064e+000
      vertex  4.000000e+000 -1.550000e+001 -1.898203e-015
      vertex  4.000000e+000 -1.474138e+001  4.789763e+000
    endloop
  endfacet
  facet normal  1.000000e+000  0.000000e+000  0.000000e+000
    outer loop
      vertex  4.000000e+000 -1.625000e+001 -2.165064e+000
      vertex  4.000000e+000 -1.474138e+001  4.789763e+000
      vertex  4.000000e+000 -1.625000e+001  2.165064e+000
    endloop
  endfacet
  facet normal  1.000000e+000  0.000000e+000  -0.000000e+000
    outer loop
      vertex  4.000000e+000 -3.219027e+000 -1.740553e+001
      vertex  4.000000e+000 -1.836970e-015 -1.793780e+001
      vertex  4.000000e+000  9.491013e-016 -1.550000e+001
    endloop
  endfacet
  facet normal  1.000000e+000  0.000000e+000  0.000000e+000
    outer loop
      vertex  4.000000e+000 -3.219027e+000 -1.740553e+001
      vertex  4.000000e+000  9.491013e-016 -1.550000e+001
      vertex  4.000000e+000 -4.789763e+000 -1.474138e+001
    endloop
  endfacet
  facet normal  1.000000e+000  0.000000e+000  0.000000e+000
    outer loop
      vertex  4.000000e+000 -3.219027e+000 -1.740553e+001
      vertex  4.000000e+000 -4.789763e+000 -1.474138e+001
      vertex  4.000000e+000 -9.110671e+000 -1.253976e+001
    endloop
  endfacet
  facet normal  1.000000e+000  0.000000e+000  0.000000e+000
    outer loop
      vertex  4.000000e+000 -3.219027e+000 -1.740553e+001
      vertex  4.000000e+000 -9.110671e+000 -1.253976e+001
      vertex  4.000000e+000 -2.160951e+001 -1.115277e+001
    endloop
  endfacet
  facet normal  1.000000e+000  0.000000e+000  0.000000e+000
    outer loop
      vertex  4.000000e+000 -2.160951e+001 -1.115277e+001
      vertex  4.000000e+000 -9.110671e+000 -1.253976e+001
      vertex  4.000000e+000 -1.253976e+001 -9.110671e+000
    endloop
  endfacet
  facet normal  1.000000e+000  0.000000e+000  0.000000e+000
    outer loop
      vertex  4.000000e+000 -2.160951e+001 -1.115277e+001
      vertex  4.000000e+000 -1.253976e+001 -9.110671e+000
      vertex  4.000000e+000 -1.474138e+001 -4.789763e+000
    endloop
  endfacet
  facet normal  1.000000e+000  0.000000e+000  0.000000e+000
    outer loop
      vertex  4.000000e+000 -2.160951e+001 -1.115277e+001
      vertex  4.000000e+000 -1.474138e+001 -4.789763e+000
      vertex  4.000000e+000 -2.000000e+001 -4.330127e+000
    endloop
  endfacet
  facet normal  1.000000e+000  0.000000e+000  0.000000e+000
    outer loop
      vertex  4.000000e+000 -2.160951e+001 -1.115277e+001
      vertex  4.000000e+000 -2.000000e+001 -4.330127e+000
      vertex  4.000000e+000 -2.500000e+001 -6.418901e+000
    endloop
  endfacet
  facet normal  1.000000e+000  0.000000e+000  0.000000e+000
    outer loop
      vertex  4.000000e+000 -2.160951e+001 -1.115277e+001
      vertex  4.000000e+000 -2.500000e+001 -6.418901e+000
      vertex  4.000000e+000 -2.337915e+001 -1.010419e+001
    endloop
  endfacet
  facet normal  1.000000e+000  0.000000e+000  -0.000000e+000
    outer loop
      vertex  4.000000e+000 -2.160951e+001  1.115277e+001
      vertex  4.000000e+000 -2.000000e+001  4.330127e+000
      vertex  4.000000e+000 -1.253976e+001  9.110671e+000
    endloop
  endfacet
  facet normal  1.000000e+000  0.000000e+000  -0.000000e+000
    outer loop
      vertex  4.000000e+000 -2.160951e+001  1.115277e+001
      vertex  4.000000e+000 -1.253976e+001  9.110671e+000
      vertex  4.000000e+000 -9.110671e+000  1.253976e+001
    endloop
  endfacet
  facet normal  1.000000e+000  0.000000e+000  -0.000000e+000
    outer loop
      vertex  4.000000e+000 -2.160951e+001  1.115277e+001
      vertex  4.000000e+000 -9.110671e+000  1.253976e+001
      vertex  4.000000e+000 -4.789763e+000  1.474138e+001
    endloop
  endfacet
  facet normal  1.000000e+000  0.000000e+000  -0.000000e+000
    outer loop
      vertex  4.000000e+000 -2.160951e+001  1.115277e+001
      vertex  4.000000e+000 -4.789763e+000  1.474138e+001
      vertex  4.000000e+000 -3.219027e+000  1.740553e+001
    endloop
  endfacet
  facet normal  9.999999e-001  0.000000e+000  0.000000e+000
    outer loop
      vertex  4.000000e+000 -2.000000e+001  4.330127e+000
      vertex  4.000000e+000 -2.160951e+001  1.115277e+001
      vertex  4.000000e+000 -2.337915e+001  1.010419e+001
    endloop
  endfacet
  facet normal  1.000000e+000  0.000000e+000  0.000000e+000
    outer loop
      vertex  4.000000e+000 -2.000000e+001  4.330127e+000
      vertex  4.000000e+000 -2.337915e+001  1.010419e+001
      vertex  4.000000e+000 -2.457689e+001  8.431889e+000
    endloop
  endfacet
  facet normal  1.000000e+000  0.000000e+000  0.000000e+000
    outer loop
      vertex  4.000000e+000 -2.000000e+001  4.330127e+000
      vertex  4.000000e+000 -2.457689e+001  8.431889e+000
      vertex  4.000000e+000 -2.500000e+001  6.418901e+000
    endloop
  endfacet
  facet normal  1.000000e+000  0.000000e+000  0.000000e+000
    outer loop
      vertex  4.000000e+000 -2.000000e+001  4.330127e+000
      vertex  4.000000e+000 -2.500000e+001  6.418901e+000
      vertex  4.000000e+000 -2.375000e+001  2.165064e+000
    endloop
  endfacet
  facet normal  1.000000e+000  0.000000e+000  0.000000e+000
    outer loop
      vertex  4.000000e+000 -3.219027e+000  1.740553e+001
      vertex  4.000000e+000 -4.789763e+000  1.474138e+001
      vertex  4.000000e+000  2.832769e-015  1.793780e+001
    endloop
  endfacet
  facet normal  1.000000e+000  0.000000e+000  0.000000e+000
    outer loop
      vertex  4.000000e+000  2.832769e-015  1.793780e+001
      vertex  4.000000e+000 -4.789763e+000  1.474138e+001
      vertex  4.000000e+000  9.491013e-016  1.550000e+001
    endloop
  endfacet
  facet normal  1.000000e+000  0.000000e+000  0.000000e+000
    outer loop
      vertex  4.000000e+000  2.832769e-015  1.793780e+001
      vertex  4.000000e+000  9.491013e-016  1.550000e+001
      vertex  4.000000e+000  3.219027e+000  1.740553e+001
    endloop
  endfacet
  facet normal  1.000000e+000  0.000000e+000  0.000000e+000
    outer loop
      vertex  4.000000e+000  3.219027e+000  1.740553e+001
      vertex  4.000000e+000  9.491013e-016  1.550000e+001
      vertex  4.000000e+000  4.789763e+000  1.474138e+001
    endloop
  endfacet
  facet normal  1.000000e+000  -0.000000e+000  -0.000000e+000
    outer loop
      vertex  4.000000e+000  3.219027e+000  1.740553e+001
      vertex  4.000000e+000  4.789763e+000  1.474138e+001
      vertex  4.000000e+000  9.110671e+000  1.253976e+001
    endloop
  endfacet
  facet normal  1.000000e+000  0.000000e+000  0.000000e+000
    outer loop
      vertex  4.000000e+000 -1.253976e+001  9.110671e+000
      vertex  4.000000e+000 -2.000000e+001  4.330127e+000
      vertex  4.000000e+000 -1.474138e+001  4.789763e+000
    endloop
  endfacet
  facet normal  1.000000e+000  0.000000e+000  0.000000e+000
    outer loop
      vertex  4.000000e+000 -1.474138e+001  4.789763e+000
      vertex  4.000000e+000 -2.000000e+001  4.330127e+000
      vertex  4.000000e+000 -1.625000e+001  2.165064e+000
    endloop
  endfacet
  facet normal  1.000000e+000  0.000000e+000  0.000000e+000
    outer loop
      vertex  4.000000e+000 -2.375000e+001  2.165064e+000
      vertex  4.000000e+000 -2.500000e+001  6.418901e+000
      vertex  4.000000e+000 -2.375000e+001 -2.165064e+000
    endloop
  endfacet
  facet normal  1.000000e+000  0.000000e+000  0.000000e+000
    outer loop
      vertex  4.000000e+000 -2.375000e+001 -2.165064e+000
      vertex  4.000000e+000 -2.500000e+001  6.418901e+000
      vertex  4.000000e+000 -2.500000e+001 -6.418901e+000
    endloop
  endfacet
  facet normal  1.000000e+000  0.000000e+000  0.000000e+000
    outer loop
      vertex  4.000000e+000 -2.375000e+001 -2.165064e+000
      vertex  4.000000e+000 -2.500000e+001 -6.418901e+000
      vertex  4.000000e+000 -2.000000e+001 -4.330127e+000
    endloop
  endfacet
  facet normal  1.000000e+000  0.000000e+000  0.000000e+000
    outer loop
      vertex  4.000000e+000  1.625000e+001  2.165064e+000
      vertex  4.000000e+000  1.474138e+001  4.789763e+000
      vertex  4.000000e+000  1.625000e+001 -2.165064e+000
    endloop
  endfacet
  facet normal  1.000000e+000  0.000000e+000  0.000000e+000
    outer loop
      vertex  4.000000e+000  1.625000e+001 -2.165064e+000
      vertex  4.000000e+000  1.474138e+001  4.789763e+000
      vertex  4.000000e+000  1.550000e+001  0.000000e+000
    endloop
  endfacet
  facet normal  1.000000e+000  0.000000e+000  0.000000e+000
    outer loop
      vertex  4.000000e+000  1.625000e+001 -2.165064e+000
      vertex  4.000000e+000  1.550000e+001  0.000000e+000
      vertex  4.000000e+000  1.474138e+001 -4.789763e+000
    endloop
  endfacet
  facet normal  1.000000e+000  0.000000e+000  0.000000e+000
    outer loop
      vertex  4.000000e+000  9.491013e-016 -1.550000e+001
      vertex  4.000000e+000 -1.836970e-015 -1.793780e+001
      vertex  4.000000e+000  4.789763e+000 -1.474138e+001
    endloop
  endfacet
  facet normal  1.000000e+000  0.000000e+000  0.000000e+000
    outer loop
      vertex  4.000000e+000  4.789763e+000 -1.474138e+001
      vertex  4.000000e+000 -1.836970e-015 -1.793780e+001
      vertex  4.000000e+000  3.219027e+000 -1.740553e+001
    endloop
  endfacet
  facet normal  1.000000e+000  0.000000e+000  0.000000e+000
    outer loop
      vertex  4.000000e+000  4.789763e+000 -1.474138e+001
      vertex  4.000000e+000  3.219027e+000 -1.740553e+001
      vertex  4.000000e+000  9.110671e+000 -1.253976e+001
    endloop
  endfacet
  facet normal  1.000000e+000  0.000000e+000  0.000000e+000
    outer loop
      vertex  4.000000e+000  2.375000e+001 -2.165064e+000
      vertex  4.000000e+000  2.500000e+001 -6.418901e+000
      vertex  4.000000e+000  2.375000e+001  2.165064e+000
    endloop
  endfacet
  facet normal  1.000000e+000  -0.000000e+000  0.000000e+000
    outer loop
      vertex  4.000000e+000  2.375000e+001  2.165064e+000
      vertex  4.000000e+000  2.500000e+001 -6.418901e+000
      vertex  4.000000e+000  2.500000e+001  6.418901e+000
    endloop
  endfacet
  facet normal  0.000000e+000  3.219027e-001 -9.467728e-001
    outer loop
      vertex  4.000000e+000  3.219027e+000 -1.740553e+001
      vertex  0.000000e+000  3.219027e+000 -1.740553e+001
      vertex  4.000000e+000  2.160951e+001 -1.115277e+001
    endloop
  endfacet
  facet normal  0.000000e+000  3.219027e-001 -9.467728e-001
    outer loop
      vertex  4.000000e+000  2.160951e+001 -1.115277e+001
      vertex  0.000000e+000  3.219027e+000 -1.740553e+001
      vertex  0.000000e+000  2.160951e+001 -1.115277e+001
    endloop
  endfacet
  facet normal  0.000000e+000 -3.219027e-001 -9.467728e-001
    outer loop
      vertex  4.000000e+000 -3.219027e+000 -1.740553e+001
      vertex  4.000000e+000 -2.160951e+001 -1.115277e+001
      vertex  0.000000e+000 -3.219027e+000 -1.740553e+001
    endloop
  endfacet
  facet normal  0.000000e+000 -3.219027e-001 -9.467728e-001
    outer loop
      vertex  0.000000e+000 -3.219027e+000 -1.740553e+001
      vertex  4.000000e+000 -2.160951e+001 -1.115277e+001
      vertex  0.000000e+000 -2.160951e+001 -1.115277e+001
    endloop
  endfacet
  facet normal  0.000000e+000  1.631368e-001 -9.866035e-001
    outer loop
      vertex  0.000000e+000  3.219027e+000 -1.740553e+001
      vertex  4.000000e+000  3.219027e+000 -1.740553e+001
      vertex  0.000000e+000 -1.836970e-015 -1.793780e+001
    endloop
  endfacet
  facet normal  0.000000e+000  1.631368e-001 -9.866035e-001
    outer loop
      vertex  0.000000e+000 -1.836970e-015 -1.793780e+001
      vertex  4.000000e+000  3.219027e+000 -1.740553e+001
      vertex  4.000000e+000 -1.836970e-015 -1.793780e+001
    endloop
  endfacet
  facet normal  -0.000000e+000 -1.631368e-001 -9.866035e-001
    outer loop
      vertex  0.000000e+000 -1.836970e-015 -1.793780e+001
      vertex  4.000000e+000 -1.836970e-015 -1.793780e+001
      vertex  0.000000e+000 -3.219027e+000 -1.740553e+001
    endloop
  endfacet
  facet normal  0.000000e+000 -1.631368e-001 -9.866035e-001
    outer loop
      vertex  0.000000e+000 -3.219027e+000 -1.740553e+001
      vertex  4.000000e+000 -1.836970e-015 -1.793780e+001
      vertex  4.000000e+000 -3.219027e+000 -1.740553e+001
    endloop
  endfacet
  facet normal  0.000000e+000 -3.219027e-001  9.467728e-001
    outer loop
      vertex  4.000000e+000 -3.219027e+000  1.740553e+001
      vertex  0.000000e+000 -3.219027e+000  1.740553e+001
      vertex  4.000000e+000 -2.160951e+001  1.115277e+001
    endloop
  endfacet
  facet normal  0.000000e+000 -3.219027e-001  9.467728e-001
    outer loop
      vertex  4.000000e+000 -2.160951e+001  1.115277e+001
      vertex  0.000000e+000 -3.219027e+000  1.740553e+001
      vertex  0.000000e+000 -2.160951e+001  1.115277e+001
    endloop
  endfacet
  facet normal  0.000000e+000  3.219027e-001  9.467728e-001
    outer loop
      vertex  4.000000e+000  3.219027e+000  1.740553e+001
      vertex  4.000000e+000  2.160951e+001  1.115277e+001
      vertex  0.000000e+000  3.219027e+000  1.740553e+001
    endloop
  endfacet
  facet normal  0.000000e+000  3.219027e-001  9.467728e-001
    outer loop
      vertex  0.000000e+000  3.219027e+000  1.740553e+001
      vertex  4.000000e+000  2.160951e+001  1.115277e+001
      vertex  0.000000e+000  2.160951e+001  1.115277e+001
    endloop
  endfacet
  facet normal  0.000000e+000 -1.631368e-001  9.866035e-001
    outer loop
      vertex  0.000000e+000 -3.219027e+000  1.740553e+001
      vertex  4.000000e+000 -3.219027e+000  1.740553e+001
      vertex  0.000000e+000  2.832769e-015  1.793780e+001
    endloop
  endfacet
  facet normal  0.000000e+000 -1.631368e-001  9.866035e-001
    outer loop
      vertex  0.000000e+000  2.832769e-015  1.793780e+001
      vertex  4.000000e+000 -3.219027e+000  1.740553e+001
      vertex  4.000000e+000  2.832769e-015  1.793780e+001
    endloop
  endfacet
  facet normal  0.000000e+000  1.631368e-001  9.866035e-001
    outer loop
      vertex  0.000000e+000  2.832769e-015  1.793780e+001
      vertex  4.000000e+000  2.832769e-015  1.793780e+001
      vertex  0.000000e+000  3.219027e+000  1.740553e+001
    endloop
  endfacet
  facet normal  -0.000000e+000  1.631368e-001  9.866035e-001
    outer loop
      vertex  0.000000e+000  3.219027e+000  1.740553e+001
      vertex  4.000000e+000  2.832769e-015  1.793780e+001
      vertex  4.000000e+000  3.219027e+000  1.740553e+001
    endloop
  endfacet
  facet normal  0.000000e+000 -1.000000e+000  0.000000e+000
    outer loop
      vertex  4.000000e+000 -2.500000e+001  6.418901e+000
      vertex  0.000000e+000 -2.500000e+001  6.418901e+000
      vertex  4.000000e+000 -2.500000e+001 -6.418901e+000
    endloop
  endfacet
  facet normal  0.000000e+000 -1.000000e+000  0.000000e+000
    outer loop
      vertex  4.000000e+000 -2.500000e+001 -6.418901e+000
      vertex  0.000000e+000 -2.500000e+001  6.418901e+000
      vertex  0.000000e+000 -2.500000e+001 -6.418901e+000
    endloop
  endfacet
  facet normal  -0.000000e+000 -5.097678e-001 -8.603121e-001
    outer loop
      vertex  0.000000e+000 -2.160951e+001 -1.115277e+001
      vertex  4.000000e+000 -2.160951e+001 -1.115277e+001
      vertex  0.000000e+000 -2.337915e+001 -1.010419e+001
    endloop
  endfacet
  facet normal  0.000000e+000 -5.097678e-001 -8.603121e-001
    outer loop
      vertex  0.000000e+000 -2.337915e+001 -1.010419e+001
      vertex  4.000000e+000 -2.160951e+001 -1.115277e+001
      vertex  4.000000e+000 -2.337915e+001 -1.010419e+001
    endloop
  endfacet
  facet normal  -0.000000e+000 -8.129895e-001 -5.822784e-001
    outer loop
      vertex  0.000000e+000 -2.337915e+001 -1.010419e+001
      vertex  4.000000e+000 -2.337915e+001 -1.010419e+001
      vertex  0.000000e+000 -2.457689e+001 -8.431889e+000
    endloop
  endfacet
  facet normal  0.000000e+000 -8.129895e-001 -5.822784e-001
    outer loop
      vertex  0.000000e+000 -2.457689e+001 -8.431889e+000
      vertex  4.000000e+000 -2.337915e+001 -1.010419e+001
      vertex  4.000000e+000 -2.457689e+001 -8.431889e+000
    endloop
  endfacet
  facet normal  -0.000000e+000 -9.786155e-001 -2.056976e-001
    outer loop
      vertex  0.000000e+000 -2.457689e+001 -8.431889e+000
      vertex  4.000000e+000 -2.457689e+001 -8.431889e+000
      vertex  0.000000e+000 -2.500000e+001 -6.418901e+000
    endloop
  endfacet
  facet normal  0.000000e+000 -9.786155e-001 -2.056976e-001
    outer loop
      vertex  0.000000e+000 -2.500000e+001 -6.418901e+000
      vertex  4.000000e+000 -2.457689e+001 -8.431889e+000
      vertex  4.000000e+000 -2.500000e+001 -6.418901e+000
    endloop
  endfacet
  facet normal  0.000000e+000 -9.786155e-001  2.056976e-001
    outer loop
      vertex  0.000000e+000 -2.500000e+001  6.418901e+000
      vertex  4.000000e+000 -2.500000e+001  6.418901e+000
      vertex  0.000000e+000 -2.457689e+001  8.431889e+000
    endloop
  endfacet
  facet normal  0.000000e+000 -9.786155e-001  2.056976e-001
    outer loop
      vertex  0.000000e+000 -2.457689e+001  8.431889e+000
      vertex  4.000000e+000 -2.500000e+001  6.418901e+000
      vertex  4.000000e+000 -2.457689e+001  8.431889e+000
    endloop
  endfacet
  facet normal  0.000000e+000 -8.129895e-001  5.822784e-001
    outer loop
      vertex  0.000000e+000 -2.457689e+001  8.431889e+000
      vertex  4.000000e+000 -2.457689e+001  8.431889e+000
      vertex  0.000000e+000 -2.337915e+001  1.010419e+001
    endloop
  endfacet
  facet normal  0.000000e+000 -8.129895e-001  5.822784e-001
    outer loop
      vertex  0.000000e+000 -2.337915e+001  1.010419e+001
      vertex  4.000000e+000 -2.457689e+001  8.431889e+000
      vertex  4.000000e+000 -2.337915e+001  1.010419e+001
    endloop
  endfacet
  facet normal  0.000000e+000 -5.097678e-001  8.603121e-001
    outer loop
      vertex  0.000000e+000 -2.337915e+001  1.010419e+001
      vertex  4.000000e+000 -2.337915e+001  1.010419e+001
      vertex  0.000000e+000 -2.160951e+001  1.115277e+001
    endloop
  endfacet
  facet normal  0.000000e+000 -5.097678e-001  8.603121e-001
    outer loop
      vertex  0.000000e+000 -2.160951e+001  1.115277e+001
      vertex  4.000000e+000 -2.337915e+001  1.010419e+001
      vertex  4.000000e+000 -2.160951e+001  1.115277e+001
    endloop
  endfacet
  facet normal  0.000000e+000  1.000000e+000  -0.000000e+000
    outer loop
      vertex  4.000000e+000  2.500000e+001  6.418901e+000
      vertex  4.000000e+000  2.500000e+001 -6.418901e+000
      vertex  0.000000e+000  2.500000e+001  6.418901e+000
    endloop
  endfacet
  facet normal  0.000000e+000  1.000000e+000  0.000000e+000
    outer loop
      vertex  0.000000e+000  2.500000e+001  6.418901e+000
      vertex  4.000000e+000  2.500000e+001 -6.418901e+000
      vertex  0.000000e+000  2.500000e+001 -6.418901e+000
    endloop
  endfacet
  facet normal  0.000000e+000  9.786155e-001 -2.056976e-001
    outer loop
      vertex  0.000000e+000  2.500000e+001 -6.418901e+000
      vertex  4.000000e+000  2.500000e+001 -6.418901e+000
      vertex  0.000000e+000  2.457689e+001 -8.431889e+000
    endloop
  endfacet
  facet normal  0.000000e+000  9.786155e-001 -2.056976e-001
    outer loop
      vertex  0.000000e+000  2.457689e+001 -8.431889e+000
      vertex  4.000000e+000  2.500000e+001 -6.418901e+000
      vertex  4.000000e+000  2.457689e+001 -8.431889e+000
    endloop
  endfacet
  facet normal  0.000000e+000  8.129895e-001 -5.822784e-001
    outer loop
      vertex  0.000000e+000  2.457689e+001 -8.431889e+000
      vertex  4.000000e+000  2.457689e+001 -8.431889e+000
      vertex  0.000000e+000  2.337915e+001 -1.010419e+001
    endloop
  endfacet
  facet normal  0.000000e+000  8.129895e-001 -5.822784e-001
    outer loop
      vertex  0.000000e+000  2.337915e+001 -1.010419e+001
      vertex  4.000000e+000  2.457689e+001 -8.431889e+000
      vertex  4.000000e+000  2.337915e+001 -1.010419e+001
    endloop
  endfacet
  facet normal  0.000000e+000  5.097678e-001 -8.603121e-001
    outer loop
      vertex  0.000000e+000  2.337915e+001 -1.010419e+001
      vertex  4.000000e+000  2.337915e+001 -1.010419e+001
      vertex  0.000000e+000  2.160951e+001 -1.115277e+001
    endloop
  endfacet
  facet normal  0.000000e+000  5.097678e-001 -8.603121e-001
    outer loop
      vertex  0.000000e+000  2.160951e+001 -1.115277e+001
      vertex  4.000000e+000  2.337915e+001 -1.010419e+001
      vertex  4.000000e+000  2.160951e+001 -1.115277e+001
    endloop
  endfacet
  facet normal  0.000000e+000  5.097678e-001  8.603121e-001
    outer loop
      vertex  0.000000e+000  2.160951e+001  1.115277e+001
      vertex  4.000000e+000  2.160951e+001  1.115277e+001
      vertex  0.000000e+000  2.337915e+001  1.010419e+001
    endloop
  endfacet
  facet normal  -0.000000e+000  5.097678e-001  8.603121e-001
    outer loop
      vertex  0.000000e+000  2.337915e+001  1.010419e+001
      vertex  4.000000e+000  2.160951e+001  1.115277e+001
      vertex  4.000000e+000  2.337915e+001  1.010419e+001
    endloop
  endfacet
  facet normal  0.000000e+000  8.129895e-001  5.822784e-001
    outer loop
      vertex  0.000000e+000  2.337915e+001  1.010419e+001
      vertex  4.000000e+000  2.337915e+001  1.010419e+001
      vertex  0.000000e+000  2.457689e+001  8.431889e+000
    endloop
  endfacet
  facet normal  -0.000000e+000  8.129895e-001  5.822784e-001
    outer loop
      vertex  0.000000e+000  2.457689e+001  8.431889e+000
      vertex  4.000000e+000  2.337915e+001  1.010419e+001
      vertex  4.000000e+000  2.457689e+001  8.431889e+000
    endloop
  endfacet
  facet normal  0.000000e+000  9.786155e-001  2.056976e-001
    outer loop
      vertex  0.000000e+000  2.457689e+001  8.431889e+000
      vertex  4.000000e+000  2.457689e+001  8.431889e+000
      vertex  0.000000e+000  2.500000e+001  6.418901e+000
    endloop
  endfacet
  facet normal  -0.000000e+000  9.786155e-001  2.056976e-001
    outer loop
      vertex  0.000000e+000  2.500000e+001  6.418901e+000
      vertex  4.000000e+000  2.457689e+001  8.431889e+000
      vertex  4.000000e+000  2.500000e+001  6.418901e+000
    endloop
  endfacet
  facet normal  0.000000e+000  5.000000e-001 -8.660253e-001
    outer loop
      vertex  0.000000e+000 -2.375000e+001  2.165064e+000
      vertex  0.000000e+000 -2.000000e+001  4.330127e+000
      vertex  4.000000e+000 -2.375000e+001  2.165064e+000
    endloop
  endfacet
  facet normal  0.000000e+000  5.000000e-001 -8.660253e-001
    outer loop
      vertex  4.000000e+000 -2.375000e+001  2.165064e+000
      vertex  0.000000e+000 -2.000000e+001  4.330127e+000
      vertex  4.000000e+000 -2.000000e+001  4.330127e+000
    endloop
  endfacet
  facet normal  0.000000e+000 -5.000000e-001 -8.660253e-001
    outer loop
      vertex  0.000000e+000 -2.000000e+001  4.330127e+000
      vertex  0.000000e+000 -1.625000e+001  2.165064e+000
      vertex  4.000000e+000 -2.000000e+001  4.330127e+000
    endloop
  endfacet
  facet normal  0.000000e+000 -5.000000e-001 -8.660253e-001
    outer loop
      vertex  4.000000e+000 -2.000000e+001  4.330127e+000
      vertex  0.000000e+000 -1.625000e+001  2.165064e+000
      vertex  4.000000e+000 -1.625000e+001  2.165064e+000
    endloop
  endfacet
  facet normal  0.000000e+000 -9.999999e-001  0.000000e+000
    outer loop
      vertex  0.000000e+000 -1.625000e+001  2.165064e+000
      vertex  0.000000e+000 -1.625000e+001 -2.165064e+000
      vertex  4.000000e+000 -1.625000e+001  2.165064e+000
    endloop
  endfacet
  facet normal  0.000000e+000 -9.999999e-001  -0.000000e+000
    outer loop
      vertex  4.000000e+000 -1.625000e+001  2.165064e+000
      vertex  0.000000e+000 -1.625000e+001 -2.165064e+000
      vertex  4.000000e+000 -1.625000e+001 -2.165064e+000
    endloop
  endfacet
  facet normal  0.000000e+000 -5.000000e-001  8.660253e-001
    outer loop
      vertex  0.000000e+000 -1.625000e+001 -2.165064e+000
      vertex  0.000000e+000 -2.000000e+001 -4.330127e+000
      vertex  4.000000e+000 -1.625000e+001 -2.165064e+000
    endloop
  endfacet
  facet normal  0.000000e+000 -5.000000e-001  8.660253e-001
    outer loop
      vertex  4.000000e+000 -1.625000e+001 -2.165064e+000
      vertex  0.000000e+000 -2.000000e+001 -4.330127e+000
      vertex  4.000000e+000 -2.000000e+001 -4.330127e+000
    endloop
  endfacet
  facet normal  0.000000e+000  5.000000e-001  8.660253e-001
    outer loop
      vertex  0.000000e+000 -2.000000e+001 -4.330127e+000
      vertex  0.000000e+000 -2.375000e+001 -2.165064e+000
      vertex  4.000000e+000 -2.000000e+001 -4.330127e+000
    endloop
  endfacet
  facet normal  0.000000e+000  5.000000e-001  8.660253e-001
    outer loop
      vertex  4.000000e+000 -2.000000e+001 -4.330127e+000
      vertex  0.000000e+000 -2.375000e+001 -2.165064e+000
      vertex  4.000000e+000 -2.375000e+001 -2.165064e+000
    endloop
  endfacet
  facet normal  0.000000e+000  9.999999e-001  0.000000e+000
    outer loop
      vertex  0.000000e+000 -2.375000e+001 -2.165064e+000
      vertex  0.000000e+000 -2.375000e+001  2.165064e+000
      vertex  4.000000e+000 -2.375000e+001 -2.165064e+000
    endloop
  endfacet
  facet normal  0.000000e+000  9.999999e-001  -0.000000e+000
    outer loop
      vertex  4.000000e+000 -2.375000e+001 -2.165064e+000
      vertex  0.000000e+000 -2.375000e+001  2.165064e+000
      vertex  4.000000e+000 -2.375000e+001  2.165064e+000
    endloop
  endfacet
  facet normal  -0.000000e+000 -5.000000e-001 -8.660253e-001
    outer loop
      vertex  0.000000e+000  2.375000e+001  2.165064e+000
      vertex  4.000000e+000  2.375000e+001  2.165064e+000
      vertex  0.000000e+000  2.000000e+001  4.330127e+000
    endloop
  endfacet
  facet normal  0.000000e+000 -5.000000e-001 -8.660253e-001
    outer loop
      vertex  0.000000e+000  2.000000e+001  4.330127e+000
      vertex  4.000000e+000  2.375000e+001  2.165064e+000
      vertex  4.000000e+000  2.000000e+001  4.330127e+000
    endloop
  endfacet
  facet normal  0.000000e+000  5.000000e-001 -8.660253e-001
    outer loop
      vertex  0.000000e+000  2.000000e+001  4.330127e+000
      vertex  4.000000e+000  2.000000e+001  4.330127e+000
      vertex  0.000000e+000  1.625000e+001  2.165064e+000
    endloop
  endfacet
  facet normal  0.000000e+000  5.000000e-001 -8.660253e-001
    outer loop
      vertex  0.000000e+000  1.625000e+001  2.165064e+000
      vertex  4.000000e+000  2.000000e+001  4.330127e+000
      vertex  4.000000e+000  1.625000e+001  2.165064e+000
    endloop
  endfacet
  facet normal  0.000000e+000  9.999999e-001  0.000000e+000
    outer loop
      vertex  0.000000e+000  1.625000e+001  2.165064e+000
      vertex  4.000000e+000  1.625000e+001  2.165064e+000
      vertex  0.000000e+000  1.625000e+001 -2.165064e+000
    endloop
  endfacet
  facet normal  0.000000e+000  9.999999e-001  0.000000e+000
    outer loop
      vertex  0.000000e+000  1.625000e+001 -2.165064e+000
      vertex  4.000000e+000  1.625000e+001  2.165064e+000
      vertex  4.000000e+000  1.625000e+001 -2.165064e+000
    endloop
  endfacet
  facet normal  0.000000e+000  5.000000e-001  8.660253e-001
    outer loop
      vertex  0.000000e+000  1.625000e+001 -2.165064e+000
      vertex  4.000000e+000  1.625000e+001 -2.165064e+000
      vertex  0.000000e+000  2.000000e+001 -4.330127e+000
    endloop
  endfacet
  facet normal  -0.000000e+000  5.000000e-001  8.660253e-001
    outer loop
      vertex  0.000000e+000  2.000000e+001 -4.330127e+000
      vertex  4.000000e+000  1.625000e+001 -2.165064e+000
      vertex  4.000000e+000  2.000000e+001 -4.330127e+000
    endloop
  endfacet
  facet normal  0.000000e+000 -5.000000e-001  8.660253e-001
    outer loop
      vertex  0.000000e+000  2.000000e+001 -4.330127e+000
      vertex  4.000000e+000  2.000000e+001 -4.330127e+000
      vertex  0.000000e+000  2.375000e+001 -2.165064e+000
    endloop
  endfacet
  facet normal  0.000000e+000 -5.000000e-001  8.660253e-001
    outer loop
      vertex  0.000000e+000  2.375000e+001 -2.165064e+000
      vertex  4.000000e+000  2.000000e+001 -4.330127e+000
      vertex  4.000000e+000  2.375000e+001 -2.165064e+000
    endloop
  endfacet
  facet normal  0.000000e+000 -9.999999e-001  0.000000e+000
    outer loop
      vertex  0.000000e+000  2.375000e+001 -2.165064e+000
      vertex  4.000000e+000  2.375000e+001 -2.165064e+000
      vertex  0.000000e+000  2.375000e+001  2.165064e+000
    endloop
  endfacet
  facet normal  0.000000e+000 -9.999999e-001  0.000000e+000
    outer loop
      vertex  0.000000e+000  2.375000e+001  2.165064e+000
      vertex  4.000000e+000  2.375000e+001 -2.165064e+000
      vertex  4.000000e+000  2.375000e+001  2.165064e+000
    endloop
  endfacet
  facet normal  0.000000e+000  1.564345e-001 -9.876884e-001
    outer loop
      vertex  0.000000e+000  9.491013e-016  1.550000e+001
      vertex  4.000000e+000 -4.789763e+000  1.474138e+001
      vertex  0.000000e+000 -4.789763e+000  1.474138e+001
    endloop
  endfacet
  facet normal  0.000000e+000  4.539905e-001 -8.910066e-001
    outer loop
      vertex  0.000000e+000 -4.789763e+000  1.474138e+001
      vertex  4.000000e+000 -4.789763e+000  1.474138e+001
      vertex  4.000000e+000 -9.110671e+000  1.253976e+001
    endloop
  endfacet
  facet normal  0.000000e+000  4.539905e-001 -8.910066e-001
    outer loop
      vertex  0.000000e+000 -4.789763e+000  1.474138e+001
      vertex  4.000000e+000 -9.110671e+000  1.253976e+001
      vertex  0.000000e+000 -9.110671e+000  1.253976e+001
    endloop
  endfacet
  facet normal  0.000000e+000  7.071068e-001 -7.071068e-001
    outer loop
      vertex  0.000000e+000 -9.110671e+000  1.253976e+001
      vertex  4.000000e+000 -9.110671e+000  1.253976e+001
      vertex  4.000000e+000 -1.253976e+001  9.110671e+000
    endloop
  endfacet
  facet normal  0.000000e+000  7.071068e-001 -7.071068e-001
    outer loop
      vertex  0.000000e+000 -9.110671e+000  1.253976e+001
      vertex  4.000000e+000 -1.253976e+001  9.110671e+000
      vertex  0.000000e+000 -1.253976e+001  9.110671e+000
    endloop
  endfacet
  facet normal  0.000000e+000  8.910066e-001 -4.539905e-001
    outer loop
      vertex  0.000000e+000 -1.253976e+001  9.110671e+000
      vertex  4.000000e+000 -1.253976e+001  9.110671e+000
      vertex  4.000000e+000 -1.474138e+001  4.789763e+000
    endloop
  endfacet
  facet normal  0.000000e+000  8.910066e-001 -4.539905e-001
    outer loop
      vertex  0.000000e+000 -1.253976e+001  9.110671e+000
      vertex  4.000000e+000 -1.474138e+001  4.789763e+000
      vertex  0.000000e+000 -1.474138e+001  4.789763e+000
    endloop
  endfacet
  facet normal  0.000000e+000  9.876884e-001 -1.564345e-001
    outer loop
      vertex  0.000000e+000 -1.474138e+001  4.789763e+000
      vertex  4.000000e+000 -1.474138e+001  4.789763e+000
      vertex  4.000000e+000 -1.550000e+001 -1.898203e-015
    endloop
  endfacet
  facet normal  0.000000e+000  9.876884e-001 -1.564345e-001
    outer loop
      vertex  0.000000e+000 -1.474138e+001  4.789763e+000
      vertex  4.000000e+000 -1.550000e+001 -1.898203e-015
      vertex  0.000000e+000 -1.550000e+001 -1.898203e-015
    endloop
  endfacet
  facet normal  0.000000e+000  1.564345e-001 -9.876884e-001
    outer loop
      vertex  4.000000e+000 -4.789763e+000  1.474138e+001
      vertex  0.000000e+000  9.491013e-016  1.550000e+001
      vertex  4.000000e+000  9.491013e-016  1.550000e+001
    endloop
  endfacet
  facet normal  -0.000000e+000 -1.564345e-001 -9.876884e-001
    outer loop
      vertex  4.000000e+000  9.491013e-016  1.550000e+001
      vertex  0.000000e+000  9.491013e-016  1.550000e+001
      vertex  0.000000e+000  4.789763e+000  1.474138e+001
    endloop
  endfacet
  facet normal  0.000000e+000 -1.564345e-001 -9.876884e-001
    outer loop
      vertex  4.000000e+000  9.491013e-016  1.550000e+001
      vertex  0.000000e+000  4.789763e+000  1.474138e+001
      vertex  4.000000e+000  4.789763e+000  1.474138e+001
    endloop
  endfacet
  facet normal  -0.000000e+000 -4.539905e-001 -8.910066e-001
    outer loop
      vertex  4.000000e+000  4.789763e+000  1.474138e+001
      vertex  0.000000e+000  4.789763e+000  1.474138e+001
      vertex  0.000000e+000  9.110671e+000  1.253976e+001
    endloop
  endfacet
  facet normal  0.000000e+000 -4.539905e-001 -8.910066e-001
    outer loop
      vertex  4.000000e+000  4.789763e+000  1.474138e+001
      vertex  0.000000e+000  9.110671e+000  1.253976e+001
      vertex  4.000000e+000  9.110671e+000  1.253976e+001
    endloop
  endfacet
  facet normal  -0.000000e+000 -7.071068e-001 -7.071068e-001
    outer loop
      vertex  4.000000e+000  9.110671e+000  1.253976e+001
      vertex  0.000000e+000  9.110671e+000  1.253976e+001
      vertex  0.000000e+000  1.253976e+001  9.110671e+000
    endloop
  endfacet
  facet normal  0.000000e+000 -7.071068e-001 -7.071068e-001
    outer loop
      vertex  4.000000e+000  9.110671e+000  1.253976e+001
      vertex  0.000000e+000  1.253976e+001  9.110671e+000
      vertex  4.000000e+000  1.253976e+001  9.110671e+000
    endloop
  endfacet
  facet normal  -0.000000e+000 -8.910066e-001 -4.539905e-001
    outer loop
      vertex  4.000000e+000  1.253976e+001  9.110671e+000
      vertex  0.000000e+000  1.253976e+001  9.110671e+000
      vertex  0.000000e+000  1.474138e+001  4.789763e+000
    endloop
  endfacet
  facet normal  0.000000e+000 -8.910066e-001 -4.539905e-001
    outer loop
      vertex  4.000000e+000  1.253976e+001  9.110671e+000
      vertex  0.000000e+000  1.474138e+001  4.789763e+000
      vertex  4.000000e+000  1.474138e+001  4.789763e+000
    endloop
  endfacet
  facet normal  -0.000000e+000 -9.876884e-001 -1.564345e-001
    outer loop
      vertex  4.000000e+000  1.474138e+001  4.789763e+000
      vertex  0.000000e+000  1.474138e+001  4.789763e+000
      vertex  0.000000e+000  1.550000e+001  0.000000e+000
    endloop
  endfacet
  facet normal  0.000000e+000 -9.876884e-001 -1.564345e-001
    outer loop
      vertex  4.000000e+000  1.474138e+001  4.789763e+000
      vertex  0.000000e+000  1.550000e+001  0.000000e+000
      vertex  4.000000e+000  1.550000e+001  0.000000e+000
    endloop
  endfacet
  facet normal  0.000000e+000 -1.564345e-001  9.876884e-001
    outer loop
      vertex  0.000000e+000  9.491013e-016 -1.550000e+001
      vertex  4.000000e+000  4.789763e+000 -1.474138e+001
      vertex  0.000000e+000  4.789763e+000 -1.474138e+001
    endloop
  endfacet
  facet normal  0.000000e+000 -4.539905e-001  8.910066e-001
    outer loop
      vertex  0.000000e+000  4.789763e+000 -1.474138e+001
      vertex  4.000000e+000  4.789763e+000 -1.474138e+001
      vertex  4.000000e+000  9.110671e+000 -1.253976e+001
    endloop
  endfacet
  facet normal  0.000000e+000 -4.539905e-001  8.910066e-001
    outer loop
      vertex  0.000000e+000  4.789763e+000 -1.474138e+001
      vertex  4.000000e+000  9.110671e+000 -1.253976e+001
      vertex  0.000000e+000  9.110671e+000 -1.253976e+001
    endloop
  endfacet
  facet normal  0.000000e+000 -7.071068e-001  7.071068e-001
    outer loop
      vertex  0.000000e+000  9.110671e+000 -1.253976e+001
      vertex  4.000000e+000  9.110671e+000 -1.253976e+001
      vertex  4.000000e+000  1.253976e+001 -9.110671e+000
    endloop
  endfacet
  facet normal  0.000000e+000 -7.071068e-001  7.071068e-001
    outer loop
      vertex  0.000000e+000  9.110671e+000 -1.253976e+001
      vertex  4.000000e+000  1.253976e+001 -9.110671e+000
      vertex  0.000000e+000  1.253976e+001 -9.110671e+000
    endloop
  endfacet
  facet normal  0.000000e+000 -8.910066e-001  4.539905e-001
    outer loop
      vertex  0.000000e+000  1.253976e+001 -9.110671e+000
      vertex  4.000000e+000  1.253976e+001 -9.110671e+000
      vertex  4.000000e+000  1.474138e+001 -4.789763e+000
    endloop
  endfacet
  facet normal  0.000000e+000 -8.910066e-001  4.539905e-001
    outer loop
      vertex  0.000000e+000  1.253976e+001 -9.110671e+000
      vertex  4.000000e+000  1.474138e+001 -4.789763e+000
      vertex  0.000000e+000  1.474138e+001 -4.789763e+000
    endloop
  endfacet
  facet normal  0.000000e+000 -9.876884e-001  1.564345e-001
    outer loop
      vertex  0.000000e+000  1.474138e+001 -4.789763e+000
      vertex  4.000000e+000  1.474138e+001 -4.789763e+000
      vertex  4.000000e+000  1.550000e+001  0.000000e+000
    endloop
  endfacet
  facet normal  0.000000e+000 -9.876884e-001  1.564345e-001
    outer loop
      vertex  0.000000e+000  1.474138e+001 -4.789763e+000
      vertex  4.000000e+000  1.550000e+001  0.000000e+000
      vertex  0.000000e+000  1.550000e+001  0.000000e+000
    endloop
  endfacet
  facet normal  0.000000e+000 -1.564345e-001  9.876884e-001
    outer loop
      vertex  4.000000e+000  4.789763e+000 -1.474138e+001
      vertex  0.000000e+000  9.491013e-016 -1.550000e+001
      vertex  4.000000e+000  9.491013e-016 -1.550000e+001
    endloop
  endfacet
  facet normal  0.000000e+000  1.564345e-001  9.876884e-001
    outer loop
      vertex  4.000000e+000  9.491013e-016 -1.550000e+001
      vertex  0.000000e+000  9.491013e-016 -1.550000e+001
      vertex  0.000000e+000 -4.789763e+000 -1.474138e+001
    endloop
  endfacet
  facet normal  -0.000000e+000  1.564345e-001  9.876884e-001
    outer loop
      vertex  4.000000e+000  9.491013e-016 -1.550000e+001
      vertex  0.000000e+000 -4.789763e+000 -1.474138e+001
      vertex  4.000000e+000 -4.789763e+000 -1.474138e+001
    endloop
  endfacet
  facet normal  0.000000e+000  4.539905e-001  8.910066e-001
    outer loop
      vertex  4.000000e+000 -4.789763e+000 -1.474138e+001
      vertex  0.000000e+000 -4.789763e+000 -1.474138e+001
      vertex  0.000000e+000 -9.110671e+000 -1.253976e+001
    endloop
  endfacet
  facet normal  -0.000000e+000  4.539905e-001  8.910066e-001
    outer loop
      vertex  4.000000e+000 -4.789763e+000 -1.474138e+001
      vertex  0.000000e+000 -9.110671e+000 -1.253976e+001
      vertex  4.000000e+000 -9.110671e+000 -1.253976e+001
    endloop
  endfacet
  facet normal  0.000000e+000  7.071068e-001  7.071068e-001
    outer loop
      vertex  4.000000e+000 -9.110671e+000 -1.253976e+001
      vertex  0.000000e+000 -9.110671e+000 -1.253976e+001
      vertex  0.000000e+000 -1.253976e+001 -9.110671e+000
    endloop
  endfacet
  facet normal  -0.000000e+000  7.071068e-001  7.071068e-001
    outer loop
      vertex  4.000000e+000 -9.110671e+000 -1.253976e+001
      vertex  0.000000e+000 -1.253976e+001 -9.110671e+000
      vertex  4.000000e+000 -1.253976e+001 -9.110671e+000
    endloop
  endfacet
  facet normal  0.000000e+000  8.910066e-001  4.539905e-001
    outer loop
      vertex  4.000000e+000 -1.253976e+001 -9.110671e+000
      vertex  0.000000e+000 -1.253976e+001 -9.110671e+000
      vertex  0.000000e+000 -1.474138e+001 -4.789763e+000
    endloop
  endfacet
  facet normal  -0.000000e+000  8.910066e-001  4.539905e-001
    outer loop
      vertex  4.000000e+000 -1.253976e+001 -9.110671e+000
      vertex  0.000000e+000 -1.474138e+001 -4.789763e+000
      vertex  4.000000e+000 -1.474138e+001 -4.789763e+000
    endloop
  endfacet
  facet normal  0.000000e+000  9.876884e-001  1.564345e-001
    outer loop
      vertex  4.000000e+000 -1.474138e+001 -4.789763e+000
      vertex  0.000000e+000 -1.474138e+001 -4.789763e+000
      vertex  0.000000e+000 -1.550000e+001 -1.898203e-015
    endloop
  endfacet
  facet normal  -0.000000e+000  9.876884e-001  1.564345e-001
    outer loop
      vertex  4.000000e+000 -1.474138e+001 -4.789763e+000
      vertex  0.000000e+000 -1.550000e+001 -1.898203e-015
      vertex  4.000000e+000 -1.550000e+001 -1.898203e-015
    endloop
  endfacet
endsolid CATIA STL
