solid CATIA STL
  facet normal  1.000000e+000  0.000000e+000  0.000000e+000
    outer loop
      vertex  0.000000e+000 -3.500000e+000  7.900000e+000
      vertex  0.000000e+000 -3.922505e+000  9.469766e+000
      vertex  0.000000e+000 -4.136396e+000  7.636396e+000
    endloop
  endfacet
  facet normal  1.000000e+000  0.000000e+000  0.000000e+000
    outer loop
      vertex  0.000000e+000  1.310160e-003  6.508470e+000
      vertex  0.000000e+000 -2.903589e-015  1.025000e+001
      vertex  0.000000e+000 -1.045064e+000  5.169172e+000
    endloop
  endfacet
  facet normal  1.000000e+000  0.000000e+000  0.000000e+000
    outer loop
      vertex  0.000000e+000  1.098672e-014 -1.025000e+001
      vertex  0.000000e+000  3.922505e+000 -9.469766e+000
      vertex  0.000000e+000  3.500000e+000 -7.900000e+000
    endloop
  endfacet
  facet normal  1.000000e+000  -0.000000e+000  0.000000e+000
    outer loop
      vertex  0.000000e+000  4.986613e+000 -4.182562e+000
      vertex  0.000000e+000  3.500000e+000 -6.100000e+000
      vertex  0.000000e+000  4.136396e+000 -6.363604e+000
    endloop
  endfacet
  facet normal  1.000000e+000  0.000000e+000  0.000000e+000
    outer loop
      vertex  0.000000e+000  1.098672e-014 -1.025000e+001
      vertex  0.000000e+000  2.863604e+000 -7.636396e+000
      vertex  0.000000e+000  2.600000e+000 -7.000000e+000
    endloop
  endfacet
  facet normal  9.999999e-001  0.000000e+000  0.000000e+000
    outer loop
      vertex  0.000000e+000  3.500000e+000 -7.900000e+000
      vertex  0.000000e+000  2.863604e+000 -7.636396e+000
      vertex  0.000000e+000  1.098672e-014 -1.025000e+001
    endloop
  endfacet
  facet normal  1.000000e+000  -0.000000e+000  0.000000e+000
    outer loop
      vertex  0.000000e+000  4.136396e+000 -7.636396e+000
      vertex  0.000000e+000  3.500000e+000 -7.900000e+000
      vertex  0.000000e+000  3.922505e+000 -9.469766e+000
    endloop
  endfacet
  facet normal  9.999999e-001  0.000000e+000  0.000000e+000
    outer loop
      vertex  0.000000e+000 -4.123245e+000 -3.288061e+000
      vertex  0.000000e+000 -6.363604e+000 -2.863604e+000
      vertex  0.000000e+000 -6.100000e+000 -3.500000e+000
    endloop
  endfacet
  facet normal  1.000000e+000  -0.000000e+000  0.000000e+000
    outer loop
      vertex  0.000000e+000  1.045064e+000 -5.169172e+000
      vertex  0.000000e+000 -1.310160e-003 -6.508470e+000
      vertex  0.000000e+000  1.098672e-014 -1.025000e+001
    endloop
  endfacet
  facet normal  1.000000e+000  0.000000e+000  0.000000e+000
    outer loop
      vertex  0.000000e+000  1.045064e+000 -5.169172e+000
      vertex  0.000000e+000  1.098672e-014 -1.025000e+001
      vertex  0.000000e+000  2.600000e+000 -7.000000e+000
    endloop
  endfacet
  facet normal  1.000000e+000  0.000000e+000  -0.000000e+000
    outer loop
      vertex  0.000000e+000  1.045064e+000 -5.169172e+000
      vertex  0.000000e+000  2.600000e+000 -7.000000e+000
      vertex  0.000000e+000  2.863604e+000 -6.363604e+000
    endloop
  endfacet
  facet normal  1.000000e+000  0.000000e+000  -0.000000e+000
    outer loop
      vertex  0.000000e+000  1.045064e+000 -5.169172e+000
      vertex  0.000000e+000  2.863604e+000 -6.363604e+000
      vertex  0.000000e+000  3.500000e+000 -6.100000e+000
    endloop
  endfacet
  facet normal  9.999999e-001  0.000000e+000  -0.000000e+000
    outer loop
      vertex  0.000000e+000  1.045064e+000 -5.169172e+000
      vertex  0.000000e+000  3.500000e+000 -6.100000e+000
      vertex  0.000000e+000  4.986613e+000 -4.182562e+000
    endloop
  endfacet
  facet normal  1.000000e+000  0.000000e+000  0.000000e+000
    outer loop
      vertex  0.000000e+000  1.045064e+000 -5.169172e+000
      vertex  0.000000e+000  4.986613e+000 -4.182562e+000
      vertex  0.000000e+000  3.288054e+000 -4.123242e+000
    endloop
  endfacet
  facet normal  9.999999e-001  0.000000e+000  0.000000e+000
    outer loop
      vertex  0.000000e+000  1.045064e+000 -5.169172e+000
      vertex  0.000000e+000  3.288054e+000 -4.123242e+000
      vertex  0.000000e+000  1.643599e+000 -3.524710e+000
    endloop
  endfacet
  facet normal  1.000000e+000  0.000000e+000  -0.000000e+000
    outer loop
      vertex  0.000000e+000 -3.288061e+000  4.123245e+000
      vertex  0.000000e+000 -1.643599e+000  3.524710e+000
      vertex  0.000000e+000 -1.045064e+000  5.169172e+000
    endloop
  endfacet
  facet normal  1.000000e+000  0.000000e+000  0.000000e+000
    outer loop
      vertex  0.000000e+000 -3.288061e+000  4.123245e+000
      vertex  0.000000e+000 -1.045064e+000  5.169172e+000
      vertex  0.000000e+000 -2.863604e+000  6.363604e+000
    endloop
  endfacet
  facet normal  9.999999e-001  0.000000e+000  0.000000e+000
    outer loop
      vertex  0.000000e+000 -3.288061e+000  4.123245e+000
      vertex  0.000000e+000 -2.863604e+000  6.363604e+000
      vertex  0.000000e+000 -3.500000e+000  6.100000e+000
    endloop
  endfacet
  facet normal  1.000000e+000  0.000000e+000  0.000000e+000
    outer loop
      vertex  0.000000e+000 -3.288061e+000  4.123245e+000
      vertex  0.000000e+000 -3.500000e+000  6.100000e+000
      vertex  0.000000e+000 -4.986621e+000  4.182560e+000
    endloop
  endfacet
  facet normal  9.999999e-001  0.000000e+000  0.000000e+000
    outer loop
      vertex  0.000000e+000  1.025000e+001  5.807177e-015
      vertex  0.000000e+000  9.469766e+000  3.922505e+000
      vertex  0.000000e+000  7.636396e+000  4.136396e+000
    endloop
  endfacet
  facet normal  1.000000e+000  0.000000e+000  0.000000e+000
    outer loop
      vertex  0.000000e+000  1.025000e+001  5.807177e-015
      vertex  0.000000e+000  7.636396e+000  4.136396e+000
      vertex  0.000000e+000  7.900000e+000  3.500000e+000
    endloop
  endfacet
  facet normal  9.999999e-001  0.000000e+000  0.000000e+000
    outer loop
      vertex  0.000000e+000  1.025000e+001  5.807177e-015
      vertex  0.000000e+000  7.900000e+000  3.500000e+000
      vertex  0.000000e+000  7.636396e+000  2.863604e+000
    endloop
  endfacet
  facet normal  1.000000e+000  0.000000e+000  0.000000e+000
    outer loop
      vertex  0.000000e+000  1.025000e+001  5.807177e-015
      vertex  0.000000e+000  7.636396e+000  2.863604e+000
      vertex  0.000000e+000  7.000000e+000  2.600000e+000
    endloop
  endfacet
  facet normal  1.000000e+000  0.000000e+000  0.000000e+000
    outer loop
      vertex  0.000000e+000  1.025000e+001  5.807177e-015
      vertex  0.000000e+000  7.000000e+000  2.600000e+000
      vertex  0.000000e+000  7.247845e+000 -7.247845e+000
    endloop
  endfacet
  facet normal  1.000000e+000  0.000000e+000  0.000000e+000
    outer loop
      vertex  0.000000e+000  1.025000e+001  5.807177e-015
      vertex  0.000000e+000  7.247845e+000 -7.247845e+000
      vertex  0.000000e+000  9.469766e+000 -3.922505e+000
    endloop
  endfacet
  facet normal  1.000000e+000  -0.000000e+000  0.000000e+000
    outer loop
      vertex  0.000000e+000 -7.247845e+000  7.247845e+000
      vertex  0.000000e+000 -9.469766e+000  3.922505e+000
      vertex  0.000000e+000 -1.025000e+001  0.000000e+000
    endloop
  endfacet
  facet normal  1.000000e+000  -0.000000e+000  0.000000e+000
    outer loop
      vertex  0.000000e+000 -7.247845e+000  7.247845e+000
      vertex  0.000000e+000 -1.025000e+001  0.000000e+000
      vertex  0.000000e+000 -7.000000e+000 -2.600000e+000
    endloop
  endfacet
  facet normal  1.000000e+000  0.000000e+000  -0.000000e+000
    outer loop
      vertex  0.000000e+000 -7.247845e+000  7.247845e+000
      vertex  0.000000e+000 -7.000000e+000 -2.600000e+000
      vertex  0.000000e+000 -6.976942e+000  1.635059e+000
    endloop
  endfacet
  facet normal  1.000000e+000  0.000000e+000  -0.000000e+000
    outer loop
      vertex  0.000000e+000 -7.247845e+000  7.247845e+000
      vertex  0.000000e+000 -6.976942e+000  1.635059e+000
      vertex  0.000000e+000 -6.395648e+000  3.232157e+000
    endloop
  endfacet
  facet normal  1.000000e+000  0.000000e+000  -0.000000e+000
    outer loop
      vertex  0.000000e+000 -7.247845e+000  7.247845e+000
      vertex  0.000000e+000 -6.395648e+000  3.232157e+000
      vertex  0.000000e+000 -3.922505e+000  9.469766e+000
    endloop
  endfacet
  facet normal  1.000000e+000  0.000000e+000  0.000000e+000
    outer loop
      vertex  0.000000e+000  3.922505e+000  9.469766e+000
      vertex  0.000000e+000 -2.903589e-015  1.025000e+001
      vertex  0.000000e+000  1.310160e-003  6.508470e+000
    endloop
  endfacet
  facet normal  9.999999e-001  0.000000e+000  0.000000e+000
    outer loop
      vertex  0.000000e+000  3.922505e+000  9.469766e+000
      vertex  0.000000e+000  1.310160e-003  6.508470e+000
      vertex  0.000000e+000  1.635064e+000  6.976942e+000
    endloop
  endfacet
  facet normal  1.000000e+000  -0.000000e+000  0.000000e+000
    outer loop
      vertex  0.000000e+000  3.922505e+000  9.469766e+000
      vertex  0.000000e+000  1.635064e+000  6.976942e+000
      vertex  0.000000e+000  3.232160e+000  6.395647e+000
    endloop
  endfacet
  facet normal  1.000000e+000  -0.000000e+000  0.000000e+000
    outer loop
      vertex  0.000000e+000  3.922505e+000  9.469766e+000
      vertex  0.000000e+000  3.232160e+000  6.395647e+000
      vertex  0.000000e+000  4.182560e+000  4.986619e+000
    endloop
  endfacet
  facet normal  1.000000e+000  -0.000000e+000  -0.000000e+000
    outer loop
      vertex  0.000000e+000  3.922505e+000  9.469766e+000
      vertex  0.000000e+000  4.182560e+000  4.986619e+000
      vertex  0.000000e+000  7.000000e+000  4.400000e+000
    endloop
  endfacet
  facet normal  1.000000e+000  0.000000e+000  -0.000000e+000
    outer loop
      vertex  0.000000e+000  3.922505e+000  9.469766e+000
      vertex  0.000000e+000  7.000000e+000  4.400000e+000
      vertex  0.000000e+000  7.247845e+000  7.247845e+000
    endloop
  endfacet
  facet normal  1.000000e+000  0.000000e+000  0.000000e+000
    outer loop
      vertex  0.000000e+000  7.247845e+000 -7.247845e+000
      vertex  0.000000e+000  7.000000e+000  2.600000e+000
      vertex  0.000000e+000  6.976942e+000 -1.635067e+000
    endloop
  endfacet
  facet normal  9.999999e-001  0.000000e+000  0.000000e+000
    outer loop
      vertex  0.000000e+000  7.247845e+000 -7.247845e+000
      vertex  0.000000e+000  6.976942e+000 -1.635067e+000
      vertex  0.000000e+000  6.395643e+000 -3.232163e+000
    endloop
  endfacet
  facet normal  1.000000e+000  0.000000e+000  0.000000e+000
    outer loop
      vertex  0.000000e+000  7.247845e+000 -7.247845e+000
      vertex  0.000000e+000  6.395643e+000 -3.232163e+000
      vertex  0.000000e+000  4.986613e+000 -4.182562e+000
    endloop
  endfacet
  facet normal  9.999999e-001  0.000000e+000  0.000000e+000
    outer loop
      vertex  0.000000e+000  7.247845e+000 -7.247845e+000
      vertex  0.000000e+000  4.986613e+000 -4.182562e+000
      vertex  0.000000e+000  4.136396e+000 -6.363604e+000
    endloop
  endfacet
  facet normal  1.000000e+000  0.000000e+000  0.000000e+000
    outer loop
      vertex  0.000000e+000  7.247845e+000 -7.247845e+000
      vertex  0.000000e+000  4.136396e+000 -6.363604e+000
      vertex  0.000000e+000  4.400000e+000 -7.000000e+000
    endloop
  endfacet
  facet normal  1.000000e+000  0.000000e+000  0.000000e+000
    outer loop
      vertex  0.000000e+000  7.247845e+000 -7.247845e+000
      vertex  0.000000e+000  4.400000e+000 -7.000000e+000
      vertex  0.000000e+000  4.136396e+000 -7.636396e+000
    endloop
  endfacet
  facet normal  1.000000e+000  -0.000000e+000  0.000000e+000
    outer loop
      vertex  0.000000e+000  7.247845e+000 -7.247845e+000
      vertex  0.000000e+000  4.136396e+000 -7.636396e+000
      vertex  0.000000e+000  3.922505e+000 -9.469766e+000
    endloop
  endfacet
  facet normal  9.999999e-001  0.000000e+000  0.000000e+000
    outer loop
      vertex  0.000000e+000  7.000000e+000  2.600000e+000
      vertex  0.000000e+000  6.363604e+000  2.863604e+000
      vertex  0.000000e+000  3.524710e+000  1.643599e+000
    endloop
  endfacet
  facet normal  1.000000e+000  -0.000000e+000  0.000000e+000
    outer loop
      vertex  0.000000e+000  7.000000e+000  2.600000e+000
      vertex  0.000000e+000  3.524710e+000  1.643599e+000
      vertex  0.000000e+000  5.169172e+000  1.045064e+000
    endloop
  endfacet
  facet normal  1.000000e+000  -0.000000e+000  0.000000e+000
    outer loop
      vertex  0.000000e+000  7.000000e+000  2.600000e+000
      vertex  0.000000e+000  5.169172e+000  1.045064e+000
      vertex  0.000000e+000  6.508471e+000 -1.311495e-003
    endloop
  endfacet
  facet normal  1.000000e+000  -0.000000e+000  0.000000e+000
    outer loop
      vertex  0.000000e+000  7.000000e+000  2.600000e+000
      vertex  0.000000e+000  6.508471e+000 -1.311495e-003
      vertex  0.000000e+000  6.976942e+000 -1.635067e+000
    endloop
  endfacet
  facet normal  1.000000e+000  -0.000000e+000  -0.000000e+000
    outer loop
      vertex  0.000000e+000 -7.000000e+000 -2.600000e+000
      vertex  0.000000e+000 -6.363604e+000 -2.863604e+000
      vertex  0.000000e+000 -4.123245e+000 -3.288061e+000
    endloop
  endfacet
  facet normal  1.000000e+000  0.000000e+000  -0.000000e+000
    outer loop
      vertex  0.000000e+000 -7.000000e+000 -2.600000e+000
      vertex  0.000000e+000 -4.123245e+000 -3.288061e+000
      vertex  0.000000e+000 -3.524710e+000 -1.643599e+000
    endloop
  endfacet
  facet normal  1.000000e+000  0.000000e+000  0.000000e+000
    outer loop
      vertex  0.000000e+000 -7.000000e+000 -2.600000e+000
      vertex  0.000000e+000 -3.524710e+000 -1.643599e+000
      vertex  0.000000e+000 -5.169165e+000 -1.045067e+000
    endloop
  endfacet
  facet normal  1.000000e+000  0.000000e+000  0.000000e+000
    outer loop
      vertex  0.000000e+000 -7.000000e+000 -2.600000e+000
      vertex  0.000000e+000 -5.169165e+000 -1.045067e+000
      vertex  0.000000e+000 -6.508467e+000  1.304824e-003
    endloop
  endfacet
  facet normal  1.000000e+000  0.000000e+000  0.000000e+000
    outer loop
      vertex  0.000000e+000 -7.000000e+000 -2.600000e+000
      vertex  0.000000e+000 -6.508467e+000  1.304824e-003
      vertex  0.000000e+000 -6.976942e+000  1.635059e+000
    endloop
  endfacet
  facet normal  1.000000e+000  0.000000e+000  -0.000000e+000
    outer loop
      vertex  0.000000e+000 -6.395648e+000  3.232157e+000
      vertex  0.000000e+000 -4.986621e+000  4.182560e+000
      vertex  0.000000e+000 -3.500000e+000  6.100000e+000
    endloop
  endfacet
  facet normal  1.000000e+000  0.000000e+000  0.000000e+000
    outer loop
      vertex  0.000000e+000 -6.395648e+000  3.232157e+000
      vertex  0.000000e+000 -3.500000e+000  6.100000e+000
      vertex  0.000000e+000 -4.136396e+000  6.363604e+000
    endloop
  endfacet
  facet normal  1.000000e+000  0.000000e+000  0.000000e+000
    outer loop
      vertex  0.000000e+000 -6.395648e+000  3.232157e+000
      vertex  0.000000e+000 -4.136396e+000  6.363604e+000
      vertex  0.000000e+000 -4.400000e+000  7.000000e+000
    endloop
  endfacet
  facet normal  1.000000e+000  0.000000e+000  -0.000000e+000
    outer loop
      vertex  0.000000e+000 -6.395648e+000  3.232157e+000
      vertex  0.000000e+000 -4.400000e+000  7.000000e+000
      vertex  0.000000e+000 -4.136396e+000  7.636396e+000
    endloop
  endfacet
  facet normal  1.000000e+000  0.000000e+000  -0.000000e+000
    outer loop
      vertex  0.000000e+000 -6.395648e+000  3.232157e+000
      vertex  0.000000e+000 -4.136396e+000  7.636396e+000
      vertex  0.000000e+000 -3.922505e+000  9.469766e+000
    endloop
  endfacet
  facet normal  1.000000e+000  0.000000e+000  0.000000e+000
    outer loop
      vertex  0.000000e+000 -4.182560e+000 -4.986619e+000
      vertex  0.000000e+000 -4.123245e+000 -3.288061e+000
      vertex  0.000000e+000 -6.100000e+000 -3.500000e+000
    endloop
  endfacet
  facet normal  1.000000e+000  0.000000e+000  0.000000e+000
    outer loop
      vertex  0.000000e+000 -4.182560e+000 -4.986619e+000
      vertex  0.000000e+000 -6.100000e+000 -3.500000e+000
      vertex  0.000000e+000 -6.363604e+000 -4.136396e+000
    endloop
  endfacet
  facet normal  1.000000e+000  0.000000e+000  0.000000e+000
    outer loop
      vertex  0.000000e+000 -4.182560e+000 -4.986619e+000
      vertex  0.000000e+000 -6.363604e+000 -4.136396e+000
      vertex  0.000000e+000 -7.000000e+000 -4.400000e+000
    endloop
  endfacet
  facet normal  1.000000e+000  0.000000e+000  0.000000e+000
    outer loop
      vertex  0.000000e+000 -4.182560e+000 -4.986619e+000
      vertex  0.000000e+000 -7.000000e+000 -4.400000e+000
      vertex  0.000000e+000 -7.247845e+000 -7.247845e+000
    endloop
  endfacet
  facet normal  1.000000e+000  -0.000000e+000  0.000000e+000
    outer loop
      vertex  0.000000e+000 -4.182560e+000 -4.986619e+000
      vertex  0.000000e+000 -7.247845e+000 -7.247845e+000
      vertex  0.000000e+000 -3.922505e+000 -9.469766e+000
    endloop
  endfacet
  facet normal  1.000000e+000  0.000000e+000  -0.000000e+000
    outer loop
      vertex  0.000000e+000 -4.182560e+000 -4.986619e+000
      vertex  0.000000e+000 -3.922505e+000 -9.469766e+000
      vertex  0.000000e+000 -3.232160e+000 -6.395647e+000
    endloop
  endfacet
  facet normal  1.000000e+000  0.000000e+000  0.000000e+000
    outer loop
      vertex  0.000000e+000 -2.863604e+000  6.363604e+000
      vertex  0.000000e+000 -1.045064e+000  5.169172e+000
      vertex  0.000000e+000 -2.600000e+000  7.000000e+000
    endloop
  endfacet
  facet normal  1.000000e+000  -0.000000e+000  0.000000e+000
    outer loop
      vertex  0.000000e+000 -2.600000e+000  7.000000e+000
      vertex  0.000000e+000 -1.045064e+000  5.169172e+000
      vertex  0.000000e+000 -2.903589e-015  1.025000e+001
    endloop
  endfacet
  facet normal  1.000000e+000  0.000000e+000  0.000000e+000
    outer loop
      vertex  0.000000e+000 -2.600000e+000  7.000000e+000
      vertex  0.000000e+000 -2.903589e-015  1.025000e+001
      vertex  0.000000e+000 -2.863604e+000  7.636396e+000
    endloop
  endfacet
  facet normal  1.000000e+000  0.000000e+000  -0.000000e+000
    outer loop
      vertex  0.000000e+000 -2.863604e+000  7.636396e+000
      vertex  0.000000e+000 -2.903589e-015  1.025000e+001
      vertex  0.000000e+000 -3.922505e+000  9.469766e+000
    endloop
  endfacet
  facet normal  1.000000e+000  0.000000e+000  0.000000e+000
    outer loop
      vertex  0.000000e+000 -2.863604e+000  7.636396e+000
      vertex  0.000000e+000 -3.922505e+000  9.469766e+000
      vertex  0.000000e+000 -3.500000e+000  7.900000e+000
    endloop
  endfacet
  facet normal  1.000000e+000  -0.000000e+000  0.000000e+000
    outer loop
      vertex  0.000000e+000 -1.310160e-003 -6.508470e+000
      vertex  0.000000e+000 -1.635064e+000 -6.976942e+000
      vertex  0.000000e+000  1.098672e-014 -1.025000e+001
    endloop
  endfacet
  facet normal  1.000000e+000  0.000000e+000  0.000000e+000
    outer loop
      vertex  0.000000e+000  1.098672e-014 -1.025000e+001
      vertex  0.000000e+000 -1.635064e+000 -6.976942e+000
      vertex  0.000000e+000 -3.232160e+000 -6.395647e+000
    endloop
  endfacet
  facet normal  1.000000e+000  0.000000e+000  0.000000e+000
    outer loop
      vertex  0.000000e+000  1.098672e-014 -1.025000e+001
      vertex  0.000000e+000 -3.232160e+000 -6.395647e+000
      vertex  0.000000e+000 -3.922505e+000 -9.469766e+000
    endloop
  endfacet
  facet normal  1.000000e+000  0.000000e+000  0.000000e+000
    outer loop
      vertex  0.000000e+000  7.636396e+000  4.136396e+000
      vertex  0.000000e+000  9.469766e+000  3.922505e+000
      vertex  0.000000e+000  7.000000e+000  4.400000e+000
    endloop
  endfacet
  facet normal  1.000000e+000  -0.000000e+000  0.000000e+000
    outer loop
      vertex  0.000000e+000  7.000000e+000  4.400000e+000
      vertex  0.000000e+000  9.469766e+000  3.922505e+000
      vertex  0.000000e+000  7.247845e+000  7.247845e+000
    endloop
  endfacet
  facet normal  1.000000e+000  0.000000e+000  0.000000e+000
    outer loop
      vertex  0.000000e+000  6.100000e+000  3.500000e+000
      vertex  0.000000e+000  6.363604e+000  4.136396e+000
      vertex  0.000000e+000  4.123245e+000  3.288061e+000
    endloop
  endfacet
  facet normal  9.999999e-001  0.000000e+000  0.000000e+000
    outer loop
      vertex  0.000000e+000  4.123245e+000  3.288061e+000
      vertex  0.000000e+000  6.363604e+000  4.136396e+000
      vertex  0.000000e+000  7.000000e+000  4.400000e+000
    endloop
  endfacet
  facet normal  1.000000e+000  0.000000e+000  0.000000e+000
    outer loop
      vertex  0.000000e+000  4.123245e+000  3.288061e+000
      vertex  0.000000e+000  7.000000e+000  4.400000e+000
      vertex  0.000000e+000  4.182560e+000  4.986619e+000
    endloop
  endfacet
  facet normal  1.000000e+000  0.000000e+000  0.000000e+000
    outer loop
      vertex  0.000000e+000  6.363604e+000  2.863604e+000
      vertex  0.000000e+000  6.100000e+000  3.500000e+000
      vertex  0.000000e+000  3.524710e+000  1.643599e+000
    endloop
  endfacet
  facet normal  1.000000e+000  0.000000e+000  0.000000e+000
    outer loop
      vertex  0.000000e+000  3.524710e+000  1.643599e+000
      vertex  0.000000e+000  6.100000e+000  3.500000e+000
      vertex  0.000000e+000  4.123245e+000  3.288061e+000
    endloop
  endfacet
  facet normal  1.000000e+000  0.000000e+000  0.000000e+000
    outer loop
      vertex  0.000000e+000 -7.000000e+000 -2.600000e+000
      vertex  0.000000e+000 -1.025000e+001  0.000000e+000
      vertex  0.000000e+000 -7.636396e+000 -2.863604e+000
    endloop
  endfacet
  facet normal  1.000000e+000  0.000000e+000  0.000000e+000
    outer loop
      vertex  0.000000e+000 -7.636396e+000 -2.863604e+000
      vertex  0.000000e+000 -1.025000e+001  0.000000e+000
      vertex  0.000000e+000 -9.469766e+000 -3.922505e+000
    endloop
  endfacet
  facet normal  1.000000e+000  0.000000e+000  0.000000e+000
    outer loop
      vertex  0.000000e+000 -7.636396e+000 -2.863604e+000
      vertex  0.000000e+000 -9.469766e+000 -3.922505e+000
      vertex  0.000000e+000 -7.900000e+000 -3.500000e+000
    endloop
  endfacet
  facet normal  1.000000e+000  -0.000000e+000  0.000000e+000
    outer loop
      vertex  0.000000e+000 -7.900000e+000 -3.500000e+000
      vertex  0.000000e+000 -9.469766e+000 -3.922505e+000
      vertex  0.000000e+000 -7.636396e+000 -4.136396e+000
    endloop
  endfacet
  facet normal  1.000000e+000  0.000000e+000  0.000000e+000
    outer loop
      vertex  0.000000e+000 -7.636396e+000 -4.136396e+000
      vertex  0.000000e+000 -9.469766e+000 -3.922505e+000
      vertex  0.000000e+000 -7.247845e+000 -7.247845e+000
    endloop
  endfacet
  facet normal  1.000000e+000  0.000000e+000  -0.000000e+000
    outer loop
      vertex  0.000000e+000 -7.636396e+000 -4.136396e+000
      vertex  0.000000e+000 -7.247845e+000 -7.247845e+000
      vertex  0.000000e+000 -7.000000e+000 -4.400000e+000
    endloop
  endfacet
  facet normal -1.000000e+000  0.000000e+000  -0.000000e+000
    outer loop
      vertex -4.250000e+000 -4.136396e+000  7.636396e+000
      vertex -4.250000e+000 -3.922505e+000  9.469766e+000
      vertex -4.250000e+000 -3.500000e+000  7.900000e+000
    endloop
  endfacet
  facet normal -1.000000e+000  0.000000e+000  -0.000000e+000
    outer loop
      vertex -4.250000e+000 -1.045064e+000  5.169172e+000
      vertex -4.250000e+000 -2.903589e-015  1.025000e+001
      vertex -4.250000e+000  1.310160e-003  6.508470e+000
    endloop
  endfacet
  facet normal -1.000000e+000  -0.000000e+000  0.000000e+000
    outer loop
      vertex -4.250000e+000  3.500000e+000 -7.900000e+000
      vertex -4.250000e+000  3.922505e+000 -9.469766e+000
      vertex -4.250000e+000  1.098672e-014 -1.025000e+001
    endloop
  endfacet
  facet normal -1.000000e+000  0.000000e+000  0.000000e+000
    outer loop
      vertex -4.250000e+000  4.136396e+000 -6.363604e+000
      vertex -4.250000e+000  3.500000e+000 -6.100000e+000
      vertex -4.250000e+000  4.986613e+000 -4.182562e+000
    endloop
  endfacet
  facet normal -1.000000e+000  -0.000000e+000  0.000000e+000
    outer loop
      vertex -4.250000e+000  2.600000e+000 -7.000000e+000
      vertex -4.250000e+000  2.863604e+000 -7.636396e+000
      vertex -4.250000e+000  1.098672e-014 -1.025000e+001
    endloop
  endfacet
  facet normal -9.999999e-001  0.000000e+000  -0.000000e+000
    outer loop
      vertex -4.250000e+000  1.098672e-014 -1.025000e+001
      vertex -4.250000e+000  2.863604e+000 -7.636396e+000
      vertex -4.250000e+000  3.500000e+000 -7.900000e+000
    endloop
  endfacet
  facet normal -1.000000e+000  0.000000e+000  0.000000e+000
    outer loop
      vertex -4.250000e+000  3.922505e+000 -9.469766e+000
      vertex -4.250000e+000  3.500000e+000 -7.900000e+000
      vertex -4.250000e+000  4.136396e+000 -7.636396e+000
    endloop
  endfacet
  facet normal -9.999999e-001  0.000000e+000  0.000000e+000
    outer loop
      vertex -4.250000e+000 -6.100000e+000 -3.500000e+000
      vertex -4.250000e+000 -6.363604e+000 -2.863604e+000
      vertex -4.250000e+000 -4.123245e+000 -3.288061e+000
    endloop
  endfacet
  facet normal -1.000000e+000  0.000000e+000  -0.000000e+000
    outer loop
      vertex -4.250000e+000  1.045064e+000 -5.169172e+000
      vertex -4.250000e+000  1.643599e+000 -3.524710e+000
      vertex -4.250000e+000  3.288054e+000 -4.123243e+000
    endloop
  endfacet
  facet normal -1.000000e+000  0.000000e+000  -0.000000e+000
    outer loop
      vertex -4.250000e+000  1.045064e+000 -5.169172e+000
      vertex -4.250000e+000  3.288054e+000 -4.123243e+000
      vertex -4.250000e+000  4.986613e+000 -4.182562e+000
    endloop
  endfacet
  facet normal -9.999999e-001  0.000000e+000  0.000000e+000
    outer loop
      vertex -4.250000e+000  1.045064e+000 -5.169172e+000
      vertex -4.250000e+000  4.986613e+000 -4.182562e+000
      vertex -4.250000e+000  3.500000e+000 -6.100000e+000
    endloop
  endfacet
  facet normal -1.000000e+000  -0.000000e+000  0.000000e+000
    outer loop
      vertex -4.250000e+000  1.045064e+000 -5.169172e+000
      vertex -4.250000e+000  3.500000e+000 -6.100000e+000
      vertex -4.250000e+000  2.863604e+000 -6.363604e+000
    endloop
  endfacet
  facet normal -1.000000e+000  -0.000000e+000  0.000000e+000
    outer loop
      vertex -4.250000e+000  1.045064e+000 -5.169172e+000
      vertex -4.250000e+000  2.863604e+000 -6.363604e+000
      vertex -4.250000e+000  2.600000e+000 -7.000000e+000
    endloop
  endfacet
  facet normal -1.000000e+000  -0.000000e+000  0.000000e+000
    outer loop
      vertex -4.250000e+000  1.045064e+000 -5.169172e+000
      vertex -4.250000e+000  2.600000e+000 -7.000000e+000
      vertex -4.250000e+000  1.098672e-014 -1.025000e+001
    endloop
  endfacet
  facet normal -1.000000e+000  0.000000e+000  0.000000e+000
    outer loop
      vertex -4.250000e+000  1.045064e+000 -5.169172e+000
      vertex -4.250000e+000  1.098672e-014 -1.025000e+001
      vertex -4.250000e+000 -1.310160e-003 -6.508470e+000
    endloop
  endfacet
  facet normal -1.000000e+000  0.000000e+000  0.000000e+000
    outer loop
      vertex -4.250000e+000 -3.288061e+000  4.123245e+000
      vertex -4.250000e+000 -4.986621e+000  4.182560e+000
      vertex -4.250000e+000 -3.500000e+000  6.100000e+000
    endloop
  endfacet
  facet normal -9.999999e-001  0.000000e+000  0.000000e+000
    outer loop
      vertex -4.250000e+000 -3.288061e+000  4.123245e+000
      vertex -4.250000e+000 -3.500000e+000  6.100000e+000
      vertex -4.250000e+000 -2.863604e+000  6.363604e+000
    endloop
  endfacet
  facet normal -1.000000e+000  0.000000e+000  -0.000000e+000
    outer loop
      vertex -4.250000e+000 -3.288061e+000  4.123245e+000
      vertex -4.250000e+000 -2.863604e+000  6.363604e+000
      vertex -4.250000e+000 -1.045064e+000  5.169172e+000
    endloop
  endfacet
  facet normal -1.000000e+000  0.000000e+000  0.000000e+000
    outer loop
      vertex -4.250000e+000 -3.288061e+000  4.123245e+000
      vertex -4.250000e+000 -1.045064e+000  5.169172e+000
      vertex -4.250000e+000 -1.643599e+000  3.524710e+000
    endloop
  endfacet
  facet normal -1.000000e+000  -0.000000e+000  0.000000e+000
    outer loop
      vertex -4.250000e+000  1.025000e+001  5.807177e-015
      vertex -4.250000e+000  9.469766e+000 -3.922505e+000
      vertex -4.250000e+000  7.247845e+000 -7.247845e+000
    endloop
  endfacet
  facet normal -1.000000e+000  0.000000e+000  0.000000e+000
    outer loop
      vertex -4.250000e+000  1.025000e+001  5.807177e-015
      vertex -4.250000e+000  7.247845e+000 -7.247845e+000
      vertex -4.250000e+000  7.000000e+000  2.600000e+000
    endloop
  endfacet
  facet normal -1.000000e+000  0.000000e+000  0.000000e+000
    outer loop
      vertex -4.250000e+000  1.025000e+001  5.807177e-015
      vertex -4.250000e+000  7.000000e+000  2.600000e+000
      vertex -4.250000e+000  7.636396e+000  2.863604e+000
    endloop
  endfacet
  facet normal -9.999999e-001  0.000000e+000  0.000000e+000
    outer loop
      vertex -4.250000e+000  1.025000e+001  5.807177e-015
      vertex -4.250000e+000  7.636396e+000  2.863604e+000
      vertex -4.250000e+000  7.900000e+000  3.500000e+000
    endloop
  endfacet
  facet normal -1.000000e+000  0.000000e+000  0.000000e+000
    outer loop
      vertex -4.250000e+000  1.025000e+001  5.807177e-015
      vertex -4.250000e+000  7.900000e+000  3.500000e+000
      vertex -4.250000e+000  7.636396e+000  4.136396e+000
    endloop
  endfacet
  facet normal -9.999999e-001  0.000000e+000  0.000000e+000
    outer loop
      vertex -4.250000e+000  1.025000e+001  5.807177e-015
      vertex -4.250000e+000  7.636396e+000  4.136396e+000
      vertex -4.250000e+000  9.469766e+000  3.922505e+000
    endloop
  endfacet
  facet normal -9.999999e-001  0.000000e+000  0.000000e+000
    outer loop
      vertex -4.250000e+000 -7.247845e+000  7.247845e+000
      vertex -4.250000e+000 -3.922505e+000  9.469766e+000
      vertex -4.250000e+000 -6.395648e+000  3.232157e+000
    endloop
  endfacet
  facet normal -1.000000e+000  -0.000000e+000  0.000000e+000
    outer loop
      vertex -4.250000e+000 -7.247845e+000  7.247845e+000
      vertex -4.250000e+000 -6.395648e+000  3.232157e+000
      vertex -4.250000e+000 -6.976942e+000  1.635059e+000
    endloop
  endfacet
  facet normal -1.000000e+000  -0.000000e+000  0.000000e+000
    outer loop
      vertex -4.250000e+000 -7.247845e+000  7.247845e+000
      vertex -4.250000e+000 -6.976942e+000  1.635059e+000
      vertex -4.250000e+000 -7.000000e+000 -2.600000e+000
    endloop
  endfacet
  facet normal -1.000000e+000  0.000000e+000  0.000000e+000
    outer loop
      vertex -4.250000e+000 -7.247845e+000  7.247845e+000
      vertex -4.250000e+000 -7.000000e+000 -2.600000e+000
      vertex -4.250000e+000 -1.025000e+001  0.000000e+000
    endloop
  endfacet
  facet normal -1.000000e+000  0.000000e+000  0.000000e+000
    outer loop
      vertex -4.250000e+000 -7.247845e+000  7.247845e+000
      vertex -4.250000e+000 -1.025000e+001  0.000000e+000
      vertex -4.250000e+000 -9.469766e+000  3.922505e+000
    endloop
  endfacet
  facet normal -1.000000e+000  -0.000000e+000  0.000000e+000
    outer loop
      vertex -4.250000e+000  3.922505e+000  9.469766e+000
      vertex -4.250000e+000  7.247845e+000  7.247845e+000
      vertex -4.250000e+000  7.000000e+000  4.400000e+000
    endloop
  endfacet
  facet normal -1.000000e+000  0.000000e+000  0.000000e+000
    outer loop
      vertex -4.250000e+000  3.922505e+000  9.469766e+000
      vertex -4.250000e+000  7.000000e+000  4.400000e+000
      vertex -4.250000e+000  4.182560e+000  4.986619e+000
    endloop
  endfacet
  facet normal -1.000000e+000  0.000000e+000  0.000000e+000
    outer loop
      vertex -4.250000e+000  3.922505e+000  9.469766e+000
      vertex -4.250000e+000  4.182560e+000  4.986619e+000
      vertex -4.250000e+000  3.232160e+000  6.395647e+000
    endloop
  endfacet
  facet normal -1.000000e+000  0.000000e+000  0.000000e+000
    outer loop
      vertex -4.250000e+000  3.922505e+000  9.469766e+000
      vertex -4.250000e+000  3.232160e+000  6.395647e+000
      vertex -4.250000e+000  1.635064e+000  6.976942e+000
    endloop
  endfacet
  facet normal -1.000000e+000  -0.000000e+000  0.000000e+000
    outer loop
      vertex -4.250000e+000  3.922505e+000  9.469766e+000
      vertex -4.250000e+000  1.635064e+000  6.976942e+000
      vertex -4.250000e+000  1.310160e-003  6.508470e+000
    endloop
  endfacet
  facet normal -1.000000e+000  0.000000e+000  0.000000e+000
    outer loop
      vertex -4.250000e+000  3.922505e+000  9.469766e+000
      vertex -4.250000e+000  1.310160e-003  6.508470e+000
      vertex -4.250000e+000 -2.903589e-015  1.025000e+001
    endloop
  endfacet
  facet normal -1.000000e+000  0.000000e+000  0.000000e+000
    outer loop
      vertex -4.250000e+000  7.247845e+000 -7.247845e+000
      vertex -4.250000e+000  3.922505e+000 -9.469766e+000
      vertex -4.250000e+000  4.136396e+000 -7.636396e+000
    endloop
  endfacet
  facet normal -1.000000e+000  0.000000e+000  0.000000e+000
    outer loop
      vertex -4.250000e+000  7.247845e+000 -7.247845e+000
      vertex -4.250000e+000  4.136396e+000 -7.636396e+000
      vertex -4.250000e+000  4.400000e+000 -7.000000e+000
    endloop
  endfacet
  facet normal -1.000000e+000  0.000000e+000  0.000000e+000
    outer loop
      vertex -4.250000e+000  7.247845e+000 -7.247845e+000
      vertex -4.250000e+000  4.400000e+000 -7.000000e+000
      vertex -4.250000e+000  4.136396e+000 -6.363604e+000
    endloop
  endfacet
  facet normal -1.000000e+000  0.000000e+000  0.000000e+000
    outer loop
      vertex -4.250000e+000  7.247845e+000 -7.247845e+000
      vertex -4.250000e+000  4.136396e+000 -6.363604e+000
      vertex -4.250000e+000  4.986613e+000 -4.182562e+000
    endloop
  endfacet
  facet normal -1.000000e+000  0.000000e+000  0.000000e+000
    outer loop
      vertex -4.250000e+000  7.247845e+000 -7.247845e+000
      vertex -4.250000e+000  4.986613e+000 -4.182562e+000
      vertex -4.250000e+000  6.395643e+000 -3.232163e+000
    endloop
  endfacet
  facet normal -9.999999e-001  0.000000e+000  0.000000e+000
    outer loop
      vertex -4.250000e+000  7.247845e+000 -7.247845e+000
      vertex -4.250000e+000  6.395643e+000 -3.232163e+000
      vertex -4.250000e+000  6.976942e+000 -1.635067e+000
    endloop
  endfacet
  facet normal -1.000000e+000  0.000000e+000  0.000000e+000
    outer loop
      vertex -4.250000e+000  7.247845e+000 -7.247845e+000
      vertex -4.250000e+000  6.976942e+000 -1.635067e+000
      vertex -4.250000e+000  7.000000e+000  2.600000e+000
    endloop
  endfacet
  facet normal -1.000000e+000  0.000000e+000  0.000000e+000
    outer loop
      vertex -4.250000e+000  7.000000e+000  2.600000e+000
      vertex -4.250000e+000  6.976942e+000 -1.635067e+000
      vertex -4.250000e+000  6.508471e+000 -1.311495e-003
    endloop
  endfacet
  facet normal -1.000000e+000  0.000000e+000  0.000000e+000
    outer loop
      vertex -4.250000e+000  7.000000e+000  2.600000e+000
      vertex -4.250000e+000  6.508471e+000 -1.311495e-003
      vertex -4.250000e+000  5.169172e+000  1.045064e+000
    endloop
  endfacet
  facet normal -1.000000e+000  0.000000e+000  0.000000e+000
    outer loop
      vertex -4.250000e+000  7.000000e+000  2.600000e+000
      vertex -4.250000e+000  5.169172e+000  1.045064e+000
      vertex -4.250000e+000  3.524710e+000  1.643599e+000
    endloop
  endfacet
  facet normal -1.000000e+000  0.000000e+000  0.000000e+000
    outer loop
      vertex -4.250000e+000  7.000000e+000  2.600000e+000
      vertex -4.250000e+000  3.524710e+000  1.643599e+000
      vertex -4.250000e+000  6.363604e+000  2.863604e+000
    endloop
  endfacet
  facet normal -1.000000e+000  0.000000e+000  -0.000000e+000
    outer loop
      vertex -4.250000e+000 -7.000000e+000 -2.600000e+000
      vertex -4.250000e+000 -6.976942e+000  1.635059e+000
      vertex -4.250000e+000 -6.508467e+000  1.304824e-003
    endloop
  endfacet
  facet normal -1.000000e+000  0.000000e+000  -0.000000e+000
    outer loop
      vertex -4.250000e+000 -7.000000e+000 -2.600000e+000
      vertex -4.250000e+000 -6.508467e+000  1.304824e-003
      vertex -4.250000e+000 -5.169165e+000 -1.045067e+000
    endloop
  endfacet
  facet normal -1.000000e+000  0.000000e+000  -0.000000e+000
    outer loop
      vertex -4.250000e+000 -7.000000e+000 -2.600000e+000
      vertex -4.250000e+000 -5.169165e+000 -1.045067e+000
      vertex -4.250000e+000 -3.524710e+000 -1.643599e+000
    endloop
  endfacet
  facet normal -1.000000e+000  0.000000e+000  0.000000e+000
    outer loop
      vertex -4.250000e+000 -7.000000e+000 -2.600000e+000
      vertex -4.250000e+000 -3.524710e+000 -1.643599e+000
      vertex -4.250000e+000 -4.123245e+000 -3.288061e+000
    endloop
  endfacet
  facet normal -1.000000e+000  0.000000e+000  0.000000e+000
    outer loop
      vertex -4.250000e+000 -7.000000e+000 -2.600000e+000
      vertex -4.250000e+000 -4.123245e+000 -3.288061e+000
      vertex -4.250000e+000 -6.363604e+000 -2.863604e+000
    endloop
  endfacet
  facet normal -1.000000e+000  0.000000e+000  0.000000e+000
    outer loop
      vertex -4.250000e+000 -6.395648e+000  3.232157e+000
      vertex -4.250000e+000 -3.922505e+000  9.469766e+000
      vertex -4.250000e+000 -4.136396e+000  7.636396e+000
    endloop
  endfacet
  facet normal -1.000000e+000  0.000000e+000  0.000000e+000
    outer loop
      vertex -4.250000e+000 -6.395648e+000  3.232157e+000
      vertex -4.250000e+000 -4.136396e+000  7.636396e+000
      vertex -4.250000e+000 -4.400000e+000  7.000000e+000
    endloop
  endfacet
  facet normal -1.000000e+000  0.000000e+000  -0.000000e+000
    outer loop
      vertex -4.250000e+000 -6.395648e+000  3.232157e+000
      vertex -4.250000e+000 -4.400000e+000  7.000000e+000
      vertex -4.250000e+000 -4.136396e+000  6.363604e+000
    endloop
  endfacet
  facet normal -1.000000e+000  0.000000e+000  -0.000000e+000
    outer loop
      vertex -4.250000e+000 -6.395648e+000  3.232157e+000
      vertex -4.250000e+000 -4.136396e+000  6.363604e+000
      vertex -4.250000e+000 -3.500000e+000  6.100000e+000
    endloop
  endfacet
  facet normal -1.000000e+000  0.000000e+000  0.000000e+000
    outer loop
      vertex -4.250000e+000 -6.395648e+000  3.232157e+000
      vertex -4.250000e+000 -3.500000e+000  6.100000e+000
      vertex -4.250000e+000 -4.986621e+000  4.182560e+000
    endloop
  endfacet
  facet normal -1.000000e+000  -0.000000e+000  0.000000e+000
    outer loop
      vertex -4.250000e+000 -4.182560e+000 -4.986619e+000
      vertex -4.250000e+000 -3.232160e+000 -6.395647e+000
      vertex -4.250000e+000 -3.922505e+000 -9.469766e+000
    endloop
  endfacet
  facet normal -9.999999e-001  0.000000e+000  0.000000e+000
    outer loop
      vertex -4.250000e+000 -4.182560e+000 -4.986619e+000
      vertex -4.250000e+000 -3.922505e+000 -9.469766e+000
      vertex -4.250000e+000 -7.247845e+000 -7.247845e+000
    endloop
  endfacet
  facet normal -1.000000e+000  0.000000e+000  0.000000e+000
    outer loop
      vertex -4.250000e+000 -4.182560e+000 -4.986619e+000
      vertex -4.250000e+000 -7.247845e+000 -7.247845e+000
      vertex -4.250000e+000 -7.000000e+000 -4.400000e+000
    endloop
  endfacet
  facet normal -1.000000e+000  0.000000e+000  0.000000e+000
    outer loop
      vertex -4.250000e+000 -4.182560e+000 -4.986619e+000
      vertex -4.250000e+000 -7.000000e+000 -4.400000e+000
      vertex -4.250000e+000 -6.363604e+000 -4.136396e+000
    endloop
  endfacet
  facet normal -1.000000e+000  0.000000e+000  0.000000e+000
    outer loop
      vertex -4.250000e+000 -4.182560e+000 -4.986619e+000
      vertex -4.250000e+000 -6.363604e+000 -4.136396e+000
      vertex -4.250000e+000 -6.100000e+000 -3.500000e+000
    endloop
  endfacet
  facet normal -1.000000e+000  0.000000e+000  0.000000e+000
    outer loop
      vertex -4.250000e+000 -4.182560e+000 -4.986619e+000
      vertex -4.250000e+000 -6.100000e+000 -3.500000e+000
      vertex -4.250000e+000 -4.123245e+000 -3.288061e+000
    endloop
  endfacet
  facet normal -1.000000e+000  0.000000e+000  0.000000e+000
    outer loop
      vertex -4.250000e+000 -3.500000e+000  7.900000e+000
      vertex -4.250000e+000 -3.922505e+000  9.469766e+000
      vertex -4.250000e+000 -2.863604e+000  7.636396e+000
    endloop
  endfacet
  facet normal -1.000000e+000  0.000000e+000  0.000000e+000
    outer loop
      vertex -4.250000e+000 -2.863604e+000  7.636396e+000
      vertex -4.250000e+000 -3.922505e+000  9.469766e+000
      vertex -4.250000e+000 -2.903589e-015  1.025000e+001
    endloop
  endfacet
  facet normal -1.000000e+000  0.000000e+000  0.000000e+000
    outer loop
      vertex -4.250000e+000 -2.863604e+000  7.636396e+000
      vertex -4.250000e+000 -2.903589e-015  1.025000e+001
      vertex -4.250000e+000 -2.600000e+000  7.000000e+000
    endloop
  endfacet
  facet normal -1.000000e+000  0.000000e+000  0.000000e+000
    outer loop
      vertex -4.250000e+000 -2.600000e+000  7.000000e+000
      vertex -4.250000e+000 -2.903589e-015  1.025000e+001
      vertex -4.250000e+000 -1.045064e+000  5.169172e+000
    endloop
  endfacet
  facet normal -1.000000e+000  0.000000e+000  0.000000e+000
    outer loop
      vertex -4.250000e+000 -2.600000e+000  7.000000e+000
      vertex -4.250000e+000 -1.045064e+000  5.169172e+000
      vertex -4.250000e+000 -2.863604e+000  6.363604e+000
    endloop
  endfacet
  facet normal -1.000000e+000  0.000000e+000  -0.000000e+000
    outer loop
      vertex -4.250000e+000 -3.922505e+000 -9.469766e+000
      vertex -4.250000e+000 -3.232160e+000 -6.395647e+000
      vertex -4.250000e+000  1.098672e-014 -1.025000e+001
    endloop
  endfacet
  facet normal -1.000000e+000  0.000000e+000  0.000000e+000
    outer loop
      vertex -4.250000e+000  1.098672e-014 -1.025000e+001
      vertex -4.250000e+000 -3.232160e+000 -6.395647e+000
      vertex -4.250000e+000 -1.635064e+000 -6.976942e+000
    endloop
  endfacet
  facet normal -1.000000e+000  0.000000e+000  0.000000e+000
    outer loop
      vertex -4.250000e+000  1.098672e-014 -1.025000e+001
      vertex -4.250000e+000 -1.635064e+000 -6.976942e+000
      vertex -4.250000e+000 -1.310160e-003 -6.508470e+000
    endloop
  endfacet
  facet normal -9.999999e-001  0.000000e+000  0.000000e+000
    outer loop
      vertex -4.250000e+000  7.636396e+000  4.136396e+000
      vertex -4.250000e+000  7.000000e+000  4.400000e+000
      vertex -4.250000e+000  9.469766e+000  3.922505e+000
    endloop
  endfacet
  facet normal -1.000000e+000  0.000000e+000  0.000000e+000
    outer loop
      vertex -4.250000e+000  9.469766e+000  3.922505e+000
      vertex -4.250000e+000  7.000000e+000  4.400000e+000
      vertex -4.250000e+000  7.247845e+000  7.247845e+000
    endloop
  endfacet
  facet normal -1.000000e+000  -0.000000e+000  0.000000e+000
    outer loop
      vertex -4.250000e+000  4.182560e+000  4.986619e+000
      vertex -4.250000e+000  7.000000e+000  4.400000e+000
      vertex -4.250000e+000  4.123245e+000  3.288061e+000
    endloop
  endfacet
  facet normal -9.999999e-001  0.000000e+000  0.000000e+000
    outer loop
      vertex -4.250000e+000  4.123245e+000  3.288061e+000
      vertex -4.250000e+000  7.000000e+000  4.400000e+000
      vertex -4.250000e+000  6.363604e+000  4.136396e+000
    endloop
  endfacet
  facet normal -1.000000e+000  0.000000e+000  0.000000e+000
    outer loop
      vertex -4.250000e+000  4.123245e+000  3.288061e+000
      vertex -4.250000e+000  6.363604e+000  4.136396e+000
      vertex -4.250000e+000  6.100000e+000  3.500000e+000
    endloop
  endfacet
  facet normal -1.000000e+000  0.000000e+000  0.000000e+000
    outer loop
      vertex -4.250000e+000  6.363604e+000  2.863604e+000
      vertex -4.250000e+000  3.524710e+000  1.643599e+000
      vertex -4.250000e+000  6.100000e+000  3.500000e+000
    endloop
  endfacet
  facet normal -1.000000e+000  0.000000e+000  0.000000e+000
    outer loop
      vertex -4.250000e+000  6.100000e+000  3.500000e+000
      vertex -4.250000e+000  3.524710e+000  1.643599e+000
      vertex -4.250000e+000  4.123245e+000  3.288061e+000
    endloop
  endfacet
  facet normal -1.000000e+000  0.000000e+000  0.000000e+000
    outer loop
      vertex -4.250000e+000 -7.900000e+000 -3.500000e+000
      vertex -4.250000e+000 -9.469766e+000 -3.922505e+000
      vertex -4.250000e+000 -7.636396e+000 -2.863604e+000
    endloop
  endfacet
  facet normal -1.000000e+000  -0.000000e+000  0.000000e+000
    outer loop
      vertex -4.250000e+000 -7.636396e+000 -2.863604e+000
      vertex -4.250000e+000 -9.469766e+000 -3.922505e+000
      vertex -4.250000e+000 -1.025000e+001  0.000000e+000
    endloop
  endfacet
  facet normal -1.000000e+000  0.000000e+000  0.000000e+000
    outer loop
      vertex -4.250000e+000 -7.636396e+000 -2.863604e+000
      vertex -4.250000e+000 -1.025000e+001  0.000000e+000
      vertex -4.250000e+000 -7.000000e+000 -2.600000e+000
    endloop
  endfacet
  facet normal -1.000000e+000  0.000000e+000  0.000000e+000
    outer loop
      vertex -4.250000e+000 -7.000000e+000 -4.400000e+000
      vertex -4.250000e+000 -7.247845e+000 -7.247845e+000
      vertex -4.250000e+000 -7.636396e+000 -4.136396e+000
    endloop
  endfacet
  facet normal -1.000000e+000  -0.000000e+000  -0.000000e+000
    outer loop
      vertex -4.250000e+000 -7.636396e+000 -4.136396e+000
      vertex -4.250000e+000 -7.247845e+000 -7.247845e+000
      vertex -4.250000e+000 -9.469766e+000 -3.922505e+000
    endloop
  endfacet
  facet normal -1.000000e+000  0.000000e+000  0.000000e+000
    outer loop
      vertex -4.250000e+000 -7.636396e+000 -4.136396e+000
      vertex -4.250000e+000 -9.469766e+000 -3.922505e+000
      vertex -4.250000e+000 -7.900000e+000 -3.500000e+000
    endloop
  endfacet
  facet normal  0.000000e+000 -8.290375e-001 -5.591930e-001
    outer loop
      vertex  0.000000e+000  3.232160e+000  6.395647e+000
      vertex -4.250000e+000  4.182560e+000  4.986619e+000
      vertex  0.000000e+000  4.182560e+000  4.986619e+000
    endloop
  endfacet
  facet normal  0.000000e+000 -9.993908e-001  3.489964e-002
    outer loop
      vertex  0.000000e+000  4.182560e+000  4.986619e+000
      vertex -4.250000e+000  4.182560e+000  4.986619e+000
      vertex -4.250000e+000  4.123245e+000  3.288061e+000
    endloop
  endfacet
  facet normal  0.000000e+000 -9.993908e-001  3.489964e-002
    outer loop
      vertex  0.000000e+000  4.182560e+000  4.986619e+000
      vertex -4.250000e+000  4.123245e+000  3.288061e+000
      vertex  0.000000e+000  4.123245e+000  3.288061e+000
    endloop
  endfacet
  facet normal  -0.000000e+000 -8.290375e-001 -5.591930e-001
    outer loop
      vertex -4.250000e+000  4.182560e+000  4.986619e+000
      vertex  0.000000e+000  3.232160e+000  6.395647e+000
      vertex -4.250000e+000  3.232160e+000  6.395647e+000
    endloop
  endfacet
  facet normal  0.000000e+000 -3.420200e-001 -9.396926e-001
    outer loop
      vertex -4.250000e+000  3.232160e+000  6.395647e+000
      vertex  0.000000e+000  3.232160e+000  6.395647e+000
      vertex  0.000000e+000  1.635064e+000  6.976942e+000
    endloop
  endfacet
  facet normal  -0.000000e+000 -3.420200e-001 -9.396926e-001
    outer loop
      vertex -4.250000e+000  3.232160e+000  6.395647e+000
      vertex  0.000000e+000  1.635064e+000  6.976942e+000
      vertex -4.250000e+000  1.635064e+000  6.976942e+000
    endloop
  endfacet
  facet normal  0.000000e+000  2.756374e-001 -9.612616e-001
    outer loop
      vertex -4.250000e+000  1.635064e+000  6.976942e+000
      vertex  0.000000e+000  1.635064e+000  6.976942e+000
      vertex  0.000000e+000  1.310160e-003  6.508470e+000
    endloop
  endfacet
  facet normal  0.000000e+000  2.756374e-001 -9.612616e-001
    outer loop
      vertex -4.250000e+000  1.635064e+000  6.976942e+000
      vertex  0.000000e+000  1.310160e-003  6.508470e+000
      vertex -4.250000e+000  1.310160e-003  6.508470e+000
    endloop
  endfacet
  facet normal  0.000000e+000  7.880107e-001 -6.156614e-001
    outer loop
      vertex -4.250000e+000  1.310160e-003  6.508470e+000
      vertex  0.000000e+000  1.310160e-003  6.508470e+000
      vertex  0.000000e+000 -1.045064e+000  5.169172e+000
    endloop
  endfacet
  facet normal  0.000000e+000  7.880107e-001 -6.156614e-001
    outer loop
      vertex -4.250000e+000  1.310160e-003  6.508470e+000
      vertex  0.000000e+000 -1.045064e+000  5.169172e+000
      vertex -4.250000e+000 -1.045064e+000  5.169172e+000
    endloop
  endfacet
  facet normal  0.000000e+000 -9.396927e-001  3.420201e-001
    outer loop
      vertex  0.000000e+000  3.524710e+000  1.643599e+000
      vertex  0.000000e+000  4.123245e+000  3.288061e+000
      vertex -4.250000e+000  3.524710e+000  1.643599e+000
    endloop
  endfacet
  facet normal  0.000000e+000 -9.396927e-001  3.420201e-001
    outer loop
      vertex -4.250000e+000  3.524710e+000  1.643599e+000
      vertex  0.000000e+000  4.123245e+000  3.288061e+000
      vertex -4.250000e+000  4.123245e+000  3.288061e+000
    endloop
  endfacet
  facet normal  0.000000e+000 -3.420201e-001 -9.396926e-001
    outer loop
      vertex  0.000000e+000  5.169172e+000  1.045064e+000
      vertex  0.000000e+000  3.524710e+000  1.643599e+000
      vertex -4.250000e+000  5.169172e+000  1.045064e+000
    endloop
  endfacet
  facet normal  0.000000e+000 -3.420201e-001 -9.396926e-001
    outer loop
      vertex -4.250000e+000  5.169172e+000  1.045064e+000
      vertex  0.000000e+000  3.524710e+000  1.643599e+000
      vertex -4.250000e+000  3.524710e+000  1.643599e+000
    endloop
  endfacet
  facet normal  0.000000e+000 -5.591911e-001  8.290387e-001
    outer loop
      vertex  0.000000e+000  6.395643e+000 -3.232163e+000
      vertex -4.250000e+000  4.986613e+000 -4.182562e+000
      vertex  0.000000e+000  4.986613e+000 -4.182562e+000
    endloop
  endfacet
  facet normal  0.000000e+000  3.490187e-002  9.993907e-001
    outer loop
      vertex  0.000000e+000  4.986613e+000 -4.182562e+000
      vertex -4.250000e+000  4.986613e+000 -4.182562e+000
      vertex -4.250000e+000  3.288054e+000 -4.123243e+000
    endloop
  endfacet
  facet normal -1.062548e-007  3.490214e-002  9.993908e-001
    outer loop
      vertex  0.000000e+000  4.986613e+000 -4.182562e+000
      vertex -4.250000e+000  3.288054e+000 -4.123243e+000
      vertex  0.000000e+000  3.288054e+000 -4.123242e+000
    endloop
  endfacet
  facet normal  0.000000e+000 -5.591911e-001  8.290387e-001
    outer loop
      vertex -4.250000e+000  4.986613e+000 -4.182562e+000
      vertex  0.000000e+000  6.395643e+000 -3.232163e+000
      vertex -4.250000e+000  6.395643e+000 -3.232163e+000
    endloop
  endfacet
  facet normal  0.000000e+000 -9.396921e-001  3.420217e-001
    outer loop
      vertex -4.250000e+000  6.395643e+000 -3.232163e+000
      vertex  0.000000e+000  6.395643e+000 -3.232163e+000
      vertex  0.000000e+000  6.976942e+000 -1.635067e+000
    endloop
  endfacet
  facet normal  0.000000e+000 -9.396921e-001  3.420217e-001
    outer loop
      vertex -4.250000e+000  6.395643e+000 -3.232163e+000
      vertex  0.000000e+000  6.976942e+000 -1.635067e+000
      vertex -4.250000e+000  6.976942e+000 -1.635067e+000
    endloop
  endfacet
  facet normal  0.000000e+000 -9.612619e-001 -2.756366e-001
    outer loop
      vertex -4.250000e+000  6.976942e+000 -1.635067e+000
      vertex  0.000000e+000  6.976942e+000 -1.635067e+000
      vertex  0.000000e+000  6.508471e+000 -1.311495e-003
    endloop
  endfacet
  facet normal  -0.000000e+000 -9.612619e-001 -2.756366e-001
    outer loop
      vertex -4.250000e+000  6.976942e+000 -1.635067e+000
      vertex  0.000000e+000  6.508471e+000 -1.311495e-003
      vertex -4.250000e+000  6.508471e+000 -1.311495e-003
    endloop
  endfacet
  facet normal  0.000000e+000 -6.156618e-001 -7.880105e-001
    outer loop
      vertex -4.250000e+000  6.508471e+000 -1.311495e-003
      vertex  0.000000e+000  6.508471e+000 -1.311495e-003
      vertex  0.000000e+000  5.169172e+000  1.045064e+000
    endloop
  endfacet
  facet normal  -0.000000e+000 -6.156618e-001 -7.880105e-001
    outer loop
      vertex -4.250000e+000  6.508471e+000 -1.311495e-003
      vertex  0.000000e+000  5.169172e+000  1.045064e+000
      vertex -4.250000e+000  5.169172e+000  1.045064e+000
    endloop
  endfacet
  facet normal  0.000000e+000  3.420200e-001  9.396927e-001
    outer loop
      vertex  0.000000e+000  1.643599e+000 -3.524710e+000
      vertex  0.000000e+000  3.288054e+000 -4.123242e+000
      vertex -4.250000e+000  1.643599e+000 -3.524710e+000
    endloop
  endfacet
  facet normal -4.808462e-008  3.420201e-001  9.396927e-001
    outer loop
      vertex -4.250000e+000  1.643599e+000 -3.524710e+000
      vertex  0.000000e+000  3.288054e+000 -4.123242e+000
      vertex -4.250000e+000  3.288054e+000 -4.123243e+000
    endloop
  endfacet
  facet normal  0.000000e+000 -9.396926e-001  3.420201e-001
    outer loop
      vertex  0.000000e+000  1.045064e+000 -5.169172e+000
      vertex  0.000000e+000  1.643599e+000 -3.524710e+000
      vertex -4.250000e+000  1.045064e+000 -5.169172e+000
    endloop
  endfacet
  facet normal  0.000000e+000 -9.396926e-001  3.420201e-001
    outer loop
      vertex -4.250000e+000  1.045064e+000 -5.169172e+000
      vertex  0.000000e+000  1.643599e+000 -3.524710e+000
      vertex -4.250000e+000  1.643599e+000 -3.524710e+000
    endloop
  endfacet
  facet normal  -0.000000e+000  8.290375e-001  5.591930e-001
    outer loop
      vertex  0.000000e+000 -3.232160e+000 -6.395647e+000
      vertex -4.250000e+000 -4.182560e+000 -4.986619e+000
      vertex  0.000000e+000 -4.182560e+000 -4.986619e+000
    endloop
  endfacet
  facet normal  0.000000e+000  9.993908e-001 -3.489964e-002
    outer loop
      vertex  0.000000e+000 -4.182560e+000 -4.986619e+000
      vertex -4.250000e+000 -4.182560e+000 -4.986619e+000
      vertex -4.250000e+000 -4.123245e+000 -3.288061e+000
    endloop
  endfacet
  facet normal  0.000000e+000  9.993908e-001 -3.489964e-002
    outer loop
      vertex  0.000000e+000 -4.182560e+000 -4.986619e+000
      vertex -4.250000e+000 -4.123245e+000 -3.288061e+000
      vertex  0.000000e+000 -4.123245e+000 -3.288061e+000
    endloop
  endfacet
  facet normal  0.000000e+000  8.290375e-001  5.591930e-001
    outer loop
      vertex -4.250000e+000 -4.182560e+000 -4.986619e+000
      vertex  0.000000e+000 -3.232160e+000 -6.395647e+000
      vertex -4.250000e+000 -3.232160e+000 -6.395647e+000
    endloop
  endfacet
  facet normal  -0.000000e+000  3.420200e-001  9.396926e-001
    outer loop
      vertex -4.250000e+000 -3.232160e+000 -6.395647e+000
      vertex  0.000000e+000 -3.232160e+000 -6.395647e+000
      vertex  0.000000e+000 -1.635064e+000 -6.976942e+000
    endloop
  endfacet
  facet normal  0.000000e+000  3.420200e-001  9.396926e-001
    outer loop
      vertex -4.250000e+000 -3.232160e+000 -6.395647e+000
      vertex  0.000000e+000 -1.635064e+000 -6.976942e+000
      vertex -4.250000e+000 -1.635064e+000 -6.976942e+000
    endloop
  endfacet
  facet normal  0.000000e+000 -2.756374e-001  9.612616e-001
    outer loop
      vertex -4.250000e+000 -1.635064e+000 -6.976942e+000
      vertex  0.000000e+000 -1.635064e+000 -6.976942e+000
      vertex  0.000000e+000 -1.310160e-003 -6.508470e+000
    endloop
  endfacet
  facet normal  0.000000e+000 -2.756374e-001  9.612616e-001
    outer loop
      vertex -4.250000e+000 -1.635064e+000 -6.976942e+000
      vertex  0.000000e+000 -1.310160e-003 -6.508470e+000
      vertex -4.250000e+000 -1.310160e-003 -6.508470e+000
    endloop
  endfacet
  facet normal  0.000000e+000 -7.880107e-001  6.156614e-001
    outer loop
      vertex -4.250000e+000 -1.310160e-003 -6.508470e+000
      vertex  0.000000e+000 -1.310160e-003 -6.508470e+000
      vertex  0.000000e+000  1.045064e+000 -5.169172e+000
    endloop
  endfacet
  facet normal  0.000000e+000 -7.880107e-001  6.156614e-001
    outer loop
      vertex -4.250000e+000 -1.310160e-003 -6.508470e+000
      vertex  0.000000e+000  1.045064e+000 -5.169172e+000
      vertex -4.250000e+000  1.045064e+000 -5.169172e+000
    endloop
  endfacet
  facet normal  0.000000e+000  9.396927e-001 -3.420201e-001
    outer loop
      vertex  0.000000e+000 -3.524710e+000 -1.643599e+000
      vertex  0.000000e+000 -4.123245e+000 -3.288061e+000
      vertex -4.250000e+000 -3.524710e+000 -1.643599e+000
    endloop
  endfacet
  facet normal  0.000000e+000  9.396927e-001 -3.420201e-001
    outer loop
      vertex -4.250000e+000 -3.524710e+000 -1.643599e+000
      vertex  0.000000e+000 -4.123245e+000 -3.288061e+000
      vertex -4.250000e+000 -4.123245e+000 -3.288061e+000
    endloop
  endfacet
  facet normal -1.602821e-008  3.420202e-001  9.396927e-001
    outer loop
      vertex  0.000000e+000 -5.169165e+000 -1.045067e+000
      vertex  0.000000e+000 -3.524710e+000 -1.643599e+000
      vertex -4.250000e+000 -5.169165e+000 -1.045067e+000
    endloop
  endfacet
  facet normal  0.000000e+000  3.420201e-001  9.396926e-001
    outer loop
      vertex -4.250000e+000 -5.169165e+000 -1.045067e+000
      vertex  0.000000e+000 -3.524710e+000 -1.643599e+000
      vertex -4.250000e+000 -3.524710e+000 -1.643599e+000
    endloop
  endfacet
  facet normal  0.000000e+000  5.591937e-001 -8.290372e-001
    outer loop
      vertex  0.000000e+000 -6.395648e+000  3.232157e+000
      vertex -4.250000e+000 -4.986621e+000  4.182560e+000
      vertex  0.000000e+000 -4.986621e+000  4.182560e+000
    endloop
  endfacet
  facet normal  -0.000000e+000 -3.489933e-002 -9.993908e-001
    outer loop
      vertex  0.000000e+000 -4.986621e+000  4.182560e+000
      vertex -4.250000e+000 -4.986621e+000  4.182560e+000
      vertex -4.250000e+000 -3.288061e+000  4.123245e+000
    endloop
  endfacet
  facet normal  0.000000e+000 -3.489933e-002 -9.993908e-001
    outer loop
      vertex  0.000000e+000 -4.986621e+000  4.182560e+000
      vertex -4.250000e+000 -3.288061e+000  4.123245e+000
      vertex  0.000000e+000 -3.288061e+000  4.123245e+000
    endloop
  endfacet
  facet normal  0.000000e+000  5.591937e-001 -8.290372e-001
    outer loop
      vertex -4.250000e+000 -4.986621e+000  4.182560e+000
      vertex  0.000000e+000 -6.395648e+000  3.232157e+000
      vertex -4.250000e+000 -6.395648e+000  3.232157e+000
    endloop
  endfacet
  facet normal  0.000000e+000  9.396932e-001 -3.420186e-001
    outer loop
      vertex -4.250000e+000 -6.395648e+000  3.232157e+000
      vertex  0.000000e+000 -6.395648e+000  3.232157e+000
      vertex  0.000000e+000 -6.976942e+000  1.635059e+000
    endloop
  endfacet
  facet normal  0.000000e+000  9.396932e-001 -3.420186e-001
    outer loop
      vertex -4.250000e+000 -6.395648e+000  3.232157e+000
      vertex  0.000000e+000 -6.976942e+000  1.635059e+000
      vertex -4.250000e+000 -6.976942e+000  1.635059e+000
    endloop
  endfacet
  facet normal  -0.000000e+000  9.612612e-001  2.756391e-001
    outer loop
      vertex -4.250000e+000 -6.976942e+000  1.635059e+000
      vertex  0.000000e+000 -6.976942e+000  1.635059e+000
      vertex  0.000000e+000 -6.508467e+000  1.304824e-003
    endloop
  endfacet
  facet normal  0.000000e+000  9.612612e-001  2.756391e-001
    outer loop
      vertex -4.250000e+000 -6.976942e+000  1.635059e+000
      vertex  0.000000e+000 -6.508467e+000  1.304824e-003
      vertex -4.250000e+000 -6.508467e+000  1.304824e-003
    endloop
  endfacet
  facet normal  -0.000000e+000  6.156594e-001  7.880123e-001
    outer loop
      vertex -4.250000e+000 -6.508467e+000  1.304824e-003
      vertex  0.000000e+000 -6.508467e+000  1.304824e-003
      vertex  0.000000e+000 -5.169165e+000 -1.045067e+000
    endloop
  endfacet
  facet normal  2.486882e-008  6.156594e-001  7.880124e-001
    outer loop
      vertex -4.250000e+000 -6.508467e+000  1.304824e-003
      vertex  0.000000e+000 -5.169165e+000 -1.045067e+000
      vertex -4.250000e+000 -5.169165e+000 -1.045067e+000
    endloop
  endfacet
  facet normal  0.000000e+000 -3.420201e-001 -9.396927e-001
    outer loop
      vertex  0.000000e+000 -1.643599e+000  3.524710e+000
      vertex  0.000000e+000 -3.288061e+000  4.123245e+000
      vertex -4.250000e+000 -1.643599e+000  3.524710e+000
    endloop
  endfacet
  facet normal  0.000000e+000 -3.420201e-001 -9.396927e-001
    outer loop
      vertex -4.250000e+000 -1.643599e+000  3.524710e+000
      vertex  0.000000e+000 -3.288061e+000  4.123245e+000
      vertex -4.250000e+000 -3.288061e+000  4.123245e+000
    endloop
  endfacet
  facet normal  0.000000e+000  9.396926e-001 -3.420201e-001
    outer loop
      vertex  0.000000e+000 -1.045064e+000  5.169172e+000
      vertex  0.000000e+000 -1.643599e+000  3.524710e+000
      vertex -4.250000e+000 -1.045064e+000  5.169172e+000
    endloop
  endfacet
  facet normal  0.000000e+000  9.396926e-001 -3.420201e-001
    outer loop
      vertex -4.250000e+000 -1.045064e+000  5.169172e+000
      vertex  0.000000e+000 -1.643599e+000  3.524710e+000
      vertex -4.250000e+000 -1.643599e+000  3.524710e+000
    endloop
  endfacet
  facet normal  0.000000e+000  3.826836e-001 -9.238795e-001
    outer loop
      vertex -4.250000e+000 -7.000000e+000 -2.600000e+000
      vertex  0.000000e+000 -7.636396e+000 -2.863604e+000
      vertex -4.250000e+000 -7.636396e+000 -2.863604e+000
    endloop
  endfacet
  facet normal  0.000000e+000  9.238794e-001 -3.826837e-001
    outer loop
      vertex -4.250000e+000 -7.636396e+000 -2.863604e+000
      vertex  0.000000e+000 -7.636396e+000 -2.863604e+000
      vertex  0.000000e+000 -7.900000e+000 -3.500000e+000
    endloop
  endfacet
  facet normal  0.000000e+000  9.238794e-001 -3.826837e-001
    outer loop
      vertex -4.250000e+000 -7.636396e+000 -2.863604e+000
      vertex  0.000000e+000 -7.900000e+000 -3.500000e+000
      vertex -4.250000e+000 -7.900000e+000 -3.500000e+000
    endloop
  endfacet
  facet normal  0.000000e+000  3.826836e-001 -9.238795e-001
    outer loop
      vertex  0.000000e+000 -7.636396e+000 -2.863604e+000
      vertex -4.250000e+000 -7.000000e+000 -2.600000e+000
      vertex  0.000000e+000 -7.000000e+000 -2.600000e+000
    endloop
  endfacet
  facet normal  -0.000000e+000 -3.826836e-001 -9.238795e-001
    outer loop
      vertex  0.000000e+000 -7.000000e+000 -2.600000e+000
      vertex -4.250000e+000 -7.000000e+000 -2.600000e+000
      vertex -4.250000e+000 -6.363604e+000 -2.863604e+000
    endloop
  endfacet
  facet normal  0.000000e+000 -3.826836e-001 -9.238795e-001
    outer loop
      vertex  0.000000e+000 -7.000000e+000 -2.600000e+000
      vertex -4.250000e+000 -6.363604e+000 -2.863604e+000
      vertex  0.000000e+000 -6.363604e+000 -2.863604e+000
    endloop
  endfacet
  facet normal  -0.000000e+000 -9.238794e-001 -3.826837e-001
    outer loop
      vertex  0.000000e+000 -6.363604e+000 -2.863604e+000
      vertex -4.250000e+000 -6.363604e+000 -2.863604e+000
      vertex -4.250000e+000 -6.100000e+000 -3.500000e+000
    endloop
  endfacet
  facet normal  0.000000e+000 -9.238794e-001 -3.826837e-001
    outer loop
      vertex  0.000000e+000 -6.363604e+000 -2.863604e+000
      vertex -4.250000e+000 -6.100000e+000 -3.500000e+000
      vertex  0.000000e+000 -6.100000e+000 -3.500000e+000
    endloop
  endfacet
  facet normal  0.000000e+000 -3.826838e-001  9.238793e-001
    outer loop
      vertex -4.250000e+000 -7.000000e+000 -4.400000e+000
      vertex  0.000000e+000 -6.363604e+000 -4.136396e+000
      vertex -4.250000e+000 -6.363604e+000 -4.136396e+000
    endloop
  endfacet
  facet normal  0.000000e+000 -9.238793e-001  3.826838e-001
    outer loop
      vertex -4.250000e+000 -6.363604e+000 -4.136396e+000
      vertex  0.000000e+000 -6.363604e+000 -4.136396e+000
      vertex  0.000000e+000 -6.100000e+000 -3.500000e+000
    endloop
  endfacet
  facet normal  0.000000e+000 -9.238793e-001  3.826838e-001
    outer loop
      vertex -4.250000e+000 -6.363604e+000 -4.136396e+000
      vertex  0.000000e+000 -6.100000e+000 -3.500000e+000
      vertex -4.250000e+000 -6.100000e+000 -3.500000e+000
    endloop
  endfacet
  facet normal  0.000000e+000 -3.826838e-001  9.238793e-001
    outer loop
      vertex  0.000000e+000 -6.363604e+000 -4.136396e+000
      vertex -4.250000e+000 -7.000000e+000 -4.400000e+000
      vertex  0.000000e+000 -7.000000e+000 -4.400000e+000
    endloop
  endfacet
  facet normal  0.000000e+000  3.826838e-001  9.238793e-001
    outer loop
      vertex  0.000000e+000 -7.000000e+000 -4.400000e+000
      vertex -4.250000e+000 -7.000000e+000 -4.400000e+000
      vertex -4.250000e+000 -7.636396e+000 -4.136396e+000
    endloop
  endfacet
  facet normal  -0.000000e+000  3.826838e-001  9.238793e-001
    outer loop
      vertex  0.000000e+000 -7.000000e+000 -4.400000e+000
      vertex -4.250000e+000 -7.636396e+000 -4.136396e+000
      vertex  0.000000e+000 -7.636396e+000 -4.136396e+000
    endloop
  endfacet
  facet normal  0.000000e+000  9.238793e-001  3.826838e-001
    outer loop
      vertex  0.000000e+000 -7.636396e+000 -4.136396e+000
      vertex -4.250000e+000 -7.636396e+000 -4.136396e+000
      vertex -4.250000e+000 -7.900000e+000 -3.500000e+000
    endloop
  endfacet
  facet normal  -0.000000e+000  9.238793e-001  3.826838e-001
    outer loop
      vertex  0.000000e+000 -7.636396e+000 -4.136396e+000
      vertex -4.250000e+000 -7.900000e+000 -3.500000e+000
      vertex  0.000000e+000 -7.900000e+000 -3.500000e+000
    endloop
  endfacet
  facet normal  0.000000e+000  3.826837e-001 -9.238794e-001
    outer loop
      vertex -4.250000e+000  3.500000e+000 -6.100000e+000
      vertex  0.000000e+000  2.863604e+000 -6.363604e+000
      vertex -4.250000e+000  2.863604e+000 -6.363604e+000
    endloop
  endfacet
  facet normal  0.000000e+000  9.238795e-001 -3.826836e-001
    outer loop
      vertex -4.250000e+000  2.863604e+000 -6.363604e+000
      vertex  0.000000e+000  2.863604e+000 -6.363604e+000
      vertex  0.000000e+000  2.600000e+000 -7.000000e+000
    endloop
  endfacet
  facet normal  0.000000e+000  9.238795e-001 -3.826836e-001
    outer loop
      vertex -4.250000e+000  2.863604e+000 -6.363604e+000
      vertex  0.000000e+000  2.600000e+000 -7.000000e+000
      vertex -4.250000e+000  2.600000e+000 -7.000000e+000
    endloop
  endfacet
  facet normal  0.000000e+000  3.826837e-001 -9.238794e-001
    outer loop
      vertex  0.000000e+000  2.863604e+000 -6.363604e+000
      vertex -4.250000e+000  3.500000e+000 -6.100000e+000
      vertex  0.000000e+000  3.500000e+000 -6.100000e+000
    endloop
  endfacet
  facet normal  -0.000000e+000 -3.826838e-001 -9.238793e-001
    outer loop
      vertex  0.000000e+000  3.500000e+000 -6.100000e+000
      vertex -4.250000e+000  3.500000e+000 -6.100000e+000
      vertex -4.250000e+000  4.136396e+000 -6.363604e+000
    endloop
  endfacet
  facet normal  0.000000e+000 -3.826838e-001 -9.238793e-001
    outer loop
      vertex  0.000000e+000  3.500000e+000 -6.100000e+000
      vertex -4.250000e+000  4.136396e+000 -6.363604e+000
      vertex  0.000000e+000  4.136396e+000 -6.363604e+000
    endloop
  endfacet
  facet normal  -0.000000e+000 -9.238793e-001 -3.826838e-001
    outer loop
      vertex  0.000000e+000  4.136396e+000 -6.363604e+000
      vertex -4.250000e+000  4.136396e+000 -6.363604e+000
      vertex -4.250000e+000  4.400000e+000 -7.000000e+000
    endloop
  endfacet
  facet normal  0.000000e+000 -9.238793e-001 -3.826838e-001
    outer loop
      vertex  0.000000e+000  4.136396e+000 -6.363604e+000
      vertex -4.250000e+000  4.400000e+000 -7.000000e+000
      vertex  0.000000e+000  4.400000e+000 -7.000000e+000
    endloop
  endfacet
  facet normal  0.000000e+000 -3.826838e-001  9.238793e-001
    outer loop
      vertex -4.250000e+000  3.500000e+000 -7.900000e+000
      vertex  0.000000e+000  4.136396e+000 -7.636396e+000
      vertex -4.250000e+000  4.136396e+000 -7.636396e+000
    endloop
  endfacet
  facet normal  0.000000e+000 -9.238793e-001  3.826838e-001
    outer loop
      vertex -4.250000e+000  4.136396e+000 -7.636396e+000
      vertex  0.000000e+000  4.136396e+000 -7.636396e+000
      vertex  0.000000e+000  4.400000e+000 -7.000000e+000
    endloop
  endfacet
  facet normal  0.000000e+000 -9.238793e-001  3.826838e-001
    outer loop
      vertex -4.250000e+000  4.136396e+000 -7.636396e+000
      vertex  0.000000e+000  4.400000e+000 -7.000000e+000
      vertex -4.250000e+000  4.400000e+000 -7.000000e+000
    endloop
  endfacet
  facet normal  0.000000e+000 -3.826838e-001  9.238793e-001
    outer loop
      vertex  0.000000e+000  4.136396e+000 -7.636396e+000
      vertex -4.250000e+000  3.500000e+000 -7.900000e+000
      vertex  0.000000e+000  3.500000e+000 -7.900000e+000
    endloop
  endfacet
  facet normal  0.000000e+000  3.826837e-001  9.238794e-001
    outer loop
      vertex  0.000000e+000  3.500000e+000 -7.900000e+000
      vertex -4.250000e+000  3.500000e+000 -7.900000e+000
      vertex -4.250000e+000  2.863604e+000 -7.636396e+000
    endloop
  endfacet
  facet normal  -0.000000e+000  3.826837e-001  9.238794e-001
    outer loop
      vertex  0.000000e+000  3.500000e+000 -7.900000e+000
      vertex -4.250000e+000  2.863604e+000 -7.636396e+000
      vertex  0.000000e+000  2.863604e+000 -7.636396e+000
    endloop
  endfacet
  facet normal  0.000000e+000  9.238795e-001  3.826836e-001
    outer loop
      vertex  0.000000e+000  2.863604e+000 -7.636396e+000
      vertex -4.250000e+000  2.863604e+000 -7.636396e+000
      vertex -4.250000e+000  2.600000e+000 -7.000000e+000
    endloop
  endfacet
  facet normal  -0.000000e+000  9.238795e-001  3.826836e-001
    outer loop
      vertex  0.000000e+000  2.863604e+000 -7.636396e+000
      vertex -4.250000e+000  2.600000e+000 -7.000000e+000
      vertex  0.000000e+000  2.600000e+000 -7.000000e+000
    endloop
  endfacet
  facet normal  0.000000e+000  3.826838e-001 -9.238793e-001
    outer loop
      vertex -4.250000e+000  7.000000e+000  4.400000e+000
      vertex  0.000000e+000  6.363604e+000  4.136396e+000
      vertex -4.250000e+000  6.363604e+000  4.136396e+000
    endloop
  endfacet
  facet normal  0.000000e+000  9.238793e-001 -3.826838e-001
    outer loop
      vertex -4.250000e+000  6.363604e+000  4.136396e+000
      vertex  0.000000e+000  6.363604e+000  4.136396e+000
      vertex  0.000000e+000  6.100000e+000  3.500000e+000
    endloop
  endfacet
  facet normal  0.000000e+000  9.238793e-001 -3.826838e-001
    outer loop
      vertex -4.250000e+000  6.363604e+000  4.136396e+000
      vertex  0.000000e+000  6.100000e+000  3.500000e+000
      vertex -4.250000e+000  6.100000e+000  3.500000e+000
    endloop
  endfacet
  facet normal  0.000000e+000  3.826838e-001 -9.238793e-001
    outer loop
      vertex  0.000000e+000  6.363604e+000  4.136396e+000
      vertex -4.250000e+000  7.000000e+000  4.400000e+000
      vertex  0.000000e+000  7.000000e+000  4.400000e+000
    endloop
  endfacet
  facet normal  -0.000000e+000 -3.826838e-001 -9.238793e-001
    outer loop
      vertex  0.000000e+000  7.000000e+000  4.400000e+000
      vertex -4.250000e+000  7.000000e+000  4.400000e+000
      vertex -4.250000e+000  7.636396e+000  4.136396e+000
    endloop
  endfacet
  facet normal  0.000000e+000 -3.826838e-001 -9.238793e-001
    outer loop
      vertex  0.000000e+000  7.000000e+000  4.400000e+000
      vertex -4.250000e+000  7.636396e+000  4.136396e+000
      vertex  0.000000e+000  7.636396e+000  4.136396e+000
    endloop
  endfacet
  facet normal  -0.000000e+000 -9.238793e-001 -3.826838e-001
    outer loop
      vertex  0.000000e+000  7.636396e+000  4.136396e+000
      vertex -4.250000e+000  7.636396e+000  4.136396e+000
      vertex -4.250000e+000  7.900000e+000  3.500000e+000
    endloop
  endfacet
  facet normal  0.000000e+000 -9.238793e-001 -3.826838e-001
    outer loop
      vertex  0.000000e+000  7.636396e+000  4.136396e+000
      vertex -4.250000e+000  7.900000e+000  3.500000e+000
      vertex  0.000000e+000  7.900000e+000  3.500000e+000
    endloop
  endfacet
  facet normal  0.000000e+000 -3.826836e-001  9.238795e-001
    outer loop
      vertex -4.250000e+000  7.000000e+000  2.600000e+000
      vertex  0.000000e+000  7.636396e+000  2.863604e+000
      vertex -4.250000e+000  7.636396e+000  2.863604e+000
    endloop
  endfacet
  facet normal  0.000000e+000 -9.238794e-001  3.826837e-001
    outer loop
      vertex -4.250000e+000  7.636396e+000  2.863604e+000
      vertex  0.000000e+000  7.636396e+000  2.863604e+000
      vertex  0.000000e+000  7.900000e+000  3.500000e+000
    endloop
  endfacet
  facet normal  0.000000e+000 -9.238794e-001  3.826837e-001
    outer loop
      vertex -4.250000e+000  7.636396e+000  2.863604e+000
      vertex  0.000000e+000  7.900000e+000  3.500000e+000
      vertex -4.250000e+000  7.900000e+000  3.500000e+000
    endloop
  endfacet
  facet normal  0.000000e+000 -3.826836e-001  9.238795e-001
    outer loop
      vertex  0.000000e+000  7.636396e+000  2.863604e+000
      vertex -4.250000e+000  7.000000e+000  2.600000e+000
      vertex  0.000000e+000  7.000000e+000  2.600000e+000
    endloop
  endfacet
  facet normal  0.000000e+000  3.826836e-001  9.238795e-001
    outer loop
      vertex  0.000000e+000  7.000000e+000  2.600000e+000
      vertex -4.250000e+000  7.000000e+000  2.600000e+000
      vertex -4.250000e+000  6.363604e+000  2.863604e+000
    endloop
  endfacet
  facet normal  -0.000000e+000  3.826836e-001  9.238795e-001
    outer loop
      vertex  0.000000e+000  7.000000e+000  2.600000e+000
      vertex -4.250000e+000  6.363604e+000  2.863604e+000
      vertex  0.000000e+000  6.363604e+000  2.863604e+000
    endloop
  endfacet
  facet normal  0.000000e+000  9.238794e-001  3.826837e-001
    outer loop
      vertex  0.000000e+000  6.363604e+000  2.863604e+000
      vertex -4.250000e+000  6.363604e+000  2.863604e+000
      vertex -4.250000e+000  6.100000e+000  3.500000e+000
    endloop
  endfacet
  facet normal  -0.000000e+000  9.238794e-001  3.826837e-001
    outer loop
      vertex  0.000000e+000  6.363604e+000  2.863604e+000
      vertex -4.250000e+000  6.100000e+000  3.500000e+000
      vertex  0.000000e+000  6.100000e+000  3.500000e+000
    endloop
  endfacet
  facet normal  0.000000e+000  3.826838e-001 -9.238793e-001
    outer loop
      vertex -4.250000e+000 -3.500000e+000  7.900000e+000
      vertex  0.000000e+000 -4.136396e+000  7.636396e+000
      vertex -4.250000e+000 -4.136396e+000  7.636396e+000
    endloop
  endfacet
  facet normal  0.000000e+000  9.238793e-001 -3.826838e-001
    outer loop
      vertex -4.250000e+000 -4.136396e+000  7.636396e+000
      vertex  0.000000e+000 -4.136396e+000  7.636396e+000
      vertex  0.000000e+000 -4.400000e+000  7.000000e+000
    endloop
  endfacet
  facet normal  0.000000e+000  9.238793e-001 -3.826838e-001
    outer loop
      vertex -4.250000e+000 -4.136396e+000  7.636396e+000
      vertex  0.000000e+000 -4.400000e+000  7.000000e+000
      vertex -4.250000e+000 -4.400000e+000  7.000000e+000
    endloop
  endfacet
  facet normal  0.000000e+000  3.826838e-001 -9.238793e-001
    outer loop
      vertex  0.000000e+000 -4.136396e+000  7.636396e+000
      vertex -4.250000e+000 -3.500000e+000  7.900000e+000
      vertex  0.000000e+000 -3.500000e+000  7.900000e+000
    endloop
  endfacet
  facet normal  -0.000000e+000 -3.826837e-001 -9.238794e-001
    outer loop
      vertex  0.000000e+000 -3.500000e+000  7.900000e+000
      vertex -4.250000e+000 -3.500000e+000  7.900000e+000
      vertex -4.250000e+000 -2.863604e+000  7.636396e+000
    endloop
  endfacet
  facet normal  0.000000e+000 -3.826837e-001 -9.238794e-001
    outer loop
      vertex  0.000000e+000 -3.500000e+000  7.900000e+000
      vertex -4.250000e+000 -2.863604e+000  7.636396e+000
      vertex  0.000000e+000 -2.863604e+000  7.636396e+000
    endloop
  endfacet
  facet normal  -0.000000e+000 -9.238795e-001 -3.826836e-001
    outer loop
      vertex  0.000000e+000 -2.863604e+000  7.636396e+000
      vertex -4.250000e+000 -2.863604e+000  7.636396e+000
      vertex -4.250000e+000 -2.600000e+000  7.000000e+000
    endloop
  endfacet
  facet normal  0.000000e+000 -9.238795e-001 -3.826836e-001
    outer loop
      vertex  0.000000e+000 -2.863604e+000  7.636396e+000
      vertex -4.250000e+000 -2.600000e+000  7.000000e+000
      vertex  0.000000e+000 -2.600000e+000  7.000000e+000
    endloop
  endfacet
  facet normal  0.000000e+000 -3.826837e-001  9.238794e-001
    outer loop
      vertex -4.250000e+000 -3.500000e+000  6.100000e+000
      vertex  0.000000e+000 -2.863604e+000  6.363604e+000
      vertex -4.250000e+000 -2.863604e+000  6.363604e+000
    endloop
  endfacet
  facet normal  0.000000e+000 -9.238795e-001  3.826836e-001
    outer loop
      vertex -4.250000e+000 -2.863604e+000  6.363604e+000
      vertex  0.000000e+000 -2.863604e+000  6.363604e+000
      vertex  0.000000e+000 -2.600000e+000  7.000000e+000
    endloop
  endfacet
  facet normal  0.000000e+000 -9.238795e-001  3.826836e-001
    outer loop
      vertex -4.250000e+000 -2.863604e+000  6.363604e+000
      vertex  0.000000e+000 -2.600000e+000  7.000000e+000
      vertex -4.250000e+000 -2.600000e+000  7.000000e+000
    endloop
  endfacet
  facet normal  0.000000e+000 -3.826837e-001  9.238794e-001
    outer loop
      vertex  0.000000e+000 -2.863604e+000  6.363604e+000
      vertex -4.250000e+000 -3.500000e+000  6.100000e+000
      vertex  0.000000e+000 -3.500000e+000  6.100000e+000
    endloop
  endfacet
  facet normal  0.000000e+000  3.826838e-001  9.238793e-001
    outer loop
      vertex  0.000000e+000 -3.500000e+000  6.100000e+000
      vertex -4.250000e+000 -3.500000e+000  6.100000e+000
      vertex -4.250000e+000 -4.136396e+000  6.363604e+000
    endloop
  endfacet
  facet normal  -0.000000e+000  3.826838e-001  9.238793e-001
    outer loop
      vertex  0.000000e+000 -3.500000e+000  6.100000e+000
      vertex -4.250000e+000 -4.136396e+000  6.363604e+000
      vertex  0.000000e+000 -4.136396e+000  6.363604e+000
    endloop
  endfacet
  facet normal  0.000000e+000  9.238793e-001  3.826838e-001
    outer loop
      vertex  0.000000e+000 -4.136396e+000  6.363604e+000
      vertex -4.250000e+000 -4.136396e+000  6.363604e+000
      vertex -4.250000e+000 -4.400000e+000  7.000000e+000
    endloop
  endfacet
  facet normal  -0.000000e+000  9.238793e-001  3.826838e-001
    outer loop
      vertex  0.000000e+000 -4.136396e+000  6.363604e+000
      vertex -4.250000e+000 -4.400000e+000  7.000000e+000
      vertex  0.000000e+000 -4.400000e+000  7.000000e+000
    endloop
  endfacet
  facet normal  0.000000e+000 -9.807853e-001 -1.950902e-001
    outer loop
      vertex  0.000000e+000 -1.025000e+001  0.000000e+000
      vertex -4.250000e+000 -1.025000e+001  0.000000e+000
      vertex  0.000000e+000 -9.469766e+000 -3.922505e+000
    endloop
  endfacet
  facet normal  -0.000000e+000 -9.807853e-001 -1.950902e-001
    outer loop
      vertex  0.000000e+000 -9.469766e+000 -3.922505e+000
      vertex -4.250000e+000 -1.025000e+001  0.000000e+000
      vertex -4.250000e+000 -9.469766e+000 -3.922505e+000
    endloop
  endfacet
  facet normal  0.000000e+000 -8.314697e-001 -5.555702e-001
    outer loop
      vertex  0.000000e+000 -9.469766e+000 -3.922505e+000
      vertex -4.250000e+000 -9.469766e+000 -3.922505e+000
      vertex  0.000000e+000 -7.247845e+000 -7.247845e+000
    endloop
  endfacet
  facet normal  -0.000000e+000 -8.314697e-001 -5.555702e-001
    outer loop
      vertex  0.000000e+000 -7.247845e+000 -7.247845e+000
      vertex -4.250000e+000 -9.469766e+000 -3.922505e+000
      vertex -4.250000e+000 -7.247845e+000 -7.247845e+000
    endloop
  endfacet
  facet normal  0.000000e+000 -5.555702e-001 -8.314697e-001
    outer loop
      vertex  0.000000e+000 -7.247845e+000 -7.247845e+000
      vertex -4.250000e+000 -7.247845e+000 -7.247845e+000
      vertex  0.000000e+000 -3.922505e+000 -9.469766e+000
    endloop
  endfacet
  facet normal  -0.000000e+000 -5.555702e-001 -8.314697e-001
    outer loop
      vertex  0.000000e+000 -3.922505e+000 -9.469766e+000
      vertex -4.250000e+000 -7.247845e+000 -7.247845e+000
      vertex -4.250000e+000 -3.922505e+000 -9.469766e+000
    endloop
  endfacet
  facet normal  0.000000e+000 -1.950902e-001 -9.807853e-001
    outer loop
      vertex  0.000000e+000 -3.922505e+000 -9.469766e+000
      vertex -4.250000e+000 -3.922505e+000 -9.469766e+000
      vertex  0.000000e+000  1.098672e-014 -1.025000e+001
    endloop
  endfacet
  facet normal  -0.000000e+000 -1.950902e-001 -9.807853e-001
    outer loop
      vertex  0.000000e+000  1.098672e-014 -1.025000e+001
      vertex -4.250000e+000 -3.922505e+000 -9.469766e+000
      vertex -4.250000e+000  1.098672e-014 -1.025000e+001
    endloop
  endfacet
  facet normal  0.000000e+000  1.950902e-001 -9.807853e-001
    outer loop
      vertex  0.000000e+000  1.098672e-014 -1.025000e+001
      vertex -4.250000e+000  1.098672e-014 -1.025000e+001
      vertex  0.000000e+000  3.922505e+000 -9.469766e+000
    endloop
  endfacet
  facet normal  0.000000e+000  1.950902e-001 -9.807853e-001
    outer loop
      vertex  0.000000e+000  3.922505e+000 -9.469766e+000
      vertex -4.250000e+000  1.098672e-014 -1.025000e+001
      vertex -4.250000e+000  3.922505e+000 -9.469766e+000
    endloop
  endfacet
  facet normal  0.000000e+000  5.555702e-001 -8.314697e-001
    outer loop
      vertex  0.000000e+000  3.922505e+000 -9.469766e+000
      vertex -4.250000e+000  3.922505e+000 -9.469766e+000
      vertex  0.000000e+000  7.247845e+000 -7.247845e+000
    endloop
  endfacet
  facet normal  0.000000e+000  5.555702e-001 -8.314697e-001
    outer loop
      vertex  0.000000e+000  7.247845e+000 -7.247845e+000
      vertex -4.250000e+000  3.922505e+000 -9.469766e+000
      vertex -4.250000e+000  7.247845e+000 -7.247845e+000
    endloop
  endfacet
  facet normal  0.000000e+000  8.314697e-001 -5.555702e-001
    outer loop
      vertex  0.000000e+000  7.247845e+000 -7.247845e+000
      vertex -4.250000e+000  7.247845e+000 -7.247845e+000
      vertex  0.000000e+000  9.469766e+000 -3.922505e+000
    endloop
  endfacet
  facet normal  0.000000e+000  8.314697e-001 -5.555702e-001
    outer loop
      vertex  0.000000e+000  9.469766e+000 -3.922505e+000
      vertex -4.250000e+000  7.247845e+000 -7.247845e+000
      vertex -4.250000e+000  9.469766e+000 -3.922505e+000
    endloop
  endfacet
  facet normal  0.000000e+000  9.807853e-001 -1.950902e-001
    outer loop
      vertex  0.000000e+000  9.469766e+000 -3.922505e+000
      vertex -4.250000e+000  9.469766e+000 -3.922505e+000
      vertex  0.000000e+000  1.025000e+001  5.807177e-015
    endloop
  endfacet
  facet normal  0.000000e+000  9.807853e-001 -1.950902e-001
    outer loop
      vertex  0.000000e+000  1.025000e+001  5.807177e-015
      vertex -4.250000e+000  9.469766e+000 -3.922505e+000
      vertex -4.250000e+000  1.025000e+001  5.807177e-015
    endloop
  endfacet
  facet normal  -0.000000e+000  9.807853e-001  1.950902e-001
    outer loop
      vertex  0.000000e+000  1.025000e+001  5.807177e-015
      vertex -4.250000e+000  1.025000e+001  5.807177e-015
      vertex  0.000000e+000  9.469766e+000  3.922505e+000
    endloop
  endfacet
  facet normal  0.000000e+000  9.807853e-001  1.950902e-001
    outer loop
      vertex  0.000000e+000  9.469766e+000  3.922505e+000
      vertex -4.250000e+000  1.025000e+001  5.807177e-015
      vertex -4.250000e+000  9.469766e+000  3.922505e+000
    endloop
  endfacet
  facet normal  -0.000000e+000  8.314697e-001  5.555702e-001
    outer loop
      vertex  0.000000e+000  9.469766e+000  3.922505e+000
      vertex -4.250000e+000  9.469766e+000  3.922505e+000
      vertex  0.000000e+000  7.247845e+000  7.247845e+000
    endloop
  endfacet
  facet normal  0.000000e+000  8.314697e-001  5.555702e-001
    outer loop
      vertex  0.000000e+000  7.247845e+000  7.247845e+000
      vertex -4.250000e+000  9.469766e+000  3.922505e+000
      vertex -4.250000e+000  7.247845e+000  7.247845e+000
    endloop
  endfacet
  facet normal  -0.000000e+000  5.555702e-001  8.314697e-001
    outer loop
      vertex  0.000000e+000  7.247845e+000  7.247845e+000
      vertex -4.250000e+000  7.247845e+000  7.247845e+000
      vertex  0.000000e+000  3.922505e+000  9.469766e+000
    endloop
  endfacet
  facet normal  0.000000e+000  5.555702e-001  8.314697e-001
    outer loop
      vertex  0.000000e+000  3.922505e+000  9.469766e+000
      vertex -4.250000e+000  7.247845e+000  7.247845e+000
      vertex -4.250000e+000  3.922505e+000  9.469766e+000
    endloop
  endfacet
  facet normal  -0.000000e+000  1.950902e-001  9.807853e-001
    outer loop
      vertex  0.000000e+000  3.922505e+000  9.469766e+000
      vertex -4.250000e+000  3.922505e+000  9.469766e+000
      vertex  0.000000e+000 -2.903589e-015  1.025000e+001
    endloop
  endfacet
  facet normal  0.000000e+000  1.950902e-001  9.807853e-001
    outer loop
      vertex  0.000000e+000 -2.903589e-015  1.025000e+001
      vertex -4.250000e+000  3.922505e+000  9.469766e+000
      vertex -4.250000e+000 -2.903589e-015  1.025000e+001
    endloop
  endfacet
  facet normal  0.000000e+000 -1.950902e-001  9.807853e-001
    outer loop
      vertex  0.000000e+000 -2.903589e-015  1.025000e+001
      vertex -4.250000e+000 -2.903589e-015  1.025000e+001
      vertex  0.000000e+000 -3.922505e+000  9.469766e+000
    endloop
  endfacet
  facet normal  0.000000e+000 -1.950902e-001  9.807853e-001
    outer loop
      vertex  0.000000e+000 -3.922505e+000  9.469766e+000
      vertex -4.250000e+000 -2.903589e-015  1.025000e+001
      vertex -4.250000e+000 -3.922505e+000  9.469766e+000
    endloop
  endfacet
  facet normal  0.000000e+000 -5.555702e-001  8.314697e-001
    outer loop
      vertex  0.000000e+000 -3.922505e+000  9.469766e+000
      vertex -4.250000e+000 -3.922505e+000  9.469766e+000
      vertex  0.000000e+000 -7.247845e+000  7.247845e+000
    endloop
  endfacet
  facet normal  0.000000e+000 -5.555702e-001  8.314697e-001
    outer loop
      vertex  0.000000e+000 -7.247845e+000  7.247845e+000
      vertex -4.250000e+000 -3.922505e+000  9.469766e+000
      vertex -4.250000e+000 -7.247845e+000  7.247845e+000
    endloop
  endfacet
  facet normal  0.000000e+000 -8.314697e-001  5.555702e-001
    outer loop
      vertex  0.000000e+000 -7.247845e+000  7.247845e+000
      vertex -4.250000e+000 -7.247845e+000  7.247845e+000
      vertex  0.000000e+000 -9.469766e+000  3.922505e+000
    endloop
  endfacet
  facet normal  0.000000e+000 -8.314697e-001  5.555702e-001
    outer loop
      vertex  0.000000e+000 -9.469766e+000  3.922505e+000
      vertex -4.250000e+000 -7.247845e+000  7.247845e+000
      vertex -4.250000e+000 -9.469766e+000  3.922505e+000
    endloop
  endfacet
  facet normal  0.000000e+000 -9.807853e-001  1.950902e-001
    outer loop
      vertex  0.000000e+000 -9.469766e+000  3.922505e+000
      vertex -4.250000e+000 -9.469766e+000  3.922505e+000
      vertex  0.000000e+000 -1.025000e+001  0.000000e+000
    endloop
  endfacet
  facet normal  0.000000e+000 -9.807853e-001  1.950902e-001
    outer loop
      vertex  0.000000e+000 -1.025000e+001  0.000000e+000
      vertex -4.250000e+000 -9.469766e+000  3.922505e+000
      vertex -4.250000e+000 -1.025000e+001  0.000000e+000
    endloop
  endfacet
endsolid CATIA STL
