solid CATIA STL
  facet normal  1.000000e+000  -0.000000e+000  0.000000e+000
    outer loop
      vertex  0.000000e+000  3.357067e+001 -9.900000e+000
      vertex  0.000000e+000 -3.357067e+001 -9.900000e+000
      vertex  0.000000e+000  3.120166e+001 -1.585738e+001
    endloop
  endfacet
  facet normal  9.999999e-001  0.000000e+000  0.000000e+000
    outer loop
      vertex  0.000000e+000  3.120166e+001 -1.585738e+001
      vertex  0.000000e+000 -3.357067e+001 -9.900000e+000
      vertex  0.000000e+000 -3.120166e+001 -1.585738e+001
    endloop
  endfacet
  facet normal  9.999999e-001  -0.000000e+000  0.000000e+000
    outer loop
      vertex  0.000000e+000  3.120166e+001 -1.585738e+001
      vertex  0.000000e+000 -3.120166e+001 -1.585738e+001
      vertex  0.000000e+000  2.778574e+001 -2.128269e+001
    endloop
  endfacet
  facet normal  1.000000e+000  0.000000e+000  0.000000e+000
    outer loop
      vertex  0.000000e+000  2.778574e+001 -2.128269e+001
      vertex  0.000000e+000 -3.120166e+001 -1.585738e+001
      vertex  0.000000e+000 -2.778574e+001 -2.128269e+001
    endloop
  endfacet
  facet normal  1.000000e+000  -0.000000e+000  0.000000e+000
    outer loop
      vertex  0.000000e+000  2.778574e+001 -2.128269e+001
      vertex  0.000000e+000 -2.778574e+001 -2.128269e+001
      vertex  0.000000e+000  2.343752e+001 -2.599390e+001
    endloop
  endfacet
  facet normal  9.999999e-001  0.000000e+000  0.000000e+000
    outer loop
      vertex  0.000000e+000  2.343752e+001 -2.599390e+001
      vertex  0.000000e+000 -2.778574e+001 -2.128269e+001
      vertex  0.000000e+000 -2.343752e+001 -2.599390e+001
    endloop
  endfacet
  facet normal  1.000000e+000  -0.000000e+000  0.000000e+000
    outer loop
      vertex  0.000000e+000  2.343752e+001 -2.599390e+001
      vertex  0.000000e+000 -2.343752e+001 -2.599390e+001
      vertex  0.000000e+000  1.830289e+001 -2.983294e+001
    endloop
  endfacet
  facet normal  1.000000e+000  0.000000e+000  0.000000e+000
    outer loop
      vertex  0.000000e+000  1.830289e+001 -2.983294e+001
      vertex  0.000000e+000 -2.343752e+001 -2.599390e+001
      vertex  0.000000e+000 -1.830289e+001 -2.983294e+001
    endloop
  endfacet
  facet normal  1.000000e+000  -0.000000e+000  0.000000e+000
    outer loop
      vertex  0.000000e+000  1.830289e+001 -2.983294e+001
      vertex  0.000000e+000 -1.830289e+001 -2.983294e+001
      vertex  0.000000e+000  1.255415e+001 -3.267099e+001
    endloop
  endfacet
  facet normal  1.000000e+000  0.000000e+000  0.000000e+000
    outer loop
      vertex  0.000000e+000  1.255415e+001 -3.267099e+001
      vertex  0.000000e+000 -1.830289e+001 -2.983294e+001
      vertex  0.000000e+000 -1.255415e+001 -3.267099e+001
    endloop
  endfacet
  facet normal  1.000000e+000  -0.000000e+000  0.000000e+000
    outer loop
      vertex  0.000000e+000  1.255415e+001 -3.267099e+001
      vertex  0.000000e+000 -1.255415e+001 -3.267099e+001
      vertex  0.000000e+000  6.384181e+000 -3.441282e+001
    endloop
  endfacet
  facet normal  1.000000e+000  0.000000e+000  0.000000e+000
    outer loop
      vertex  0.000000e+000  6.384181e+000 -3.441282e+001
      vertex  0.000000e+000 -1.255415e+001 -3.267099e+001
      vertex  0.000000e+000 -6.384181e+000 -3.441282e+001
    endloop
  endfacet
  facet normal  9.999999e-001  -0.000000e+000  0.000000e+000
    outer loop
      vertex  0.000000e+000  6.384181e+000 -3.441282e+001
      vertex  0.000000e+000 -6.384181e+000 -3.441282e+001
      vertex  0.000000e+000  0.000000e+000 -3.500000e+001
    endloop
  endfacet
  facet normal  0.000000e+000  0.000000e+000  1.000000e+000
    outer loop
      vertex -3.000000e+000 -3.357067e+001 -9.900000e+000
      vertex  0.000000e+000 -3.357067e+001 -9.900000e+000
      vertex -3.000000e+000  3.357067e+001 -9.900000e+000
    endloop
  endfacet
  facet normal  -0.000000e+000  0.000000e+000  1.000000e+000
    outer loop
      vertex -3.000000e+000  3.357067e+001 -9.900000e+000
      vertex  0.000000e+000 -3.357067e+001 -9.900000e+000
      vertex  0.000000e+000  3.357067e+001 -9.900000e+000
    endloop
  endfacet
  facet normal -9.999999e-001  0.000000e+000  0.000000e+000
    outer loop
      vertex -3.000000e+000  0.000000e+000 -3.500000e+001
      vertex -3.000000e+000 -6.384181e+000 -3.441282e+001
      vertex -3.000000e+000  6.384181e+000 -3.441282e+001
    endloop
  endfacet
  facet normal -1.000000e+000  0.000000e+000  0.000000e+000
    outer loop
      vertex -3.000000e+000  6.384181e+000 -3.441282e+001
      vertex -3.000000e+000 -6.384181e+000 -3.441282e+001
      vertex -3.000000e+000 -1.255415e+001 -3.267099e+001
    endloop
  endfacet
  facet normal -1.000000e+000  0.000000e+000  0.000000e+000
    outer loop
      vertex -3.000000e+000  6.384181e+000 -3.441282e+001
      vertex -3.000000e+000 -1.255415e+001 -3.267099e+001
      vertex -3.000000e+000  1.255415e+001 -3.267099e+001
    endloop
  endfacet
  facet normal -1.000000e+000  0.000000e+000  0.000000e+000
    outer loop
      vertex -3.000000e+000  1.255415e+001 -3.267099e+001
      vertex -3.000000e+000 -1.255415e+001 -3.267099e+001
      vertex -3.000000e+000 -1.830289e+001 -2.983294e+001
    endloop
  endfacet
  facet normal -1.000000e+000  0.000000e+000  0.000000e+000
    outer loop
      vertex -3.000000e+000  1.255415e+001 -3.267099e+001
      vertex -3.000000e+000 -1.830289e+001 -2.983294e+001
      vertex -3.000000e+000  1.830289e+001 -2.983294e+001
    endloop
  endfacet
  facet normal -1.000000e+000  0.000000e+000  0.000000e+000
    outer loop
      vertex -3.000000e+000  1.830289e+001 -2.983294e+001
      vertex -3.000000e+000 -1.830289e+001 -2.983294e+001
      vertex -3.000000e+000 -2.343752e+001 -2.599390e+001
    endloop
  endfacet
  facet normal -1.000000e+000  0.000000e+000  0.000000e+000
    outer loop
      vertex -3.000000e+000  1.830289e+001 -2.983294e+001
      vertex -3.000000e+000 -2.343752e+001 -2.599390e+001
      vertex -3.000000e+000  2.343752e+001 -2.599390e+001
    endloop
  endfacet
  facet normal -9.999999e-001  0.000000e+000  0.000000e+000
    outer loop
      vertex -3.000000e+000  2.343752e+001 -2.599390e+001
      vertex -3.000000e+000 -2.343752e+001 -2.599390e+001
      vertex -3.000000e+000 -2.778574e+001 -2.128269e+001
    endloop
  endfacet
  facet normal -1.000000e+000  0.000000e+000  0.000000e+000
    outer loop
      vertex -3.000000e+000  2.343752e+001 -2.599390e+001
      vertex -3.000000e+000 -2.778574e+001 -2.128269e+001
      vertex -3.000000e+000  2.778574e+001 -2.128269e+001
    endloop
  endfacet
  facet normal -1.000000e+000  0.000000e+000  0.000000e+000
    outer loop
      vertex -3.000000e+000  2.778574e+001 -2.128269e+001
      vertex -3.000000e+000 -2.778574e+001 -2.128269e+001
      vertex -3.000000e+000 -3.120166e+001 -1.585738e+001
    endloop
  endfacet
  facet normal -9.999999e-001  0.000000e+000  0.000000e+000
    outer loop
      vertex -3.000000e+000  2.778574e+001 -2.128269e+001
      vertex -3.000000e+000 -3.120166e+001 -1.585738e+001
      vertex -3.000000e+000  3.120166e+001 -1.585738e+001
    endloop
  endfacet
  facet normal -9.999999e-001  0.000000e+000  0.000000e+000
    outer loop
      vertex -3.000000e+000  3.120166e+001 -1.585738e+001
      vertex -3.000000e+000 -3.120166e+001 -1.585738e+001
      vertex -3.000000e+000 -3.357067e+001 -9.900000e+000
    endloop
  endfacet
  facet normal -1.000000e+000  0.000000e+000  0.000000e+000
    outer loop
      vertex -3.000000e+000  3.120166e+001 -1.585738e+001
      vertex -3.000000e+000 -3.357067e+001 -9.900000e+000
      vertex -3.000000e+000  3.357067e+001 -9.900000e+000
    endloop
  endfacet
  facet normal  0.000000e+000  9.292245e-001 -3.695155e-001
    outer loop
      vertex -3.000000e+000  3.357067e+001 -9.900000e+000
      vertex  0.000000e+000  3.357067e+001 -9.900000e+000
      vertex -3.000000e+000  3.120166e+001 -1.585738e+001
    endloop
  endfacet
  facet normal  0.000000e+000  9.292245e-001 -3.695155e-001
    outer loop
      vertex -3.000000e+000  3.120166e+001 -1.585738e+001
      vertex  0.000000e+000  3.357067e+001 -9.900000e+000
      vertex  0.000000e+000  3.120166e+001 -1.585738e+001
    endloop
  endfacet
  facet normal  0.000000e+000  8.462339e-001 -5.328116e-001
    outer loop
      vertex -3.000000e+000  3.120166e+001 -1.585738e+001
      vertex  0.000000e+000  3.120166e+001 -1.585738e+001
      vertex -3.000000e+000  2.778574e+001 -2.128269e+001
    endloop
  endfacet
  facet normal  0.000000e+000  8.462339e-001 -5.328116e-001
    outer loop
      vertex -3.000000e+000  2.778574e+001 -2.128269e+001
      vertex  0.000000e+000  3.120166e+001 -1.585738e+001
      vertex  0.000000e+000  2.778574e+001 -2.128269e+001
    endloop
  endfacet
  facet normal  0.000000e+000  7.348492e-001 -6.782306e-001
    outer loop
      vertex -3.000000e+000  2.778574e+001 -2.128269e+001
      vertex  0.000000e+000  2.778574e+001 -2.128269e+001
      vertex -3.000000e+000  2.343752e+001 -2.599390e+001
    endloop
  endfacet
  facet normal  0.000000e+000  7.348492e-001 -6.782306e-001
    outer loop
      vertex -3.000000e+000  2.343752e+001 -2.599390e+001
      vertex  0.000000e+000  2.778574e+001 -2.128269e+001
      vertex  0.000000e+000  2.343752e+001 -2.599390e+001
    endloop
  endfacet
  facet normal  0.000000e+000  5.988084e-001 -8.008924e-001
    outer loop
      vertex -3.000000e+000  2.343752e+001 -2.599390e+001
      vertex  0.000000e+000  2.343752e+001 -2.599390e+001
      vertex -3.000000e+000  1.830289e+001 -2.983294e+001
    endloop
  endfacet
  facet normal  0.000000e+000  5.988084e-001 -8.008924e-001
    outer loop
      vertex -3.000000e+000  1.830289e+001 -2.983294e+001
      vertex  0.000000e+000  2.343752e+001 -2.599390e+001
      vertex  0.000000e+000  1.830289e+001 -2.983294e+001
    endloop
  endfacet
  facet normal  0.000000e+000  4.426757e-001 -8.966818e-001
    outer loop
      vertex -3.000000e+000  1.830289e+001 -2.983294e+001
      vertex  0.000000e+000  1.830289e+001 -2.983294e+001
      vertex -3.000000e+000  1.255415e+001 -3.267099e+001
    endloop
  endfacet
  facet normal  0.000000e+000  4.426757e-001 -8.966818e-001
    outer loop
      vertex -3.000000e+000  1.255415e+001 -3.267099e+001
      vertex  0.000000e+000  1.830289e+001 -2.983294e+001
      vertex  0.000000e+000  1.255415e+001 -3.267099e+001
    endloop
  endfacet
  facet normal  0.000000e+000  2.716891e-001 -9.623851e-001
    outer loop
      vertex -3.000000e+000  1.255415e+001 -3.267099e+001
      vertex  0.000000e+000  1.255415e+001 -3.267099e+001
      vertex -3.000000e+000  6.384181e+000 -3.441282e+001
    endloop
  endfacet
  facet normal  0.000000e+000  2.716891e-001 -9.623851e-001
    outer loop
      vertex -3.000000e+000  6.384181e+000 -3.441282e+001
      vertex  0.000000e+000  1.255415e+001 -3.267099e+001
      vertex  0.000000e+000  6.384181e+000 -3.441282e+001
    endloop
  endfacet
  facet normal  0.000000e+000  9.158782e-002 -9.957970e-001
    outer loop
      vertex -3.000000e+000  6.384181e+000 -3.441282e+001
      vertex  0.000000e+000  6.384181e+000 -3.441282e+001
      vertex -3.000000e+000  0.000000e+000 -3.500000e+001
    endloop
  endfacet
  facet normal  0.000000e+000  9.158782e-002 -9.957970e-001
    outer loop
      vertex -3.000000e+000  0.000000e+000 -3.500000e+001
      vertex  0.000000e+000  6.384181e+000 -3.441282e+001
      vertex  0.000000e+000  0.000000e+000 -3.500000e+001
    endloop
  endfacet
  facet normal  -0.000000e+000 -9.158782e-002 -9.957970e-001
    outer loop
      vertex -3.000000e+000  0.000000e+000 -3.500000e+001
      vertex  0.000000e+000  0.000000e+000 -3.500000e+001
      vertex -3.000000e+000 -6.384181e+000 -3.441282e+001
    endloop
  endfacet
  facet normal  0.000000e+000 -9.158782e-002 -9.957970e-001
    outer loop
      vertex -3.000000e+000 -6.384181e+000 -3.441282e+001
      vertex  0.000000e+000  0.000000e+000 -3.500000e+001
      vertex  0.000000e+000 -6.384181e+000 -3.441282e+001
    endloop
  endfacet
  facet normal  -0.000000e+000 -2.716891e-001 -9.623851e-001
    outer loop
      vertex -3.000000e+000 -6.384181e+000 -3.441282e+001
      vertex  0.000000e+000 -6.384181e+000 -3.441282e+001
      vertex -3.000000e+000 -1.255415e+001 -3.267099e+001
    endloop
  endfacet
  facet normal  0.000000e+000 -2.716891e-001 -9.623851e-001
    outer loop
      vertex -3.000000e+000 -1.255415e+001 -3.267099e+001
      vertex  0.000000e+000 -6.384181e+000 -3.441282e+001
      vertex  0.000000e+000 -1.255415e+001 -3.267099e+001
    endloop
  endfacet
  facet normal  -0.000000e+000 -4.426757e-001 -8.966818e-001
    outer loop
      vertex -3.000000e+000 -1.255415e+001 -3.267099e+001
      vertex  0.000000e+000 -1.255415e+001 -3.267099e+001
      vertex -3.000000e+000 -1.830289e+001 -2.983294e+001
    endloop
  endfacet
  facet normal  0.000000e+000 -4.426757e-001 -8.966818e-001
    outer loop
      vertex -3.000000e+000 -1.830289e+001 -2.983294e+001
      vertex  0.000000e+000 -1.255415e+001 -3.267099e+001
      vertex  0.000000e+000 -1.830289e+001 -2.983294e+001
    endloop
  endfacet
  facet normal  -0.000000e+000 -5.988084e-001 -8.008924e-001
    outer loop
      vertex -3.000000e+000 -1.830289e+001 -2.983294e+001
      vertex  0.000000e+000 -1.830289e+001 -2.983294e+001
      vertex -3.000000e+000 -2.343752e+001 -2.599390e+001
    endloop
  endfacet
  facet normal  0.000000e+000 -5.988084e-001 -8.008924e-001
    outer loop
      vertex -3.000000e+000 -2.343752e+001 -2.599390e+001
      vertex  0.000000e+000 -1.830289e+001 -2.983294e+001
      vertex  0.000000e+000 -2.343752e+001 -2.599390e+001
    endloop
  endfacet
  facet normal  -0.000000e+000 -7.348492e-001 -6.782306e-001
    outer loop
      vertex -3.000000e+000 -2.343752e+001 -2.599390e+001
      vertex  0.000000e+000 -2.343752e+001 -2.599390e+001
      vertex -3.000000e+000 -2.778574e+001 -2.128269e+001
    endloop
  endfacet
  facet normal  0.000000e+000 -7.348492e-001 -6.782306e-001
    outer loop
      vertex -3.000000e+000 -2.778574e+001 -2.128269e+001
      vertex  0.000000e+000 -2.343752e+001 -2.599390e+001
      vertex  0.000000e+000 -2.778574e+001 -2.128269e+001
    endloop
  endfacet
  facet normal  -0.000000e+000 -8.462339e-001 -5.328116e-001
    outer loop
      vertex -3.000000e+000 -2.778574e+001 -2.128269e+001
      vertex  0.000000e+000 -2.778574e+001 -2.128269e+001
      vertex -3.000000e+000 -3.120166e+001 -1.585738e+001
    endloop
  endfacet
  facet normal  0.000000e+000 -8.462339e-001 -5.328116e-001
    outer loop
      vertex -3.000000e+000 -3.120166e+001 -1.585738e+001
      vertex  0.000000e+000 -2.778574e+001 -2.128269e+001
      vertex  0.000000e+000 -3.120166e+001 -1.585738e+001
    endloop
  endfacet
  facet normal  -0.000000e+000 -9.292245e-001 -3.695155e-001
    outer loop
      vertex -3.000000e+000 -3.120166e+001 -1.585738e+001
      vertex  0.000000e+000 -3.120166e+001 -1.585738e+001
      vertex -3.000000e+000 -3.357067e+001 -9.900000e+000
    endloop
  endfacet
  facet normal  0.000000e+000 -9.292245e-001 -3.695155e-001
    outer loop
      vertex -3.000000e+000 -3.357067e+001 -9.900000e+000
      vertex  0.000000e+000 -3.120166e+001 -1.585738e+001
      vertex  0.000000e+000 -3.357067e+001 -9.900000e+000
    endloop
  endfacet
endsolid CATIA STL
